<svg width="136" height="128" viewBox="0 0 136 128" fill="none" xmlns="http://www.w3.org/2000/svg">
<g filter="url(#filter0_ii_785_1346)">
<circle cx="67.9707" cy="64" r="64" fill="url(#paint0_radial_785_1346)"/>
</g>
<g filter="url(#filter1_i_785_1346)">
<circle cx="67.9707" cy="64" r="62.9725" stroke="url(#paint1_radial_785_1346)" stroke-width="2.05502"/>
</g>
<g clip-path="url(#clip0_785_1346)">
<path fill-rule="evenodd" clip-rule="evenodd" d="M72.5709 113.35C72.5709 113.35 75.3992 112.539 76.0476 107.671C76.0476 107.671 72.3976 110.141 72.5709 113.35Z" fill="url(#paint2_linear_785_1346)"/>
<path fill-rule="evenodd" clip-rule="evenodd" d="M72.7437 114.06C72.7437 114.06 73.5541 116.888 78.4226 117.537C78.4226 117.537 75.952 113.881 72.7437 114.06Z" fill="url(#paint3_linear_785_1346)"/>
<path fill-rule="evenodd" clip-rule="evenodd" d="M81.0163 111.835C81.0163 111.835 83.6266 110.477 83.2857 105.575C83.2857 105.575 80.2002 108.728 81.0163 111.835Z" fill="url(#paint4_linear_785_1346)"/>
<path fill-rule="evenodd" clip-rule="evenodd" d="M81.3242 112.501C81.3242 112.501 82.6825 115.105 87.5845 114.77C87.5845 114.77 84.432 111.685 81.3242 112.501Z" fill="url(#paint5_linear_785_1346)"/>
<path fill-rule="evenodd" clip-rule="evenodd" d="M88.7081 108.945C88.7081 108.945 91.1283 107.274 90.1837 102.45C90.1837 102.45 87.5119 105.96 88.7081 108.945Z" fill="url(#paint6_linear_785_1346)"/>
<path fill-rule="evenodd" clip-rule="evenodd" d="M89.0991 109.566C89.0991 109.566 90.7704 111.986 95.5941 111.042C95.5941 111.042 92.0839 108.37 89.0991 109.566Z" fill="url(#paint7_linear_785_1346)"/>
<path fill-rule="evenodd" clip-rule="evenodd" d="M96.1812 104.72C96.1812 104.72 98.1599 102.54 96.1364 98.0625C96.1364 98.0625 94.3366 102.087 96.1812 104.72Z" fill="url(#paint8_linear_785_1346)"/>
<path fill-rule="evenodd" clip-rule="evenodd" d="M96.7002 105.234C96.7002 105.234 98.8801 107.207 103.357 105.184C103.357 105.184 99.3329 103.384 96.7002 105.234Z" fill="url(#paint9_linear_785_1346)"/>
<path fill-rule="evenodd" clip-rule="evenodd" d="M102.944 99.1975C102.944 99.1975 104.464 96.6766 101.619 92.6689C101.619 92.6689 100.63 96.9673 102.944 99.1975Z" fill="url(#paint10_linear_785_1346)"/>
<path fill-rule="evenodd" clip-rule="evenodd" d="M103.553 99.5994C103.553 99.5994 106.074 101.12 110.082 98.2747C110.082 98.2747 105.783 97.2853 103.553 99.5994Z" fill="url(#paint11_linear_785_1346)"/>
<path fill-rule="evenodd" clip-rule="evenodd" d="M108.623 92.4733C108.623 92.4733 109.853 89.8015 106.577 86.1348C106.577 86.1348 106.074 90.5169 108.623 92.4733Z" fill="url(#paint12_linear_785_1346)"/>
<path fill-rule="evenodd" clip-rule="evenodd" d="M109.271 92.8029C109.271 92.8029 111.943 94.0325 115.61 90.7571C115.61 90.7571 111.228 90.254 109.271 92.8029Z" fill="url(#paint13_linear_785_1346)"/>
<path fill-rule="evenodd" clip-rule="evenodd" d="M112.877 85.1896C112.877 85.1896 113.922 82.4395 110.412 79.002C110.412 79.002 110.199 83.4065 112.877 85.1896Z" fill="url(#paint14_linear_785_1346)"/>
<path fill-rule="evenodd" clip-rule="evenodd" d="M113.547 85.4748C113.547 85.4748 116.297 86.5201 119.735 83.0098C119.735 83.0098 115.33 82.7974 113.547 85.4748Z" fill="url(#paint15_linear_785_1346)"/>
<path fill-rule="evenodd" clip-rule="evenodd" d="M115.834 77.5828C115.834 77.5828 116.784 74.7992 113.145 71.4902C113.145 71.4902 113.095 75.9004 115.834 77.5828Z" fill="url(#paint16_linear_785_1346)"/>
<path fill-rule="evenodd" clip-rule="evenodd" d="M116.51 77.8449C116.51 77.8449 119.294 78.7951 122.603 75.1563C122.603 75.1563 118.193 75.106 116.51 77.8449Z" fill="url(#paint17_linear_785_1346)"/>
<path fill-rule="evenodd" clip-rule="evenodd" d="M117.522 69.6226C117.522 69.6226 118.003 66.7216 113.872 64.0498C113.872 64.0498 114.543 68.4096 117.522 69.6226Z" fill="url(#paint18_linear_785_1346)"/>
<path fill-rule="evenodd" clip-rule="evenodd" d="M118.237 69.7681C118.237 69.7681 121.138 70.2488 123.81 66.1182C123.81 66.1182 119.45 66.7889 118.237 69.7681Z" fill="url(#paint19_linear_785_1346)"/>
<path fill-rule="evenodd" clip-rule="evenodd" d="M117.757 61.1941C117.757 61.1941 117.679 58.254 113.123 56.415C113.123 56.415 114.604 60.5681 117.757 61.1941Z" fill="url(#paint20_linear_785_1346)"/>
<path fill-rule="evenodd" clip-rule="evenodd" d="M118.489 61.2057C118.489 61.2057 121.429 61.1275 123.268 56.5664C123.268 56.5664 119.115 58.0476 118.489 61.2057Z" fill="url(#paint21_linear_785_1346)"/>
<path fill-rule="evenodd" clip-rule="evenodd" d="M116.633 52.8767C116.633 52.8767 115.868 50.0372 111.01 49.3105C111.01 49.3105 113.425 52.9996 116.633 52.8767Z" fill="url(#paint22_linear_785_1346)"/>
<path fill-rule="evenodd" clip-rule="evenodd" d="M117.343 52.7146C117.343 52.7146 120.182 51.9488 120.909 47.0859C120.909 47.0859 117.22 49.5006 117.343 52.7146Z" fill="url(#paint23_linear_785_1346)"/>
<path fill-rule="evenodd" clip-rule="evenodd" d="M114.24 44.7716C114.24 44.7716 112.731 42.2452 107.857 42.8712C107.857 42.8712 111.183 45.7666 114.24 44.7716Z" fill="url(#paint24_linear_785_1346)"/>
<path fill-rule="evenodd" clip-rule="evenodd" d="M114.884 44.4203C114.884 44.4203 117.41 42.9112 116.784 38.0371C116.784 38.0371 113.889 41.3629 114.884 44.4203Z" fill="url(#paint25_linear_785_1346)"/>
<path fill-rule="evenodd" clip-rule="evenodd" d="M110.305 37.137C110.305 37.137 108.288 34.9962 103.665 36.6563C103.665 36.6563 107.539 38.7692 110.305 37.137Z" fill="url(#paint26_linear_785_1346)"/>
<path fill-rule="evenodd" clip-rule="evenodd" d="M110.854 36.6557C110.854 36.6557 112.994 34.6379 111.334 30.0098C111.334 30.0098 109.222 33.8833 110.854 36.6557Z" fill="url(#paint27_linear_785_1346)"/>
<path fill-rule="evenodd" clip-rule="evenodd" d="M105.147 30.0776C105.147 30.0776 102.715 28.4231 98.5566 31.039C98.5566 31.039 102.793 32.2631 105.147 30.0776Z" fill="url(#paint28_linear_785_1346)"/>
<path fill-rule="evenodd" clip-rule="evenodd" d="M105.582 29.4904C105.582 29.4904 107.237 27.059 104.621 22.9004C104.621 22.9004 103.397 27.1372 105.582 29.4904Z" fill="url(#paint29_linear_785_1346)"/>
<path fill-rule="evenodd" clip-rule="evenodd" d="M98.6795 24.0631C98.6795 24.0631 96.058 22.7272 92.2627 25.8518C92.2627 25.8518 96.6169 26.5337 98.6795 24.0631Z" fill="url(#paint30_linear_785_1346)"/>
<path fill-rule="evenodd" clip-rule="evenodd" d="M99.037 23.4314C99.037 23.4314 100.373 20.8099 97.2484 17.0146C97.2484 17.0146 96.5665 21.3689 99.037 23.4314Z" fill="url(#paint31_linear_785_1346)"/>
<path fill-rule="evenodd" clip-rule="evenodd" d="M91.2454 19.2223C91.2454 19.2223 88.5344 18.0876 84.9795 21.4805C84.9795 21.4805 89.3729 21.8382 91.2454 19.2223Z" fill="url(#paint32_linear_785_1346)"/>
<path fill-rule="evenodd" clip-rule="evenodd" d="M91.553 18.5627C91.553 18.5627 92.6877 15.8518 89.2948 12.2969C89.2948 12.2969 88.9371 16.6902 91.553 18.5627Z" fill="url(#paint33_linear_785_1346)"/>
<path d="M67.7529 113.875C67.7529 113.875 68.2839 113.847 69.2788 113.802C69.7763 113.774 70.3911 113.758 71.1066 113.674C71.4643 113.64 71.85 113.601 72.2636 113.562C72.4704 113.545 72.6828 113.523 72.9008 113.501C73.1188 113.467 73.3424 113.433 73.5716 113.406C74.4882 113.271 75.5111 113.143 76.6011 112.902C77.7022 112.712 78.8704 112.399 80.1225 112.086C82.6042 111.399 85.371 110.465 88.2441 109.13C91.1227 107.805 94.0963 106.066 97.014 103.926C97.763 103.417 98.4561 102.813 99.1939 102.243C99.9206 101.662 100.608 101.025 101.329 100.404C102.71 99.0963 104.09 97.7325 105.365 96.2233C105.683 95.8488 106.013 95.4799 106.326 95.0943C106.634 94.703 106.935 94.3061 107.248 93.9149L107.712 93.3224L108.148 92.7075C108.439 92.2939 108.73 91.8803 109.02 91.4667C110.127 89.7674 111.206 88.0123 112.134 86.1622C113.101 84.3288 113.9 82.4005 114.643 80.4385L115.152 78.9461C115.236 78.7002 115.325 78.4487 115.398 78.2027L115.616 77.4426L116.046 75.9278L116.404 74.3907C117.349 70.2936 117.729 66.0567 117.578 61.9261C117.555 59.8188 117.298 57.801 117.041 55.7944C116.862 54.7938 116.678 53.8045 116.499 52.8151C116.281 51.837 116.013 50.8756 115.778 49.9198C114.716 46.1133 113.246 42.5696 111.547 39.3668C109.78 36.1975 107.802 33.386 105.778 30.9489C103.699 28.5622 101.664 26.4717 99.6634 24.8452C99.166 24.4316 98.6909 24.0291 98.2269 23.6434C97.7518 23.2745 97.2711 22.9448 96.824 22.615C96.3712 22.2852 95.9352 21.9722 95.5216 21.6704C95.108 21.3685 94.6776 21.1338 94.2919 20.8766C93.5038 20.3904 92.8107 19.932 92.1903 19.5687C91.5531 19.2277 91.0165 18.9427 90.5749 18.7079C89.6973 18.2384 89.2278 17.9869 89.2278 17.9869H89.2222C89.1663 17.9477 89.144 17.8807 89.1719 17.8192C89.1999 17.7633 89.2725 17.7409 89.334 17.7689C89.334 17.7689 89.8091 18.0092 90.7034 18.4564C91.1506 18.68 91.704 18.9538 92.3524 19.278C92.9896 19.6302 93.6994 20.0662 94.5043 20.5357C94.9012 20.7816 95.3372 21.0108 95.762 21.307C96.1868 21.5977 96.6283 21.9051 97.0923 22.2293C97.5562 22.5535 98.0425 22.8777 98.5344 23.241C99.0095 23.6211 99.5014 24.0179 100.01 24.4204C102.067 26.0246 104.174 28.0927 106.326 30.4738C108.411 32.922 110.451 35.7559 112.29 38.9531C114.062 42.1895 115.599 45.7835 116.728 49.6515C116.98 50.6241 117.265 51.6022 117.5 52.5971C117.69 53.6033 117.88 54.615 118.07 55.6323C118.344 57.6892 118.606 59.8076 118.634 61.8869C118.796 66.1182 118.422 70.4333 117.472 74.631L117.108 76.2017L116.672 77.7556L116.454 78.5325C116.376 78.7896 116.287 79.0412 116.203 79.2983L115.689 80.8242C114.94 82.8308 114.124 84.804 113.14 86.682C112.201 88.5825 111.077 90.3599 109.931 92.0871C109.63 92.5119 109.328 92.9311 109.026 93.3503L108.579 93.9763L108.098 94.5744C107.779 94.9769 107.461 95.3737 107.148 95.7762C106.824 96.1674 106.483 96.5419 106.153 96.922C104.839 98.448 103.414 99.8342 101.994 101.153C101.256 101.779 100.547 102.422 99.8032 103.009C99.0486 103.585 98.3331 104.188 97.5674 104.703C94.5658 106.843 91.4804 108.515 88.5403 109.8C85.5946 111.08 82.7775 111.98 80.2455 112.589C78.971 112.858 77.7805 113.126 76.6626 113.283C75.5559 113.484 74.5218 113.579 73.5939 113.679C73.3592 113.707 73.1356 113.73 72.9176 113.752C72.694 113.769 72.4816 113.78 72.2748 113.791C71.8612 113.814 71.4699 113.836 71.1066 113.858C70.3855 113.909 69.7707 113.897 69.2676 113.897C68.2727 113.897 67.7417 113.897 67.7417 113.897L67.7529 113.875Z" fill="url(#paint34_linear_785_1346)"/>
<path fill-rule="evenodd" clip-rule="evenodd" d="M64.5819 113.35C64.5819 113.35 61.7536 112.539 61.1052 107.671C61.1052 107.671 64.7552 110.141 64.5819 113.35Z" fill="url(#paint35_linear_785_1346)"/>
<path fill-rule="evenodd" clip-rule="evenodd" d="M64.4092 114.06C64.4092 114.06 63.5987 116.888 58.7302 117.537C58.7302 117.537 61.2008 113.881 64.4092 114.06Z" fill="url(#paint36_linear_785_1346)"/>
<path fill-rule="evenodd" clip-rule="evenodd" d="M56.1365 111.835C56.1365 111.835 53.5262 110.477 53.8672 105.575C53.8672 105.575 56.9526 108.728 56.1365 111.835Z" fill="url(#paint37_linear_785_1346)"/>
<path fill-rule="evenodd" clip-rule="evenodd" d="M55.8286 112.501C55.8286 112.501 54.4704 115.105 49.5684 114.77C49.5684 114.77 52.7208 111.685 55.8286 112.501Z" fill="url(#paint38_linear_785_1346)"/>
<path fill-rule="evenodd" clip-rule="evenodd" d="M48.4448 108.945C48.4448 108.945 46.0245 107.274 46.9691 102.45C46.9691 102.45 49.6409 105.96 48.4448 108.945Z" fill="url(#paint39_linear_785_1346)"/>
<path fill-rule="evenodd" clip-rule="evenodd" d="M48.0537 109.566C48.0537 109.566 46.3824 111.986 41.5587 111.042C41.5587 111.042 45.0689 108.37 48.0537 109.566Z" fill="url(#paint40_linear_785_1346)"/>
<path fill-rule="evenodd" clip-rule="evenodd" d="M40.9717 104.72C40.9717 104.72 38.993 102.54 41.0164 98.0625C41.0164 98.0625 42.8162 102.087 40.9717 104.72Z" fill="url(#paint41_linear_785_1346)"/>
<path fill-rule="evenodd" clip-rule="evenodd" d="M40.4526 105.234C40.4526 105.234 38.2727 107.207 33.7955 105.184C33.7955 105.184 37.82 103.384 40.4526 105.234Z" fill="url(#paint42_linear_785_1346)"/>
<path fill-rule="evenodd" clip-rule="evenodd" d="M34.2087 99.1975C34.2087 99.1975 32.6884 96.6766 35.5335 92.6689C35.5335 92.6689 36.5228 96.9673 34.2087 99.1975Z" fill="url(#paint43_linear_785_1346)"/>
<path fill-rule="evenodd" clip-rule="evenodd" d="M33.5996 99.5994C33.5996 99.5994 31.0787 101.12 27.0711 98.2747C27.0711 98.2747 31.3694 97.2853 33.5996 99.5994Z" fill="url(#paint44_linear_785_1346)"/>
<path fill-rule="evenodd" clip-rule="evenodd" d="M28.5297 92.4733C28.5297 92.4733 27.3 89.8015 30.5754 86.1348C30.5754 86.1348 31.0785 90.5169 28.5297 92.4733Z" fill="url(#paint45_linear_785_1346)"/>
<path fill-rule="evenodd" clip-rule="evenodd" d="M27.8813 92.8029C27.8813 92.8029 25.2096 94.0325 21.5428 90.7571C21.5428 90.7571 25.925 90.254 27.8813 92.8029Z" fill="url(#paint46_linear_785_1346)"/>
<path fill-rule="evenodd" clip-rule="evenodd" d="M24.2762 85.1896C24.2762 85.1896 23.2309 82.4395 26.7411 79.002C26.7411 79.002 26.9535 83.4065 24.2762 85.1896Z" fill="url(#paint47_linear_785_1346)"/>
<path fill-rule="evenodd" clip-rule="evenodd" d="M23.6055 85.4748C23.6055 85.4748 20.8554 86.5201 17.4179 83.0098C17.4179 83.0098 21.8224 82.7974 23.6055 85.4748Z" fill="url(#paint48_linear_785_1346)"/>
<path fill-rule="evenodd" clip-rule="evenodd" d="M21.3192 77.5828C21.3192 77.5828 20.369 74.7992 24.0077 71.4902C24.0077 71.4902 24.0581 75.9004 21.3192 77.5828Z" fill="url(#paint49_linear_785_1346)"/>
<path fill-rule="evenodd" clip-rule="evenodd" d="M20.6426 77.8449C20.6426 77.8449 17.859 78.7951 14.55 75.1563C14.55 75.1563 18.9601 75.106 20.6426 77.8449Z" fill="url(#paint50_linear_785_1346)"/>
<path fill-rule="evenodd" clip-rule="evenodd" d="M19.6308 69.6226C19.6308 69.6226 19.1501 66.7216 23.2808 64.0498C23.2808 64.0498 22.61 68.4096 19.6308 69.6226Z" fill="url(#paint51_linear_785_1346)"/>
<path fill-rule="evenodd" clip-rule="evenodd" d="M18.9155 69.7681C18.9155 69.7681 16.0146 70.2488 13.3428 66.1182C13.3428 66.1182 17.7026 66.7889 18.9155 69.7681Z" fill="url(#paint52_linear_785_1346)"/>
<path fill-rule="evenodd" clip-rule="evenodd" d="M19.3961 61.1941C19.3961 61.1941 19.4743 58.254 24.0298 56.415C24.0298 56.415 22.5486 60.5681 19.3961 61.1941Z" fill="url(#paint53_linear_785_1346)"/>
<path fill-rule="evenodd" clip-rule="evenodd" d="M18.6641 61.2057C18.6641 61.2057 15.724 61.1275 13.885 56.5664C13.885 56.5664 18.038 58.0476 18.6641 61.2057Z" fill="url(#paint54_linear_785_1346)"/>
<path fill-rule="evenodd" clip-rule="evenodd" d="M20.5195 52.8767C20.5195 52.8767 21.2853 50.0372 26.1426 49.3105C26.1426 49.3105 23.7279 52.9996 20.5195 52.8767Z" fill="url(#paint55_linear_785_1346)"/>
<path fill-rule="evenodd" clip-rule="evenodd" d="M19.81 52.7146C19.81 52.7146 16.9705 51.9488 16.2439 47.0859C16.2439 47.0859 19.933 49.5006 19.81 52.7146Z" fill="url(#paint56_linear_785_1346)"/>
<path fill-rule="evenodd" clip-rule="evenodd" d="M22.9127 44.7716C22.9127 44.7716 24.4218 42.2452 29.2959 42.8712C29.2959 42.8712 25.9701 45.7666 22.9127 44.7716Z" fill="url(#paint57_linear_785_1346)"/>
<path fill-rule="evenodd" clip-rule="evenodd" d="M22.2689 44.4203C22.2689 44.4203 19.7425 42.9112 20.3685 38.0371C20.3685 38.0371 23.2639 41.3629 22.2689 44.4203Z" fill="url(#paint58_linear_785_1346)"/>
<path fill-rule="evenodd" clip-rule="evenodd" d="M26.8474 37.137C26.8474 37.137 28.8653 34.9962 33.4878 36.6563C33.4878 36.6563 29.6143 38.7692 26.8474 37.137Z" fill="url(#paint59_linear_785_1346)"/>
<path fill-rule="evenodd" clip-rule="evenodd" d="M26.2992 36.6557C26.2992 36.6557 24.1584 34.6379 25.8185 30.0098C25.8185 30.0098 27.9313 33.8833 26.2992 36.6557Z" fill="url(#paint60_linear_785_1346)"/>
<path fill-rule="evenodd" clip-rule="evenodd" d="M32.0061 30.0776C32.0061 30.0776 34.4376 28.4231 38.5962 31.039C38.5962 31.039 34.3593 32.2631 32.0061 30.0776Z" fill="url(#paint61_linear_785_1346)"/>
<path fill-rule="evenodd" clip-rule="evenodd" d="M31.5704 29.4904C31.5704 29.4904 29.9159 27.059 32.5318 22.9004C32.5318 22.9004 33.7559 27.1372 31.5704 29.4904Z" fill="url(#paint62_linear_785_1346)"/>
<path fill-rule="evenodd" clip-rule="evenodd" d="M38.4734 24.0631C38.4734 24.0631 41.0949 22.7272 44.8901 25.8518C44.8901 25.8518 40.5359 26.5337 38.4734 24.0631Z" fill="url(#paint63_linear_785_1346)"/>
<path fill-rule="evenodd" clip-rule="evenodd" d="M38.1158 23.4314C38.1158 23.4314 36.7799 20.8099 39.9045 17.0146C39.9045 17.0146 40.5864 21.3689 38.1158 23.4314Z" fill="url(#paint64_linear_785_1346)"/>
<path fill-rule="evenodd" clip-rule="evenodd" d="M45.9075 19.2223C45.9075 19.2223 48.6184 18.0876 52.1733 21.4805C52.1733 21.4805 47.78 21.8382 45.9075 19.2223Z" fill="url(#paint65_linear_785_1346)"/>
<path fill-rule="evenodd" clip-rule="evenodd" d="M45.5998 18.5627C45.5998 18.5627 44.4652 15.8518 47.858 12.2969C47.858 12.2969 48.2157 16.6902 45.5998 18.5627Z" fill="url(#paint66_linear_785_1346)"/>
<path d="M69.4004 113.875C69.4004 113.875 68.8694 113.847 67.8745 113.802C67.377 113.774 66.7622 113.758 66.0467 113.674C65.689 113.64 65.3033 113.601 64.8897 113.562C64.6829 113.545 64.4705 113.523 64.2525 113.501C64.0345 113.467 63.8109 113.433 63.5818 113.406C62.6651 113.271 61.6422 113.143 60.5522 112.902C59.4511 112.712 58.2829 112.399 57.0308 112.086C54.5491 111.399 51.7823 110.465 48.9093 109.13C46.0307 107.805 43.057 106.066 40.1393 103.926C39.3903 103.417 38.6972 102.813 37.9594 102.243C37.2328 101.662 36.5452 101.025 35.8242 100.404C34.4436 99.0963 33.063 97.7325 31.7886 96.2233C31.47 95.8488 31.1402 95.4799 30.8272 95.0943C30.5197 94.703 30.2179 94.3061 29.9049 93.9149L29.441 93.3224L29.005 92.7075C28.7143 92.2939 28.4237 91.8803 28.133 91.4667C27.0263 89.7674 25.9475 88.0123 25.0197 86.1622C24.0527 84.3288 23.2534 82.4005 22.51 80.4385L22.0013 78.9461C21.9175 78.7002 21.828 78.4487 21.7554 78.2027L21.5374 77.4426L21.107 75.9278L20.7493 74.3907C19.8046 70.2936 19.4245 66.0567 19.5755 61.9261C19.5978 59.8188 19.8549 57.801 20.1121 55.7944C20.2909 54.7938 20.4754 53.8045 20.6542 52.8151C20.8722 51.837 21.1405 50.8756 21.3753 49.9198C22.4373 46.1133 23.9073 42.5696 25.6066 39.3668C27.3728 36.1975 29.3515 33.386 31.3749 30.9489C33.4542 28.5622 35.4888 26.4717 37.4899 24.8452C37.9873 24.4316 38.4624 24.0291 38.9264 23.6434C39.4015 23.2745 39.8822 22.9448 40.3294 22.615C40.7821 22.2852 41.2181 21.9722 41.6317 21.6704C42.0453 21.3685 42.4757 21.1338 42.8614 20.8766C43.6495 20.3904 44.3426 19.932 44.9631 19.5687C45.6003 19.2277 46.1369 18.9427 46.5784 18.7079C47.456 18.2384 47.9255 17.9869 47.9255 17.9869H47.9311C47.987 17.9477 48.0094 17.8807 47.9814 17.8192C47.9535 17.7633 47.8808 17.7409 47.8193 17.7689C47.8193 17.7689 47.3442 18.0092 46.4499 18.4564C46.0027 18.68 45.4494 18.9538 44.801 19.278C44.1638 19.6302 43.4539 20.0662 42.649 20.5357C42.2521 20.7816 41.8162 21.0108 41.3914 21.307C40.9666 21.5977 40.525 21.9051 40.0611 22.2293C39.5971 22.5535 39.1108 22.8777 38.619 23.241C38.1439 23.6211 37.652 24.0179 37.1433 24.4204C35.0864 26.0246 32.9791 28.0927 30.8272 30.4738C28.7423 32.922 26.7021 35.7559 24.8632 38.9531C23.0913 42.1895 21.5542 45.7835 20.4251 49.6515C20.1735 50.6241 19.8885 51.6022 19.6537 52.5971C19.4637 53.6033 19.2736 54.615 19.0836 55.6323C18.8097 57.6892 18.547 59.8076 18.519 61.8869C18.357 66.1182 18.7314 70.4333 19.6817 74.631L20.045 76.2017L20.481 77.7556L20.699 78.5325C20.7772 78.7896 20.8666 79.0412 20.9505 79.2983L21.4647 80.8242C22.2137 82.8308 23.0298 84.804 24.0135 86.682C24.9526 88.5825 26.0761 90.3599 27.2219 92.0871C27.5238 92.5119 27.8256 92.9311 28.1274 93.3503L28.5746 93.9763L29.0553 94.5744C29.3739 94.9769 29.6925 95.3737 30.0055 95.7762C30.3297 96.1674 30.6707 96.5419 31.0004 96.922C32.314 98.448 33.7393 99.8342 35.159 101.153C35.8969 101.779 36.6067 102.422 37.3501 103.009C38.1047 103.585 38.8202 104.188 39.5859 104.703C42.5875 106.843 45.6729 108.515 48.613 109.8C51.5587 111.08 54.3758 111.98 56.9079 112.589C58.1823 112.858 59.3728 113.126 60.4907 113.283C61.5975 113.484 62.6315 113.579 63.5594 113.679C63.7942 113.707 64.0177 113.73 64.2357 113.752C64.4593 113.769 64.6717 113.78 64.8785 113.791C65.2921 113.814 65.6834 113.836 66.0467 113.858C66.7678 113.909 67.3826 113.897 67.8857 113.897C68.8806 113.897 69.4116 113.897 69.4116 113.897L69.4004 113.875Z" fill="url(#paint67_linear_785_1346)"/>
</g>
<g clip-path="url(#clip1_785_1346)">
<path d="M64.3094 19.3402L67.8644 17.2274L71.4193 19.3346L70.5138 15.299L73.6216 12.5657L69.5021 12.1801L67.8588 8.38477L66.221 12.1801L62.1016 12.5713L65.2093 15.299L64.3094 19.3402Z" fill="url(#paint68_linear_785_1346)"/>
</g>
<defs>
<filter id="filter0_ii_785_1346" x="3.9707" y="0" width="128" height="128" filterUnits="userSpaceOnUse" color-interpolation-filters="sRGB">
<feFlood flood-opacity="0" result="BackgroundImageFix"/>
<feBlend mode="normal" in="SourceGraphic" in2="BackgroundImageFix" result="shape"/>
<feColorMatrix in="SourceAlpha" type="matrix" values="0 0 0 0 0 0 0 0 0 0 0 0 0 0 0 0 0 0 127 0" result="hardAlpha"/>
<feOffset/>
<feGaussianBlur stdDeviation="5.95955"/>
<feComposite in2="hardAlpha" operator="arithmetic" k2="-1" k3="1"/>
<feColorMatrix type="matrix" values="0 0 0 0 0 0 0 0 0 0 0 0 0 0 0 0 0 0 1 0"/>
<feBlend mode="normal" in2="shape" result="effect1_innerShadow_785_1346"/>
<feColorMatrix in="SourceAlpha" type="matrix" values="0 0 0 0 0 0 0 0 0 0 0 0 0 0 0 0 0 0 127 0" result="hardAlpha"/>
<feOffset/>
<feGaussianBlur stdDeviation="5.95955"/>
<feComposite in2="hardAlpha" operator="arithmetic" k2="-1" k3="1"/>
<feColorMatrix type="matrix" values="0 0 0 0 0 0 0 0 0 0 0 0 0 0 0 0 0 0 1 0"/>
<feBlend mode="normal" in2="effect1_innerShadow_785_1346" result="effect2_innerShadow_785_1346"/>
</filter>
<filter id="filter1_i_785_1346" x="3.9707" y="0" width="128" height="129.644" filterUnits="userSpaceOnUse" color-interpolation-filters="sRGB">
<feFlood flood-opacity="0" result="BackgroundImageFix"/>
<feBlend mode="normal" in="SourceGraphic" in2="BackgroundImageFix" result="shape"/>
<feColorMatrix in="SourceAlpha" type="matrix" values="0 0 0 0 0 0 0 0 0 0 0 0 0 0 0 0 0 0 127 0" result="hardAlpha"/>
<feOffset dy="1.64401"/>
<feGaussianBlur stdDeviation="0.822006"/>
<feComposite in2="hardAlpha" operator="arithmetic" k2="-1" k3="1"/>
<feColorMatrix type="matrix" values="0 0 0 0 0 0 0 0 0 0 0 0 0 0 0 0 0 0 0.25 0"/>
<feBlend mode="normal" in2="shape" result="effect1_innerShadow_785_1346"/>
</filter>
<radialGradient id="paint0_radial_785_1346" cx="0" cy="0" r="1" gradientUnits="userSpaceOnUse" gradientTransform="translate(72.7448 66.6794) rotate(-45) scale(122.647 131.073)">
<stop stop-color="#AB804C"/>
<stop offset="1" stop-color="#6F212E"/>
</radialGradient>
<radialGradient id="paint1_radial_785_1346" cx="0" cy="0" r="1" gradientUnits="userSpaceOnUse" gradientTransform="translate(72.7448 66.6794) rotate(-45) scale(122.647 131.073)">
<stop stop-color="#6F212E"/>
<stop offset="1" stop-color="#FFBF73"/>
</radialGradient>
<linearGradient id="paint2_linear_785_1346" x1="74.2976" y1="107.685" x2="74.2976" y2="112.422" gradientUnits="userSpaceOnUse">
<stop stop-color="#EDEDED"/>
<stop offset="1" stop-color="#6B6B6B"/>
</linearGradient>
<linearGradient id="paint3_linear_785_1346" x1="75.569" y1="114.062" x2="75.569" y2="116.968" gradientUnits="userSpaceOnUse">
<stop stop-color="#EDEDED"/>
<stop offset="1" stop-color="#6B6B6B"/>
</linearGradient>
<linearGradient id="paint4_linear_785_1346" x1="82.0916" y1="105.591" x2="82.0916" y2="110.812" gradientUnits="userSpaceOnUse">
<stop stop-color="#EDEDED"/>
<stop offset="1" stop-color="#6B6B6B"/>
</linearGradient>
<linearGradient id="paint5_linear_785_1346" x1="84.4388" y1="112.369" x2="84.4388" y2="114.402" gradientUnits="userSpaceOnUse">
<stop stop-color="#EDEDED"/>
<stop offset="1" stop-color="#6B6B6B"/>
</linearGradient>
<linearGradient id="paint6_linear_785_1346" x1="89.3962" y1="102.466" x2="89.3962" y2="107.884" gradientUnits="userSpaceOnUse">
<stop stop-color="#EDEDED"/>
<stop offset="1" stop-color="#6B6B6B"/>
</linearGradient>
<linearGradient id="paint7_linear_785_1346" x1="92.3305" y1="109.263" x2="92.3305" y2="110.933" gradientUnits="userSpaceOnUse">
<stop stop-color="#EDEDED"/>
<stop offset="1" stop-color="#6B6B6B"/>
</linearGradient>
<linearGradient id="paint8_linear_785_1346" x1="96.1943" y1="98.0791" x2="96.1943" y2="103.632" gradientUnits="userSpaceOnUse">
<stop stop-color="#EDEDED"/>
<stop offset="1" stop-color="#6B6B6B"/>
</linearGradient>
<linearGradient id="paint9_linear_785_1346" x1="100.012" y1="104.403" x2="100.012" y2="105.819" gradientUnits="userSpaceOnUse">
<stop stop-color="#EDEDED"/>
<stop offset="1" stop-color="#6B6B6B"/>
</linearGradient>
<linearGradient id="paint10_linear_785_1346" x1="102.375" y1="92.6852" x2="102.375" y2="98.1306" gradientUnits="userSpaceOnUse">
<stop stop-color="#EDEDED"/>
<stop offset="1" stop-color="#6B6B6B"/>
</linearGradient>
<linearGradient id="paint11_linear_785_1346" x1="106.801" y1="98.0693" x2="106.801" y2="99.688" gradientUnits="userSpaceOnUse">
<stop stop-color="#EDEDED"/>
<stop offset="1" stop-color="#6B6B6B"/>
</linearGradient>
<linearGradient id="paint12_linear_785_1346" x1="107.687" y1="86.1506" x2="107.687" y2="91.4374" gradientUnits="userSpaceOnUse">
<stop stop-color="#EDEDED"/>
<stop offset="1" stop-color="#6B6B6B"/>
</linearGradient>
<linearGradient id="paint13_linear_785_1346" x1="112.425" y1="90.7226" x2="112.425" y2="92.6511" gradientUnits="userSpaceOnUse">
<stop stop-color="#EDEDED"/>
<stop offset="1" stop-color="#6B6B6B"/>
</linearGradient>
<linearGradient id="paint14_linear_785_1346" x1="111.709" y1="79.0174" x2="111.709" y2="84.1784" gradientUnits="userSpaceOnUse">
<stop stop-color="#EDEDED"/>
<stop offset="1" stop-color="#6B6B6B"/>
</linearGradient>
<linearGradient id="paint15_linear_785_1346" x1="116.626" y1="83.0124" x2="116.626" y2="85.1932" gradientUnits="userSpaceOnUse">
<stop stop-color="#EDEDED"/>
<stop offset="1" stop-color="#6B6B6B"/>
</linearGradient>
<linearGradient id="paint16_linear_785_1346" x1="114.538" y1="71.5054" x2="114.538" y2="76.5872" gradientUnits="userSpaceOnUse">
<stop stop-color="#EDEDED"/>
<stop offset="1" stop-color="#6B6B6B"/>
</linearGradient>
<linearGradient id="paint17_linear_785_1346" x1="119.541" y1="75.1632" x2="119.541" y2="77.4991" gradientUnits="userSpaceOnUse">
<stop stop-color="#EDEDED"/>
<stop offset="1" stop-color="#6B6B6B"/>
</linearGradient>
<linearGradient id="paint18_linear_785_1346" x1="115.696" y1="64.0637" x2="115.696" y2="68.7119" gradientUnits="userSpaceOnUse">
<stop stop-color="#EDEDED"/>
<stop offset="1" stop-color="#6B6B6B"/>
</linearGradient>
<linearGradient id="paint19_linear_785_1346" x1="121.01" y1="66.1273" x2="121.01" y2="69.186" gradientUnits="userSpaceOnUse">
<stop stop-color="#EDEDED"/>
<stop offset="1" stop-color="#6B6B6B"/>
</linearGradient>
<linearGradient id="paint20_linear_785_1346" x1="115.428" y1="56.4269" x2="115.428" y2="60.4131" gradientUnits="userSpaceOnUse">
<stop stop-color="#EDEDED"/>
<stop offset="1" stop-color="#6B6B6B"/>
</linearGradient>
<linearGradient id="paint21_linear_785_1346" x1="120.866" y1="56.578" x2="120.866" y2="60.4476" gradientUnits="userSpaceOnUse">
<stop stop-color="#EDEDED"/>
<stop offset="1" stop-color="#6B6B6B"/>
</linearGradient>
<linearGradient id="paint22_linear_785_1346" x1="113.808" y1="49.3194" x2="113.808" y2="52.2964" gradientUnits="userSpaceOnUse">
<stop stop-color="#EDEDED"/>
<stop offset="1" stop-color="#6B6B6B"/>
</linearGradient>
<linearGradient id="paint23_linear_785_1346" x1="119.116" y1="47.1" x2="119.116" y2="51.7947" gradientUnits="userSpaceOnUse">
<stop stop-color="#EDEDED"/>
<stop offset="1" stop-color="#6B6B6B"/>
</linearGradient>
<linearGradient id="paint24_linear_785_1346" x1="111.033" y1="42.777" x2="111.033" y2="44.6189" gradientUnits="userSpaceOnUse">
<stop stop-color="#EDEDED"/>
<stop offset="1" stop-color="#6B6B6B"/>
</linearGradient>
<linearGradient id="paint25_linear_785_1346" x1="115.774" y1="38.053" x2="115.774" y2="43.3772" gradientUnits="userSpaceOnUse">
<stop stop-color="#EDEDED"/>
<stop offset="1" stop-color="#6B6B6B"/>
</linearGradient>
<linearGradient id="paint26_linear_785_1346" x1="106.969" y1="36.0297" x2="106.969" y2="37.473" gradientUnits="userSpaceOnUse">
<stop stop-color="#EDEDED"/>
<stop offset="1" stop-color="#6B6B6B"/>
</linearGradient>
<linearGradient id="paint27_linear_785_1346" x1="111.096" y1="30.0263" x2="111.096" y2="35.5696" gradientUnits="userSpaceOnUse">
<stop stop-color="#EDEDED"/>
<stop offset="1" stop-color="#6B6B6B"/>
</linearGradient>
<linearGradient id="paint28_linear_785_1346" x1="101.835" y1="29.5661" x2="101.835" y2="31.0834" gradientUnits="userSpaceOnUse">
<stop stop-color="#EDEDED"/>
<stop offset="1" stop-color="#6B6B6B"/>
</linearGradient>
<linearGradient id="paint29_linear_785_1346" x1="105.184" y1="22.9168" x2="105.184" y2="28.4135" gradientUnits="userSpaceOnUse">
<stop stop-color="#EDEDED"/>
<stop offset="1" stop-color="#6B6B6B"/>
</linearGradient>
<linearGradient id="paint30_linear_785_1346" x1="95.4551" y1="23.7847" x2="95.4551" y2="25.5853" gradientUnits="userSpaceOnUse">
<stop stop-color="#EDEDED"/>
<stop offset="1" stop-color="#6B6B6B"/>
</linearGradient>
<linearGradient id="paint31_linear_785_1346" x1="98.2361" y1="17.0306" x2="98.2361" y2="22.3828" gradientUnits="userSpaceOnUse">
<stop stop-color="#EDEDED"/>
<stop offset="1" stop-color="#6B6B6B"/>
</linearGradient>
<linearGradient id="paint32_linear_785_1346" x1="88.0968" y1="19.0462" x2="88.0968" y2="21.0955" gradientUnits="userSpaceOnUse">
<stop stop-color="#EDEDED"/>
<stop offset="1" stop-color="#6B6B6B"/>
</linearGradient>
<linearGradient id="paint33_linear_785_1346" x1="90.5007" y1="12.3125" x2="90.5007" y2="17.5388" gradientUnits="userSpaceOnUse">
<stop stop-color="#EDEDED"/>
<stop offset="1" stop-color="#6B6B6B"/>
</linearGradient>
<linearGradient id="paint34_linear_785_1346" x1="93.0796" y1="17.9963" x2="93.0796" y2="98.1869" gradientUnits="userSpaceOnUse">
<stop stop-color="#EDEDED"/>
<stop offset="1" stop-color="#6B6B6B"/>
</linearGradient>
<linearGradient id="paint35_linear_785_1346" x1="62.8552" y1="107.685" x2="62.8552" y2="112.422" gradientUnits="userSpaceOnUse">
<stop stop-color="#EDEDED"/>
<stop offset="1" stop-color="#6B6B6B"/>
</linearGradient>
<linearGradient id="paint36_linear_785_1346" x1="61.5838" y1="114.062" x2="61.5838" y2="116.968" gradientUnits="userSpaceOnUse">
<stop stop-color="#EDEDED"/>
<stop offset="1" stop-color="#6B6B6B"/>
</linearGradient>
<linearGradient id="paint37_linear_785_1346" x1="55.0613" y1="105.591" x2="55.0613" y2="110.812" gradientUnits="userSpaceOnUse">
<stop stop-color="#EDEDED"/>
<stop offset="1" stop-color="#6B6B6B"/>
</linearGradient>
<linearGradient id="paint38_linear_785_1346" x1="52.7141" y1="112.369" x2="52.7141" y2="114.402" gradientUnits="userSpaceOnUse">
<stop stop-color="#EDEDED"/>
<stop offset="1" stop-color="#6B6B6B"/>
</linearGradient>
<linearGradient id="paint39_linear_785_1346" x1="47.7566" y1="102.466" x2="47.7566" y2="107.884" gradientUnits="userSpaceOnUse">
<stop stop-color="#EDEDED"/>
<stop offset="1" stop-color="#6B6B6B"/>
</linearGradient>
<linearGradient id="paint40_linear_785_1346" x1="44.8224" y1="109.263" x2="44.8224" y2="110.933" gradientUnits="userSpaceOnUse">
<stop stop-color="#EDEDED"/>
<stop offset="1" stop-color="#6B6B6B"/>
</linearGradient>
<linearGradient id="paint41_linear_785_1346" x1="40.9585" y1="98.0791" x2="40.9585" y2="103.632" gradientUnits="userSpaceOnUse">
<stop stop-color="#EDEDED"/>
<stop offset="1" stop-color="#6B6B6B"/>
</linearGradient>
<linearGradient id="paint42_linear_785_1346" x1="37.1406" y1="104.403" x2="37.1406" y2="105.819" gradientUnits="userSpaceOnUse">
<stop stop-color="#EDEDED"/>
<stop offset="1" stop-color="#6B6B6B"/>
</linearGradient>
<linearGradient id="paint43_linear_785_1346" x1="34.7781" y1="92.6852" x2="34.7781" y2="98.1306" gradientUnits="userSpaceOnUse">
<stop stop-color="#EDEDED"/>
<stop offset="1" stop-color="#6B6B6B"/>
</linearGradient>
<linearGradient id="paint44_linear_785_1346" x1="30.3516" y1="98.0693" x2="30.3516" y2="99.688" gradientUnits="userSpaceOnUse">
<stop stop-color="#EDEDED"/>
<stop offset="1" stop-color="#6B6B6B"/>
</linearGradient>
<linearGradient id="paint45_linear_785_1346" x1="29.4654" y1="86.1506" x2="29.4654" y2="91.4374" gradientUnits="userSpaceOnUse">
<stop stop-color="#EDEDED"/>
<stop offset="1" stop-color="#6B6B6B"/>
</linearGradient>
<linearGradient id="paint46_linear_785_1346" x1="24.7279" y1="90.7226" x2="24.7279" y2="92.6511" gradientUnits="userSpaceOnUse">
<stop stop-color="#EDEDED"/>
<stop offset="1" stop-color="#6B6B6B"/>
</linearGradient>
<linearGradient id="paint47_linear_785_1346" x1="25.4443" y1="79.0174" x2="25.4443" y2="84.1784" gradientUnits="userSpaceOnUse">
<stop stop-color="#EDEDED"/>
<stop offset="1" stop-color="#6B6B6B"/>
</linearGradient>
<linearGradient id="paint48_linear_785_1346" x1="20.5271" y1="83.0124" x2="20.5271" y2="85.1932" gradientUnits="userSpaceOnUse">
<stop stop-color="#EDEDED"/>
<stop offset="1" stop-color="#6B6B6B"/>
</linearGradient>
<linearGradient id="paint49_linear_785_1346" x1="22.6145" y1="71.5054" x2="22.6145" y2="76.5872" gradientUnits="userSpaceOnUse">
<stop stop-color="#EDEDED"/>
<stop offset="1" stop-color="#6B6B6B"/>
</linearGradient>
<linearGradient id="paint50_linear_785_1346" x1="17.6114" y1="75.1632" x2="17.6114" y2="77.4991" gradientUnits="userSpaceOnUse">
<stop stop-color="#EDEDED"/>
<stop offset="1" stop-color="#6B6B6B"/>
</linearGradient>
<linearGradient id="paint51_linear_785_1346" x1="21.4563" y1="64.0637" x2="21.4563" y2="68.7119" gradientUnits="userSpaceOnUse">
<stop stop-color="#EDEDED"/>
<stop offset="1" stop-color="#6B6B6B"/>
</linearGradient>
<linearGradient id="paint52_linear_785_1346" x1="16.143" y1="66.1273" x2="16.143" y2="69.186" gradientUnits="userSpaceOnUse">
<stop stop-color="#EDEDED"/>
<stop offset="1" stop-color="#6B6B6B"/>
</linearGradient>
<linearGradient id="paint53_linear_785_1346" x1="21.7245" y1="56.4269" x2="21.7245" y2="60.4131" gradientUnits="userSpaceOnUse">
<stop stop-color="#EDEDED"/>
<stop offset="1" stop-color="#6B6B6B"/>
</linearGradient>
<linearGradient id="paint54_linear_785_1346" x1="16.2864" y1="56.578" x2="16.2864" y2="60.4476" gradientUnits="userSpaceOnUse">
<stop stop-color="#EDEDED"/>
<stop offset="1" stop-color="#6B6B6B"/>
</linearGradient>
<linearGradient id="paint55_linear_785_1346" x1="23.345" y1="49.3194" x2="23.345" y2="52.2964" gradientUnits="userSpaceOnUse">
<stop stop-color="#EDEDED"/>
<stop offset="1" stop-color="#6B6B6B"/>
</linearGradient>
<linearGradient id="paint56_linear_785_1346" x1="18.0373" y1="47.1" x2="18.0373" y2="51.7947" gradientUnits="userSpaceOnUse">
<stop stop-color="#EDEDED"/>
<stop offset="1" stop-color="#6B6B6B"/>
</linearGradient>
<linearGradient id="paint57_linear_785_1346" x1="26.1202" y1="42.777" x2="26.1202" y2="44.6189" gradientUnits="userSpaceOnUse">
<stop stop-color="#EDEDED"/>
<stop offset="1" stop-color="#6B6B6B"/>
</linearGradient>
<linearGradient id="paint58_linear_785_1346" x1="21.3784" y1="38.053" x2="21.3784" y2="43.3772" gradientUnits="userSpaceOnUse">
<stop stop-color="#EDEDED"/>
<stop offset="1" stop-color="#6B6B6B"/>
</linearGradient>
<linearGradient id="paint59_linear_785_1346" x1="30.1841" y1="36.0297" x2="30.1841" y2="37.473" gradientUnits="userSpaceOnUse">
<stop stop-color="#EDEDED"/>
<stop offset="1" stop-color="#6B6B6B"/>
</linearGradient>
<linearGradient id="paint60_linear_785_1346" x1="26.0571" y1="30.0263" x2="26.0571" y2="35.5696" gradientUnits="userSpaceOnUse">
<stop stop-color="#EDEDED"/>
<stop offset="1" stop-color="#6B6B6B"/>
</linearGradient>
<linearGradient id="paint61_linear_785_1346" x1="35.3176" y1="29.5661" x2="35.3176" y2="31.0834" gradientUnits="userSpaceOnUse">
<stop stop-color="#EDEDED"/>
<stop offset="1" stop-color="#6B6B6B"/>
</linearGradient>
<linearGradient id="paint62_linear_785_1346" x1="31.9685" y1="22.9168" x2="31.9685" y2="28.4135" gradientUnits="userSpaceOnUse">
<stop stop-color="#EDEDED"/>
<stop offset="1" stop-color="#6B6B6B"/>
</linearGradient>
<linearGradient id="paint63_linear_785_1346" x1="41.6977" y1="23.7847" x2="41.6977" y2="25.5853" gradientUnits="userSpaceOnUse">
<stop stop-color="#EDEDED"/>
<stop offset="1" stop-color="#6B6B6B"/>
</linearGradient>
<linearGradient id="paint64_linear_785_1346" x1="38.9167" y1="17.0306" x2="38.9167" y2="22.3828" gradientUnits="userSpaceOnUse">
<stop stop-color="#EDEDED"/>
<stop offset="1" stop-color="#6B6B6B"/>
</linearGradient>
<linearGradient id="paint65_linear_785_1346" x1="49.056" y1="19.0462" x2="49.056" y2="21.0955" gradientUnits="userSpaceOnUse">
<stop stop-color="#EDEDED"/>
<stop offset="1" stop-color="#6B6B6B"/>
</linearGradient>
<linearGradient id="paint66_linear_785_1346" x1="46.6522" y1="12.3125" x2="46.6522" y2="17.5388" gradientUnits="userSpaceOnUse">
<stop stop-color="#EDEDED"/>
<stop offset="1" stop-color="#6B6B6B"/>
</linearGradient>
<linearGradient id="paint67_linear_785_1346" x1="44.0737" y1="17.9963" x2="44.0737" y2="98.1869" gradientUnits="userSpaceOnUse">
<stop stop-color="#EDEDED"/>
<stop offset="1" stop-color="#6B6B6B"/>
</linearGradient>
<linearGradient id="paint68_linear_785_1346" x1="67.8329" y1="8.41205" x2="67.8329" y2="17.5499" gradientUnits="userSpaceOnUse">
<stop stop-color="#EDEDED"/>
<stop offset="1" stop-color="#6B6B6B"/>
</linearGradient>
<clipPath id="clip0_785_1346">
<rect width="112.014" height="105.239" fill="white" transform="translate(11.7959 12.2969)"/>
</clipPath>
<clipPath id="clip1_785_1346">
<rect width="11.52" height="10.9555" fill="white" transform="translate(62.1016 8.38477)"/>
</clipPath>
</defs>
</svg>
