<svg width="135" height="128" viewBox="0 0 135 128" fill="none" xmlns="http://www.w3.org/2000/svg">
<g filter="url(#filter0_ii_785_1264)">
<circle cx="67.6377" cy="64" r="64" fill="url(#paint0_radial_785_1264)"/>
</g>
<g filter="url(#filter1_i_785_1264)">
<circle cx="67.6377" cy="64" r="62.9725" stroke="url(#paint1_linear_785_1264)" stroke-width="2.05502"/>
</g>
<g clip-path="url(#clip0_785_1264)">
<path fill-rule="evenodd" clip-rule="evenodd" d="M72.2379 113.35C72.2379 113.35 75.0662 112.539 75.7146 107.671C75.7146 107.671 72.0646 110.141 72.2379 113.35Z" fill="url(#paint2_linear_785_1264)"/>
<path fill-rule="evenodd" clip-rule="evenodd" d="M72.4106 114.06C72.4106 114.06 73.2211 116.888 78.0896 117.537C78.0896 117.537 75.619 113.881 72.4106 114.06Z" fill="url(#paint3_linear_785_1264)"/>
<path fill-rule="evenodd" clip-rule="evenodd" d="M80.6833 111.835C80.6833 111.835 83.2936 110.477 82.9527 105.575C82.9527 105.575 79.8672 108.728 80.6833 111.835Z" fill="url(#paint4_linear_785_1264)"/>
<path fill-rule="evenodd" clip-rule="evenodd" d="M80.9912 112.501C80.9912 112.501 82.3495 115.105 87.2515 114.77C87.2515 114.77 84.099 111.685 80.9912 112.501Z" fill="url(#paint5_linear_785_1264)"/>
<path fill-rule="evenodd" clip-rule="evenodd" d="M88.3751 108.945C88.3751 108.945 90.7953 107.274 89.8507 102.45C89.8507 102.45 87.1789 105.96 88.3751 108.945Z" fill="url(#paint6_linear_785_1264)"/>
<path fill-rule="evenodd" clip-rule="evenodd" d="M88.7661 109.566C88.7661 109.566 90.4374 111.986 95.2611 111.042C95.2611 111.042 91.7509 108.37 88.7661 109.566Z" fill="url(#paint7_linear_785_1264)"/>
<path fill-rule="evenodd" clip-rule="evenodd" d="M95.8482 104.72C95.8482 104.72 97.8268 102.54 95.8034 98.0625C95.8034 98.0625 94.0036 102.087 95.8482 104.72Z" fill="url(#paint8_linear_785_1264)"/>
<path fill-rule="evenodd" clip-rule="evenodd" d="M96.3672 105.234C96.3672 105.234 98.5471 107.207 103.024 105.184C103.024 105.184 98.9999 103.384 96.3672 105.234Z" fill="url(#paint9_linear_785_1264)"/>
<path fill-rule="evenodd" clip-rule="evenodd" d="M102.611 99.1975C102.611 99.1975 104.131 96.6766 101.286 92.6689C101.286 92.6689 100.297 96.9673 102.611 99.1975Z" fill="url(#paint10_linear_785_1264)"/>
<path fill-rule="evenodd" clip-rule="evenodd" d="M103.22 99.5994C103.22 99.5994 105.741 101.12 109.749 98.2747C109.749 98.2747 105.45 97.2853 103.22 99.5994Z" fill="url(#paint11_linear_785_1264)"/>
<path fill-rule="evenodd" clip-rule="evenodd" d="M108.29 92.4733C108.29 92.4733 109.52 89.8015 106.244 86.1348C106.244 86.1348 105.741 90.5169 108.29 92.4733Z" fill="url(#paint12_linear_785_1264)"/>
<path fill-rule="evenodd" clip-rule="evenodd" d="M108.938 92.8029C108.938 92.8029 111.61 94.0325 115.277 90.7571C115.277 90.7571 110.895 90.254 108.938 92.8029Z" fill="url(#paint13_linear_785_1264)"/>
<path fill-rule="evenodd" clip-rule="evenodd" d="M112.544 85.1896C112.544 85.1896 113.589 82.4395 110.079 79.002C110.079 79.002 109.866 83.4065 112.544 85.1896Z" fill="url(#paint14_linear_785_1264)"/>
<path fill-rule="evenodd" clip-rule="evenodd" d="M113.214 85.4748C113.214 85.4748 115.964 86.5201 119.402 83.0098C119.402 83.0098 114.997 82.7974 113.214 85.4748Z" fill="url(#paint15_linear_785_1264)"/>
<path fill-rule="evenodd" clip-rule="evenodd" d="M115.501 77.5828C115.501 77.5828 116.451 74.7992 112.812 71.4902C112.812 71.4902 112.762 75.9004 115.501 77.5828Z" fill="url(#paint16_linear_785_1264)"/>
<path fill-rule="evenodd" clip-rule="evenodd" d="M116.177 77.8449C116.177 77.8449 118.961 78.7951 122.27 75.1563C122.27 75.1563 117.86 75.106 116.177 77.8449Z" fill="url(#paint17_linear_785_1264)"/>
<path fill-rule="evenodd" clip-rule="evenodd" d="M117.189 69.6226C117.189 69.6226 117.67 66.7216 113.539 64.0498C113.539 64.0498 114.21 68.4096 117.189 69.6226Z" fill="url(#paint18_linear_785_1264)"/>
<path fill-rule="evenodd" clip-rule="evenodd" d="M117.904 69.7681C117.904 69.7681 120.805 70.2488 123.477 66.1182C123.477 66.1182 119.117 66.7889 117.904 69.7681Z" fill="url(#paint19_linear_785_1264)"/>
<path fill-rule="evenodd" clip-rule="evenodd" d="M117.424 61.1941C117.424 61.1941 117.345 58.254 112.79 56.415C112.79 56.415 114.271 60.5681 117.424 61.1941Z" fill="url(#paint20_linear_785_1264)"/>
<path fill-rule="evenodd" clip-rule="evenodd" d="M118.156 61.2057C118.156 61.2057 121.096 61.1275 122.935 56.5664C122.935 56.5664 118.782 58.0476 118.156 61.2057Z" fill="url(#paint21_linear_785_1264)"/>
<path fill-rule="evenodd" clip-rule="evenodd" d="M116.3 52.8767C116.3 52.8767 115.535 50.0372 110.677 49.3105C110.677 49.3105 113.092 52.9996 116.3 52.8767Z" fill="url(#paint22_linear_785_1264)"/>
<path fill-rule="evenodd" clip-rule="evenodd" d="M117.01 52.7146C117.01 52.7146 119.849 51.9488 120.576 47.0859C120.576 47.0859 116.887 49.5006 117.01 52.7146Z" fill="url(#paint23_linear_785_1264)"/>
<path fill-rule="evenodd" clip-rule="evenodd" d="M113.907 44.7716C113.907 44.7716 112.398 42.2452 107.524 42.8712C107.524 42.8712 110.85 45.7666 113.907 44.7716Z" fill="url(#paint24_linear_785_1264)"/>
<path fill-rule="evenodd" clip-rule="evenodd" d="M114.551 44.4203C114.551 44.4203 117.077 42.9112 116.451 38.0371C116.451 38.0371 113.556 41.3629 114.551 44.4203Z" fill="url(#paint25_linear_785_1264)"/>
<path fill-rule="evenodd" clip-rule="evenodd" d="M109.972 37.137C109.972 37.137 107.955 34.9962 103.332 36.6563C103.332 36.6563 107.206 38.7692 109.972 37.137Z" fill="url(#paint26_linear_785_1264)"/>
<path fill-rule="evenodd" clip-rule="evenodd" d="M110.521 36.6557C110.521 36.6557 112.661 34.6379 111.001 30.0098C111.001 30.0098 108.888 33.8833 110.521 36.6557Z" fill="url(#paint27_linear_785_1264)"/>
<path fill-rule="evenodd" clip-rule="evenodd" d="M104.814 30.0776C104.814 30.0776 102.382 28.4231 98.2236 31.039C98.2236 31.039 102.46 32.2631 104.814 30.0776Z" fill="url(#paint28_linear_785_1264)"/>
<path fill-rule="evenodd" clip-rule="evenodd" d="M105.249 29.4904C105.249 29.4904 106.904 27.059 104.288 22.9004C104.288 22.9004 103.064 27.1372 105.249 29.4904Z" fill="url(#paint29_linear_785_1264)"/>
<path fill-rule="evenodd" clip-rule="evenodd" d="M98.3465 24.0631C98.3465 24.0631 95.725 22.7272 91.9297 25.8518C91.9297 25.8518 96.2839 26.5337 98.3465 24.0631Z" fill="url(#paint30_linear_785_1264)"/>
<path fill-rule="evenodd" clip-rule="evenodd" d="M98.704 23.4314C98.704 23.4314 100.04 20.8099 96.9154 17.0146C96.9154 17.0146 96.2334 21.3689 98.704 23.4314Z" fill="url(#paint31_linear_785_1264)"/>
<path fill-rule="evenodd" clip-rule="evenodd" d="M90.9123 19.2223C90.9123 19.2223 88.2014 18.0876 84.6465 21.4805C84.6465 21.4805 89.0399 21.8382 90.9123 19.2223Z" fill="url(#paint32_linear_785_1264)"/>
<path fill-rule="evenodd" clip-rule="evenodd" d="M91.22 18.5627C91.22 18.5627 92.3546 15.8518 88.9618 12.2969C88.9618 12.2969 88.6041 16.6902 91.22 18.5627Z" fill="url(#paint33_linear_785_1264)"/>
<path d="M67.4199 113.875C67.4199 113.875 67.9509 113.847 68.9458 113.802C69.4433 113.774 70.0581 113.758 70.7736 113.674C71.1313 113.64 71.517 113.601 71.9306 113.562C72.1374 113.545 72.3498 113.523 72.5678 113.501C72.7858 113.467 73.0094 113.433 73.2386 113.406C74.1552 113.271 75.1781 113.143 76.2681 112.902C77.3692 112.712 78.5374 112.399 79.7895 112.086C82.2712 111.399 85.038 110.465 87.9111 109.13C90.7897 107.805 93.7633 106.066 96.681 103.926C97.43 103.417 98.1231 102.813 98.8609 102.243C99.5876 101.662 100.275 101.025 100.996 100.404C102.377 99.0963 103.757 97.7325 105.032 96.2233C105.35 95.8488 105.68 95.4799 105.993 95.0943C106.301 94.703 106.602 94.3061 106.915 93.9149L107.379 93.3224L107.815 92.7075C108.106 92.2939 108.397 91.8803 108.687 91.4667C109.794 89.7674 110.873 88.0123 111.801 86.1622C112.768 84.3288 113.567 82.4005 114.31 80.4385L114.819 78.9461C114.903 78.7002 114.992 78.4487 115.065 78.2027L115.283 77.4426L115.713 75.9278L116.071 74.3907C117.016 70.2936 117.396 66.0567 117.245 61.9261C117.222 59.8188 116.965 57.801 116.708 55.7944C116.529 54.7938 116.345 53.8045 116.166 52.8151C115.948 51.837 115.68 50.8756 115.445 49.9198C114.383 46.1133 112.913 42.5696 111.214 39.3668C109.447 36.1975 107.469 33.386 105.445 30.9489C103.366 28.5622 101.331 26.4717 99.3304 24.8452C98.833 24.4316 98.3579 24.0291 97.8939 23.6434C97.4188 23.2745 96.9381 22.9448 96.491 22.615C96.0382 22.2852 95.6022 21.9722 95.1886 21.6704C94.775 21.3685 94.3446 21.1338 93.9589 20.8766C93.1708 20.3904 92.4777 19.932 91.8573 19.5687C91.22 19.2277 90.6835 18.9427 90.2419 18.7079C89.3643 18.2384 88.8948 17.9869 88.8948 17.9869H88.8892C88.8333 17.9477 88.811 17.8807 88.8389 17.8192C88.8669 17.7633 88.9395 17.7409 89.001 17.7689C89.001 17.7689 89.4761 18.0092 90.3704 18.4564C90.8176 18.68 91.371 18.9538 92.0193 19.278C92.6565 19.6302 93.3664 20.0662 94.1713 20.5357C94.5682 20.7816 95.0042 21.0108 95.429 21.307C95.8538 21.5977 96.2953 21.9051 96.7593 22.2293C97.2232 22.5535 97.7095 22.8777 98.2014 23.241C98.6765 23.6211 99.1683 24.0179 99.677 24.4204C101.734 26.0246 103.841 28.0927 105.993 30.4738C108.078 32.922 110.118 35.7559 111.957 38.9531C113.729 42.1895 115.266 45.7835 116.395 49.6515C116.647 50.6241 116.932 51.6022 117.167 52.5971C117.357 53.6033 117.547 54.615 117.737 55.6323C118.011 57.6892 118.273 59.8076 118.301 61.8869C118.463 66.1182 118.089 70.4333 117.139 74.631L116.775 76.2017L116.339 77.7556L116.121 78.5325C116.043 78.7896 115.954 79.0412 115.87 79.2983L115.356 80.8242C114.607 82.8308 113.791 84.804 112.807 86.682C111.868 88.5825 110.744 90.3599 109.598 92.0871C109.297 92.5119 108.995 92.9311 108.693 93.3503L108.246 93.9763L107.765 94.5744C107.446 94.9769 107.128 95.3737 106.815 95.7762C106.491 96.1674 106.15 96.5419 105.82 96.922C104.506 98.448 103.081 99.8342 101.661 101.153C100.923 101.779 100.214 102.422 99.4702 103.009C98.7156 103.585 98.0001 104.188 97.2344 104.703C94.2328 106.843 91.1474 108.515 88.2073 109.8C85.2616 111.08 82.4445 111.98 79.9124 112.589C78.638 112.858 77.4475 113.126 76.3296 113.283C75.2228 113.484 74.1888 113.579 73.2609 113.679C73.0262 113.707 72.8026 113.73 72.5846 113.752C72.361 113.769 72.1486 113.78 71.9418 113.791C71.5282 113.814 71.1369 113.836 70.7736 113.858C70.0525 113.909 69.4377 113.897 68.9346 113.897C67.9397 113.897 67.4087 113.897 67.4087 113.897L67.4199 113.875Z" fill="url(#paint34_linear_785_1264)"/>
<path fill-rule="evenodd" clip-rule="evenodd" d="M64.2489 113.35C64.2489 113.35 61.4206 112.539 60.7722 107.671C60.7722 107.671 64.4222 110.141 64.2489 113.35Z" fill="url(#paint35_linear_785_1264)"/>
<path fill-rule="evenodd" clip-rule="evenodd" d="M64.0762 114.06C64.0762 114.06 63.2657 116.888 58.3972 117.537C58.3972 117.537 60.8678 113.881 64.0762 114.06Z" fill="url(#paint36_linear_785_1264)"/>
<path fill-rule="evenodd" clip-rule="evenodd" d="M55.8035 111.835C55.8035 111.835 53.1932 110.477 53.5342 105.575C53.5342 105.575 56.6196 108.728 55.8035 111.835Z" fill="url(#paint37_linear_785_1264)"/>
<path fill-rule="evenodd" clip-rule="evenodd" d="M55.4956 112.501C55.4956 112.501 54.1374 115.105 49.2353 114.77C49.2353 114.77 52.3878 111.685 55.4956 112.501Z" fill="url(#paint38_linear_785_1264)"/>
<path fill-rule="evenodd" clip-rule="evenodd" d="M48.1118 108.945C48.1118 108.945 45.6915 107.274 46.6361 102.45C46.6361 102.45 49.3079 105.96 48.1118 108.945Z" fill="url(#paint39_linear_785_1264)"/>
<path fill-rule="evenodd" clip-rule="evenodd" d="M47.7207 109.566C47.7207 109.566 46.0494 111.986 41.2257 111.042C41.2257 111.042 44.7359 108.37 47.7207 109.566Z" fill="url(#paint40_linear_785_1264)"/>
<path fill-rule="evenodd" clip-rule="evenodd" d="M40.6387 104.72C40.6387 104.72 38.66 102.54 40.6834 98.0625C40.6834 98.0625 42.4832 102.087 40.6387 104.72Z" fill="url(#paint41_linear_785_1264)"/>
<path fill-rule="evenodd" clip-rule="evenodd" d="M40.1196 105.234C40.1196 105.234 37.9397 107.207 33.4625 105.184C33.4625 105.184 37.487 103.384 40.1196 105.234Z" fill="url(#paint42_linear_785_1264)"/>
<path fill-rule="evenodd" clip-rule="evenodd" d="M33.8757 99.1975C33.8757 99.1975 32.3554 96.6766 35.2004 92.6689C35.2004 92.6689 36.1898 96.9673 33.8757 99.1975Z" fill="url(#paint43_linear_785_1264)"/>
<path fill-rule="evenodd" clip-rule="evenodd" d="M33.2666 99.5994C33.2666 99.5994 30.7457 101.12 26.738 98.2747C26.738 98.2747 31.0364 97.2853 33.2666 99.5994Z" fill="url(#paint44_linear_785_1264)"/>
<path fill-rule="evenodd" clip-rule="evenodd" d="M28.1967 92.4733C28.1967 92.4733 26.967 89.8015 30.2424 86.1348C30.2424 86.1348 30.7455 90.5169 28.1967 92.4733Z" fill="url(#paint45_linear_785_1264)"/>
<path fill-rule="evenodd" clip-rule="evenodd" d="M27.5483 92.8029C27.5483 92.8029 24.8766 94.0325 21.2098 90.7571C21.2098 90.7571 25.592 90.254 27.5483 92.8029Z" fill="url(#paint46_linear_785_1264)"/>
<path fill-rule="evenodd" clip-rule="evenodd" d="M23.9431 85.1896C23.9431 85.1896 22.8979 82.4395 26.4081 79.002C26.4081 79.002 26.6205 83.4065 23.9431 85.1896Z" fill="url(#paint47_linear_785_1264)"/>
<path fill-rule="evenodd" clip-rule="evenodd" d="M23.2725 85.4748C23.2725 85.4748 20.5224 86.5201 17.0848 83.0098C17.0848 83.0098 21.4894 82.7974 23.2725 85.4748Z" fill="url(#paint48_linear_785_1264)"/>
<path fill-rule="evenodd" clip-rule="evenodd" d="M20.9862 77.5828C20.9862 77.5828 20.036 74.7992 23.6747 71.4902C23.6747 71.4902 23.725 75.9004 20.9862 77.5828Z" fill="url(#paint49_linear_785_1264)"/>
<path fill-rule="evenodd" clip-rule="evenodd" d="M20.3096 77.8449C20.3096 77.8449 17.526 78.7951 14.217 75.1563C14.217 75.1563 18.6271 75.106 20.3096 77.8449Z" fill="url(#paint50_linear_785_1264)"/>
<path fill-rule="evenodd" clip-rule="evenodd" d="M19.2978 69.6226C19.2978 69.6226 18.8171 66.7216 22.9478 64.0498C22.9478 64.0498 22.277 68.4096 19.2978 69.6226Z" fill="url(#paint51_linear_785_1264)"/>
<path fill-rule="evenodd" clip-rule="evenodd" d="M18.5825 69.7681C18.5825 69.7681 15.6816 70.2488 13.0098 66.1182C13.0098 66.1182 17.3696 66.7889 18.5825 69.7681Z" fill="url(#paint52_linear_785_1264)"/>
<path fill-rule="evenodd" clip-rule="evenodd" d="M19.0631 61.1941C19.0631 61.1941 19.1413 58.254 23.6968 56.415C23.6968 56.415 22.2156 60.5681 19.0631 61.1941Z" fill="url(#paint53_linear_785_1264)"/>
<path fill-rule="evenodd" clip-rule="evenodd" d="M18.3311 61.2057C18.3311 61.2057 15.391 61.1275 13.552 56.5664C13.552 56.5664 17.705 58.0476 18.3311 61.2057Z" fill="url(#paint54_linear_785_1264)"/>
<path fill-rule="evenodd" clip-rule="evenodd" d="M20.1865 52.8767C20.1865 52.8767 20.9523 50.0372 25.8096 49.3105C25.8096 49.3105 23.3949 52.9996 20.1865 52.8767Z" fill="url(#paint55_linear_785_1264)"/>
<path fill-rule="evenodd" clip-rule="evenodd" d="M19.477 52.7146C19.477 52.7146 16.6375 51.9488 15.9109 47.0859C15.9109 47.0859 19.5999 49.5006 19.477 52.7146Z" fill="url(#paint56_linear_785_1264)"/>
<path fill-rule="evenodd" clip-rule="evenodd" d="M22.5797 44.7716C22.5797 44.7716 24.0888 42.2452 28.9629 42.8712C28.9629 42.8712 25.6371 45.7666 22.5797 44.7716Z" fill="url(#paint57_linear_785_1264)"/>
<path fill-rule="evenodd" clip-rule="evenodd" d="M21.9359 44.4203C21.9359 44.4203 19.4095 42.9112 20.0355 38.0371C20.0355 38.0371 22.9309 41.3629 21.9359 44.4203Z" fill="url(#paint58_linear_785_1264)"/>
<path fill-rule="evenodd" clip-rule="evenodd" d="M26.5144 37.137C26.5144 37.137 28.5322 34.9962 33.1548 36.6563C33.1548 36.6563 29.2812 38.7692 26.5144 37.137Z" fill="url(#paint59_linear_785_1264)"/>
<path fill-rule="evenodd" clip-rule="evenodd" d="M25.9662 36.6557C25.9662 36.6557 23.8254 34.6379 25.4855 30.0098C25.4855 30.0098 27.5983 33.8833 25.9662 36.6557Z" fill="url(#paint60_linear_785_1264)"/>
<path fill-rule="evenodd" clip-rule="evenodd" d="M31.6731 30.0776C31.6731 30.0776 34.1046 28.4231 38.2632 31.039C38.2632 31.039 34.0263 32.2631 31.6731 30.0776Z" fill="url(#paint61_linear_785_1264)"/>
<path fill-rule="evenodd" clip-rule="evenodd" d="M31.2374 29.4904C31.2374 29.4904 29.5829 27.059 32.1988 22.9004C32.1988 22.9004 33.4229 27.1372 31.2374 29.4904Z" fill="url(#paint62_linear_785_1264)"/>
<path fill-rule="evenodd" clip-rule="evenodd" d="M38.1404 24.0631C38.1404 24.0631 40.7618 22.7272 44.5571 25.8518C44.5571 25.8518 40.2029 26.5337 38.1404 24.0631Z" fill="url(#paint63_linear_785_1264)"/>
<path fill-rule="evenodd" clip-rule="evenodd" d="M37.7828 23.4314C37.7828 23.4314 36.4469 20.8099 39.5714 17.0146C39.5714 17.0146 40.2534 21.3689 37.7828 23.4314Z" fill="url(#paint64_linear_785_1264)"/>
<path fill-rule="evenodd" clip-rule="evenodd" d="M45.5745 19.2223C45.5745 19.2223 48.2854 18.0876 51.8403 21.4805C51.8403 21.4805 47.447 21.8382 45.5745 19.2223Z" fill="url(#paint65_linear_785_1264)"/>
<path fill-rule="evenodd" clip-rule="evenodd" d="M45.2668 18.5627C45.2668 18.5627 44.1322 15.8518 47.525 12.2969C47.525 12.2969 47.8827 16.6902 45.2668 18.5627Z" fill="url(#paint66_linear_785_1264)"/>
<path d="M69.0674 113.875C69.0674 113.875 68.5364 113.847 67.5415 113.802C67.044 113.774 66.4292 113.758 65.7137 113.674C65.356 113.64 64.9703 113.601 64.5567 113.562C64.3499 113.545 64.1375 113.523 63.9195 113.501C63.7015 113.467 63.4779 113.433 63.2487 113.406C62.3321 113.271 61.3092 113.143 60.2192 112.902C59.1181 112.712 57.9499 112.399 56.6978 112.086C54.2161 111.399 51.4493 110.465 48.5763 109.13C45.6977 107.805 42.724 106.066 39.8063 103.926C39.0573 103.417 38.3642 102.813 37.6264 102.243C36.8997 101.662 36.2122 101.025 35.4912 100.404C34.1106 99.0963 32.73 97.7325 31.4556 96.2233C31.137 95.8488 30.8072 95.4799 30.4942 95.0943C30.1867 94.703 29.8849 94.3061 29.5719 93.9149L29.108 93.3224L28.672 92.7075C28.3813 92.2939 28.0907 91.8803 27.8 91.4667C26.6933 89.7674 25.6145 88.0123 24.6867 86.1622C23.7197 84.3288 22.9204 82.4005 22.177 80.4385L21.6683 78.9461C21.5845 78.7002 21.495 78.4487 21.4224 78.2027L21.2044 77.4426L20.774 75.9278L20.4163 74.3907C19.4716 70.2936 19.0915 66.0567 19.2425 61.9261C19.2648 59.8188 19.5219 57.801 19.7791 55.7944C19.9579 54.7938 20.1424 53.8045 20.3212 52.8151C20.5392 51.837 20.8075 50.8756 21.0423 49.9198C22.1043 46.1133 23.5743 42.5696 25.2735 39.3668C27.0398 36.1975 29.0185 33.386 31.0419 30.9489C33.1212 28.5622 35.1558 26.4717 37.1569 24.8452C37.6543 24.4316 38.1294 24.0291 38.5934 23.6434C39.0685 23.2745 39.5492 22.9448 39.9963 22.615C40.4491 22.2852 40.8851 21.9722 41.2987 21.6704C41.7123 21.3685 42.1427 21.1338 42.5284 20.8766C43.3165 20.3904 44.0096 19.932 44.6301 19.5687C45.2673 19.2277 45.8039 18.9427 46.2454 18.7079C47.123 18.2384 47.5925 17.9869 47.5925 17.9869H47.5981C47.654 17.9477 47.6763 17.8807 47.6484 17.8192C47.6205 17.7633 47.5478 17.7409 47.4863 17.7689C47.4863 17.7689 47.0112 18.0092 46.1169 18.4564C45.6697 18.68 45.1163 18.9538 44.468 19.278C43.8308 19.6302 43.1209 20.0662 42.316 20.5357C41.9191 20.7816 41.4832 21.0108 41.0584 21.307C40.6335 21.5977 40.192 21.9051 39.728 22.2293C39.2641 22.5535 38.7778 22.8777 38.286 23.241C37.8108 23.6211 37.319 24.0179 36.8103 24.4204C34.7534 26.0246 32.6461 28.0927 30.4942 30.4738C28.4093 32.922 26.3691 35.7559 24.5301 38.9531C22.7583 42.1895 21.2211 45.7835 20.0921 49.6515C19.8405 50.6241 19.5555 51.6022 19.3207 52.5971C19.1307 53.6033 18.9406 54.615 18.7506 55.6323C18.4767 57.6892 18.214 59.8076 18.186 61.8869C18.0239 66.1182 18.3984 70.4333 19.3487 74.631L19.712 76.2017L20.148 77.7556L20.3659 78.5325C20.4442 78.7896 20.5336 79.0412 20.6175 79.2983L21.1317 80.8242C21.8807 82.8308 22.6968 84.804 23.6805 86.682C24.6196 88.5825 25.7431 90.3599 26.8889 92.0871C27.1908 92.5119 27.4926 92.9311 27.7944 93.3503L28.2416 93.9763L28.7223 94.5744C29.0409 94.9769 29.3595 95.3737 29.6725 95.7762C29.9967 96.1674 30.3377 96.5419 30.6674 96.922C31.981 98.448 33.4063 99.8342 34.826 101.153C35.5639 101.779 36.2737 102.422 37.0171 103.009C37.7717 103.585 38.4872 104.188 39.2529 104.703C42.2545 106.843 45.3399 108.515 48.28 109.8C51.2257 111.08 54.0428 111.98 56.5749 112.589C57.8493 112.858 59.0398 113.126 60.1577 113.283C61.2645 113.484 62.2985 113.579 63.2264 113.679C63.4611 113.707 63.6847 113.73 63.9027 113.752C64.1263 113.769 64.3387 113.78 64.5455 113.791C64.9591 113.814 65.3504 113.836 65.7137 113.858C66.4348 113.909 67.0496 113.897 67.5527 113.897C68.5476 113.897 69.0786 113.897 69.0786 113.897L69.0674 113.875Z" fill="url(#paint67_linear_785_1264)"/>
</g>
<g clip-path="url(#clip1_785_1264)">
<path d="M63.9764 19.3402L67.5313 17.2274L71.0863 19.3346L70.1808 15.299L73.2885 12.5657L69.1691 12.1801L67.5258 8.38477L65.888 12.1801L61.7686 12.5713L64.8763 15.299L63.9764 19.3402Z" fill="url(#paint68_linear_785_1264)"/>
</g>
<defs>
<filter id="filter0_ii_785_1264" x="3.6377" y="0" width="128" height="128" filterUnits="userSpaceOnUse" color-interpolation-filters="sRGB">
<feFlood flood-opacity="0" result="BackgroundImageFix"/>
<feBlend mode="normal" in="SourceGraphic" in2="BackgroundImageFix" result="shape"/>
<feColorMatrix in="SourceAlpha" type="matrix" values="0 0 0 0 0 0 0 0 0 0 0 0 0 0 0 0 0 0 127 0" result="hardAlpha"/>
<feOffset/>
<feGaussianBlur stdDeviation="5.95955"/>
<feComposite in2="hardAlpha" operator="arithmetic" k2="-1" k3="1"/>
<feColorMatrix type="matrix" values="0 0 0 0 0 0 0 0 0 0 0 0 0 0 0 0 0 0 1 0"/>
<feBlend mode="normal" in2="shape" result="effect1_innerShadow_785_1264"/>
<feColorMatrix in="SourceAlpha" type="matrix" values="0 0 0 0 0 0 0 0 0 0 0 0 0 0 0 0 0 0 127 0" result="hardAlpha"/>
<feOffset/>
<feGaussianBlur stdDeviation="5.95955"/>
<feComposite in2="hardAlpha" operator="arithmetic" k2="-1" k3="1"/>
<feColorMatrix type="matrix" values="0 0 0 0 0 0 0 0 0 0 0 0 0 0 0 0 0 0 1 0"/>
<feBlend mode="normal" in2="effect1_innerShadow_785_1264" result="effect2_innerShadow_785_1264"/>
</filter>
<filter id="filter1_i_785_1264" x="3.6377" y="0" width="128" height="129.644" filterUnits="userSpaceOnUse" color-interpolation-filters="sRGB">
<feFlood flood-opacity="0" result="BackgroundImageFix"/>
<feBlend mode="normal" in="SourceGraphic" in2="BackgroundImageFix" result="shape"/>
<feColorMatrix in="SourceAlpha" type="matrix" values="0 0 0 0 0 0 0 0 0 0 0 0 0 0 0 0 0 0 127 0" result="hardAlpha"/>
<feOffset dy="1.64401"/>
<feGaussianBlur stdDeviation="0.822006"/>
<feComposite in2="hardAlpha" operator="arithmetic" k2="-1" k3="1"/>
<feColorMatrix type="matrix" values="0 0 0 0 0 0 0 0 0 0 0 0 0 0 0 0 0 0 0.25 0"/>
<feBlend mode="normal" in2="shape" result="effect1_innerShadow_785_1264"/>
</filter>
<radialGradient id="paint0_radial_785_1264" cx="0" cy="0" r="1" gradientUnits="userSpaceOnUse" gradientTransform="translate(67.6665 65.0608) rotate(-90) scale(63.2575 103.01)">
<stop stop-color="#8D9BA9"/>
<stop offset="1" stop-color="#495B9A"/>
</radialGradient>
<linearGradient id="paint1_linear_785_1264" x1="67.6665" y1="128.318" x2="67.6665" y2="1.80331" gradientUnits="userSpaceOnUse">
<stop stop-color="#D6E5F4"/>
<stop offset="1" stop-color="#495B9A"/>
</linearGradient>
<linearGradient id="paint2_linear_785_1264" x1="73.9646" y1="107.685" x2="73.9646" y2="112.422" gradientUnits="userSpaceOnUse">
<stop stop-color="#EDEDED"/>
<stop offset="1" stop-color="#6B6B6B"/>
</linearGradient>
<linearGradient id="paint3_linear_785_1264" x1="75.236" y1="114.062" x2="75.236" y2="116.968" gradientUnits="userSpaceOnUse">
<stop stop-color="#EDEDED"/>
<stop offset="1" stop-color="#6B6B6B"/>
</linearGradient>
<linearGradient id="paint4_linear_785_1264" x1="81.7586" y1="105.591" x2="81.7586" y2="110.812" gradientUnits="userSpaceOnUse">
<stop stop-color="#EDEDED"/>
<stop offset="1" stop-color="#6B6B6B"/>
</linearGradient>
<linearGradient id="paint5_linear_785_1264" x1="84.1058" y1="112.369" x2="84.1058" y2="114.402" gradientUnits="userSpaceOnUse">
<stop stop-color="#EDEDED"/>
<stop offset="1" stop-color="#6B6B6B"/>
</linearGradient>
<linearGradient id="paint6_linear_785_1264" x1="89.0632" y1="102.466" x2="89.0632" y2="107.884" gradientUnits="userSpaceOnUse">
<stop stop-color="#EDEDED"/>
<stop offset="1" stop-color="#6B6B6B"/>
</linearGradient>
<linearGradient id="paint7_linear_785_1264" x1="91.9975" y1="109.263" x2="91.9975" y2="110.933" gradientUnits="userSpaceOnUse">
<stop stop-color="#EDEDED"/>
<stop offset="1" stop-color="#6B6B6B"/>
</linearGradient>
<linearGradient id="paint8_linear_785_1264" x1="95.8613" y1="98.0791" x2="95.8613" y2="103.632" gradientUnits="userSpaceOnUse">
<stop stop-color="#EDEDED"/>
<stop offset="1" stop-color="#6B6B6B"/>
</linearGradient>
<linearGradient id="paint9_linear_785_1264" x1="99.6792" y1="104.403" x2="99.6792" y2="105.819" gradientUnits="userSpaceOnUse">
<stop stop-color="#EDEDED"/>
<stop offset="1" stop-color="#6B6B6B"/>
</linearGradient>
<linearGradient id="paint10_linear_785_1264" x1="102.042" y1="92.6852" x2="102.042" y2="98.1306" gradientUnits="userSpaceOnUse">
<stop stop-color="#EDEDED"/>
<stop offset="1" stop-color="#6B6B6B"/>
</linearGradient>
<linearGradient id="paint11_linear_785_1264" x1="106.468" y1="98.0693" x2="106.468" y2="99.688" gradientUnits="userSpaceOnUse">
<stop stop-color="#EDEDED"/>
<stop offset="1" stop-color="#6B6B6B"/>
</linearGradient>
<linearGradient id="paint12_linear_785_1264" x1="107.354" y1="86.1506" x2="107.354" y2="91.4374" gradientUnits="userSpaceOnUse">
<stop stop-color="#EDEDED"/>
<stop offset="1" stop-color="#6B6B6B"/>
</linearGradient>
<linearGradient id="paint13_linear_785_1264" x1="112.092" y1="90.7226" x2="112.092" y2="92.6511" gradientUnits="userSpaceOnUse">
<stop stop-color="#EDEDED"/>
<stop offset="1" stop-color="#6B6B6B"/>
</linearGradient>
<linearGradient id="paint14_linear_785_1264" x1="111.375" y1="79.0174" x2="111.375" y2="84.1784" gradientUnits="userSpaceOnUse">
<stop stop-color="#EDEDED"/>
<stop offset="1" stop-color="#6B6B6B"/>
</linearGradient>
<linearGradient id="paint15_linear_785_1264" x1="116.293" y1="83.0124" x2="116.293" y2="85.1932" gradientUnits="userSpaceOnUse">
<stop stop-color="#EDEDED"/>
<stop offset="1" stop-color="#6B6B6B"/>
</linearGradient>
<linearGradient id="paint16_linear_785_1264" x1="114.205" y1="71.5054" x2="114.205" y2="76.5872" gradientUnits="userSpaceOnUse">
<stop stop-color="#EDEDED"/>
<stop offset="1" stop-color="#6B6B6B"/>
</linearGradient>
<linearGradient id="paint17_linear_785_1264" x1="119.208" y1="75.1632" x2="119.208" y2="77.4991" gradientUnits="userSpaceOnUse">
<stop stop-color="#EDEDED"/>
<stop offset="1" stop-color="#6B6B6B"/>
</linearGradient>
<linearGradient id="paint18_linear_785_1264" x1="115.363" y1="64.0637" x2="115.363" y2="68.7119" gradientUnits="userSpaceOnUse">
<stop stop-color="#EDEDED"/>
<stop offset="1" stop-color="#6B6B6B"/>
</linearGradient>
<linearGradient id="paint19_linear_785_1264" x1="120.677" y1="66.1273" x2="120.677" y2="69.186" gradientUnits="userSpaceOnUse">
<stop stop-color="#EDEDED"/>
<stop offset="1" stop-color="#6B6B6B"/>
</linearGradient>
<linearGradient id="paint20_linear_785_1264" x1="115.095" y1="56.4269" x2="115.095" y2="60.4131" gradientUnits="userSpaceOnUse">
<stop stop-color="#EDEDED"/>
<stop offset="1" stop-color="#6B6B6B"/>
</linearGradient>
<linearGradient id="paint21_linear_785_1264" x1="120.533" y1="56.578" x2="120.533" y2="60.4476" gradientUnits="userSpaceOnUse">
<stop stop-color="#EDEDED"/>
<stop offset="1" stop-color="#6B6B6B"/>
</linearGradient>
<linearGradient id="paint22_linear_785_1264" x1="113.475" y1="49.3194" x2="113.475" y2="52.2964" gradientUnits="userSpaceOnUse">
<stop stop-color="#EDEDED"/>
<stop offset="1" stop-color="#6B6B6B"/>
</linearGradient>
<linearGradient id="paint23_linear_785_1264" x1="118.783" y1="47.1" x2="118.783" y2="51.7947" gradientUnits="userSpaceOnUse">
<stop stop-color="#EDEDED"/>
<stop offset="1" stop-color="#6B6B6B"/>
</linearGradient>
<linearGradient id="paint24_linear_785_1264" x1="110.7" y1="42.777" x2="110.7" y2="44.6189" gradientUnits="userSpaceOnUse">
<stop stop-color="#EDEDED"/>
<stop offset="1" stop-color="#6B6B6B"/>
</linearGradient>
<linearGradient id="paint25_linear_785_1264" x1="115.441" y1="38.053" x2="115.441" y2="43.3772" gradientUnits="userSpaceOnUse">
<stop stop-color="#EDEDED"/>
<stop offset="1" stop-color="#6B6B6B"/>
</linearGradient>
<linearGradient id="paint26_linear_785_1264" x1="106.636" y1="36.0297" x2="106.636" y2="37.473" gradientUnits="userSpaceOnUse">
<stop stop-color="#EDEDED"/>
<stop offset="1" stop-color="#6B6B6B"/>
</linearGradient>
<linearGradient id="paint27_linear_785_1264" x1="110.763" y1="30.0263" x2="110.763" y2="35.5696" gradientUnits="userSpaceOnUse">
<stop stop-color="#EDEDED"/>
<stop offset="1" stop-color="#6B6B6B"/>
</linearGradient>
<linearGradient id="paint28_linear_785_1264" x1="101.502" y1="29.5661" x2="101.502" y2="31.0834" gradientUnits="userSpaceOnUse">
<stop stop-color="#EDEDED"/>
<stop offset="1" stop-color="#6B6B6B"/>
</linearGradient>
<linearGradient id="paint29_linear_785_1264" x1="104.851" y1="22.9168" x2="104.851" y2="28.4135" gradientUnits="userSpaceOnUse">
<stop stop-color="#EDEDED"/>
<stop offset="1" stop-color="#6B6B6B"/>
</linearGradient>
<linearGradient id="paint30_linear_785_1264" x1="95.1221" y1="23.7847" x2="95.1221" y2="25.5853" gradientUnits="userSpaceOnUse">
<stop stop-color="#EDEDED"/>
<stop offset="1" stop-color="#6B6B6B"/>
</linearGradient>
<linearGradient id="paint31_linear_785_1264" x1="97.9031" y1="17.0306" x2="97.9031" y2="22.3828" gradientUnits="userSpaceOnUse">
<stop stop-color="#EDEDED"/>
<stop offset="1" stop-color="#6B6B6B"/>
</linearGradient>
<linearGradient id="paint32_linear_785_1264" x1="87.7638" y1="19.0462" x2="87.7638" y2="21.0955" gradientUnits="userSpaceOnUse">
<stop stop-color="#EDEDED"/>
<stop offset="1" stop-color="#6B6B6B"/>
</linearGradient>
<linearGradient id="paint33_linear_785_1264" x1="90.1677" y1="12.3125" x2="90.1677" y2="17.5388" gradientUnits="userSpaceOnUse">
<stop stop-color="#EDEDED"/>
<stop offset="1" stop-color="#6B6B6B"/>
</linearGradient>
<linearGradient id="paint34_linear_785_1264" x1="92.7466" y1="17.9963" x2="92.7466" y2="98.1869" gradientUnits="userSpaceOnUse">
<stop stop-color="#EDEDED"/>
<stop offset="1" stop-color="#6B6B6B"/>
</linearGradient>
<linearGradient id="paint35_linear_785_1264" x1="62.5222" y1="107.685" x2="62.5222" y2="112.422" gradientUnits="userSpaceOnUse">
<stop stop-color="#EDEDED"/>
<stop offset="1" stop-color="#6B6B6B"/>
</linearGradient>
<linearGradient id="paint36_linear_785_1264" x1="61.2508" y1="114.062" x2="61.2508" y2="116.968" gradientUnits="userSpaceOnUse">
<stop stop-color="#EDEDED"/>
<stop offset="1" stop-color="#6B6B6B"/>
</linearGradient>
<linearGradient id="paint37_linear_785_1264" x1="54.7282" y1="105.591" x2="54.7282" y2="110.812" gradientUnits="userSpaceOnUse">
<stop stop-color="#EDEDED"/>
<stop offset="1" stop-color="#6B6B6B"/>
</linearGradient>
<linearGradient id="paint38_linear_785_1264" x1="52.381" y1="112.369" x2="52.381" y2="114.402" gradientUnits="userSpaceOnUse">
<stop stop-color="#EDEDED"/>
<stop offset="1" stop-color="#6B6B6B"/>
</linearGradient>
<linearGradient id="paint39_linear_785_1264" x1="47.4236" y1="102.466" x2="47.4236" y2="107.884" gradientUnits="userSpaceOnUse">
<stop stop-color="#EDEDED"/>
<stop offset="1" stop-color="#6B6B6B"/>
</linearGradient>
<linearGradient id="paint40_linear_785_1264" x1="44.4893" y1="109.263" x2="44.4893" y2="110.933" gradientUnits="userSpaceOnUse">
<stop stop-color="#EDEDED"/>
<stop offset="1" stop-color="#6B6B6B"/>
</linearGradient>
<linearGradient id="paint41_linear_785_1264" x1="40.6255" y1="98.0791" x2="40.6255" y2="103.632" gradientUnits="userSpaceOnUse">
<stop stop-color="#EDEDED"/>
<stop offset="1" stop-color="#6B6B6B"/>
</linearGradient>
<linearGradient id="paint42_linear_785_1264" x1="36.8076" y1="104.403" x2="36.8076" y2="105.819" gradientUnits="userSpaceOnUse">
<stop stop-color="#EDEDED"/>
<stop offset="1" stop-color="#6B6B6B"/>
</linearGradient>
<linearGradient id="paint43_linear_785_1264" x1="34.4451" y1="92.6852" x2="34.4451" y2="98.1306" gradientUnits="userSpaceOnUse">
<stop stop-color="#EDEDED"/>
<stop offset="1" stop-color="#6B6B6B"/>
</linearGradient>
<linearGradient id="paint44_linear_785_1264" x1="30.0186" y1="98.0693" x2="30.0186" y2="99.688" gradientUnits="userSpaceOnUse">
<stop stop-color="#EDEDED"/>
<stop offset="1" stop-color="#6B6B6B"/>
</linearGradient>
<linearGradient id="paint45_linear_785_1264" x1="29.1324" y1="86.1506" x2="29.1324" y2="91.4374" gradientUnits="userSpaceOnUse">
<stop stop-color="#EDEDED"/>
<stop offset="1" stop-color="#6B6B6B"/>
</linearGradient>
<linearGradient id="paint46_linear_785_1264" x1="24.3948" y1="90.7226" x2="24.3948" y2="92.6511" gradientUnits="userSpaceOnUse">
<stop stop-color="#EDEDED"/>
<stop offset="1" stop-color="#6B6B6B"/>
</linearGradient>
<linearGradient id="paint47_linear_785_1264" x1="25.1113" y1="79.0174" x2="25.1113" y2="84.1784" gradientUnits="userSpaceOnUse">
<stop stop-color="#EDEDED"/>
<stop offset="1" stop-color="#6B6B6B"/>
</linearGradient>
<linearGradient id="paint48_linear_785_1264" x1="20.194" y1="83.0124" x2="20.194" y2="85.1932" gradientUnits="userSpaceOnUse">
<stop stop-color="#EDEDED"/>
<stop offset="1" stop-color="#6B6B6B"/>
</linearGradient>
<linearGradient id="paint49_linear_785_1264" x1="22.2815" y1="71.5054" x2="22.2815" y2="76.5872" gradientUnits="userSpaceOnUse">
<stop stop-color="#EDEDED"/>
<stop offset="1" stop-color="#6B6B6B"/>
</linearGradient>
<linearGradient id="paint50_linear_785_1264" x1="17.2784" y1="75.1632" x2="17.2784" y2="77.4991" gradientUnits="userSpaceOnUse">
<stop stop-color="#EDEDED"/>
<stop offset="1" stop-color="#6B6B6B"/>
</linearGradient>
<linearGradient id="paint51_linear_785_1264" x1="21.1233" y1="64.0637" x2="21.1233" y2="68.7119" gradientUnits="userSpaceOnUse">
<stop stop-color="#EDEDED"/>
<stop offset="1" stop-color="#6B6B6B"/>
</linearGradient>
<linearGradient id="paint52_linear_785_1264" x1="15.81" y1="66.1273" x2="15.81" y2="69.186" gradientUnits="userSpaceOnUse">
<stop stop-color="#EDEDED"/>
<stop offset="1" stop-color="#6B6B6B"/>
</linearGradient>
<linearGradient id="paint53_linear_785_1264" x1="21.3914" y1="56.4269" x2="21.3914" y2="60.4131" gradientUnits="userSpaceOnUse">
<stop stop-color="#EDEDED"/>
<stop offset="1" stop-color="#6B6B6B"/>
</linearGradient>
<linearGradient id="paint54_linear_785_1264" x1="15.9534" y1="56.578" x2="15.9534" y2="60.4476" gradientUnits="userSpaceOnUse">
<stop stop-color="#EDEDED"/>
<stop offset="1" stop-color="#6B6B6B"/>
</linearGradient>
<linearGradient id="paint55_linear_785_1264" x1="23.012" y1="49.3194" x2="23.012" y2="52.2964" gradientUnits="userSpaceOnUse">
<stop stop-color="#EDEDED"/>
<stop offset="1" stop-color="#6B6B6B"/>
</linearGradient>
<linearGradient id="paint56_linear_785_1264" x1="17.7043" y1="47.1" x2="17.7043" y2="51.7947" gradientUnits="userSpaceOnUse">
<stop stop-color="#EDEDED"/>
<stop offset="1" stop-color="#6B6B6B"/>
</linearGradient>
<linearGradient id="paint57_linear_785_1264" x1="25.7871" y1="42.777" x2="25.7871" y2="44.6189" gradientUnits="userSpaceOnUse">
<stop stop-color="#EDEDED"/>
<stop offset="1" stop-color="#6B6B6B"/>
</linearGradient>
<linearGradient id="paint58_linear_785_1264" x1="21.0454" y1="38.053" x2="21.0454" y2="43.3772" gradientUnits="userSpaceOnUse">
<stop stop-color="#EDEDED"/>
<stop offset="1" stop-color="#6B6B6B"/>
</linearGradient>
<linearGradient id="paint59_linear_785_1264" x1="29.8511" y1="36.0297" x2="29.8511" y2="37.473" gradientUnits="userSpaceOnUse">
<stop stop-color="#EDEDED"/>
<stop offset="1" stop-color="#6B6B6B"/>
</linearGradient>
<linearGradient id="paint60_linear_785_1264" x1="25.7241" y1="30.0263" x2="25.7241" y2="35.5696" gradientUnits="userSpaceOnUse">
<stop stop-color="#EDEDED"/>
<stop offset="1" stop-color="#6B6B6B"/>
</linearGradient>
<linearGradient id="paint61_linear_785_1264" x1="34.9845" y1="29.5661" x2="34.9845" y2="31.0834" gradientUnits="userSpaceOnUse">
<stop stop-color="#EDEDED"/>
<stop offset="1" stop-color="#6B6B6B"/>
</linearGradient>
<linearGradient id="paint62_linear_785_1264" x1="31.6355" y1="22.9168" x2="31.6355" y2="28.4135" gradientUnits="userSpaceOnUse">
<stop stop-color="#EDEDED"/>
<stop offset="1" stop-color="#6B6B6B"/>
</linearGradient>
<linearGradient id="paint63_linear_785_1264" x1="41.3647" y1="23.7847" x2="41.3647" y2="25.5853" gradientUnits="userSpaceOnUse">
<stop stop-color="#EDEDED"/>
<stop offset="1" stop-color="#6B6B6B"/>
</linearGradient>
<linearGradient id="paint64_linear_785_1264" x1="38.5837" y1="17.0306" x2="38.5837" y2="22.3828" gradientUnits="userSpaceOnUse">
<stop stop-color="#EDEDED"/>
<stop offset="1" stop-color="#6B6B6B"/>
</linearGradient>
<linearGradient id="paint65_linear_785_1264" x1="48.723" y1="19.0462" x2="48.723" y2="21.0955" gradientUnits="userSpaceOnUse">
<stop stop-color="#EDEDED"/>
<stop offset="1" stop-color="#6B6B6B"/>
</linearGradient>
<linearGradient id="paint66_linear_785_1264" x1="46.3191" y1="12.3125" x2="46.3191" y2="17.5388" gradientUnits="userSpaceOnUse">
<stop stop-color="#EDEDED"/>
<stop offset="1" stop-color="#6B6B6B"/>
</linearGradient>
<linearGradient id="paint67_linear_785_1264" x1="43.7407" y1="17.9963" x2="43.7407" y2="98.1869" gradientUnits="userSpaceOnUse">
<stop stop-color="#EDEDED"/>
<stop offset="1" stop-color="#6B6B6B"/>
</linearGradient>
<linearGradient id="paint68_linear_785_1264" x1="67.4999" y1="8.41205" x2="67.4999" y2="17.5499" gradientUnits="userSpaceOnUse">
<stop stop-color="#EDEDED"/>
<stop offset="1" stop-color="#6B6B6B"/>
</linearGradient>
<clipPath id="clip0_785_1264">
<rect width="112.014" height="105.239" fill="white" transform="translate(11.4629 12.2969)"/>
</clipPath>
<clipPath id="clip1_785_1264">
<rect width="11.52" height="10.9555" fill="white" transform="translate(61.7686 8.38477)"/>
</clipPath>
</defs>
</svg>
