<svg width="79" height="73" viewBox="0 0 79 73" fill="none" xmlns="http://www.w3.org/2000/svg">
<path d="M12.9072 44.7717C12.9072 42.5626 14.6981 40.7717 16.9072 40.7717H61.3925C63.6016 40.7717 65.3925 42.5626 65.3925 44.7717V58.1263C65.3925 59.7489 64.4122 61.2108 62.9111 61.8268L40.6685 70.955C39.6954 71.3544 38.6043 71.3544 37.6312 70.955L15.3886 61.8268C13.8875 61.2108 12.9072 59.7489 12.9072 58.1263V44.7717Z" fill="#222226"/>
<circle cx="39.5992" cy="33.5006" r="30.6" transform="rotate(180 39.5992 33.5006)" fill="url(#paint0_linear_667_21043)"/>
<path opacity="0.5" fill-rule="evenodd" clip-rule="evenodd" d="M55.0003 6.90259C50.5168 4.3561 45.3315 2.90063 39.8066 2.90063C22.7926 2.90063 9 16.6936 9 33.7081C9 45.0213 15.0994 54.9108 24.1894 60.2674C24.1894 60.2674 11.3898 51.0694 39.5949 33.585C67.8 16.1006 55.0003 6.90259 55.0003 6.90259Z" fill="url(#paint1_linear_667_21043)"/>
<path d="M68.3155 32.785C68.3155 48.8927 55.2576 61.9505 39.1499 61.9505C23.0422 61.9505 9.98438 48.8927 9.98438 32.785C9.98438 16.6773 23.0422 3.61938 39.1499 3.61938C55.2576 3.61938 68.3155 16.6773 68.3155 32.785Z" stroke="white" stroke-opacity="0.2"/>
<circle cx="39.1495" cy="32.7852" r="25.1016" fill="white" fill-opacity="0.2"/>
<ellipse cx="39.1491" cy="32.7849" rx="23.9607" ry="23.9607" fill="url(#paint2_linear_667_21043)"/>
<path d="M47.475 36.4941L53.2282 30.8495C53.4713 30.6115 53.6065 30.2826 53.6008 29.9422L53.536 27.2043L25.584 27.0889L25.6228 29.7792C25.6444 30.1542 25.8012 30.5076 26.0658 30.7731L31.7486 36.4941L30.5922 42.7402L30.6109 45.4319C30.4857 46.1604 31.248 46.7157 31.901 46.3724L39.1976 42.5252C39.4565 42.3882 39.7657 42.3882 40.0246 42.5252L47.3211 46.3724C47.9741 46.7157 48.7364 46.1604 48.6113 45.4319L48.5264 42.857L47.4736 36.4941H47.475Z" fill="url(#paint3_linear_667_21043)"/>
<path d="M47.475 36.4941L53.2282 30.8495C53.4713 30.6115 53.6065 30.2826 53.6008 29.9422L53.536 27.2043L25.584 27.0889L25.6228 29.7792C25.6444 30.1542 25.8012 30.5076 26.0658 30.7731L31.7486 36.4941L30.5922 42.7402L30.6109 45.4319C30.4857 46.1604 31.248 46.7157 31.901 46.3724L39.1976 42.5252C39.4565 42.3882 39.7657 42.3882 40.0246 42.5252L47.3211 46.3724C47.9741 46.7157 48.7364 46.1604 48.6113 45.4319L48.5264 42.857L47.4736 36.4941H47.475Z" fill="url(#paint4_linear_667_21043)"/>
<path d="M40.3522 17.3087L44.0012 24.7232C44.1307 24.9858 44.3809 25.169 44.67 25.2108L52.8281 26.3994C53.5573 26.5062 53.8493 27.4049 53.3214 27.9213L47.4186 33.6928C47.2086 33.8976 47.1137 34.1933 47.1626 34.4818L48.5563 42.6306C48.6815 43.3591 47.9192 43.9145 47.2662 43.5711L39.9696 39.7239C39.7107 39.5869 39.4015 39.5869 39.1426 39.7239L31.8461 43.5711C31.1931 43.9145 30.4308 43.3591 30.5559 42.6306L31.9496 34.4818C31.9985 34.1919 31.9036 33.8976 31.6936 33.6928L25.7879 27.9198C25.2601 27.4034 25.552 26.5047 26.2813 26.398L34.4393 25.2094C34.7284 25.1675 34.9787 24.9843 35.1082 24.7218L38.7571 17.3087C39.0836 16.6451 40.0257 16.6451 40.3522 17.3087Z" fill="url(#paint5_linear_667_21043)"/>
<path d="M40.3522 17.3087L44.0012 24.7232C44.1307 24.9858 44.3809 25.169 44.67 25.2108L52.8281 26.3994C53.5573 26.5062 53.8493 27.4049 53.3214 27.9213L47.4186 33.6928C47.2086 33.8976 47.1137 34.1933 47.1626 34.4818L48.5563 42.6306C48.6815 43.3591 47.9192 43.9145 47.2662 43.5711L39.9696 39.7239C39.7107 39.5869 39.4015 39.5869 39.1426 39.7239L31.8461 43.5711C31.1931 43.9145 30.4308 43.3591 30.5559 42.6306L31.9496 34.4818C31.9985 34.1919 31.9036 33.8976 31.6936 33.6928L25.7879 27.9198C25.2601 27.4034 25.552 26.5047 26.2813 26.398L34.4393 25.2094C34.7284 25.1675 34.9787 24.9843 35.1082 24.7218L38.7571 17.3087C39.0836 16.6451 40.0257 16.6451 40.3522 17.3087Z" fill="url(#paint6_linear_667_21043)"/>
<path d="M40.2402 18.434L43.5799 25.221C43.6979 25.4619 43.928 25.6293 44.1926 25.6682L51.6618 26.7573C52.3291 26.854 52.5967 27.6776 52.1134 28.1493L46.7097 33.4333C46.5184 33.6208 46.4306 33.8905 46.4752 34.156L47.751 41.6167C47.8646 42.2831 47.1671 42.7923 46.5702 42.4778L39.8907 38.9552C39.6533 38.8297 39.37 38.8297 39.1327 38.9552L32.4532 42.4778C31.8563 42.7923 31.1573 42.2845 31.2723 41.6167L32.5481 34.156C32.5927 33.8905 32.5064 33.6208 32.3137 33.4333L26.9071 28.1493C26.4238 27.6776 26.6899 26.854 27.3587 26.7573L34.8278 25.6682C35.0925 25.6293 35.3226 25.4619 35.4405 25.221L38.7803 18.434C39.0795 17.8267 39.941 17.8267 40.2402 18.434Z" fill="url(#paint7_linear_667_21043)"/>
<path d="M40.2402 18.434L43.5799 25.221C43.6979 25.4619 43.928 25.6293 44.1926 25.6682L51.6618 26.7573C52.3291 26.854 52.5967 27.6776 52.1134 28.1493L46.7097 33.4333C46.5184 33.6208 46.4306 33.8905 46.4752 34.156L47.751 41.6167C47.8646 42.2831 47.1671 42.7923 46.5702 42.4778L39.8907 38.9552C39.6533 38.8297 39.37 38.8297 39.1327 38.9552L32.4532 42.4778C31.8563 42.7923 31.1573 42.2845 31.2723 41.6167L32.5481 34.156C32.5927 33.8905 32.5064 33.6208 32.3137 33.4333L26.9071 28.1493C26.4238 27.6776 26.6899 26.854 27.3587 26.7573L34.8278 25.6682C35.0925 25.6293 35.3226 25.4619 35.4405 25.221L38.7803 18.434C39.0795 17.8267 39.941 17.8267 40.2402 18.434Z" fill="url(#paint8_linear_667_21043)"/>
<path d="M39.6183 23.2784C40.007 22.3977 39.9059 21.4989 39.3924 21.2709C38.8788 21.0429 38.1474 21.572 37.7586 22.4527C37.3698 23.3334 37.471 24.2322 37.9845 24.4602C38.498 24.6882 39.2295 24.1591 39.6183 23.2784Z" fill="white"/>
<path d="M37.8928 25.8107C38.0735 25.4013 38.0263 24.9834 37.7873 24.8773C37.5484 24.7712 37.2081 25.0171 37.0274 25.4265C36.8467 25.8358 36.8939 26.2537 37.1329 26.3598C37.3719 26.466 37.7121 26.2201 37.8928 25.8107Z" fill="white"/>
<path opacity="0.24" d="M32.4401 42.5008L39.1196 38.9782C39.357 38.8527 39.6403 38.8527 39.8776 38.9782L46.5571 42.5008C47.154 42.8153 47.853 42.3075 47.738 41.6396L46.4622 34.1789C46.4162 33.9135 46.5039 33.6437 46.6966 33.4562L52.1004 28.1723C52.5836 27.7006 52.3175 26.8769 51.6487 26.7803L46.9829 26.1008C42.924 32.3599 36.5767 34.7833 32.2675 35.7224L31.2564 41.6396C31.1428 42.3061 31.8404 42.8153 32.4373 42.5008H32.4401Z" fill="white"/>
<ellipse cx="64.2" cy="48.5005" rx="7.2" ry="7.2" fill="url(#paint9_radial_667_21043)"/>
<ellipse cx="2.07418" cy="16.5934" rx="2.07418" ry="16.5934" transform="matrix(0.707106 0.707107 -0.707106 0.707107 74.4668 35.3005)" fill="url(#paint10_radial_667_21043)" fill-opacity="0.5"/>
<ellipse cx="2.07418" cy="16.5934" rx="2.07418" ry="16.5934" transform="matrix(-0.707106 0.707107 -0.707106 -0.707107 77.3994 58.7664)" fill="url(#paint11_radial_667_21043)" fill-opacity="0.5"/>
<ellipse cx="0.691392" cy="16.5934" rx="0.691392" ry="16.5934" transform="matrix(0.707106 0.707107 -0.707106 0.707107 75.4443 36.2778)" fill="url(#paint12_radial_667_21043)"/>
<ellipse cx="0.691392" cy="16.5934" rx="0.691392" ry="16.5934" transform="matrix(-0.707106 0.707107 -0.707106 -0.707107 76.4219 59.7461)" fill="url(#paint13_radial_667_21043)"/>
<ellipse cx="14.9998" cy="30.5005" rx="7.2" ry="7.2" fill="url(#paint14_radial_667_21043)"/>
<ellipse cx="2.07418" cy="16.5934" rx="2.07418" ry="16.5934" transform="matrix(0.707106 0.707107 -0.707106 0.707107 25.2666 17.3005)" fill="url(#paint15_radial_667_21043)" fill-opacity="0.5"/>
<ellipse cx="2.07418" cy="16.5934" rx="2.07418" ry="16.5934" transform="matrix(-0.707106 0.707107 -0.707106 -0.707107 28.1992 40.7664)" fill="url(#paint16_radial_667_21043)" fill-opacity="0.5"/>
<ellipse cx="0.691392" cy="16.5934" rx="0.691392" ry="16.5934" transform="matrix(0.707106 0.707107 -0.707106 0.707107 26.2441 18.2778)" fill="url(#paint17_radial_667_21043)"/>
<ellipse cx="0.691392" cy="16.5934" rx="0.691392" ry="16.5934" transform="matrix(-0.707106 0.707107 -0.707106 -0.707107 27.2217 41.7461)" fill="url(#paint18_radial_667_21043)"/>
<defs>
<linearGradient id="paint0_linear_667_21043" x1="9.65501" y1="-21.284" x2="80.3806" y2="-1.71498" gradientUnits="userSpaceOnUse">
<stop stop-color="#9A3A1F"/>
<stop offset="0.1673" stop-color="#A95822"/>
<stop offset="0.3309" stop-color="#C48021"/>
<stop offset="0.4984" stop-color="#D8A753"/>
<stop offset="0.6663" stop-color="#E6C673"/>
<stop offset="0.7963" stop-color="#ECD077"/>
<stop offset="0.8302" stop-color="#EED478"/>
<stop offset="1" stop-color="#F8F090"/>
</linearGradient>
<linearGradient id="paint1_linear_667_21043" x1="9.52396" y1="-19.7692" x2="67.1533" y2="-6.17776" gradientUnits="userSpaceOnUse">
<stop stop-color="#9A3A1F"/>
<stop offset="0.1673" stop-color="#A95822"/>
<stop offset="0.3309" stop-color="#C48021"/>
<stop offset="0.4984" stop-color="#D8A753"/>
<stop offset="0.6663" stop-color="#E6C673"/>
<stop offset="0.7963" stop-color="#ECD077"/>
<stop offset="0.8302" stop-color="#EED478"/>
<stop offset="1" stop-color="#F8F090"/>
</linearGradient>
<linearGradient id="paint2_linear_667_21043" x1="40.5832" y1="8.48342" x2="40.5832" y2="56.4047" gradientUnits="userSpaceOnUse">
<stop stop-color="#7640AF"/>
<stop offset="1" stop-color="#20033E"/>
</linearGradient>
<linearGradient id="paint3_linear_667_21043" x1="25.584" y1="36.7826" x2="53.6008" y2="36.7826" gradientUnits="userSpaceOnUse">
<stop stop-color="#E17200"/>
<stop offset="1" stop-color="#900B00"/>
</linearGradient>
<linearGradient id="paint4_linear_667_21043" x1="49.1997" y1="42.5014" x2="17.9326" y2="73.2867" gradientUnits="userSpaceOnUse">
<stop stop-color="#9A3A1F"/>
<stop offset="0.1673" stop-color="#A95822"/>
<stop offset="0.3309" stop-color="#C48021"/>
<stop offset="0.4984" stop-color="#D8A753"/>
<stop offset="0.6663" stop-color="#E6C673"/>
<stop offset="0.7963" stop-color="#ECD077"/>
<stop offset="0.8302" stop-color="#EED478"/>
<stop offset="1" stop-color="#F8F090"/>
</linearGradient>
<linearGradient id="paint5_linear_667_21043" x1="27.4089" y1="26.3215" x2="52.7108" y2="38.5178" gradientUnits="userSpaceOnUse">
<stop stop-color="#FFA14C"/>
<stop offset="1" stop-color="#FFD94C"/>
</linearGradient>
<linearGradient id="paint6_linear_667_21043" x1="26.3994" y1="43.1009" x2="51.179" y2="22.5341" gradientUnits="userSpaceOnUse">
<stop stop-color="#9A3A1F"/>
<stop offset="0.1673" stop-color="#A95822"/>
<stop offset="0.3309" stop-color="#C48021"/>
<stop offset="0.4984" stop-color="#D8A753"/>
<stop offset="0.6663" stop-color="#E6C673"/>
<stop offset="0.7963" stop-color="#ECD077"/>
<stop offset="0.8302" stop-color="#EED478"/>
<stop offset="1" stop-color="#F8F090"/>
</linearGradient>
<linearGradient id="paint7_linear_667_21043" x1="26.6611" y1="30.2756" x2="52.3593" y2="30.2756" gradientUnits="userSpaceOnUse">
<stop offset="0.13" stop-color="#FFC400"/>
<stop offset="0.74" stop-color="#FFDB3D"/>
</linearGradient>
<linearGradient id="paint8_linear_667_21043" x1="85.7996" y1="1.70117" x2="42.5465" y2="52.2167" gradientUnits="userSpaceOnUse">
<stop stop-color="#9A3A1F"/>
<stop offset="0.1673" stop-color="#A95822"/>
<stop offset="0.3309" stop-color="#C48021"/>
<stop offset="0.4984" stop-color="#D8A753"/>
<stop offset="0.6663" stop-color="#E6C673"/>
<stop offset="0.7963" stop-color="#ECD077"/>
<stop offset="0.8302" stop-color="#EED478"/>
<stop offset="1" stop-color="#F8F090"/>
</linearGradient>
<radialGradient id="paint9_radial_667_21043" cx="0" cy="0" r="1" gradientUnits="userSpaceOnUse" gradientTransform="translate(64.2 48.5005) rotate(90) scale(7.2 7.2)">
<stop stop-color="white" stop-opacity="0.77"/>
<stop offset="1" stop-color="white" stop-opacity="0"/>
</radialGradient>
<radialGradient id="paint10_radial_667_21043" cx="0" cy="0" r="1" gradientUnits="userSpaceOnUse" gradientTransform="translate(2.07418 16.5934) rotate(90) scale(16.5934 2.07418)">
<stop stop-color="white"/>
<stop offset="1" stop-color="white" stop-opacity="0"/>
</radialGradient>
<radialGradient id="paint11_radial_667_21043" cx="0" cy="0" r="1" gradientUnits="userSpaceOnUse" gradientTransform="translate(2.07418 16.5934) rotate(90) scale(16.5934 2.07418)">
<stop stop-color="white"/>
<stop offset="1" stop-color="white" stop-opacity="0"/>
</radialGradient>
<radialGradient id="paint12_radial_667_21043" cx="0" cy="0" r="1" gradientUnits="userSpaceOnUse" gradientTransform="translate(0.691392 16.5934) rotate(90) scale(16.5934 0.691392)">
<stop stop-color="white"/>
<stop offset="1" stop-color="white" stop-opacity="0"/>
</radialGradient>
<radialGradient id="paint13_radial_667_21043" cx="0" cy="0" r="1" gradientUnits="userSpaceOnUse" gradientTransform="translate(0.691392 16.5934) rotate(90) scale(16.5934 0.691392)">
<stop stop-color="white"/>
<stop offset="1" stop-color="white" stop-opacity="0"/>
</radialGradient>
<radialGradient id="paint14_radial_667_21043" cx="0" cy="0" r="1" gradientUnits="userSpaceOnUse" gradientTransform="translate(14.9998 30.5005) rotate(90) scale(7.2)">
<stop stop-color="white" stop-opacity="0.77"/>
<stop offset="1" stop-color="white" stop-opacity="0"/>
</radialGradient>
<radialGradient id="paint15_radial_667_21043" cx="0" cy="0" r="1" gradientUnits="userSpaceOnUse" gradientTransform="translate(2.07418 16.5934) rotate(90) scale(16.5934 2.07418)">
<stop stop-color="white"/>
<stop offset="1" stop-color="white" stop-opacity="0"/>
</radialGradient>
<radialGradient id="paint16_radial_667_21043" cx="0" cy="0" r="1" gradientUnits="userSpaceOnUse" gradientTransform="translate(2.07418 16.5934) rotate(90) scale(16.5934 2.07418)">
<stop stop-color="white"/>
<stop offset="1" stop-color="white" stop-opacity="0"/>
</radialGradient>
<radialGradient id="paint17_radial_667_21043" cx="0" cy="0" r="1" gradientUnits="userSpaceOnUse" gradientTransform="translate(0.691392 16.5934) rotate(90) scale(16.5934 0.691392)">
<stop stop-color="white"/>
<stop offset="1" stop-color="white" stop-opacity="0"/>
</radialGradient>
<radialGradient id="paint18_radial_667_21043" cx="0" cy="0" r="1" gradientUnits="userSpaceOnUse" gradientTransform="translate(0.691392 16.5934) rotate(90) scale(16.5934 0.691392)">
<stop stop-color="white"/>
<stop offset="1" stop-color="white" stop-opacity="0"/>
</radialGradient>
</defs>
</svg>
