<svg width="120" height="120" viewBox="0 0 120 120" fill="none" xmlns="http://www.w3.org/2000/svg">
<g clip-path="url(#clip0_1481_59051)">
<g style="mix-blend-mode:multiply" filter="url(#filter0_f_1481_59051)">
<path d="M66 114.138C66 115.54 52.2104 117.138 35.2 117.138C18.1897 117.138 4.40002 115.54 4.40002 114.138C4.40002 112.736 18.1897 111.6 35.2 111.6C52.2104 111.6 66 112.736 66 114.138Z" fill="url(#paint0_radial_1481_59051)"/>
</g>
<path d="M84.744 79.454L72.3717 85.2135L62.8651 89.6475L52.2395 94.6025L44.5705 98.1771L36.5012 101.935L30.7245 104.622L24.7021 107.429L20.0625 109.596L14.7133 112.091L11.0835 113.783L5.78887 116.251C4.48796 116.855 3.14157 115.501 3.75109 114.203L6.21644 108.892L7.89944 105.253L10.4012 99.8867L12.5572 95.2425L15.3592 89.1995L18.0429 83.4217L21.8 75.34L25.3662 67.6606L30.3151 57.0191L34.7182 47.5204L40.6678 34.7031L84.7349 79.4265L84.744 79.454Z" fill="url(#paint1_linear_1481_59051)"/>
<path d="M14.64 111.998L11.1028 113.639C10.2518 112.956 9.40958 112.202 8.59399 111.385C7.7784 110.569 7.03373 109.743 6.35999 108.891L8.00003 105.359C8.88654 106.566 9.91489 107.764 11.0585 108.909C12.2021 110.054 13.4166 111.092 14.64 111.989V111.998Z" fill="url(#paint2_linear_1481_59051)"/>
<path d="M24.576 107.608L19.9228 109.776C18.1254 108.514 16.3462 107.023 14.64 105.312C12.9521 103.62 11.474 101.845 10.224 100.071L12.3864 95.4238C13.8188 97.7106 15.6528 99.9974 17.7969 102.156C19.9684 104.333 22.2676 106.172 24.576 107.617V107.608Z" fill="url(#paint3_linear_1481_59051)"/>
<path d="M36.72 102.077L30.8377 104.807C27.892 102.996 24.9092 100.647 22.1024 97.8325C19.2956 95.0185 16.9983 92.0837 15.192 89.1489L17.9246 83.2793C19.8514 86.8642 22.5656 90.5513 25.9652 93.9597C29.4019 97.4053 33.1073 100.145 36.72 102.077Z" fill="url(#paint4_linear_1481_59051)"/>
<path d="M72.5999 85.4867L63.117 89.9032C56.8282 86.9528 50.2401 82.2995 44.1873 76.2257C38.189 70.2066 33.5972 63.6684 30.6479 57.4125L35.0401 47.9512C37.7806 55.2179 42.935 63.1311 50.0858 70.3068C57.3001 77.5461 65.2949 82.764 72.5999 85.4776V85.4867Z" fill="url(#paint5_linear_1481_59051)"/>
<path d="M52.176 94.6259L44.527 98.1832C40.1808 95.7541 35.7529 92.406 31.6335 88.2664C27.5142 84.1268 24.2386 79.778 21.816 75.4656L25.3728 67.8232C27.8408 72.9727 31.6426 78.3405 36.5877 83.2989C41.569 88.2937 46.995 92.1422 52.176 94.6168V94.6259Z" fill="url(#paint6_linear_1481_59051)"/>
<path style="mix-blend-mode:screen" d="M66.2021 60.6475L3.59998 115.569C3.75541 115.943 4.03884 116.235 4.40456 116.399L80.328 74.8913L66.2021 60.6475Z" fill="url(#paint7_linear_1481_59051)"/>
<path d="M85.5062 79.0738C81.9968 82.5833 69.1747 75.4456 56.8643 63.1353C44.554 50.8249 37.4163 38.0028 40.9258 34.4934C44.4352 30.984 57.2573 38.1216 69.5676 50.4319C81.878 62.7423 89.0156 75.5644 85.5062 79.0738Z" fill="url(#paint8_linear_1481_59051)"/>
<path d="M105.7 64.6621L102.848 68.668L100.949 63.8343L105.7 64.6621Z" fill="#2679FF"/>
<path d="M97.776 53.5631L97.4145 49.7355C97.4145 49.7355 100.707 48.6378 101.878 49.6738L102.403 53.5008C102.403 53.5008 100.022 52.4836 97.777 53.5639L97.776 53.5631Z" fill="#E63887"/>
<path d="M94.1607 65.0364C94.1607 65.0364 95.1279 62.5525 97.0563 61.3817L94.24 58.7655C94.24 58.7655 91.7372 60.4423 91.3625 62.4214L94.1609 65.0382L94.1607 65.0364Z" fill="#E63887"/>
<path d="M92.5238 56.1499L85.6648 52.9597L91.3967 49.0524L92.5238 56.1499Z" fill="#00A7B4"/>
<path d="M104.969 49.9597C104.655 50.2718 104.545 50.6834 104.56 51.1555C106.401 50.945 109.133 51.8218 111.753 49.8687C112.042 49.6537 112.302 49.4264 112.538 49.1916C112.839 48.8903 113.097 48.5758 113.319 48.251C109.986 50.529 106.517 48.4258 104.968 49.9607L104.969 49.9597Z" fill="#FFCF00"/>
<path d="M115.69 38.5438L113.896 40.3239C113.896 40.3239 115.665 44.8228 113.32 48.2524C113.098 48.5772 112.839 48.8927 112.539 49.193L114.336 47.4107C117.809 43.9337 115.691 38.5446 115.691 38.5446L115.69 38.5438Z" fill="#FFCF00"/>
<path d="M99.0453 44.4971L96.1935 48.5029L94.2949 43.67L99.0453 44.4971Z" fill="#2679FF"/>
<path d="M115.906 65.0716C112.741 66.3837 107.309 60.7157 103.606 61.2398L105.378 60.2913C108.797 59.8065 113.692 64.6041 116.914 64.3057C117.145 64.2844 117.366 64.2382 117.578 64.1617L116.351 64.8292L115.905 65.0708L115.906 65.0716Z" fill="#2679FF"/>
<path d="M117.579 64.1614C117.367 64.2379 117.145 64.2851 116.916 64.3054C116.979 64.23 117.04 64.1489 117.099 64.0641C117.947 62.8405 118.284 61.6047 118.303 60.4536C118.792 60.8084 119.294 61.0857 119.787 61.2723C119.596 61.8824 119.297 62.4998 118.872 63.1163C118.67 63.4087 118.449 63.6406 118.212 63.8188C118.013 63.9692 117.802 64.0816 117.58 64.1621L117.579 64.1614Z" fill="#2679FF"/>
<path d="M111.645 58.3596L108.797 55.7766C108.797 55.7766 110.489 52.7455 112.052 52.7223L115.02 55.1935C115.02 55.1935 112.575 56.0475 111.646 58.3586L111.645 58.3596Z" fill="#00A7B4"/>
<path d="M92.3463 66.8499L90.0723 65.7487C89.1741 65.3141 87.0992 71.1152 84.7265 70.2438L86.6976 71.1985C88.2813 72.1614 89.7512 69.9744 90.8523 68.3594C91.4886 67.4258 92.0039 66.6844 92.3463 66.8499V66.8499Z" fill="#FFCF00"/>
<path d="M92.3467 66.8495C92.0042 66.684 91.4899 67.4262 90.8526 68.359C91.1808 70.4223 91.5322 73.0307 92.5559 73.5736C92.5927 73.592 92.6294 73.6105 92.6683 73.6242C93.0521 73.7687 93.4833 73.6445 93.9451 73.38C93.1534 71.2019 93.0734 67.2027 92.3459 66.8505L92.3467 66.8495Z" fill="#FFCF00"/>
<path d="M101.222 71.7651L98.9478 70.664C97.4302 69.9292 95.5162 72.4783 93.9462 73.3806C93.4836 73.6461 93.0531 73.7693 92.6693 73.6248L94.9366 74.7223C96.2832 75.2395 98.2308 72.446 99.9583 71.7749C100.398 71.6045 100.823 71.5712 101.222 71.7633L101.222 71.7651Z" fill="#FFCF00"/>
<path d="M101.222 71.7652C100.824 71.5721 100.398 71.6064 99.9586 71.7768C100.768 73.4431 100.847 76.312 103.559 78.1344C103.859 78.3355 104.159 78.5067 104.46 78.6499C104.843 78.8341 105.226 78.9734 105.606 79.0752C102.351 76.687 103.184 72.7165 101.222 71.7652V71.7652Z" fill="#FFCF00"/>
<path d="M115.549 78.0896L113.275 76.9885C113.275 76.9885 109.617 80.1506 105.605 79.0757C105.225 78.9739 104.842 78.8346 104.459 78.6504L106.736 79.7538C111.168 81.8761 115.549 78.0896 115.549 78.0896Z" fill="#FFCF00"/>
<path d="M90.1544 35.2806C87.1704 36.9658 88.2876 44.7353 85.5935 47.3287L87.4326 46.5171C89.9219 44.1218 89.1591 37.3113 91.379 34.9569C91.5374 34.7885 91.7105 34.6425 91.9017 34.5228L90.6193 35.0788L90.1544 35.2806Z" fill="#00A7B4"/>
<path d="M91.9013 34.5235C91.7102 34.6431 91.537 34.7892 91.3786 34.9576C91.4764 34.9542 91.5777 34.9567 91.6831 34.9623C93.1688 35.0487 94.3503 35.545 95.2691 36.2382C95.2919 35.6347 95.3819 35.0681 95.5392 34.5654C94.9407 34.3399 94.2701 34.1945 93.524 34.1504C93.1696 34.1299 92.851 34.1604 92.5632 34.2382C92.3229 34.3014 92.1034 34.3978 91.9031 34.5232L91.9013 34.5235Z" fill="#00A7B4"/>
<path d="M103.021 45.4484L101.408 43.9855C101.408 43.9855 102.367 42.2698 103.25 42.2566L104.931 43.6553C104.931 43.6553 103.547 44.1385 103.02 45.4476L103.021 45.4484Z" fill="#00A7B4"/>
<path d="M53.3833 14.2127L48.9438 16.3271L53.3752 19.0357L53.3833 14.2127Z" fill="#2679FF"/>
<path d="M62.9411 23.9398L66.6481 24.9591C66.6481 24.9591 68.2998 21.9066 67.4824 20.5741L63.8043 19.3933C63.8043 19.3933 64.3936 21.9144 62.9405 23.9386L62.9411 23.9398Z" fill="#E63887"/>
<path d="M51.0152 25.5127C51.0152 25.5127 53.6292 24.9906 55.1165 23.2942L57.205 26.5213C57.205 26.5213 55.1199 28.6956 53.1057 28.7217L51.0135 25.5122L51.0152 25.5127Z" fill="#E63887"/>
<path d="M59.4836 28.6643L61.4369 35.9724L66.2783 31.0042L59.4836 28.6643Z" fill="#00A7B4"/>
<path d="M67.7358 17.4798C67.374 17.7349 66.9496 17.772 66.4872 17.6752C67.0134 15.8991 66.6234 13.0562 69.0009 10.8148C69.2627 10.5673 69.5317 10.3503 69.8038 10.1586C70.1527 9.91445 70.5072 9.71433 70.8656 9.55203C68.0444 12.4405 69.5147 16.2215 67.7346 17.4804L67.7358 17.4798Z" fill="#FFCF00"/>
<path d="M80.8375 8.89974L78.7735 10.3578C78.7735 10.3578 74.6492 7.83634 70.8651 9.55125C70.5067 9.71355 70.1511 9.91425 69.8033 10.1578L71.8701 8.69683C75.8963 5.87858 80.8369 8.89861 80.8369 8.89861L80.8375 8.89974Z" fill="#FFCF00"/>
<path d="M72.0902 24.2615L67.6508 26.376L72.0816 29.0834L72.0902 24.2615Z" fill="#2679FF"/>
<path d="M54.7486 4.0906C52.9078 6.9805 57.5489 13.3118 56.3909 16.8686L57.6322 15.2878C58.7022 12.0039 54.8254 6.35157 55.6777 3.22982C55.7386 3.00639 55.8224 2.79679 55.9345 2.60096L55.0644 3.69435L54.7491 4.09173L54.7486 4.0906Z" fill="#2679FF"/>
<path d="M55.9346 2.59973C55.8224 2.79557 55.7375 3.00575 55.6777 3.2286C55.7629 3.17889 55.8533 3.13365 55.9471 3.08948C57.2992 2.46676 58.5747 2.34849 59.7117 2.52925C59.447 1.98627 59.2608 1.44396 59.1625 0.92594C58.5285 1.00876 57.8686 1.19588 57.1878 1.50759C56.8648 1.65587 56.5982 1.83337 56.3816 2.03621C56.199 2.20584 56.0517 2.39423 55.934 2.59861L55.9346 2.59973Z" fill="#2679FF"/>
<path d="M60.6205 9.44949L62.6709 12.702C62.6709 12.702 65.9493 11.5609 66.243 10.0258L64.3235 6.67443C64.3235 6.67443 63.0588 8.93416 60.6216 9.44891L60.6205 9.44949Z" fill="#00A7B4"/>
<path d="M48.9148 26.9851L49.6052 29.4156C49.8776 30.3755 43.8047 31.4138 44.2518 33.9016L43.6532 31.7949C42.9792 30.0683 45.3878 28.9996 47.1692 28.195C48.1989 27.7302 49.0184 27.3511 48.9148 26.9851V26.9851Z" fill="#FFCF00"/>
<path d="M48.9151 26.9853C49.0187 27.3512 48.1986 27.7292 47.1695 28.1951C45.1942 27.5144 42.6863 26.7163 42.329 25.614C42.3172 25.5746 42.3053 25.5352 42.2986 25.4946C42.2227 25.0916 42.4198 24.6884 42.7603 24.2794C44.7683 25.4366 48.6931 26.2084 48.914 26.9859L48.9151 26.9853Z" fill="#FFCF00"/>
<path d="M45.6115 17.3924L46.3019 19.8229C46.7625 21.4448 43.9203 22.8882 42.7596 24.278C42.418 24.6876 42.2221 25.0902 42.2979 25.4933L41.6099 23.0701C41.3338 21.6543 44.4225 20.2202 45.3829 18.6351C45.6269 18.2319 45.7334 17.8186 45.6132 17.393L45.6115 17.3924Z" fill="#FFCF00"/>
<path d="M45.611 17.3923C45.7323 17.8174 45.6247 18.2313 45.3807 18.6345C43.8799 17.5481 41.0681 16.9738 39.7432 13.9865C39.5971 13.6567 39.4804 13.3316 39.3915 13.0107C39.2766 12.6008 39.2058 12.1994 39.1714 11.8077C40.9593 15.4275 45.0142 15.2946 45.611 17.3923V17.3923Z" fill="#FFCF00"/>
<path d="M41.8648 2.18605L42.5552 4.61648C42.5552 4.61648 38.8072 7.6707 39.1705 11.8085C39.205 12.2002 39.2758 12.6016 39.3907 13.0115L38.6986 10.5777C37.3765 5.84432 41.8648 2.18605 41.8648 2.18605Z" fill="#FFCF00"/>
<path d="M79.6265 34.6141C77.4498 37.2608 69.9913 34.8142 66.9703 37.0182L68.0883 35.3475C70.8788 33.3109 77.4541 35.2424 80.1574 33.464C80.3508 33.3372 80.5246 33.192 80.6756 33.0245L79.9058 34.1912L79.6265 34.6141Z" fill="#00A7B4"/>
<path d="M80.6747 33.0255C80.5238 33.193 80.3499 33.3382 80.1566 33.4651C80.1768 33.3693 80.1919 33.2691 80.2047 33.1644C80.3771 31.6862 80.093 30.4366 79.5695 29.4116C80.1678 29.4936 80.7415 29.5031 81.2638 29.4353C81.3822 30.0639 81.4092 30.7495 81.3233 31.492C81.2821 31.8446 81.1968 32.1531 81.0704 32.4231C80.9665 32.6488 80.8335 32.8483 80.6753 33.0238L80.6747 33.0255Z" fill="#00A7B4"/>
<path d="M71.8417 20.181L73.0031 22.0227C73.0031 22.0227 74.8588 21.3759 75.025 20.5081L73.9386 18.6105C73.9386 18.6105 73.2229 19.8901 71.8423 20.1821L71.8417 20.181Z" fill="#00A7B4"/>
<path d="M75.316 44.8178L77.9266 47.2253C77.9266 47.2253 80.5757 45.4199 80.4695 43.9799L77.9511 41.4521C77.9511 41.4521 77.3664 43.771 75.316 44.8166V44.8178Z" fill="#E63887"/>
<path d="M64.9394 45.1454C64.9394 45.1454 67.3061 45.8245 69.2456 45.0625L69.5922 48.5962C69.5922 48.5962 66.9595 49.4971 65.2953 48.665L64.9382 45.1442L64.9394 45.1454Z" fill="#E63887"/>
<path d="M76.6708 62.742C76.6708 62.742 79.0375 63.4212 80.9771 62.6592L81.3237 66.1928C81.3237 66.1928 78.6909 67.0938 77.0268 66.2617L76.6697 62.7409L76.6708 62.742Z" fill="#E63887"/>
<path d="M68.3771 53.0537L66.8834 59.8795L72.9622 57.8536L68.3771 53.0537Z" fill="#00A7B4"/>
<path d="M80.5908 54.7816L76.0512 54.6357L78.5404 58.7354L80.5908 54.7816Z" fill="#2679FF"/>
<path d="M59.1 44.7572L54.5604 44.6113L57.0496 48.711L59.1 44.7572Z" fill="#2679FF"/>
</g>
<defs>
<filter id="filter0_f_1481_59051" x="-7.59998" y="99.5996" width="85.6" height="29.5381" filterUnits="userSpaceOnUse" color-interpolation-filters="sRGB">
<feFlood flood-opacity="0" result="BackgroundImageFix"/>
<feBlend mode="normal" in="SourceGraphic" in2="BackgroundImageFix" result="shape"/>
<feGaussianBlur stdDeviation="6" result="effect1_foregroundBlur_1481_59051"/>
</filter>
<radialGradient id="paint0_radial_1481_59051" cx="0" cy="0" r="1" gradientUnits="userSpaceOnUse" gradientTransform="translate(35.2 114.369) rotate(90) scale(10.1538 112.933)">
<stop stop-color="#12407A"/>
</radialGradient>
<linearGradient id="paint1_linear_1481_59051" x1="49.4974" y1="103.513" x2="19.2832" y2="69.3281" gradientUnits="userSpaceOnUse">
<stop stop-color="#399E33"/>
<stop offset="1" stop-color="#136618"/>
</linearGradient>
<linearGradient id="paint2_linear_1481_59051" x1="25.1296" y1="124.395" x2="0.60707" y2="101.09" gradientUnits="userSpaceOnUse">
<stop stop-color="#FFD582"/>
<stop offset="0.29" stop-color="#FFBD6D"/>
<stop offset="0.9" stop-color="#FF7F39"/>
<stop offset="1" stop-color="#FF7530"/>
</linearGradient>
<linearGradient id="paint3_linear_1481_59051" x1="32.0221" y1="118.008" x2="6.74172" y2="94.0304" gradientUnits="userSpaceOnUse">
<stop stop-color="#FFD582"/>
<stop offset="0.29" stop-color="#FFBD6D"/>
<stop offset="0.9" stop-color="#FF7F39"/>
<stop offset="1" stop-color="#FF7530"/>
</linearGradient>
<linearGradient id="paint4_linear_1481_59051" x1="40.2329" y1="109.832" x2="14.5655" y2="85.4878" gradientUnits="userSpaceOnUse">
<stop stop-color="#FFD582"/>
<stop offset="0.29" stop-color="#FFBD6D"/>
<stop offset="0.9" stop-color="#FF7F39"/>
<stop offset="1" stop-color="#FF7530"/>
</linearGradient>
<linearGradient id="paint5_linear_1481_59051" x1="63.6683" y1="85.0672" x2="38.5092" y2="61.214" gradientUnits="userSpaceOnUse">
<stop stop-color="#FFD582"/>
<stop offset="0.29" stop-color="#FFBD6D"/>
<stop offset="0.9" stop-color="#FF7F39"/>
<stop offset="1" stop-color="#FF7530"/>
</linearGradient>
<linearGradient id="paint6_linear_1481_59051" x1="50.1725" y1="98.7113" x2="25.0284" y2="74.8665" gradientUnits="userSpaceOnUse">
<stop stop-color="#FFD582"/>
<stop offset="0.29" stop-color="#FFBD6D"/>
<stop offset="0.9" stop-color="#FF7F39"/>
<stop offset="1" stop-color="#FF7530"/>
</linearGradient>
<linearGradient id="paint7_linear_1481_59051" x1="55.0732" y1="108.05" x2="31.9202" y2="85.176" gradientUnits="userSpaceOnUse">
<stop stop-color="#FFDA94"/>
<stop offset="0.25" stop-color="#B89D6B"/>
<stop offset="0.62" stop-color="#564931"/>
<stop offset="0.87" stop-color="#18140D"/>
<stop offset="1"/>
</linearGradient>
<linearGradient id="paint8_linear_1481_59051" x1="70.1923" y1="49.9694" x2="55.8718" y2="63.9797" gradientUnits="userSpaceOnUse">
<stop stop-color="#08AC4A"/>
<stop offset="0.51" stop-color="#058F3C"/>
<stop offset="1" stop-color="#1C8245"/>
</linearGradient>
<clipPath id="clip0_1481_59051">
<rect width="120" height="120" fill="white"/>
</clipPath>
</defs>
</svg>
