<svg width="120" height="120" viewBox="0 0 120 120" fill="none" xmlns="http://www.w3.org/2000/svg">
<g clip-path="url(#clip0_1525_37195)">
<g style="mix-blend-mode:multiply" filter="url(#filter0_f_1525_37195)">
<path d="M66.0004 114.139C66.0004 115.541 52.2108 117.139 35.2004 117.139C18.19 117.139 4.40039 115.541 4.40039 114.139C4.40039 112.737 18.19 111.6 35.2004 111.6C52.2108 111.6 66.0004 112.737 66.0004 114.139Z" fill="url(#paint0_radial_1525_37195)"/>
</g>
<path d="M84.7436 79.4549L72.3713 85.2145L62.8647 89.6484L52.2391 94.6035L44.5701 98.1781L36.5008 101.935L30.7241 104.623L24.7017 107.43L20.0621 109.597L14.7129 112.092L11.0831 113.784L5.78851 116.252C4.4876 116.855 3.1412 115.502 3.75072 114.204L6.21608 108.893L7.89907 105.254L10.4008 99.8877L12.5569 95.2434L15.3588 89.2005L18.0425 83.4226L21.7997 75.341L25.3658 67.6616L30.3147 57.0201L34.7178 47.5214L40.6674 34.7041L84.7345 79.4275L84.7436 79.4549Z" fill="url(#paint1_linear_1525_37195)"/>
<path d="M14.6394 111.998L11.1022 113.64C10.2512 112.957 9.40897 112.202 8.59338 111.386C7.77779 110.569 7.03312 109.744 6.35938 108.892L7.99942 105.36C8.88593 106.567 9.91428 107.765 11.0579 108.91C12.2015 110.055 13.416 111.093 14.6394 111.989V111.998Z" fill="url(#paint2_linear_1525_37195)"/>
<path d="M24.5756 107.608L19.9224 109.776C18.125 108.514 16.3458 107.023 14.6396 105.312C12.9517 103.62 11.4736 101.845 10.2236 100.071L12.386 95.4241C13.8185 97.7109 15.6524 99.9977 17.7965 102.156C19.968 104.333 22.2673 106.172 24.5756 107.617V107.608Z" fill="url(#paint3_linear_1525_37195)"/>
<path d="M36.7194 102.078L30.8372 104.808C27.8914 102.997 24.9086 100.647 22.1019 97.8333C19.2951 95.0192 16.9978 92.0844 15.1914 89.1496L17.9241 83.28C19.8509 86.8649 22.565 90.552 25.9647 93.9604C29.4014 97.406 33.1067 100.146 36.7194 102.078Z" fill="url(#paint4_linear_1525_37195)"/>
<path d="M72.5995 85.4877L63.1165 89.9041C56.8278 86.9538 50.2396 82.3005 44.1868 76.2267C38.1885 70.2076 33.5967 63.6693 30.6475 57.4134L35.0396 47.9521C37.7801 55.2189 42.9345 63.1321 50.0853 70.3077C57.2996 77.5471 65.2944 82.7649 72.5995 85.4786V85.4877Z" fill="url(#paint5_linear_1525_37195)"/>
<path d="M52.1754 94.6269L44.5265 98.1842C40.1802 95.7551 35.7524 92.407 31.633 88.2674C27.5136 84.1278 24.2381 79.779 21.8154 75.4665L25.3723 67.8242C27.8402 72.9737 31.6421 78.3415 36.5871 83.2999C41.5685 88.2947 46.9945 92.1431 52.1754 94.6178V94.6269Z" fill="url(#paint6_linear_1525_37195)"/>
<path style="mix-blend-mode:screen" d="M66.2017 60.6482L3.59961 115.569C3.75504 115.944 4.03847 116.236 4.40419 116.4L80.3276 74.8921L66.2017 60.6482Z" fill="url(#paint7_linear_1525_37195)"/>
<path d="M85.5055 79.0743C81.9961 82.5837 69.1739 75.4461 56.8636 63.1358C44.5532 50.8254 37.4156 38.0033 40.925 34.4939C44.4344 30.9845 57.2566 38.1221 69.5669 50.4324C81.8773 62.7428 89.0149 75.5649 85.5055 79.0743Z" fill="url(#paint8_linear_1525_37195)"/>
<path d="M105.7 64.6616L102.849 68.6675L100.949 63.8338L105.7 64.6616Z" fill="#2679FF"/>
<path d="M97.7758 53.5626L97.4143 49.735C97.4143 49.735 100.707 48.6373 101.878 49.6733L102.403 53.5003C102.403 53.5003 100.022 52.4831 97.7768 53.5634L97.7758 53.5626Z" fill="#E63887"/>
<path d="M94.1608 65.0357C94.1608 65.0357 95.128 62.5517 97.0565 61.3809L94.2401 58.7648C94.2401 58.7648 91.7374 60.4416 91.3626 62.4207L94.1611 65.0375L94.1608 65.0357Z" fill="#E63887"/>
<path d="M92.5237 56.1492L85.6646 52.959L91.3966 49.0517L92.5237 56.1492Z" fill="#00A7B4"/>
<path d="M104.969 49.96C104.656 50.272 104.545 50.6836 104.561 51.1558C106.401 50.9453 109.133 51.8221 111.753 49.8689C112.042 49.6539 112.302 49.4267 112.538 49.1919C112.839 48.8906 113.098 48.5761 113.32 48.2512C109.986 50.5292 106.517 48.426 104.969 49.961L104.969 49.96Z" fill="#FFCF00"/>
<path d="M115.69 38.5433L113.896 40.3234C113.896 40.3234 115.665 44.8223 113.32 48.2519C113.098 48.5767 112.839 48.8922 112.539 49.1925L114.336 47.4102C117.809 43.9333 115.691 38.5441 115.691 38.5441L115.69 38.5433Z" fill="#FFCF00"/>
<path d="M99.0451 44.4963L96.1934 48.5022L94.2947 43.6693L99.0451 44.4963Z" fill="#2679FF"/>
<path d="M115.906 65.0708C112.74 66.383 107.309 60.715 103.605 61.2391L105.377 60.2905C108.797 59.8058 113.692 64.6034 116.914 64.3049C117.145 64.2836 117.366 64.2375 117.578 64.1609L116.351 64.8284L115.905 65.0701L115.906 65.0708Z" fill="#2679FF"/>
<path d="M117.579 64.1611C117.367 64.2377 117.145 64.2848 116.915 64.3051C116.979 64.2298 117.039 64.1486 117.099 64.0639C117.947 62.8402 118.284 61.6045 118.303 60.4534C118.792 60.8082 119.294 61.0855 119.787 61.272C119.596 61.8822 119.297 62.4996 118.872 63.1161C118.67 63.4085 118.449 63.6404 118.212 63.8185C118.013 63.969 117.802 64.0814 117.58 64.1619L117.579 64.1611Z" fill="#2679FF"/>
<path d="M111.645 58.3594L108.797 55.7763C108.797 55.7763 110.489 52.7453 112.051 52.722L115.019 55.1932C115.019 55.1932 112.575 56.0472 111.645 58.3584L111.645 58.3594Z" fill="#00A7B4"/>
<path d="M92.3465 66.8491L90.0724 65.748C89.1743 65.3134 87.0993 71.1145 84.7266 70.2431L86.6977 71.1977C88.2814 72.1606 89.7513 69.9737 90.8524 68.3587C91.4887 67.4251 92.004 66.6836 92.3465 66.8491V66.8491Z" fill="#FFCF00"/>
<path d="M92.3467 66.849C92.0042 66.6835 91.4899 67.4257 90.8526 68.3585C91.1808 70.4219 91.5322 73.0302 92.5559 73.5731C92.5927 73.5915 92.6294 73.61 92.6683 73.6237C93.0521 73.7682 93.4833 73.644 93.9451 73.3795C93.1534 71.2014 93.0734 67.2022 92.3459 66.85L92.3467 66.849Z" fill="#FFCF00"/>
<path d="M101.222 71.7649L98.9477 70.6637C97.43 69.929 95.516 72.4781 93.9461 73.3804C93.4835 73.6459 93.053 73.7691 92.6692 73.6245L94.9364 74.722C96.2831 75.2393 98.2307 72.4458 99.9582 71.7746C100.398 71.6042 100.823 71.5709 101.221 71.7631L101.222 71.7649Z" fill="#FFCF00"/>
<path d="M101.221 71.7652C100.824 71.5721 100.398 71.6064 99.9581 71.7768C100.768 73.4431 100.846 76.312 103.559 78.1344C103.858 78.3355 104.158 78.5067 104.459 78.6499C104.843 78.8341 105.226 78.9734 105.606 79.0752C102.35 76.687 103.184 72.7165 101.221 71.7652V71.7652Z" fill="#FFCF00"/>
<path d="M115.549 78.0899L113.275 76.9888C113.275 76.9888 109.617 80.1508 105.605 79.0759C105.225 78.9741 104.842 78.8349 104.458 78.6507L106.735 79.7541C111.168 81.8764 115.549 78.0899 115.549 78.0899Z" fill="#FFCF00"/>
<path d="M90.1544 35.2801C87.1705 36.9653 88.2876 44.7348 85.5935 47.3282L87.4327 46.5166C89.922 44.1213 89.1592 37.3108 91.379 34.9565C91.5374 34.7881 91.7106 34.642 91.9017 34.5224L90.6193 35.0783L90.1544 35.2801Z" fill="#00A7B4"/>
<path d="M91.9008 34.523C91.7097 34.6426 91.5365 34.7887 91.3781 34.9571C91.4759 34.9537 91.5772 34.9563 91.6826 34.9618C93.1683 35.0482 94.3498 35.5445 95.2686 36.2378C95.2914 35.6342 95.3814 35.0676 95.5387 34.5649C94.9402 34.3394 94.2697 34.194 93.5235 34.1499C93.1692 34.1294 92.8505 34.1599 92.5627 34.2377C92.3224 34.3009 92.1029 34.3973 91.9026 34.5227L91.9008 34.523Z" fill="#00A7B4"/>
<path d="M103.02 45.4482L101.408 43.9852C101.408 43.9852 102.366 42.2696 103.25 42.2563L104.93 43.6551C104.93 43.6551 103.546 44.1383 103.019 45.4474L103.02 45.4482Z" fill="#00A7B4"/>
<path d="M53.3837 14.2125L48.9443 16.3269L53.3757 19.0354L53.3837 14.2125Z" fill="#2679FF"/>
<path d="M62.9412 23.9398L66.6483 24.9591C66.6483 24.9591 68.2999 21.9066 67.4825 20.5741L63.8044 19.3933C63.8044 19.3933 64.3937 21.9144 62.9406 23.9386L62.9412 23.9398Z" fill="#E63887"/>
<path d="M51.0159 25.5125C51.0159 25.5125 53.6299 24.9903 55.1172 23.2939L57.2057 26.521C57.2057 26.521 55.1206 28.6954 53.1065 28.7215L51.0142 25.5119L51.0159 25.5125Z" fill="#E63887"/>
<path d="M59.4838 28.6643L61.4371 35.9724L66.2786 31.0042L59.4838 28.6643Z" fill="#00A7B4"/>
<path d="M67.736 17.4798C67.3743 17.7349 66.9498 17.772 66.4875 17.6752C67.0137 15.8991 66.6236 13.0562 69.0012 10.8148C69.263 10.5673 69.532 10.3503 69.8041 10.1586C70.153 9.91445 70.5075 9.71433 70.8659 9.55203C68.0447 12.4405 69.5149 16.2215 67.7349 17.4804L67.736 17.4798Z" fill="#FFCF00"/>
<path d="M80.8375 8.89949L78.7735 10.3576C78.7735 10.3576 74.6492 7.83609 70.8651 9.55101C70.5067 9.71331 70.1511 9.914 69.8033 10.1575L71.8701 8.69658C75.8963 5.87834 80.8369 8.89837 80.8369 8.89837L80.8375 8.89949Z" fill="#FFCF00"/>
<path d="M72.0908 24.2608L67.6514 26.3752L72.0821 29.0826L72.0908 24.2608Z" fill="#2679FF"/>
<path d="M54.7494 4.09011C52.9086 6.98002 57.5497 13.3113 56.3917 16.8681L57.633 15.2873C58.703 12.0034 54.8262 6.35108 55.6785 3.22933C55.7395 3.0059 55.8232 2.79631 55.9354 2.60047L55.0652 3.69386L54.75 4.09124L54.7494 4.09011Z" fill="#2679FF"/>
<path d="M55.9353 2.59949C55.8232 2.79533 55.7383 3.0055 55.6785 3.22835C55.7637 3.17865 55.8541 3.1334 55.9479 3.08924C57.2999 2.46651 58.5755 2.34825 59.7125 2.52901C59.4477 1.98602 59.2616 1.44372 59.1633 0.925696C58.5293 1.00851 57.8694 1.19563 57.1886 1.50734C56.8656 1.65563 56.599 1.83313 56.3823 2.03597C56.1998 2.2056 56.0525 2.39398 55.9348 2.59837L55.9353 2.59949Z" fill="#2679FF"/>
<path d="M60.6214 9.44925L62.6718 12.7017C62.6718 12.7017 65.9502 11.5607 66.2439 10.0256L64.3244 6.67419C64.3244 6.67419 63.0597 8.93391 60.6225 9.44867L60.6214 9.44925Z" fill="#00A7B4"/>
<path d="M48.9151 26.9849L49.6055 29.4153C49.8779 30.3752 43.805 31.4135 44.2521 33.9014L43.6535 31.7946C42.9795 30.0681 45.3881 28.9994 47.1695 28.1948C48.1992 27.7299 49.0187 27.3509 48.9151 26.9849V26.9849Z" fill="#FFCF00"/>
<path d="M48.9154 26.9848C49.019 27.3508 48.1989 27.7287 47.1698 28.1947C45.1945 27.514 42.6866 26.7158 42.3293 25.6135C42.3175 25.5741 42.3056 25.5347 42.2989 25.4941C42.223 25.0911 42.4201 24.6879 42.7606 24.2789C44.7686 25.4361 48.6934 26.2079 48.9143 26.9854L48.9154 26.9848Z" fill="#FFCF00"/>
<path d="M45.6118 17.3919L46.3022 19.8224C46.7628 21.4443 43.9206 22.8877 42.7599 24.2775C42.4183 24.6871 42.2224 25.0897 42.2982 25.4928L41.6102 23.0697C41.3341 21.6538 44.4228 20.2197 45.3832 18.6347C45.6272 18.2314 45.7337 17.8181 45.6135 17.3925L45.6118 17.3919Z" fill="#FFCF00"/>
<path d="M45.6114 17.3918C45.7328 17.8169 45.6251 18.2308 45.3812 18.634C43.8804 17.5476 41.0685 16.9733 39.7436 13.986C39.5975 13.6562 39.4809 13.3311 39.3919 13.0102C39.277 12.6003 39.2063 12.1989 39.1718 11.8072C40.9597 15.427 45.0146 15.2941 45.6114 17.3918V17.3918Z" fill="#FFCF00"/>
<path d="M41.8654 2.18556L42.5558 4.61599C42.5558 4.61599 38.8077 7.67021 39.1711 11.808C39.2056 12.1997 39.2763 12.6011 39.3913 13.011L38.6991 10.5772C37.377 5.84383 41.8654 2.18556 41.8654 2.18556Z" fill="#FFCF00"/>
<path d="M79.6268 34.6143C77.4501 37.2611 69.9916 34.8145 66.9706 37.0185L68.0886 35.3477C70.8791 33.3112 77.4544 35.2426 80.1578 33.4643C80.3511 33.3375 80.5249 33.1923 80.6759 33.0247L79.9061 34.1914L79.6268 34.6143Z" fill="#00A7B4"/>
<path d="M80.675 33.025C80.524 33.1925 80.3502 33.3378 80.1569 33.4646C80.1771 33.3688 80.1922 33.2686 80.2049 33.1639C80.3773 31.6857 80.0933 30.4361 79.5697 29.4111C80.168 29.4932 80.7417 29.5027 81.2641 29.4349C81.3824 30.0634 81.4094 30.749 81.3235 31.4915C81.2823 31.8441 81.1971 32.1526 81.0706 32.4226C80.9667 32.6483 80.8337 32.8478 80.6755 33.0233L80.675 33.025Z" fill="#00A7B4"/>
<path d="M71.8424 20.1805L73.0037 22.0222C73.0037 22.0222 74.8595 21.3754 75.0257 20.5076L73.9393 18.6101C73.9393 18.6101 73.2236 19.8896 71.8429 20.1816L71.8424 20.1805Z" fill="#00A7B4"/>
<path d="M75.3164 44.818L77.927 47.2255C77.927 47.2255 80.576 45.4202 80.4699 43.9801L77.9515 41.4524C77.9515 41.4524 77.3668 43.7712 75.3164 44.8168V44.818Z" fill="#E63887"/>
<path d="M64.9396 45.1449C64.9396 45.1449 67.3063 45.8241 69.2458 45.062L69.5924 48.5957C69.5924 48.5957 66.9597 49.4966 65.2956 48.6645L64.9385 45.1437L64.9396 45.1449Z" fill="#E63887"/>
<path d="M76.6711 62.742C76.6711 62.742 79.0378 63.4212 80.9773 62.6592L81.3239 66.1928C81.3239 66.1928 78.6912 67.0938 77.027 66.2617L76.6699 62.7409L76.6711 62.742Z" fill="#E63887"/>
<path d="M68.3775 53.0532L66.8838 59.879L72.9627 57.8531L68.3775 53.0532Z" fill="#00A7B4"/>
<path d="M80.5914 54.7816L76.0518 54.6357L78.541 58.7354L80.5914 54.7816Z" fill="#2679FF"/>
<path d="M59.1002 44.7567L54.5605 44.6108L57.0497 48.7105L59.1002 44.7567Z" fill="#2679FF"/>
</g>
<defs>
<filter id="filter0_f_1525_37195" x="-7.59961" y="99.6001" width="85.5996" height="29.5386" filterUnits="userSpaceOnUse" color-interpolation-filters="sRGB">
<feFlood flood-opacity="0" result="BackgroundImageFix"/>
<feBlend mode="normal" in="SourceGraphic" in2="BackgroundImageFix" result="shape"/>
<feGaussianBlur stdDeviation="6" result="effect1_foregroundBlur_1525_37195"/>
</filter>
<radialGradient id="paint0_radial_1525_37195" cx="0" cy="0" r="1" gradientUnits="userSpaceOnUse" gradientTransform="translate(35.2004 114.369) rotate(90) scale(10.1538 112.933)">
<stop stop-color="#12407A"/>
</radialGradient>
<linearGradient id="paint1_linear_1525_37195" x1="49.497" y1="103.514" x2="19.2828" y2="69.3291" gradientUnits="userSpaceOnUse">
<stop stop-color="#5CB9D3"/>
<stop offset="1" stop-color="#194E5C"/>
</linearGradient>
<linearGradient id="paint2_linear_1525_37195" x1="25.129" y1="124.396" x2="0.60646" y2="101.091" gradientUnits="userSpaceOnUse">
<stop stop-color="#FFD582"/>
<stop offset="0.29" stop-color="#FFBD6D"/>
<stop offset="0.9" stop-color="#FF7F39"/>
<stop offset="1" stop-color="#FF7530"/>
</linearGradient>
<linearGradient id="paint3_linear_1525_37195" x1="32.0217" y1="118.008" x2="6.74135" y2="94.0306" gradientUnits="userSpaceOnUse">
<stop stop-color="#FFD582"/>
<stop offset="0.29" stop-color="#FFBD6D"/>
<stop offset="0.9" stop-color="#FF7F39"/>
<stop offset="1" stop-color="#FF7530"/>
</linearGradient>
<linearGradient id="paint4_linear_1525_37195" x1="40.2324" y1="109.832" x2="14.5649" y2="85.4885" gradientUnits="userSpaceOnUse">
<stop stop-color="#FFD582"/>
<stop offset="0.29" stop-color="#FFBD6D"/>
<stop offset="0.9" stop-color="#FF7F39"/>
<stop offset="1" stop-color="#FF7530"/>
</linearGradient>
<linearGradient id="paint5_linear_1525_37195" x1="63.6679" y1="85.0681" x2="38.5087" y2="61.215" gradientUnits="userSpaceOnUse">
<stop stop-color="#FFD582"/>
<stop offset="0.29" stop-color="#FFBD6D"/>
<stop offset="0.9" stop-color="#FF7F39"/>
<stop offset="1" stop-color="#FF7530"/>
</linearGradient>
<linearGradient id="paint6_linear_1525_37195" x1="50.1719" y1="98.7122" x2="25.0278" y2="74.8675" gradientUnits="userSpaceOnUse">
<stop stop-color="#FFD582"/>
<stop offset="0.29" stop-color="#FFBD6D"/>
<stop offset="0.9" stop-color="#FF7F39"/>
<stop offset="1" stop-color="#FF7530"/>
</linearGradient>
<linearGradient id="paint7_linear_1525_37195" x1="55.0728" y1="108.051" x2="31.9198" y2="85.1767" gradientUnits="userSpaceOnUse">
<stop stop-color="#FFDA94"/>
<stop offset="0.25" stop-color="#B89D6B"/>
<stop offset="0.62" stop-color="#564931"/>
<stop offset="0.87" stop-color="#18140D"/>
<stop offset="1"/>
</linearGradient>
<linearGradient id="paint8_linear_1525_37195" x1="70.1915" y1="49.9699" x2="55.871" y2="63.9802" gradientUnits="userSpaceOnUse">
<stop stop-color="#2084A0"/>
<stop offset="1" stop-color="#0F2E37"/>
</linearGradient>
<clipPath id="clip0_1525_37195">
<rect width="120" height="120" fill="white"/>
</clipPath>
</defs>
</svg>
