<svg width="148" height="148" viewBox="0 0 148 148" fill="none" xmlns="http://www.w3.org/2000/svg">
<g clip-path="url(#clip0_1565_96262)">
<g style="mix-blend-mode:multiply" filter="url(#filter0_f_1565_96262)">
<path d="M81.4001 140.771C81.4001 142.5 64.3929 144.471 43.4134 144.471C22.434 144.471 5.42676 142.5 5.42676 140.771C5.42676 139.042 22.434 137.64 43.4134 137.64C64.3929 137.64 81.4001 139.042 81.4001 140.771Z" fill="url(#paint0_radial_1565_96262)"/>
</g>
<path d="M104.518 97.9942L89.2589 105.098L77.5341 110.566L64.4291 116.677L54.9707 121.086L45.0186 125.72L37.894 129.035L30.4664 132.497L24.7442 135.169L18.1468 138.247L13.6701 140.333L7.14007 143.377C5.53562 144.122 3.87506 142.453 4.6268 140.852L7.66741 134.301L9.7431 129.813L12.8286 123.195L15.4877 117.467L18.9435 110.014L22.2533 102.888L26.8872 92.9203L31.2854 83.449L37.3891 70.3246L42.8195 58.6095L50.1574 42.8015L104.507 97.9604L104.518 97.9942Z" fill="url(#paint1_linear_1565_96262)"/>
<path d="M18.0567 138.131L13.6942 140.156C12.6446 139.313 11.6059 138.383 10.6 137.376C9.59411 136.369 8.67568 135.351 7.84473 134.3L9.86745 129.944C10.9608 131.433 12.2291 132.91 13.6395 134.322C15.05 135.734 16.5479 137.015 18.0567 138.12V138.131Z" fill="url(#paint2_linear_1565_96262)"/>
<path d="M30.3112 132.717L24.5722 135.39C22.3554 133.834 20.161 131.995 18.0568 129.885C15.975 127.798 14.152 125.609 12.6104 123.421L15.2773 117.69C17.044 120.51 19.3058 123.33 21.9503 125.993C24.6284 128.678 27.4642 130.945 30.3112 132.728V132.717Z" fill="url(#paint3_linear_1565_96262)"/>
<path d="M45.2885 125.896L38.0338 129.263C34.4007 127.03 30.7219 124.132 27.2602 120.661C23.7985 117.19 20.9651 113.571 18.7373 109.951L22.1076 102.712C24.484 107.133 27.8314 111.681 32.0243 115.884C36.2629 120.134 40.8328 123.513 45.2885 125.896Z" fill="url(#paint4_linear_1565_96262)"/>
<path d="M89.5406 105.435L77.8449 110.882C70.0888 107.243 61.9634 101.504 54.4983 94.0127C47.1004 86.5891 41.4372 78.5253 37.7998 70.8097L43.2168 59.1407C46.5967 68.103 52.9538 77.8627 61.7732 86.7126C70.6708 95.6412 80.531 102.077 89.5406 105.423V105.435Z" fill="url(#paint5_linear_1565_96262)"/>
<path d="M64.3512 116.706L54.9175 121.094C49.5572 118.098 44.0961 113.968 39.0155 108.863C33.935 103.757 29.8951 98.3937 26.9072 93.0751L31.294 83.6495C34.3378 90.0005 39.0267 96.6208 45.1256 102.736C51.2693 108.896 57.9613 113.643 64.3512 116.695V116.706Z" fill="url(#paint6_linear_1565_96262)"/>
<path style="mix-blend-mode:screen" d="M81.6497 74.7992L4.44043 142.535C4.63213 142.997 4.98169 143.357 5.43275 143.56L99.0716 92.3666L81.6497 74.7992Z" fill="url(#paint7_linear_1565_96262)"/>
<path d="M105.458 97.5248C101.13 101.853 85.3157 93.05 70.1329 77.8673C54.9502 62.6845 46.1471 46.8705 50.4754 42.5423C54.8036 38.214 70.6176 47.0171 85.8004 62.1998C100.983 77.3826 109.786 93.1966 105.458 97.5248Z" fill="url(#paint8_linear_1565_96262)"/>
<path d="M130.363 79.749L126.846 84.6896L124.503 78.7281L130.363 79.749Z" fill="#2679FF"/>
<path d="M120.591 66.0605L120.145 61.3398C120.145 61.3398 124.205 59.9859 125.649 61.2636L126.298 65.9836C126.298 65.9836 123.361 64.729 120.592 66.0614L120.591 66.0605Z" fill="#E63887"/>
<path d="M116.132 80.2105C116.132 80.2105 117.325 77.147 119.703 75.703L116.229 72.4764C116.229 72.4764 113.143 74.5444 112.681 76.9854L116.132 80.2127L116.132 80.2105Z" fill="#E63887"/>
<path d="M114.113 69.2505L105.653 65.316L112.723 60.497L114.113 69.2505Z" fill="#00A7B4"/>
<path d="M129.462 61.6171C129.075 62.002 128.94 62.5096 128.958 63.0919C131.228 62.8323 134.598 63.9137 137.829 61.5048C138.185 61.2397 138.506 60.9594 138.797 60.6698C139.168 60.2982 139.487 59.9103 139.761 59.5097C135.65 62.3192 131.371 59.7253 129.461 61.6184L129.462 61.6171Z" fill="#FFCF00"/>
<path d="M142.683 47.5366L140.471 49.7319C140.471 49.7319 142.652 55.2806 139.761 59.5105C139.487 59.9111 139.167 60.3002 138.797 60.6706L141.013 58.4724C145.297 54.1841 142.684 47.5375 142.684 47.5375L142.683 47.5366Z" fill="#FFCF00"/>
<path d="M122.156 54.8787L118.639 59.8192L116.297 53.8586L122.156 54.8787Z" fill="#2679FF"/>
<path d="M142.951 80.254C139.047 81.8723 132.348 74.8818 127.781 75.5282L129.966 74.3583C134.184 73.7604 140.221 79.6775 144.195 79.3094C144.479 79.2831 144.752 79.2262 145.014 79.1318L143.499 79.955L142.949 80.253L142.951 80.254Z" fill="#2679FF"/>
<path d="M145.014 79.1319C144.752 79.2263 144.478 79.2845 144.195 79.3095C144.274 79.2166 144.348 79.1165 144.422 79.012C145.467 77.5028 145.883 75.9787 145.907 74.559C146.51 74.9966 147.129 75.3386 147.737 75.5687C147.501 76.3212 147.132 77.0827 146.608 77.843C146.359 78.2037 146.086 78.4896 145.794 78.7094C145.549 78.8949 145.288 79.0336 145.015 79.1329L145.014 79.1319Z" fill="#2679FF"/>
<path d="M137.697 71.9763L134.184 68.7906C134.184 68.7906 136.271 65.0522 138.198 65.0236L141.859 68.0714C141.859 68.0714 138.844 69.1246 137.698 71.9751L137.697 71.9763Z" fill="#00A7B4"/>
<path d="M113.894 82.4472L111.09 81.0891C109.982 80.5531 107.423 87.7078 104.497 86.6331L106.928 87.8104C108.881 88.998 110.694 86.3008 112.052 84.309C112.836 83.1575 113.472 82.2431 113.894 82.4472V82.4472Z" fill="#FFCF00"/>
<path d="M113.894 82.4469C113.471 82.2428 112.837 83.1581 112.051 84.3086C112.456 86.8534 112.889 90.0703 114.152 90.7399C114.197 90.7627 114.242 90.7855 114.29 90.8023C114.764 90.9806 115.295 90.8274 115.865 90.5012C114.889 87.8148 114.79 82.8825 113.893 82.4481L113.894 82.4469Z" fill="#FFCF00"/>
<path d="M124.84 88.5097L122.035 87.1516C120.164 86.2454 117.803 89.3893 115.867 90.5021C115.296 90.8296 114.765 90.9815 114.292 90.8033L117.088 92.1569C118.749 92.7948 121.151 89.3495 123.282 88.5217C123.824 88.3115 124.348 88.2705 124.84 88.5075L124.84 88.5097Z" fill="#FFCF00"/>
<path d="M124.84 88.5104C124.35 88.2721 123.824 88.3144 123.282 88.5246C124.281 90.5797 124.377 94.118 127.723 96.3657C128.092 96.6136 128.462 96.8248 128.833 97.0014C129.306 97.2286 129.779 97.4004 130.247 97.5259C126.232 94.5806 127.26 89.6836 124.84 88.5104V88.5104Z" fill="#FFCF00"/>
<path d="M142.51 96.3107L139.705 94.9526C139.705 94.9526 135.194 98.8525 130.246 97.5268C129.777 97.4013 129.305 97.2295 128.831 97.0023L131.64 98.3632C137.107 100.981 142.51 96.3107 142.51 96.3107Z" fill="#FFCF00"/>
<path d="M111.19 43.5118C107.51 45.5902 108.887 55.1726 105.565 58.3712L107.833 57.3702C110.903 54.416 109.962 46.0163 112.7 43.1127C112.896 42.905 113.109 42.7248 113.345 42.5773L111.763 43.2629L111.19 43.5118Z" fill="#00A7B4"/>
<path d="M113.344 42.5783C113.108 42.7259 112.895 42.906 112.7 43.1137C112.82 43.1096 112.945 43.1127 113.075 43.1196C114.907 43.2261 116.365 43.8382 117.498 44.6932C117.526 43.9489 117.637 43.2501 117.831 42.63C117.093 42.352 116.266 42.1726 115.346 42.1183C114.908 42.093 114.516 42.1306 114.16 42.2265C113.864 42.3044 113.593 42.4234 113.346 42.578L113.344 42.5783Z" fill="#00A7B4"/>
<path d="M127.059 56.0527L125.07 54.2484C125.07 54.2484 126.252 52.1324 127.342 52.1161L129.415 53.8412C129.415 53.8412 127.708 54.4371 127.058 56.0517L127.059 56.0527Z" fill="#00A7B4"/>
<path d="M65.8386 17.5284L60.3633 20.1362L65.8286 23.4767L65.8386 17.5284Z" fill="#2679FF"/>
<path d="M77.6271 29.5256L82.1992 30.7828C82.1992 30.7828 84.2362 27.0181 83.2281 25.3746L78.6918 23.9184C78.6918 23.9184 79.4186 27.0277 77.6264 29.5243L77.6271 29.5256Z" fill="#E63887"/>
<path d="M62.9184 31.4651C62.9184 31.4651 66.1423 30.8212 67.9766 28.7289L70.5525 32.709C70.5525 32.709 67.9808 35.3907 65.4967 35.4229L62.9163 31.4645L62.9184 31.4651Z" fill="#E63887"/>
<path d="M73.3621 35.3525L75.7712 44.3658L81.7423 38.2384L73.3621 35.3525Z" fill="#00A7B4"/>
<path d="M83.54 21.5583C83.0938 21.8728 82.5704 21.9186 82.0001 21.7992C82.6491 19.6087 82.168 16.1025 85.1003 13.3381C85.4232 13.0328 85.755 12.7651 86.0906 12.5287C86.5209 12.2276 86.9581 11.9808 87.4002 11.7806C83.9207 15.3431 85.7339 20.0063 83.5386 21.559L83.54 21.5583Z" fill="#FFCF00"/>
<path d="M99.6991 10.976L97.1536 12.7743C97.1536 12.7743 92.0669 9.66447 87.4 11.7795C86.9579 11.9797 86.5193 12.2272 86.0904 12.5276L88.6393 10.7257C93.6051 7.2499 99.6984 10.9746 99.6984 10.9746L99.6991 10.976Z" fill="#FFCF00"/>
<path d="M88.9108 29.9217L83.4355 32.5295L88.9002 35.8686L88.9108 29.9217Z" fill="#2679FF"/>
<path d="M67.5231 5.04456C65.2528 8.60877 70.9768 16.4173 69.5486 20.8041L71.0795 18.8545C72.3992 14.8043 67.6178 7.83308 68.669 3.98292C68.7442 3.70736 68.8474 3.44886 68.9858 3.20733L67.9126 4.55584L67.5238 5.04594L67.5231 5.04456Z" fill="#2679FF"/>
<path d="M68.9856 3.20584C68.8473 3.44737 68.7426 3.70659 68.6688 3.98143C68.774 3.92013 68.8854 3.86433 69.0011 3.80986C70.6686 3.04183 72.2418 2.89597 73.6441 3.11891C73.3176 2.44923 73.088 1.78038 72.9668 1.14149C72.1848 1.24363 71.371 1.47441 70.5313 1.85885C70.133 2.04173 69.8041 2.26065 69.5369 2.51083C69.3117 2.72004 69.1301 2.95237 68.9849 3.20445L68.9856 3.20584Z" fill="#2679FF"/>
<path d="M74.765 11.6538L77.2939 15.6652C77.2939 15.6652 81.3372 14.2579 81.6995 12.3646L79.3321 8.23121C79.3321 8.23121 77.7723 11.0182 74.7664 11.6531L74.765 11.6538Z" fill="#00A7B4"/>
<path d="M60.3275 33.2814L61.179 36.2789C61.515 37.4628 54.0251 38.7434 54.5765 41.8117L53.8382 39.2134C53.007 37.084 55.9776 35.7659 58.1746 34.7735C59.4446 34.2002 60.4553 33.7327 60.3275 33.2814V33.2814Z" fill="#FFCF00"/>
<path d="M60.3282 33.281C60.456 33.7324 59.4446 34.1985 58.1753 34.7732C55.7392 33.9336 52.646 32.9493 52.2053 31.5898C52.1908 31.5412 52.1762 31.4926 52.1679 31.4425C52.0743 30.9454 52.3174 30.4482 52.7373 29.9437C55.2139 31.3709 60.0545 32.3228 60.3269 33.2817L60.3282 33.281Z" fill="#FFCF00"/>
<path d="M56.2535 21.45L57.105 24.4476C57.6731 26.448 54.1677 28.2281 52.7362 29.9423C52.3149 30.4474 52.0732 30.944 52.1668 31.4411L51.3182 28.4525C50.9777 26.7063 54.7871 24.9376 55.9716 22.9827C56.2725 22.4854 56.4039 21.9756 56.2556 21.4507L56.2535 21.45Z" fill="#FFCF00"/>
<path d="M56.2525 21.4499C56.4022 21.9741 56.2694 22.4846 55.9685 22.9819C54.1176 21.642 50.6496 20.9337 49.0156 17.2494C48.8354 16.8426 48.6915 16.4417 48.5818 16.0459C48.4401 15.5403 48.3528 15.0453 48.3103 14.5622C50.5154 19.0266 55.5165 18.8627 56.2525 21.4499V21.4499Z" fill="#FFCF00"/>
<path d="M51.6331 2.69543L52.4846 5.69296C52.4846 5.69296 47.862 9.45983 48.3101 14.5631C48.3526 15.0462 48.4399 15.5413 48.5817 16.0468L47.728 13.0451C46.0975 7.2073 51.6331 2.69543 51.6331 2.69543Z" fill="#FFCF00"/>
<path d="M98.205 42.6908C95.5203 45.9552 86.3216 42.9377 82.5956 45.656L83.9746 43.5954C87.4161 41.0837 95.5256 43.4657 98.8598 41.2725C99.0982 41.1161 99.3126 40.937 99.4988 40.7304L98.5495 42.1693L98.205 42.6908Z" fill="#00A7B4"/>
<path d="M99.4974 40.7307C99.3112 40.9373 99.0968 41.1164 98.8584 41.2728C98.8833 41.1547 98.9019 41.0311 98.9177 40.902C99.1303 39.0789 98.7799 37.5376 98.1342 36.2735C98.8722 36.3747 99.5797 36.3864 100.224 36.3028C100.37 37.078 100.403 37.9236 100.297 38.8393C100.246 39.2742 100.141 39.6546 99.9853 39.9877C99.8572 40.266 99.6931 40.5121 99.498 40.7286L99.4974 40.7307Z" fill="#00A7B4"/>
<path d="M88.6046 24.8891L90.0369 27.1606C90.0369 27.1606 92.3257 26.3629 92.5307 25.2925L91.1908 22.9523C91.1908 22.9523 90.3081 24.5304 88.6053 24.8905L88.6046 24.8891Z" fill="#00A7B4"/>
<path d="M92.8887 55.2753L96.1084 58.2446C96.1084 58.2446 99.3756 56.018 99.2446 54.2419L96.1386 51.1244C96.1386 51.1244 95.4175 53.9843 92.8887 55.2739V55.2753Z" fill="#E63887"/>
<path d="M80.0913 55.6786C80.0913 55.6786 83.0102 56.5163 85.4023 55.5764L85.8297 59.9346C85.8297 59.9346 82.5827 61.0457 80.5303 60.0195L80.0898 55.6772L80.0913 55.6786Z" fill="#E63887"/>
<path d="M94.56 77.3819C94.56 77.3819 97.4789 78.2195 99.871 77.2797L100.298 81.6378C100.298 81.6378 97.0514 82.749 94.999 81.7228L94.5586 77.3804L94.56 77.3819Z" fill="#E63887"/>
<path d="M84.3315 65.4321L82.4893 73.8505L89.9865 71.3519L84.3315 65.4321Z" fill="#00A7B4"/>
<path d="M99.3938 67.5638L93.7949 67.3839L96.8649 72.4401L99.3938 67.5638Z" fill="#2679FF"/>
<path d="M72.8889 55.1998L67.29 55.0199L70.3601 60.0761L72.8889 55.1998Z" fill="#2679FF"/>
</g>
<defs>
<filter id="filter0_f_1565_96262" x="-6.57324" y="125.64" width="99.9736" height="30.8308" filterUnits="userSpaceOnUse" color-interpolation-filters="sRGB">
<feFlood flood-opacity="0" result="BackgroundImageFix"/>
<feBlend mode="normal" in="SourceGraphic" in2="BackgroundImageFix" result="shape"/>
<feGaussianBlur stdDeviation="6" result="effect1_foregroundBlur_1565_96262"/>
</filter>
<radialGradient id="paint0_radial_1565_96262" cx="0" cy="0" r="1" gradientUnits="userSpaceOnUse" gradientTransform="translate(43.4134 141.055) rotate(90) scale(12.5231 139.284)">
<stop stop-color="#12407A"/>
</radialGradient>
<linearGradient id="paint1_linear_1565_96262" x1="61.0472" y1="127.668" x2="23.7831" y2="85.5057" gradientUnits="userSpaceOnUse">
<stop stop-color="#FF6636"/>
<stop offset="0.63" stop-color="#EA3511"/>
<stop offset="1" stop-color="#E11E00"/>
</linearGradient>
<linearGradient id="paint2_linear_1565_96262" x1="30.9939" y1="153.422" x2="0.749485" y2="124.678" gradientUnits="userSpaceOnUse">
<stop stop-color="#FFD582"/>
<stop offset="0.29" stop-color="#FFBD6D"/>
<stop offset="0.9" stop-color="#FF7F39"/>
<stop offset="1" stop-color="#FF7530"/>
</linearGradient>
<linearGradient id="paint3_linear_1565_96262" x1="39.4946" y1="145.543" x2="8.31555" y2="115.971" gradientUnits="userSpaceOnUse">
<stop stop-color="#FFD582"/>
<stop offset="0.29" stop-color="#FFBD6D"/>
<stop offset="0.9" stop-color="#FF7F39"/>
<stop offset="1" stop-color="#FF7530"/>
</linearGradient>
<linearGradient id="paint4_linear_1565_96262" x1="49.6212" y1="135.46" x2="17.9646" y2="105.436" gradientUnits="userSpaceOnUse">
<stop stop-color="#FFD582"/>
<stop offset="0.29" stop-color="#FFBD6D"/>
<stop offset="0.9" stop-color="#FF7F39"/>
<stop offset="1" stop-color="#FF7530"/>
</linearGradient>
<linearGradient id="paint5_linear_1565_96262" x1="78.525" y1="104.917" x2="47.4953" y2="75.4983" gradientUnits="userSpaceOnUse">
<stop stop-color="#FFD582"/>
<stop offset="0.29" stop-color="#FFBD6D"/>
<stop offset="0.9" stop-color="#FF7F39"/>
<stop offset="1" stop-color="#FF7530"/>
</linearGradient>
<linearGradient id="paint6_linear_1565_96262" x1="61.8802" y1="121.745" x2="30.8692" y2="92.3362" gradientUnits="userSpaceOnUse">
<stop stop-color="#FFD582"/>
<stop offset="0.29" stop-color="#FFBD6D"/>
<stop offset="0.9" stop-color="#FF7F39"/>
<stop offset="1" stop-color="#FF7530"/>
</linearGradient>
<linearGradient id="paint7_linear_1565_96262" x1="67.924" y1="133.262" x2="39.3687" y2="105.051" gradientUnits="userSpaceOnUse">
<stop stop-color="#FFDA94"/>
<stop offset="0.25" stop-color="#B89D6B"/>
<stop offset="0.62" stop-color="#564931"/>
<stop offset="0.87" stop-color="#18140D"/>
<stop offset="1"/>
</linearGradient>
<linearGradient id="paint8_linear_1565_96262" x1="86.5707" y1="61.6294" x2="68.9088" y2="78.9087" gradientUnits="userSpaceOnUse">
<stop stop-color="#AE3508"/>
<stop offset="0.51" stop-color="#AA1703"/>
<stop offset="1" stop-color="#A80000"/>
</linearGradient>
<clipPath id="clip0_1565_96262">
<rect width="148" height="148" fill="white"/>
</clipPath>
</defs>
</svg>
