<svg width="58" height="58" viewBox="0 0 58 58" fill="none" xmlns="http://www.w3.org/2000/svg">
<g clip-path="url(#clip0_4649_106782)">
<path d="M28.8538 56C43.6847 56 55.7075 44.1018 55.7075 29.4245C55.7075 14.7473 43.6847 2.84912 28.8538 2.84912C14.0228 2.84912 2 14.7473 2 29.4245C2 44.1018 14.0228 56 28.8538 56Z" fill="url(#paint0_linear_4649_106782)"/>
<path d="M29.1467 53.7243C43.9776 53.7243 56.0005 42.1454 56.0005 27.8621C56.0005 13.5789 43.9776 2 29.1467 2C14.3158 2 2.29297 13.5789 2.29297 27.8621C2.29297 42.1454 14.3158 53.7243 29.1467 53.7243Z" fill="url(#paint1_linear_4649_106782)"/>
<path d="M29.1463 49.6172C41.4637 49.6172 51.4489 39.9442 51.4489 28.0121C51.4489 16.0799 41.4637 6.40698 29.1463 6.40698C16.8289 6.40698 6.84375 16.0799 6.84375 28.0121C6.84375 39.9442 16.8289 49.6172 29.1463 49.6172Z" fill="url(#paint2_linear_4649_106782)"/>
<path d="M29 49C41.1503 49 51 39.598 51 28C51 16.402 41.1503 7 29 7C16.8497 7 7 16.402 7 28C7 39.598 16.8497 49 29 49Z" fill="url(#paint3_linear_4649_106782)"/>
<path d="M29.1463 6.40723C16.8295 6.40723 6.84375 16.0818 6.84375 28.0123C6.84375 39.9428 16.8295 49.6174 29.1463 49.6174C41.4632 49.6174 51.4489 39.9456 51.4489 28.0123C51.4489 16.079 41.4632 6.40723 29.1463 6.40723ZM29.1463 48.8673C17.2565 48.8673 7.61886 39.5296 7.61886 28.0123C7.61886 16.4951 17.2565 7.16014 29.1463 7.16014C41.0361 7.16014 50.6738 16.4979 50.6738 28.0152C50.6738 39.5324 41.0361 48.8702 29.1463 48.8702V48.8673Z" fill="url(#paint4_linear_4649_106782)"/>
<path opacity="0.5" d="M33.0569 37.282C28.6695 42.0938 24.0247 41.6324 15.2148 43.7921C15.7998 44.0751 19.3097 48.6464 29.2545 48.887C40.9542 49.17 53.2389 37.8481 50.314 25.677C48.8486 24.2702 40.7319 28.8641 33.0569 37.282Z" fill="#0E041A"/>
<path d="M12.4649 44.1786C13.9137 43.183 13.947 40.8209 12.5394 38.9027C11.1318 36.9845 8.81619 36.2366 7.3674 37.2322C5.91861 38.2278 5.88526 40.5899 7.29289 42.5081C8.70053 44.4263 11.0161 45.1742 12.4649 44.1786Z" fill="white"/>
<path d="M48.1816 46.1046C50.1647 44.1856 51.8378 41.9665 53.1189 39.5238C51.7968 39.286 50.153 39.9455 48.9743 41.3155C47.6171 42.892 47.3275 44.8875 48.1816 46.1018V46.1046Z" fill="white"/>
</g>
<g clip-path="url(#clip1_4649_106782)">
<path d="M38.1246 33.232L44.4464 27.1432C44.7135 26.8865 44.862 26.5317 44.8557 26.1645L44.7846 23.2112L14.0703 23.0867L14.113 25.9887C14.1367 26.3932 14.309 26.7745 14.5998 27.0608L20.8441 33.232L19.5734 39.9696L19.594 42.8731C19.4565 43.6589 20.2941 44.258 21.0116 43.8877L29.0292 39.7377C29.3137 39.5899 29.6535 39.5899 29.9379 39.7377L37.9555 43.8877C38.673 44.258 39.5107 43.6589 39.3732 42.8731L39.2799 40.0956L38.123 33.232H38.1246Z" fill="url(#paint5_linear_4649_106782)"/>
<path d="M30.2995 12.5368L34.3091 20.5348C34.4513 20.818 34.7263 21.0156 35.044 21.0608L44.0083 22.3429C44.8096 22.4581 45.1304 23.4275 44.5504 23.9845L38.0642 30.2102C37.8335 30.4312 37.7292 30.7502 37.7829 31.0614L39.3144 39.8514C39.4519 40.6372 38.6142 41.2362 37.8967 40.8659L29.8791 36.716C29.5946 36.5681 29.2549 36.5681 28.9704 36.716L20.9528 40.8659C20.2353 41.2362 19.3976 40.6372 19.5351 39.8514L21.0666 31.0614C21.1203 30.7486 21.016 30.4312 20.7853 30.2102L14.296 23.983C13.716 23.4259 14.0368 22.4565 14.8381 22.3414L23.8023 21.0592C24.12 21.0141 24.395 20.8165 24.5372 20.5333L28.5468 12.5368C28.9056 11.8211 29.9408 11.8211 30.2995 12.5368V12.5368Z" fill="url(#paint6_linear_4649_106782)"/>
<path d="M30.1759 13.7506L33.8457 21.0717C33.9753 21.3316 34.2281 21.5121 34.5189 21.5541L42.7262 22.7289C43.4595 22.8331 43.7535 23.7216 43.2224 24.2304L37.2847 29.9302C37.0745 30.1325 36.9781 30.4234 37.0271 30.7098L38.429 38.7575C38.5538 39.4764 37.7873 40.0257 37.1314 39.6865L29.7919 35.8867C29.5311 35.7513 29.2197 35.7513 28.959 35.8867L21.6194 39.6865C20.9635 40.0257 20.1954 39.478 20.3219 38.7575L21.7237 30.7098C21.7727 30.4234 21.6779 30.1325 21.4661 29.9302L15.5252 24.2304C14.9942 23.7216 15.2866 22.8331 16.0215 22.7289L24.2287 21.5541C24.5195 21.5121 24.7724 21.3316 24.902 21.0717L28.5718 13.7506C28.9005 13.0955 29.8472 13.0955 30.1759 13.7506V13.7506Z" fill="url(#paint7_linear_4649_106782)"/>
<path d="M29.4927 18.9762C29.9199 18.0262 29.8087 17.0567 29.2445 16.8107C28.6802 16.5648 27.8765 17.1355 27.4493 18.0855C27.0221 19.0355 27.1332 20.0051 27.6975 20.251C28.2618 20.497 29.0655 19.9262 29.4927 18.9762Z" fill="white"/>
<path d="M27.5976 21.7077C27.7961 21.266 27.7443 20.8153 27.4817 20.7008C27.2191 20.5864 26.8452 20.8516 26.6467 21.2932C26.4481 21.7348 26.5 22.1856 26.7626 22.3C27.0251 22.4145 27.399 22.1493 27.5976 21.7077Z" fill="white"/>
<path opacity="0.5" d="M21.6052 39.7113L28.9448 35.9114C29.2055 35.7761 29.5169 35.7761 29.7777 35.9114L37.1172 39.7113C37.7731 40.0505 38.5412 39.5027 38.4148 38.7823L37.0129 30.7345C36.9623 30.4482 37.0587 30.1572 37.2705 29.9549L43.2082 24.2552C43.7393 23.7464 43.4469 22.8579 42.712 22.7536L37.585 22.0208C33.125 28.7724 26.1505 31.3865 21.4155 32.3995L20.3045 38.7823C20.1796 39.5012 20.9462 40.0505 21.602 39.7113H21.6052Z" fill="#FF9900"/>
</g>
<defs>
<linearGradient id="paint0_linear_4649_106782" x1="2" y1="29.4245" x2="55.7075" y2="29.4245" gradientUnits="userSpaceOnUse">
<stop stop-color="#E57200"/>
<stop offset="0.17" stop-color="#DE6900"/>
<stop offset="0.44" stop-color="#CB5000"/>
<stop offset="0.78" stop-color="#AD2900"/>
<stop offset="1" stop-color="#960B00"/>
</linearGradient>
<linearGradient id="paint1_linear_4649_106782" x1="2.29297" y1="27.8621" x2="56.0005" y2="27.8621" gradientUnits="userSpaceOnUse">
<stop stop-color="#FFA54C"/>
<stop offset="1" stop-color="#FFDD4C"/>
</linearGradient>
<linearGradient id="paint2_linear_4649_106782" x1="6.84375" y1="28.0121" x2="51.4489" y2="28.0121" gradientUnits="userSpaceOnUse">
<stop offset="0.22" stop-color="#FFDF63"/>
<stop offset="0.76" stop-color="#FFC800"/>
</linearGradient>
<linearGradient id="paint3_linear_4649_106782" x1="7" y1="17.2059" x2="50.9386" y2="49.4108" gradientUnits="userSpaceOnUse">
<stop offset="0.22" stop-color="#2C0C4E"/>
<stop offset="0.76" stop-color="#8252B4"/>
</linearGradient>
<linearGradient id="paint4_linear_4649_106782" x1="11.0001" y1="7.50012" x2="48.0001" y2="49.0001" gradientUnits="userSpaceOnUse">
<stop offset="0.201334" stop-color="#FFDB80"/>
<stop offset="0.76" stop-color="#FFECC1"/>
</linearGradient>
<linearGradient id="paint5_linear_4649_106782" x1="14.0703" y1="33.5432" x2="44.8557" y2="33.5432" gradientUnits="userSpaceOnUse">
<stop stop-color="#E17200"/>
<stop offset="1" stop-color="#900B00"/>
</linearGradient>
<linearGradient id="paint6_linear_4649_106782" x1="16.0771" y1="22.2589" x2="43.6833" y2="35.8142" gradientUnits="userSpaceOnUse">
<stop stop-color="#FFA14C"/>
<stop offset="1" stop-color="#FFD94C"/>
</linearGradient>
<linearGradient id="paint7_linear_4649_106782" x1="15.255" y1="26.524" x2="43.4927" y2="26.524" gradientUnits="userSpaceOnUse">
<stop offset="0.13" stop-color="#FFC400"/>
<stop offset="0.74" stop-color="#FFDB3D"/>
</linearGradient>
<clipPath id="clip0_4649_106782">
<rect width="54" height="54" fill="white" transform="translate(2 2)"/>
</clipPath>
<clipPath id="clip1_4649_106782">
<rect width="30.8571" height="32" fill="white" transform="translate(14 12)"/>
</clipPath>
</defs>
</svg>
