<svg width="96" height="95" viewBox="0 0 96 95" fill="none" xmlns="http://www.w3.org/2000/svg">
<g clip-path="url(#clip0_1820_7604)">
<g clip-path="url(#clip1_1820_7604)">
<path d="M25.8796 20.1091C29.1931 17.2849 33.0331 15.1605 37.158 13.8165C41.2767 12.4725 45.6803 11.9058 50.1242 12.1938C54.565 12.4818 59.0491 13.6276 63.3351 15.7055C67.621 17.7834 71.3031 20.6015 74.2945 23.915C77.286 27.2317 79.59 31.05 81.1106 35.1285C82.6342 39.21 83.3774 43.5579 83.2442 47.9243C83.1142 52.297 82.1077 56.6944 80.1351 60.8688C78.1593 65.0526 75.4001 68.617 72.102 71.4846C68.8009 74.3553 64.9578 76.523 60.8205 77.9073C56.6801 79.2916 52.2424 79.8892 47.7614 79.6136C43.2772 79.3411 38.7467 78.1953 34.4174 76.0957C30.0881 73.9961 26.3751 71.1439 23.3681 67.787C20.3611 64.4301 18.0602 60.5654 16.5552 56.4436C15.0502 52.3249 14.341 47.9491 14.5144 43.561C14.6878 39.179 15.7407 34.7847 17.7598 30.6227C19.7758 26.4668 22.566 22.9365 25.8858 20.106L25.8796 20.1091Z" fill="url(#paint0_linear_1820_7604)"/>
<g clip-path="url(#clip2_1820_7604)">
<path d="M73.2792 62.0737C73.496 61.7423 73.7035 61.4017 73.9078 61.0579C74.1091 60.7142 74.3073 60.3643 74.4962 60.0081C74.6851 59.652 74.8679 59.2897 75.0413 58.9212C75.1806 58.6239 75.3169 58.3266 75.4438 58.0262C75.5708 57.7258 75.6947 57.4254 75.8124 57.1219C75.93 56.8185 76.0415 56.515 76.1468 56.2115L76.153 56.1898C76.3171 55.7191 76.8498 55.4899 77.2988 55.7098L78.1288 56.1124C78.5066 56.2951 78.6893 56.7349 78.5499 57.1312C78.5251 57.2025 78.5004 57.2737 78.4756 57.3449C78.3672 57.6484 78.2557 57.9519 78.1349 58.2523C78.0173 58.5527 77.8934 58.8561 77.7633 59.1534C77.6333 59.4538 77.5001 59.7511 77.3608 60.0484C77.1873 60.4169 77.0077 60.7792 76.8219 61.1354C76.6361 61.4915 76.4441 61.8445 76.2428 62.1883C76.0446 62.5351 75.8402 62.8758 75.6266 63.2102C75.546 63.3372 75.4655 63.4641 75.385 63.588C75.1558 63.9379 74.7037 64.0649 74.3259 63.8822L73.4774 63.4703C73.0253 63.2505 72.8735 62.6868 73.1491 62.2657C73.1925 62.2007 73.2358 62.1356 73.2761 62.0706L73.2792 62.0737Z" fill="url(#paint1_linear_1820_7604)"/>
<path d="M63.3415 71.2864C63.6946 71.0944 64.0476 70.8931 64.3944 70.6826C64.7413 70.472 65.0881 70.2521 65.4287 70.026C65.7044 69.8433 65.9769 69.6544 66.2463 69.4624C66.5126 69.2704 66.7758 69.0722 67.0329 68.874C67.2899 68.6728 67.5438 68.4684 67.7947 68.2609L67.8411 68.2206C68.2158 67.9078 68.7764 67.976 69.0551 68.3786L69.5846 69.1373C69.8324 69.4903 69.7673 69.9734 69.436 70.249C69.3833 70.2924 69.3307 70.3357 69.278 70.3822C69.0272 70.5866 68.7733 70.7909 68.5162 70.9891C68.2592 71.1873 67.996 71.3824 67.7266 71.5744C67.4602 71.7664 67.1877 71.9553 66.909 72.138C66.5684 72.3641 66.2246 72.584 65.8778 72.7977C65.5309 73.0113 65.181 73.2157 64.828 73.4108C64.4749 73.609 64.1219 73.7979 63.7627 73.9775C63.6171 74.0518 63.4716 74.1231 63.326 74.1943C62.9575 74.3739 62.5147 74.2593 62.2793 73.9249L61.7467 73.1631C61.4525 72.745 61.6073 72.1659 62.0687 71.9429C62.1338 71.912 62.2019 71.8779 62.2669 71.8469C62.6262 71.6704 62.9854 71.4846 63.3384 71.2926L63.3415 71.2864Z" fill="url(#paint2_linear_1820_7604)"/>
<path d="M48.7958 74.786C49.2077 74.7952 49.6196 74.7983 50.0346 74.7922C50.4495 74.786 50.8645 74.7674 51.2826 74.7426C51.6201 74.724 51.9577 74.6962 52.2921 74.6652C52.6266 74.6342 52.9579 74.594 53.2893 74.5506C53.6206 74.5072 53.9458 74.4577 54.274 74.4051C54.3019 74.3989 54.3298 74.3958 54.3577 74.3896C54.8346 74.3091 55.2805 74.6466 55.3269 75.1297L55.4075 76.0185C55.4477 76.452 55.1473 76.8422 54.7169 76.9134C54.6457 76.9258 54.5744 76.9351 54.5032 76.9475C54.178 77.0001 53.8498 77.0466 53.5184 77.0869C53.1871 77.1302 52.8557 77.1643 52.5213 77.1983C52.1868 77.2293 51.8524 77.2572 51.5117 77.2789C51.0967 77.3036 50.6818 77.3222 50.2668 77.3315C49.8518 77.3408 49.44 77.3408 49.0281 77.3315C48.6162 77.3253 48.2075 77.3098 47.7987 77.2882C47.6284 77.2789 47.458 77.2696 47.2877 77.2572C46.8789 77.2293 46.5507 76.9103 46.5166 76.5047L46.4361 75.6128C46.3897 75.1018 46.8139 74.6745 47.3249 74.7147C47.4054 74.7209 47.4859 74.7271 47.5695 74.7333C47.9783 74.7612 48.3871 74.7798 48.7989 74.7891L48.7958 74.786Z" fill="url(#paint3_linear_1820_7604)"/>
<path d="M34.1885 70.5866C34.5446 70.7972 34.907 71.0046 35.2755 71.2028C35.644 71.401 36.0187 71.593 36.3996 71.7788C36.7093 71.9275 37.019 72.073 37.3286 72.2093C37.6383 72.3456 37.9511 72.4787 38.2639 72.6026C38.5766 72.7296 38.8894 72.8472 39.2053 72.9649C39.2301 72.9742 39.2579 72.9835 39.2827 72.9928C39.7441 73.16 39.964 73.6865 39.7534 74.1293L39.3818 74.9097C39.196 75.2937 38.7501 75.4795 38.3506 75.3308C38.2732 75.303 38.1957 75.2751 38.1183 75.2441C37.8055 75.1265 37.4928 75.0057 37.18 74.8787C36.8672 74.7517 36.5575 74.6186 36.2448 74.4792C35.9351 74.3399 35.6254 74.1974 35.3157 74.0488C34.9348 73.8661 34.5632 73.6741 34.1916 73.479C33.8231 73.2839 33.4577 73.0795 33.0985 72.872C32.7392 72.6645 32.3862 72.4477 32.0394 72.2279C31.8969 72.1381 31.7576 72.0483 31.6182 71.9554C31.2683 71.7262 31.1413 71.2772 31.3209 70.8994L31.6987 70.1097C31.9155 69.6545 32.4853 69.4996 32.9034 69.7783C32.9808 69.8279 33.0551 69.8805 33.1325 69.9301C33.4763 70.153 33.8293 70.3729 34.1854 70.5835L34.1885 70.5866Z" fill="url(#paint4_linear_1820_7604)"/>
<path d="M22.8913 58.7384C23.0802 59.0976 23.2784 59.4568 23.4859 59.8129C23.6903 60.1691 23.907 60.5221 24.13 60.872C24.353 61.222 24.5852 61.5688 24.8268 61.9126C25.0219 62.1913 25.2201 62.4669 25.4214 62.7363C25.6226 63.0057 25.8301 63.272 26.0407 63.5322C26.2513 63.7923 26.465 64.0493 26.6848 64.3033L26.7158 64.3404C27.0441 64.7213 26.9666 65.3004 26.5486 65.576L25.8208 66.056C25.474 66.2852 25.0095 66.2233 24.737 65.9074C24.6781 65.8393 24.6193 65.7711 24.5635 65.703C24.3468 65.4491 24.1331 65.192 23.9225 64.9288C23.7119 64.6656 23.5075 64.3993 23.3032 64.1298C23.1019 63.8604 22.9037 63.5848 22.7086 63.3061C22.4701 62.9624 22.2379 62.6186 22.0149 62.2687C21.7919 61.9188 21.5752 61.5688 21.3646 61.2158C21.1571 60.8628 20.9527 60.5066 20.7607 60.1474C20.6864 60.0111 20.6152 59.8718 20.5408 59.7355C20.3426 59.3577 20.4634 58.8901 20.8195 58.6579L21.5659 58.1655C21.9777 57.893 22.5321 58.0416 22.7581 58.4782C22.8015 58.5649 22.8479 58.6517 22.8944 58.7384H22.8913Z" fill="url(#paint5_linear_1820_7604)"/>
<path d="M19.5935 44.1927C19.5749 44.5922 19.5656 44.9948 19.5656 45.3974C19.5656 45.7999 19.5749 46.2056 19.5904 46.6144C19.609 47.0201 19.6337 47.4288 19.6709 47.8407C19.6988 48.1752 19.7328 48.5065 19.7731 48.8348C19.8134 49.163 19.8598 49.4913 19.9125 49.8165C19.9651 50.1416 20.0239 50.4668 20.0859 50.7888V50.8105C20.1881 51.306 19.8319 51.7736 19.3272 51.8046L18.4198 51.8572C18.0048 51.882 17.6363 51.5971 17.5558 51.1883C17.5403 51.1047 17.5248 51.0211 17.5063 50.9375C17.4474 50.6154 17.3917 50.2903 17.339 49.9651C17.2895 49.6399 17.243 49.3117 17.2028 48.9834C17.1625 48.6552 17.1285 48.3238 17.1006 47.9925C17.0634 47.5837 17.0356 47.1749 17.017 46.7692C16.9984 46.3636 16.986 45.9579 16.9829 45.5553C16.9829 45.1527 16.9829 44.7501 16.9984 44.3507C17.0046 44.202 17.0108 44.0534 17.017 43.9078C17.0387 43.4836 17.3731 43.1398 17.7974 43.115L18.7264 43.0624C19.2188 43.0345 19.6276 43.4402 19.6028 43.9326C19.5966 44.0224 19.5935 44.1122 19.5904 44.1989L19.5935 44.1927Z" fill="url(#paint6_linear_1820_7604)"/>
<path d="M20.5377 31.1524C20.7266 30.7994 20.9248 30.4494 21.1261 30.1057C21.3274 29.762 21.538 29.4244 21.7517 29.0931C21.8322 28.9661 21.9158 28.8391 21.9994 28.7122C22.2286 28.3653 22.6807 28.2414 23.0554 28.4211L23.9008 28.8298C24.356 29.0497 24.5078 29.6195 24.226 30.0376C24.1857 30.0995 24.1424 30.1614 24.1021 30.2234C23.8853 30.5547 23.6717 30.8892 23.4673 31.2329C23.2629 31.5736 23.0647 31.9235 22.8727 32.2765C22.6807 32.6296 22.4949 32.9888 22.3184 33.3573C22.1759 33.6546 22.0366 33.9519 21.9065 34.2523C21.7764 34.5527 21.6495 34.8531 21.5287 35.1534C21.4079 35.4538 21.2964 35.7573 21.1849 36.0639L21.1726 36.0949C21.0053 36.5625 20.4758 36.7854 20.0298 36.5687L19.1937 36.163C18.8128 35.9772 18.6332 35.5374 18.7726 35.138C18.7973 35.0667 18.8221 34.9986 18.8469 34.9274C18.9584 34.6239 19.0729 34.3204 19.1937 34.02C19.3145 33.7196 19.4415 33.4193 19.5746 33.1189C19.7078 32.8185 19.844 32.5212 19.9896 32.2239C20.1661 31.8585 20.3488 31.4993 20.5408 31.1462L20.5377 31.1524Z" fill="url(#paint7_linear_1820_7604)"/>
<path d="M34.0832 21.125C33.7301 21.3139 33.3771 21.5121 33.0303 21.7196C32.6834 21.9271 32.3366 22.1407 31.996 22.3668C31.7172 22.5464 31.4447 22.7322 31.1784 22.9211C30.9121 23.11 30.6489 23.3051 30.3887 23.5002C30.1286 23.6984 29.8747 23.8997 29.6269 24.1041L29.5774 24.1443C29.2027 24.454 28.6452 24.3828 28.3665 23.9833L27.8463 23.2401C27.5985 22.884 27.6636 22.3978 27.998 22.1252C28.0476 22.085 28.1002 22.0416 28.1498 22.0014C28.4006 21.797 28.6576 21.5988 28.9147 21.4006C29.1748 21.2055 29.438 21.0104 29.7043 20.8215C29.9707 20.6326 30.2432 20.4468 30.5219 20.2672C30.8625 20.0442 31.2063 19.8305 31.5531 19.6231C31.9 19.4156 32.2499 19.2143 32.6029 19.0223C32.9559 18.8303 33.309 18.6445 33.6682 18.4649C33.8138 18.3936 33.9593 18.3224 34.1049 18.2512C34.4734 18.0747 34.9131 18.1892 35.1454 18.5206L35.6656 19.2607C35.9598 19.6819 35.805 20.2641 35.3405 20.484C35.2785 20.5149 35.2135 20.5428 35.1516 20.5738C34.7923 20.7472 34.4362 20.9299 34.0801 21.1188L34.0832 21.125Z" fill="url(#paint8_linear_1820_7604)"/>
<path d="M43.8721 15.4392C44.2003 15.3989 44.5286 15.3649 44.86 15.3339C45.1913 15.3029 45.5227 15.2782 45.8602 15.2596C46.2752 15.2379 46.6871 15.2224 47.0958 15.2131C47.5077 15.2069 47.9165 15.2069 48.3253 15.2131C48.734 15.2224 49.1397 15.2379 49.5454 15.2627C49.7126 15.272 49.8798 15.2844 50.0471 15.2968C50.4527 15.3277 50.7779 15.6436 50.8151 16.0493L50.8925 16.8978C50.9389 17.4088 50.5147 17.8392 50.0006 17.7989C49.9263 17.7928 49.852 17.7866 49.7745 17.7835C49.3689 17.7556 48.9632 17.7339 48.5544 17.7246C48.1456 17.7122 47.7369 17.7091 47.325 17.7153C46.9131 17.7215 46.5013 17.737 46.0863 17.7618C45.7487 17.7804 45.4143 17.8051 45.0829 17.833C44.7516 17.864 44.4202 17.898 44.092 17.9414C43.7637 17.9817 43.4385 18.0312 43.1134 18.0838C43.0855 18.0869 43.0576 18.0931 43.0329 18.0962C42.556 18.1737 42.1131 17.8361 42.0698 17.353L41.9924 16.5014C41.9521 16.0679 42.2556 15.6777 42.686 15.6095C42.7542 15.5971 42.8223 15.5878 42.8904 15.5786C43.2156 15.529 43.5407 15.4826 43.869 15.4423L43.8721 15.4392Z" fill="url(#paint9_linear_1820_7604)"/>
<path d="M60.0715 17.6783C60.3812 17.8053 60.6878 17.9354 60.9944 18.0716C61.3009 18.2079 61.6075 18.3503 61.911 18.499C62.2888 18.6817 62.6604 18.8706 63.0258 19.0657C63.3913 19.2608 63.7536 19.4621 64.1097 19.6696C64.4658 19.8771 64.8158 20.0876 65.1595 20.3075C65.2989 20.3942 65.4351 20.484 65.5714 20.5707C65.9213 20.7999 66.0483 21.2489 65.8687 21.6267L65.5094 22.3762C65.2927 22.8314 64.726 22.9862 64.3048 22.7106C64.2305 22.6611 64.1562 22.6115 64.0818 22.5651C63.7381 22.3421 63.3913 22.1284 63.0351 21.9178C62.6821 21.7072 62.3198 21.506 61.9544 21.3078C61.5889 21.1096 61.2173 20.9207 60.8395 20.738C60.536 20.5893 60.2295 20.4469 59.9198 20.3137C59.6132 20.1774 59.3035 20.0474 58.9938 19.9235C58.6842 19.7996 58.3714 19.6789 58.0617 19.5643C58.04 19.555 58.0184 19.5488 57.9936 19.5395C57.5322 19.3723 57.3123 18.8458 57.526 18.3999L57.8821 17.6598C58.0679 17.2758 58.5138 17.0931 58.9133 17.2386C58.9876 17.2665 59.0651 17.2943 59.1394 17.3222C59.4491 17.4368 59.7618 17.5576 60.0684 17.6845L60.0715 17.6783Z" fill="url(#paint10_linear_1820_7604)"/>
<path d="M72.5856 26.7486C72.7993 26.9995 73.013 27.2534 73.2205 27.5135C73.428 27.7737 73.6354 28.0338 73.8367 28.3032C74.038 28.5695 74.2362 28.8421 74.4313 29.1177C74.6698 29.4583 74.902 29.799 75.1281 30.1458C75.351 30.4926 75.5678 30.8395 75.7784 31.1894C75.9859 31.5394 76.1903 31.8924 76.3823 32.2485C76.4535 32.3817 76.5247 32.5148 76.5959 32.648C76.7941 33.0258 76.6765 33.4934 76.3203 33.7288L75.605 34.2026C75.1931 34.4751 74.6419 34.3295 74.4127 33.8929C74.3694 33.8093 74.326 33.7257 74.2796 33.6421C74.0907 33.2859 73.8925 32.9298 73.685 32.5768C73.4806 32.2237 73.2638 31.8738 73.0409 31.527C72.8179 31.1801 72.5856 30.8364 72.3441 30.4957C72.149 30.2201 71.9508 29.9476 71.7495 29.6813C71.5482 29.415 71.3407 29.1517 71.1301 28.8916C70.9196 28.6315 70.7059 28.3775 70.4891 28.1298L70.4674 28.105C70.1361 27.7241 70.2104 27.1419 70.6316 26.8632L71.3252 26.408C71.6721 26.1788 72.1335 26.2439 72.406 26.5566C72.4649 26.6217 72.5206 26.6898 72.5794 26.7548L72.5856 26.7486Z" fill="url(#paint11_linear_1820_7604)"/>
<path d="M79.6678 41.381C79.7297 41.6999 79.7885 42.022 79.8412 42.3441C79.8938 42.6661 79.9434 42.9913 79.9836 43.3195C80.027 43.6478 80.0642 43.9761 80.0951 44.3043C80.1323 44.7131 80.1632 45.1188 80.1849 45.5213C80.2066 45.927 80.2221 46.3296 80.2283 46.7291C80.2345 47.1286 80.2314 47.5312 80.2221 47.9275C80.219 48.0731 80.2159 48.2155 80.2097 48.3611C80.1942 48.7884 79.8567 49.1353 79.4293 49.1601L78.5189 49.2127C78.0265 49.2406 77.6208 48.838 77.6425 48.3487C77.6456 48.2589 77.6487 48.1691 77.6518 48.0793C77.6672 47.6829 77.6703 47.2803 77.6703 46.8808C77.6703 46.4782 77.6549 46.0757 77.6363 45.67C77.6146 45.2643 77.5867 44.8586 77.5465 44.4499C77.5155 44.1185 77.4783 43.7902 77.435 43.462C77.3916 43.1337 77.3421 42.8086 77.2894 42.4865C77.2337 42.1613 77.1749 41.8424 77.1098 41.5203V41.511C77.0076 41.0124 77.3638 40.5417 77.8716 40.5108L78.7511 40.4612C79.163 40.4364 79.5284 40.7213 79.612 41.1239C79.6275 41.2075 79.6461 41.2912 79.6616 41.3748L79.6678 41.381Z" fill="url(#paint12_linear_1820_7604)"/>
</g>
<path d="M22.3153 33.1003C20.5904 36.6585 19.6955 40.418 19.5499 44.1651C19.4044 47.9153 20.0144 51.6562 21.3027 55.1741C22.5909 58.6951 24.5574 61.9963 27.1277 64.8639C29.698 67.7346 32.8722 70.1687 36.5698 71.9617C40.2673 73.7548 44.1383 74.7333 47.9721 74.9687C51.8028 75.204 55.5933 74.6962 59.1329 73.5132C62.6694 72.3333 65.9551 70.4815 68.7793 68.0319C71.6005 65.5824 73.9602 62.5382 75.6542 58.9615C77.345 55.3909 78.2059 51.6345 78.3205 47.8936C78.4351 44.1589 77.8033 40.4397 76.5027 36.9465C75.202 33.4564 73.2325 30.1893 70.6746 27.3496C68.1166 24.513 64.9641 22.1006 61.2975 20.323C57.6309 18.5455 53.794 17.5669 49.9943 17.3222C46.1915 17.0776 42.4258 17.5638 38.9016 18.7127C35.3744 19.8647 32.0918 21.6825 29.2583 24.1011C26.4216 26.5228 24.0402 29.5421 22.3184 33.0972L22.3153 33.1003Z" fill="#36220E"/>
<path d="M4.23015 29.8301L5.6237 26.6992C5.26757 27.5013 4.94241 28.3126 4.63583 29.1271C4.53983 29.381 4.45621 29.635 4.36641 29.8889C4.16202 30.4618 3.97002 31.0378 3.79041 31.6138C3.7037 31.8987 3.61699 32.1836 3.53337 32.4716C3.36615 33.0569 3.21131 33.6422 3.06886 34.2306C3.00692 34.4814 2.94189 34.7323 2.88615 34.9831C2.70034 35.813 2.53002 36.6461 2.39376 37.4822C2.38757 37.5224 2.38447 37.5627 2.37828 37.5999C2.24512 38.4298 2.13983 39.2597 2.05002 40.0897C2.02215 40.3529 2.00047 40.6161 1.97879 40.8824C1.92305 41.5204 1.88279 42.1552 1.85492 42.7932C1.84253 43.0564 1.83015 43.3227 1.82395 43.5859C1.80228 44.3973 1.79918 45.2086 1.82395 46.0169C1.82395 46.0757 1.82395 46.1377 1.82395 46.1965C1.85183 47.0636 1.91066 47.9307 1.98808 48.7947C2.00976 49.0393 2.04073 49.2809 2.0655 49.5255C2.13673 50.2037 2.22344 50.8788 2.32563 51.5539C2.36279 51.8048 2.39995 52.0556 2.44331 52.3064C2.59195 53.1859 2.75608 54.0623 2.95737 54.9325C2.96666 54.9697 2.97905 55.0099 2.98524 55.0471C3.17724 55.8801 3.40021 56.707 3.63866 57.5307C3.70989 57.7815 3.79041 58.0293 3.86473 58.2801C4.06912 58.9366 4.28589 59.5901 4.51815 60.2404C4.60176 60.4726 4.67918 60.708 4.76899 60.9434C4.90215 61.2995 5.0477 61.6525 5.19015 62.0086C5.32331 62.34 5.45647 62.6744 5.59583 63.0027C5.74757 63.3557 5.9086 63.7026 6.06963 64.0525C6.21828 64.3777 6.36383 64.7028 6.52176 65.0249C6.69208 65.3717 6.8717 65.7155 7.04821 66.0592C7.21234 66.3751 7.37337 66.6941 7.5437 67.0068C7.7295 67.3506 7.9277 67.685 8.12589 68.0226C8.30241 68.3292 8.47583 68.6388 8.66163 68.9423C8.86602 69.2799 9.08279 69.6081 9.29337 69.9395C9.48537 70.2368 9.67118 70.5372 9.87247 70.8314C10.0923 71.1596 10.3277 71.4786 10.5569 71.8037C10.7612 72.0917 10.9625 72.3859 11.1762 72.6708C11.4147 72.9898 11.6624 73.2995 11.9101 73.6123C12.13 73.891 12.3437 74.1759 12.5698 74.4515C12.8237 74.7612 13.09 75.0615 13.3532 75.365C13.5855 75.6344 13.8147 75.907 14.0531 76.1733C14.3256 76.4737 14.6074 76.7648 14.8892 77.059C15.1339 77.316 15.3754 77.5792 15.6263 77.8301C15.9174 78.1243 16.2209 78.4061 16.5212 78.6941C16.7752 78.9387 17.026 79.1864 17.2861 79.4249C17.5958 79.7067 17.9179 79.9792 18.2369 80.2548C18.5032 80.484 18.7602 80.7194 19.0327 80.9454C19.3641 81.221 19.7078 81.4843 20.0485 81.7506C20.3179 81.9643 20.5842 82.181 20.8598 82.3885C21.2221 82.661 21.5969 82.9212 21.9685 83.1844C22.2348 83.3733 22.498 83.5715 22.7705 83.7542C23.1638 84.0205 23.5695 84.2745 23.9721 84.5284C24.2384 84.6987 24.4954 84.8752 24.7649 85.0394C25.2108 85.3119 25.6691 85.5689 26.1274 85.829C26.3659 85.9653 26.5951 86.1077 26.8366 86.2378C27.5396 86.6218 28.2549 86.9903 28.9858 87.3434C34.2596 89.9013 39.7563 91.4187 45.2314 91.9792C50.7034 92.5397 56.1507 92.1403 61.3378 90.8675C66.5187 89.5947 71.4332 87.4486 75.8431 84.5098C76.9455 83.7759 78.0139 82.9924 79.0482 82.1624C82.1543 79.6695 84.9414 76.7431 87.3166 73.4203L85.3223 76.2105C82.179 80.611 78.3019 84.3116 73.9292 87.2257C69.5473 90.1459 64.6699 92.2765 59.5261 93.5431C54.3793 94.8097 48.9692 95.2061 43.5375 94.6517C38.1027 94.0974 32.6461 92.5893 27.4126 90.053C26.688 89.7031 25.9757 89.3346 25.2789 88.9537C25.0591 88.8329 24.8485 88.7028 24.6317 88.579C24.161 88.3126 23.6872 88.0463 23.2258 87.7645C22.9594 87.6004 22.7055 87.427 22.4423 87.2597C22.0428 87.0058 21.6402 86.755 21.25 86.4886C20.9744 86.2997 20.7081 86.1015 20.4387 85.9095C20.0763 85.6525 19.7078 85.3986 19.3548 85.1323C19.3362 85.1168 19.3145 85.1044 19.296 85.092C19.0389 84.9 18.7974 84.6956 18.5465 84.4974C18.209 84.2311 17.8683 83.971 17.5401 83.6985C17.2738 83.4786 17.0198 83.2463 16.7566 83.0203C16.4376 82.7446 16.1187 82.4721 15.809 82.1903C15.5489 81.9519 15.298 81.7041 15.0441 81.4595C14.7499 81.1777 14.4495 80.899 14.1646 80.611C13.9138 80.357 13.6722 80.0938 13.4276 79.8368C13.1829 79.5797 12.9321 79.3289 12.6967 79.0688C12.6658 79.0347 12.6379 78.9975 12.6038 78.9635C12.5729 78.9294 12.5388 78.8984 12.5109 78.8644C12.3034 78.6352 12.1114 78.3968 11.9101 78.1645C11.65 77.861 11.3837 77.5637 11.1298 77.2541C10.9068 76.9815 10.6962 76.7028 10.4794 76.4272C10.2317 76.1145 9.98395 75.8017 9.7455 75.4827C9.53492 75.2009 9.33673 74.916 9.13544 74.6311C8.90628 74.309 8.67402 73.987 8.45105 73.6587C8.25595 73.3676 8.07015 73.0703 7.88125 72.7761C7.67066 72.4479 7.45389 72.1196 7.2526 71.7852C7.21854 71.7263 7.17828 71.6737 7.14421 71.6148C6.99557 71.3702 6.86241 71.1163 6.71686 70.8685C6.52486 70.5341 6.32666 70.1996 6.14395 69.8621C5.97363 69.5524 5.8157 69.2365 5.65466 68.9237C5.47815 68.58 5.29853 68.2394 5.12821 67.8925C4.97337 67.5766 4.83092 67.2577 4.68537 66.9387C4.52434 66.5888 4.36331 66.2388 4.21157 65.8858C4.07221 65.5606 3.94215 65.2324 3.81208 64.9041C3.7037 64.6347 3.58602 64.3684 3.48383 64.099C3.45286 64.0154 3.42499 63.9286 3.39402 63.8419C3.36305 63.7583 3.32589 63.6778 3.29492 63.5942C3.23918 63.4455 3.19892 63.2938 3.14628 63.1483C2.91712 62.5041 2.70034 61.8538 2.49905 61.2004C2.4557 61.0548 2.39995 60.9155 2.3566 60.7699C2.32563 60.6677 2.30395 60.5624 2.27299 60.4572C2.03763 59.6427 1.81776 58.8252 1.62576 57.9983C1.61647 57.9643 1.60718 57.9302 1.59789 57.8961C1.59789 57.8899 1.59789 57.8837 1.59479 57.8775C1.3966 57.0135 1.23247 56.1433 1.08692 55.2701C1.07144 55.1741 1.04666 55.0781 1.03118 54.9821C1.00641 54.8303 0.994019 54.6755 0.972342 54.5206C0.870148 53.8517 0.786535 53.1797 0.712212 52.5077C0.696729 52.3498 0.665761 52.195 0.653374 52.037C0.644083 51.9534 0.644083 51.8667 0.63789 51.7831C0.56047 50.9253 0.501632 50.0644 0.473761 49.2035C0.473761 49.1942 0.473761 49.188 0.473761 49.1787C0.473761 49.1292 0.473761 49.0765 0.473761 49.027C0.45518 48.3735 0.44589 47.717 0.458277 47.0605C0.458277 46.9119 0.473761 46.7601 0.476858 46.6115C0.476858 46.5093 0.476858 46.4071 0.476858 46.3049C0.483051 46.1439 0.501632 45.9797 0.507825 45.8187C0.535696 45.187 0.575954 44.5583 0.631696 43.9266C0.64718 43.7624 0.64718 43.5952 0.662664 43.4311C0.671954 43.332 0.690535 43.236 0.699825 43.1369C0.786535 42.3101 0.891825 41.4863 1.02499 40.6626C1.03118 40.6285 1.03428 40.5944 1.03737 40.5604C1.03737 40.5542 1.03737 40.5511 1.03737 40.5449C1.17363 39.715 1.34086 38.8881 1.52666 38.0644C1.54215 37.9901 1.55454 37.9157 1.57002 37.8445C1.61028 37.668 1.66602 37.4915 1.70937 37.315C1.85183 36.7328 2.00357 36.1506 2.17079 35.5715C2.21105 35.429 2.24202 35.2866 2.28228 35.1441C2.32563 35.0017 2.38137 34.8592 2.42473 34.7168C2.60124 34.1439 2.79324 33.5741 2.99453 33.0073C3.05647 32.8308 3.10602 32.6512 3.17415 32.4747C3.20202 32.3973 3.23918 32.323 3.26705 32.2486C3.57053 31.4435 3.8895 30.6445 4.24253 29.8517C4.24253 29.8486 4.24253 29.8455 4.24563 29.8393L4.23015 29.8301Z" fill="url(#paint13_linear_1820_7604)"/>
<path d="M17.3978 10.9459C21.919 7.1059 27.1557 4.2228 32.7732 2.3988C38.3846 0.577897 44.3799 -0.187006 50.4279 0.212477C56.4728 0.608864 62.5735 2.16964 68.4047 4.99699C74.2359 7.82435 79.2465 11.6551 83.3219 16.1671C87.4003 20.6791 90.5374 25.8723 92.6184 31.4249C94.6994 36.9836 95.7214 42.8984 95.5541 48.8504C95.3869 54.8086 94.0274 60.804 91.3487 66.502C88.6669 72.2125 84.9136 77.0837 80.4202 81.0011C75.9206 84.9278 70.6808 87.8945 65.0354 89.7898C59.3838 91.6881 53.3265 92.5087 47.2042 92.1402C41.0757 91.7717 34.8852 90.2109 28.9735 87.3433C23.0587 84.4757 17.9861 80.58 13.8798 75.9874C9.7766 71.398 6.63957 66.118 4.5926 60.4881C2.54563 54.8643 1.58873 48.8876 1.83338 42.8984C2.08112 36.9185 3.52731 30.9294 6.29273 25.2592C9.05505 19.5983 12.8672 14.7952 17.3978 10.949V10.9459ZM17.7911 30.8303C15.7812 34.9707 14.7345 39.3433 14.5611 43.7036C14.3877 48.07 15.0938 52.4241 16.5926 56.5211C18.0914 60.6244 20.38 64.4674 23.3714 67.8089C26.366 71.1503 30.0605 73.99 34.3681 76.0773C38.6757 78.1645 43.1846 79.3041 47.647 79.5766C52.1095 79.8491 56.5224 79.2545 60.6442 77.8765C64.7598 76.5015 68.5843 74.3431 71.87 71.4878C75.1526 68.6357 77.8963 65.0868 79.8628 60.9247C81.8261 56.7689 82.8264 52.3962 82.9565 48.0452C83.0865 43.7005 82.3464 39.3743 80.8321 35.3144C79.3177 31.2545 77.0261 27.4579 74.0501 24.1567C71.0741 20.8587 67.4107 18.0561 63.1464 15.9874C58.8821 13.9188 54.4228 12.7823 50.0037 12.4943C45.5815 12.2063 41.2027 12.7699 37.1025 14.1077C32.9993 15.4455 29.1779 17.5575 25.8798 20.3694C22.5787 23.1843 19.8009 26.6961 17.7941 30.8303H17.7911Z" fill="url(#paint14_linear_1820_7604)"/>
<path d="M93.7485 60.1845C93.5379 60.8968 93.3088 61.6028 93.0641 62.3089C92.8164 63.015 92.5501 63.7148 92.2652 64.4147C91.9803 65.1115 91.6737 65.8083 91.3516 66.4957C91.0264 67.1863 90.6858 67.8645 90.3297 68.5303C89.9735 69.1961 89.6019 69.8496 89.2179 70.4906C88.8339 71.1316 88.4345 71.7572 88.0195 72.3734C87.6076 72.9897 87.1803 73.5905 86.7405 74.1788L80.0577 69.1899C79.299 68.6232 79.1286 67.5641 79.6613 66.7806L79.6892 66.7373C80.0143 66.2542 80.3302 65.7587 80.6337 65.257C80.9372 64.7523 81.2313 64.2382 81.5101 63.7148C81.7919 63.1915 82.0582 62.6588 82.3152 62.1138C82.5723 61.5719 82.8138 61.0237 83.0368 60.4756C83.2628 59.9275 83.4734 59.3732 83.6685 58.8188C83.8636 58.2645 84.0463 57.7071 84.2104 57.1466L84.2166 57.1311C84.4892 56.2114 85.4368 55.6694 86.3658 55.9172L94.3245 58.0447C94.1511 58.76 93.9591 59.4723 93.7485 60.1845V60.1845Z" fill="url(#paint15_radial_1820_7604)"/>
<path d="M48.4675 82.2954C49.0744 82.3171 49.6845 82.3264 50.2946 82.3202C50.9077 82.314 51.5209 82.2923 52.1372 82.2521C52.7565 82.2149 53.3666 82.1623 53.9766 82.0941C54.5836 82.026 55.1844 81.9455 55.7821 81.8495C56.3766 81.7535 56.9681 81.642 57.5503 81.5212C57.5813 81.515 57.6123 81.5088 57.6401 81.5027C58.5723 81.3045 59.5013 81.8464 59.7738 82.7599L62.1212 90.666C61.3934 90.858 60.6595 91.0314 59.9163 91.1894C59.173 91.3473 58.4236 91.4867 57.668 91.6074C56.9093 91.7282 56.1475 91.8335 55.3764 91.9202C54.6053 92.0069 53.828 92.075 53.0445 92.1215C52.2579 92.171 51.4775 92.1989 50.6972 92.2082C49.9168 92.2175 49.1426 92.2082 48.3715 92.1803C47.6004 92.1525 46.8293 92.106 46.0675 92.0441C45.3026 91.979 44.5439 91.8985 43.7852 91.7994L44.6646 83.7943C44.773 82.8095 45.6494 82.0972 46.6373 82.1839H46.6559C47.2566 82.2366 47.8605 82.2737 48.4675 82.2954V82.2954Z" fill="url(#paint16_radial_1820_7604)"/>
<path d="M15.6881 61.2251C15.9575 61.7608 16.2393 62.2934 16.5335 62.823C16.8308 63.3525 17.1405 63.8759 17.4656 64.3962C17.7908 64.9164 18.1314 65.4305 18.4875 65.9383C18.8437 66.4493 19.2091 66.9448 19.5869 67.4341C19.9647 67.9203 20.3518 68.3941 20.7451 68.8586C21.1415 69.3231 21.5472 69.7753 21.959 70.215L21.9714 70.2274C22.6527 70.952 22.6434 72.0854 21.9405 72.7915L16.2734 78.4679C15.7252 77.9353 15.1864 77.3871 14.663 76.8266C14.1366 76.2661 13.6225 75.6901 13.1208 75.0986C12.6192 74.5071 12.1268 73.9033 11.6499 73.2839C11.173 72.6645 10.7054 72.0297 10.2563 71.3825C9.80419 70.7353 9.37064 70.0787 8.95877 69.4191C8.5438 68.7595 8.15051 68.0937 7.77271 67.4217C7.3949 66.7497 7.03877 66.0715 6.69813 65.3902C6.35748 64.7089 6.03542 64.0214 5.73193 63.3309L13.319 60.262C14.2109 59.8996 15.2266 60.2929 15.6571 61.1569C15.6695 61.1817 15.6819 61.2065 15.6943 61.2313L15.6881 61.2251Z" fill="url(#paint17_radial_1820_7604)"/>
<path d="M7.34254 23.2369C7.70796 22.5773 8.08886 21.9301 8.48215 21.2983C8.87544 20.6635 9.28421 20.0441 9.70847 19.4341C10.1296 18.8271 10.5663 18.2294 11.0153 17.6472L17.6393 22.5928C18.4104 23.1688 18.5745 24.2464 18.0264 25.0361L18.0171 25.0516C17.6858 25.5316 17.3637 26.0209 17.054 26.5195C16.7443 27.0181 16.4471 27.529 16.1591 28.0493C15.8711 28.5695 15.5985 29.0991 15.3353 29.6379C15.0721 30.1799 14.8243 30.7218 14.5952 31.2699C14.3629 31.8181 14.1461 32.3693 13.9449 32.9205C13.7436 33.4748 13.5578 34.0292 13.3843 34.5897L13.3781 34.6144C13.0963 35.5311 12.1487 36.0668 11.2197 35.8191L3.20215 33.6761C3.38486 32.9639 3.58615 32.2516 3.80602 31.5424C4.02589 30.8333 4.26434 30.1272 4.52137 29.4243C4.77841 28.7213 5.05402 28.0214 5.35131 27.3277C5.6455 26.631 5.96137 25.9404 6.29583 25.256C6.63028 24.5716 6.98021 23.8996 7.34563 23.24L7.34254 23.2369Z" fill="url(#paint18_radial_1820_7604)"/>
<path d="M40.0848 0.664631C40.8342 0.550051 41.5898 0.450954 42.3547 0.370438C43.1165 0.289922 43.8876 0.231083 44.6649 0.187728C45.4422 0.144373 46.2133 0.122696 46.9844 0.119599C47.7524 0.116502 48.5204 0.128889 49.2822 0.162954C50.044 0.193922 50.8027 0.246567 51.5583 0.311599C52.3139 0.379728 53.0634 0.463341 53.8097 0.565535L52.9488 8.36321C52.8404 9.3356 51.9733 10.0355 50.9978 9.94876H50.9792C50.3846 9.89302 49.787 9.85586 49.1862 9.83108C48.5854 9.80631 47.9815 9.79702 47.3746 9.80012C46.7676 9.80321 46.1576 9.82179 45.5444 9.85586C44.9343 9.88992 44.3274 9.93947 43.7266 10.0014C43.1258 10.0633 42.5281 10.1408 41.9366 10.2337C41.3452 10.3266 40.7599 10.4288 40.1808 10.5495C40.1436 10.5588 40.1034 10.565 40.0662 10.5743C39.1526 10.7632 38.2453 10.2275 37.979 9.3356L35.6719 1.56579C36.3934 1.38308 37.1212 1.21586 37.8582 1.06721C38.5952 0.918567 39.3385 0.785406 40.0879 0.670825L40.0848 0.664631Z" fill="url(#paint19_radial_1820_7604)"/>
<path d="M81.6776 30.6723C81.4082 30.1427 81.1264 29.6163 80.8291 29.0929C80.5318 28.5696 80.219 28.0524 79.8938 27.5414C79.5687 27.0274 79.228 26.5195 78.8719 26.0178C78.5189 25.5161 78.1535 25.0238 77.7787 24.5438C77.404 24.0638 77.02 23.5961 76.6267 23.1378C76.2335 22.6795 75.8309 22.2336 75.419 21.8L75.4066 21.7876C74.7284 21.0723 74.7346 19.9512 75.4314 19.2545L80.9498 13.7329C81.4918 14.2563 82.0275 14.7951 82.5478 15.3463C83.0711 15.8976 83.5821 16.4643 84.0807 17.0434C84.5793 17.6225 85.0685 18.217 85.5454 18.824C86.0224 19.431 86.4838 20.0534 86.9359 20.6914C87.3849 21.3293 87.8154 21.9703 88.2304 22.6207C88.6422 23.271 89.0386 23.9275 89.4164 24.5902C89.7942 25.2529 90.1535 25.9187 90.4972 26.5938C90.8409 27.2658 91.1661 27.944 91.4727 28.6253L84.028 31.6385C83.1516 31.9915 82.1545 31.6106 81.7302 30.7683C81.7147 30.7373 81.6993 30.7063 81.6838 30.6754L81.6776 30.6723Z" fill="url(#paint20_radial_1820_7604)"/>
<path d="M61.3222 90.8674C61.5947 90.7993 61.861 90.7219 62.1304 90.6506L60.8484 93.1838C60.4024 93.3077 59.9596 93.4315 59.5105 93.543C54.3637 94.8096 48.9536 95.206 43.5219 94.6517C43.1503 94.6145 42.7818 94.5619 42.4102 94.5154L43.782 91.8057C44.2589 91.8708 44.7389 91.9358 45.2158 91.9853C50.6878 92.5459 56.1351 92.1464 61.3222 90.8736V90.8674Z" fill="url(#paint21_linear_1820_7604)"/>
<path d="M6.51855 65.0185C6.68887 65.3653 6.86848 65.7091 7.045 66.0528C7.20913 66.3687 7.37016 66.6877 7.54048 67.0004C7.72629 67.3442 7.92448 67.6786 8.12268 68.0162C8.29919 68.3228 8.47261 68.6324 8.65842 68.9359C8.8628 69.2735 9.07958 69.6017 9.29016 69.9331C9.48216 70.2304 9.66797 70.5308 9.86926 70.825C10.0891 71.1532 10.3245 71.4722 10.5536 71.7973C10.758 72.0853 10.9593 72.3795 11.173 72.6644C11.4115 72.9834 11.6592 73.2931 11.9069 73.6059C12.1268 73.8846 12.3405 74.1695 12.5665 74.4451C12.8205 74.7548 13.0868 75.0551 13.35 75.3586C13.5823 75.6281 13.8114 75.9006 14.0499 76.1669C14.3224 76.4673 14.6042 76.7584 14.886 77.0526C15.1307 77.3096 15.3722 77.5728 15.6231 77.8237C15.8367 78.0404 16.0597 78.2479 16.2827 78.4585L14.8551 81.2797C14.6166 81.0536 14.3782 80.8306 14.149 80.5984C13.8982 80.3444 13.6566 80.0812 13.412 79.8242C13.1673 79.5671 12.9165 79.3163 12.6811 79.0562C12.6502 79.0221 12.6223 78.985 12.5882 78.9509C12.5573 78.9168 12.5232 78.8859 12.4953 78.8518C12.2878 78.6226 12.0958 78.3842 11.8945 78.1519C11.6344 77.8484 11.3681 77.5511 11.1142 77.2415C10.8912 76.969 10.6806 76.6902 10.4638 76.4146C10.2161 76.1019 9.96835 75.7891 9.7299 75.4701C9.51932 75.1883 9.32113 74.9034 9.11984 74.6185C8.89068 74.2964 8.65842 73.9744 8.43545 73.6461C8.24035 73.355 8.05455 73.0577 7.86564 72.7635C7.65506 72.4353 7.43829 72.107 7.237 71.7726C7.20293 71.7137 7.16268 71.6611 7.12861 71.6022C6.97997 71.3576 6.8468 71.1037 6.70126 70.8559C6.50926 70.5215 6.31106 70.187 6.12835 69.8495C5.95803 69.5398 5.80009 69.2239 5.63906 68.9111C5.46255 68.5674 5.28293 68.2268 5.11261 67.8799C4.95777 67.564 4.81532 67.2451 4.66977 66.9261C4.549 66.6629 4.42822 66.3966 4.31055 66.1302L5.73816 63.3091C5.84964 63.5537 5.95803 63.8015 6.06951 64.0461C6.21816 64.3713 6.36371 64.6964 6.52164 65.0185H6.51855Z" fill="url(#paint22_linear_1820_7604)"/>
<path d="M4.63593 29.1269C4.53993 29.3809 4.45632 29.6348 4.36651 29.8887C4.16213 30.4616 3.97013 31.0376 3.79051 31.6136C3.7038 31.8985 3.61709 32.1834 3.53348 32.4714C3.42509 32.8523 3.32909 33.2363 3.23 33.6172L2.05322 35.9429C2.08729 35.816 2.11825 35.6921 2.15232 35.5651C2.19258 35.4227 2.22355 35.2802 2.2638 35.1378C2.30716 34.9953 2.3629 34.8529 2.40625 34.7104C2.58277 34.1375 2.77477 33.5677 2.97606 33.001C3.038 32.8245 3.08755 32.6449 3.15567 32.4683C3.18355 32.3909 3.22071 32.3166 3.24858 32.2423C3.55206 31.4371 3.87103 30.6382 4.22406 29.8454C4.22406 29.8423 4.22406 29.8392 4.22716 29.833L5.62071 26.7021C5.26458 27.5042 4.93942 28.3156 4.63284 29.13L4.63593 29.1269Z" fill="url(#paint23_linear_1820_7604)"/>
<path style="mix-blend-mode:screen" opacity="0.2" d="M17.3979 10.946C21.9192 7.10595 27.1559 4.22285 32.7734 2.39885C34.1824 1.94053 35.6132 1.55034 37.0655 1.22827C35.6937 1.53795 34.3404 1.90647 33.0088 2.34001C27.4593 4.14234 22.2846 6.99137 17.816 10.7849C13.3412 14.5847 9.57238 19.332 6.84722 24.9248C4.11277 30.5269 2.68516 36.4448 2.44051 42.3534C2.19587 48.2714 3.14348 54.1738 5.16567 59.7294C7.18786 65.2943 10.2877 70.5093 14.3414 75.043C18.3982 79.5798 23.4088 83.4322 29.2524 86.2626C35.096 89.0962 41.2121 90.6384 47.2663 91.0007C53.3174 91.3661 59.3004 90.5516 64.8839 88.6781C70.4611 86.8046 75.6389 83.8719 80.0828 79.9947C84.5205 76.1238 88.2273 71.3114 90.8782 65.6691C93.5228 60.0391 94.8668 54.1181 95.0309 48.228C95.1951 42.3503 94.1886 36.5036 92.1293 31.0131C90.073 25.5287 86.9731 20.3973 82.9442 15.938C78.9215 11.4879 73.976 7.70363 68.2222 4.91034C68.281 4.93821 68.3429 4.96298 68.4018 4.99085C74.233 7.81821 79.2436 11.6489 83.3189 16.1609C87.3974 20.6729 90.5344 25.8662 92.6155 31.4187C94.6965 36.9774 95.7184 42.8923 95.5512 48.8443C95.384 54.8025 94.0245 60.7978 91.3458 66.4959C88.664 72.2063 84.9107 77.0776 80.4173 80.995C75.9177 84.9217 70.6779 87.8884 65.0325 89.7837C59.3809 91.682 53.3236 92.5026 47.2013 92.1341C41.0728 91.7656 34.8823 90.2048 28.9706 87.3372C23.0557 84.4696 17.9832 80.5738 13.8769 75.9813C9.77367 71.3919 6.63664 66.1119 4.58967 60.482C2.5427 54.8582 1.5858 48.8814 1.83045 42.8923C2.07819 36.9124 3.52438 30.9232 6.2898 25.2531C9.05212 19.5921 12.8643 14.789 17.3948 10.9429L17.3979 10.946Z" fill="url(#paint24_radial_1820_7604)"/>
</g>
<g clip-path="url(#clip3_1820_7604)">
<path d="M48.8232 28.9402L54.0213 39.4745L65.6465 41.1622L57.2348 49.3621L59.2223 60.9402L48.8232 55.4745L38.427 60.9402L40.4116 49.3621L32 41.1622L43.6251 39.4745L48.8232 28.9402Z" fill="white"/>
</g>
</g>
<defs>
<linearGradient id="paint0_linear_1820_7604" x1="75.776" y1="27.1756" x2="21.2387" y2="65.1947" gradientUnits="userSpaceOnUse">
<stop stop-color="#EEBB56"/>
<stop offset="1" stop-color="#B57625"/>
</linearGradient>
<linearGradient id="paint1_linear_1820_7604" x1="86.795" y1="27.9357" x2="67.1625" y2="84.7823" gradientUnits="userSpaceOnUse">
<stop stop-color="#EDEDED"/>
<stop offset="0.56" stop-color="#EBEBEB"/>
<stop offset="0.76" stop-color="#E4E4E4"/>
<stop offset="0.91" stop-color="#D8D8D8"/>
<stop offset="1" stop-color="#CCCCCC"/>
</linearGradient>
<linearGradient id="paint2_linear_1820_7604" x1="80.269" y1="28.8443" x2="61.7314" y2="82.5245" gradientUnits="userSpaceOnUse">
<stop stop-color="#EDEDED"/>
<stop offset="0.56" stop-color="#EBEBEB"/>
<stop offset="0.76" stop-color="#E4E4E4"/>
<stop offset="0.91" stop-color="#D8D8D8"/>
<stop offset="1" stop-color="#CCCCCC"/>
</linearGradient>
<linearGradient id="paint3_linear_1820_7604" x1="68.0818" y1="26.0917" x2="49.7715" y2="79.1165" gradientUnits="userSpaceOnUse">
<stop stop-color="#EDEDED"/>
<stop offset="0.56" stop-color="#EBEBEB"/>
<stop offset="0.76" stop-color="#E4E4E4"/>
<stop offset="0.91" stop-color="#D8D8D8"/>
<stop offset="1" stop-color="#CCCCCC"/>
</linearGradient>
<linearGradient id="paint4_linear_1820_7604" x1="53.7354" y1="19.7929" x2="34.9366" y2="74.2295" gradientUnits="userSpaceOnUse">
<stop stop-color="#EDEDED"/>
<stop offset="0.56" stop-color="#EBEBEB"/>
<stop offset="0.76" stop-color="#E4E4E4"/>
<stop offset="0.91" stop-color="#D8D8D8"/>
<stop offset="1" stop-color="#CCCCCC"/>
</linearGradient>
<linearGradient id="paint5_linear_1820_7604" x1="39.5791" y1="16.0617" x2="21.3348" y2="68.8873" gradientUnits="userSpaceOnUse">
<stop stop-color="#EDEDED"/>
<stop offset="0.56" stop-color="#EBEBEB"/>
<stop offset="0.76" stop-color="#E4E4E4"/>
<stop offset="0.91" stop-color="#D8D8D8"/>
<stop offset="1" stop-color="#CCCCCC"/>
</linearGradient>
<linearGradient id="paint6_linear_1820_7604" x1="31.3176" y1="10.5016" x2="12.3869" y2="65.3156" gradientUnits="userSpaceOnUse">
<stop stop-color="#EDEDED"/>
<stop offset="0.56" stop-color="#EBEBEB"/>
<stop offset="0.76" stop-color="#E4E4E4"/>
<stop offset="0.91" stop-color="#D8D8D8"/>
<stop offset="1" stop-color="#CCCCCC"/>
</linearGradient>
<linearGradient id="paint7_linear_1820_7604" x1="29.9587" y1="8.09682" x2="10.3233" y2="64.9559" gradientUnits="userSpaceOnUse">
<stop stop-color="#EDEDED"/>
<stop offset="0.56" stop-color="#EBEBEB"/>
<stop offset="0.76" stop-color="#E4E4E4"/>
<stop offset="0.91" stop-color="#D8D8D8"/>
<stop offset="1" stop-color="#CCCCCC"/>
</linearGradient>
<linearGradient id="paint8_linear_1820_7604" x1="35.5006" y1="10.3757" x2="16.9587" y2="64.0642" gradientUnits="userSpaceOnUse">
<stop stop-color="#EDEDED"/>
<stop offset="0.56" stop-color="#EBEBEB"/>
<stop offset="0.76" stop-color="#E4E4E4"/>
<stop offset="0.91" stop-color="#D8D8D8"/>
<stop offset="1" stop-color="#CCCCCC"/>
</linearGradient>
<linearGradient id="paint9_linear_1820_7604" x1="47.4396" y1="13.7837" x2="29.1293" y2="66.8015" gradientUnits="userSpaceOnUse">
<stop stop-color="#EDEDED"/>
<stop offset="0.56" stop-color="#EBEBEB"/>
<stop offset="0.76" stop-color="#E4E4E4"/>
<stop offset="0.91" stop-color="#D8D8D8"/>
<stop offset="1" stop-color="#CCCCCC"/>
</linearGradient>
<linearGradient id="paint10_linear_1820_7604" x1="62.1572" y1="18.6424" x2="43.357" y2="73.0886" gradientUnits="userSpaceOnUse">
<stop stop-color="#EDEDED"/>
<stop offset="0.56" stop-color="#EBEBEB"/>
<stop offset="0.76" stop-color="#E4E4E4"/>
<stop offset="0.91" stop-color="#D8D8D8"/>
<stop offset="1" stop-color="#CCCCCC"/>
</linearGradient>
<linearGradient id="paint11_linear_1820_7604" x1="75.6594" y1="23.9411" x2="57.4277" y2="76.735" gradientUnits="userSpaceOnUse">
<stop stop-color="#EDEDED"/>
<stop offset="0.56" stop-color="#EBEBEB"/>
<stop offset="0.76" stop-color="#E4E4E4"/>
<stop offset="0.91" stop-color="#D8D8D8"/>
<stop offset="1" stop-color="#CCCCCC"/>
</linearGradient>
<linearGradient id="paint12_linear_1820_7604" x1="84.6267" y1="27.5156" x2="65.6932" y2="82.3421" gradientUnits="userSpaceOnUse">
<stop stop-color="#EDEDED"/>
<stop offset="0.56" stop-color="#EBEBEB"/>
<stop offset="0.76" stop-color="#E4E4E4"/>
<stop offset="0.91" stop-color="#D8D8D8"/>
<stop offset="1" stop-color="#CCCCCC"/>
</linearGradient>
<linearGradient id="paint13_linear_1820_7604" x1="0.427309" y1="60.7947" x2="87.3011" y2="60.7947" gradientUnits="userSpaceOnUse">
<stop stop-color="#BE782E"/>
<stop offset="1" stop-color="#EBC147"/>
</linearGradient>
<linearGradient id="paint14_linear_1820_7604" x1="1.79621" y1="46.1655" x2="95.5727" y2="46.1655" gradientUnits="userSpaceOnUse">
<stop stop-color="#FADA50"/>
<stop offset="1" stop-color="#BA722B"/>
</linearGradient>
<radialGradient id="paint15_radial_1820_7604" cx="0" cy="0" r="1" gradientUnits="userSpaceOnUse" gradientTransform="translate(49.7275 45.6654) rotate(-153.16) scale(46.156 46.156)">
<stop offset="0.78" stop-color="#FCFCFC"/>
<stop offset="0.87" stop-color="#F8F8F8"/>
<stop offset="0.96" stop-color="#ECECEC"/>
<stop offset="1" stop-color="#E6E6E6"/>
</radialGradient>
<radialGradient id="paint16_radial_1820_7604" cx="0" cy="0" r="1" gradientUnits="userSpaceOnUse" gradientTransform="translate(48.4381 47.0538) rotate(-153.16) scale(45.5647 45.5647)">
<stop offset="0.78" stop-color="#FCFCFC"/>
<stop offset="0.87" stop-color="#F8F8F8"/>
<stop offset="0.96" stop-color="#ECECEC"/>
<stop offset="1" stop-color="#E6E6E6"/>
</radialGradient>
<radialGradient id="paint17_radial_1820_7604" cx="0" cy="0" r="1" gradientUnits="userSpaceOnUse" gradientTransform="translate(46.969 46.3797) rotate(-153.16) scale(45.7442 45.7442)">
<stop offset="0.78" stop-color="#FCFCFC"/>
<stop offset="0.87" stop-color="#F8F8F8"/>
<stop offset="0.96" stop-color="#ECECEC"/>
<stop offset="1" stop-color="#E6E6E6"/>
</radialGradient>
<radialGradient id="paint18_radial_1820_7604" cx="0" cy="0" r="1" gradientUnits="userSpaceOnUse" gradientTransform="translate(47.2957 44.438) rotate(-153.16) scale(46.1972)">
<stop offset="0.78" stop-color="#FCFCFC"/>
<stop offset="0.87" stop-color="#F8F8F8"/>
<stop offset="0.96" stop-color="#ECECEC"/>
<stop offset="1" stop-color="#E6E6E6"/>
</radialGradient>
<radialGradient id="paint19_radial_1820_7604" cx="0" cy="0" r="1" gradientUnits="userSpaceOnUse" gradientTransform="translate(48.4967 43.1203) rotate(-153.16) scale(45.9354 45.9354)">
<stop offset="0.78" stop-color="#FCFCFC"/>
<stop offset="0.87" stop-color="#F8F8F8"/>
<stop offset="0.96" stop-color="#ECECEC"/>
<stop offset="1" stop-color="#E6E6E6"/>
</radialGradient>
<radialGradient id="paint20_radial_1820_7604" cx="0" cy="0" r="1" gradientUnits="userSpaceOnUse" gradientTransform="translate(49.9552 43.789) rotate(-153.16) scale(45.6 45.6)">
<stop offset="0.78" stop-color="#FCFCFC"/>
<stop offset="0.87" stop-color="#F8F8F8"/>
<stop offset="0.96" stop-color="#ECECEC"/>
<stop offset="1" stop-color="#E6E6E6"/>
</radialGradient>
<linearGradient id="paint21_linear_1820_7604" x1="59.3106" y1="96.2298" x2="45.1675" y2="89.0763" gradientUnits="userSpaceOnUse">
<stop stop-color="#949494"/>
<stop offset="1" stop-color="#ADADAD"/>
</linearGradient>
<linearGradient id="paint22_linear_1820_7604" x1="17.5069" y1="76.0434" x2="3.0073" y2="68.7096" gradientUnits="userSpaceOnUse">
<stop stop-color="#CCCCCC"/>
<stop offset="1" stop-color="#EDEDED"/>
</linearGradient>
<linearGradient id="paint23_linear_1820_7604" x1="4.23851" y1="31.6199" x2="3.35699" y2="31.174" gradientUnits="userSpaceOnUse">
<stop stop-color="#CCCCCC"/>
<stop offset="1" stop-color="#EDEDED"/>
</linearGradient>
<radialGradient id="paint24_radial_1820_7604" cx="0" cy="0" r="1" gradientUnits="userSpaceOnUse" gradientTransform="translate(48.6846 46.7261) scale(46.1977 46.1977)">
<stop offset="0.78" stop-color="#FCFCFC"/>
<stop offset="0.87" stop-color="#F8F8F8"/>
<stop offset="0.96" stop-color="#ECECEC"/>
<stop offset="1" stop-color="#E6E6E6"/>
</radialGradient>
<clipPath id="clip0_1820_7604">
<rect width="95.1191" height="94.787" fill="white" transform="translate(0.452637 0.109131)"/>
</clipPath>
<clipPath id="clip1_1820_7604">
<rect width="95.1191" height="94.787" fill="white" transform="translate(0.452637 0.109131)"/>
</clipPath>
<clipPath id="clip2_1820_7604">
<rect width="63.2486" height="62.1298" fill="white" transform="translate(16.9829 15.2085)"/>
</clipPath>
<clipPath id="clip3_1820_7604">
<rect width="33.6465" height="32" fill="white" transform="translate(32 28.9402)"/>
</clipPath>
</defs>
</svg>
