<svg width="346" height="61" viewBox="0 0 346 61" fill="none" xmlns="http://www.w3.org/2000/svg">
<path d="M12 3V25H0L12 3Z" fill="#B1754C"/>
<g filter="url(#filter0_dd_1902_44476)">
<path d="M12 3H334V48C334 52.4183 330.418 56 326 56H20C15.5817 56 12 52.4183 12 48V3Z" fill="url(#paint0_diamond_1902_44476)"/>
<path d="M12 3H334V48C334 52.4183 330.418 56 326 56H20C15.5817 56 12 52.4183 12 48V3Z" fill="url(#paint1_linear_1902_44476)"/>
</g>
<path d="M334 3V25H346L334 3Z" fill="#B1754C"/>
<defs>
<filter id="filter0_dd_1902_44476" x="8" y="0" width="330" height="61" filterUnits="userSpaceOnUse" color-interpolation-filters="sRGB">
<feFlood flood-opacity="0" result="BackgroundImageFix"/>
<feColorMatrix in="SourceAlpha" type="matrix" values="0 0 0 0 0 0 0 0 0 0 0 0 0 0 0 0 0 0 127 0" result="hardAlpha"/>
<feOffset dy="1"/>
<feGaussianBlur stdDeviation="1"/>
<feColorMatrix type="matrix" values="0 0 0 0 0 0 0 0 0 0 0 0 0 0 0 0 0 0 0.3 0"/>
<feBlend mode="normal" in2="BackgroundImageFix" result="effect1_dropShadow_1902_44476"/>
<feColorMatrix in="SourceAlpha" type="matrix" values="0 0 0 0 0 0 0 0 0 0 0 0 0 0 0 0 0 0 127 0" result="hardAlpha"/>
<feMorphology radius="1" operator="dilate" in="SourceAlpha" result="effect2_dropShadow_1902_44476"/>
<feOffset dy="1"/>
<feGaussianBlur stdDeviation="1.5"/>
<feColorMatrix type="matrix" values="0 0 0 0 0 0 0 0 0 0 0 0 0 0 0 0 0 0 0.15 0"/>
<feBlend mode="normal" in2="effect1_dropShadow_1902_44476" result="effect2_dropShadow_1902_44476"/>
<feBlend mode="normal" in="SourceGraphic" in2="effect2_dropShadow_1902_44476" result="shape"/>
</filter>
<radialGradient id="paint0_diamond_1902_44476" cx="0" cy="0" r="1" gradientUnits="userSpaceOnUse" gradientTransform="translate(171.625 67.2424) rotate(-90) scale(71.4697 449.227)">
<stop stop-color="#D8A753"/>
<stop offset="1" stop-color="#F8F090"/>
</radialGradient>
<linearGradient id="paint1_linear_1902_44476" x1="-64.3259" y1="41.6458" x2="399.953" y2="41.6459" gradientUnits="userSpaceOnUse">
<stop stop-color="#C38950"/>
<stop offset="1" stop-color="#F8F090"/>
</linearGradient>
</defs>
</svg>
