<svg width="198" height="41" viewBox="0 0 198 41" fill="none" xmlns="http://www.w3.org/2000/svg">
<path d="M12 3V25H0L12 3Z" fill="#B1754C"/>
<g filter="url(#filter0_dd_12_1546)">
<path d="M12 3H186V28C186 32.4183 182.418 36 178 36H20C15.5817 36 12 32.4183 12 28V3Z" fill="url(#paint0_diamond_12_1546)"/>
<path d="M12 3H186V28C186 32.4183 182.418 36 178 36H20C15.5817 36 12 32.4183 12 28V3Z" fill="url(#paint1_linear_12_1546)"/>
</g>
<path d="M186 3V25H198L186 3Z" fill="#B1754C"/>
<defs>
<filter id="filter0_dd_12_1546" x="8" y="0" width="182" height="41" filterUnits="userSpaceOnUse" color-interpolation-filters="sRGB">
<feFlood flood-opacity="0" result="BackgroundImageFix"/>
<feColorMatrix in="SourceAlpha" type="matrix" values="0 0 0 0 0 0 0 0 0 0 0 0 0 0 0 0 0 0 127 0" result="hardAlpha"/>
<feOffset dy="1"/>
<feGaussianBlur stdDeviation="1"/>
<feColorMatrix type="matrix" values="0 0 0 0 0 0 0 0 0 0 0 0 0 0 0 0 0 0 0.3 0"/>
<feBlend mode="normal" in2="BackgroundImageFix" result="effect1_dropShadow_12_1546"/>
<feColorMatrix in="SourceAlpha" type="matrix" values="0 0 0 0 0 0 0 0 0 0 0 0 0 0 0 0 0 0 127 0" result="hardAlpha"/>
<feMorphology radius="1" operator="dilate" in="SourceAlpha" result="effect2_dropShadow_12_1546"/>
<feOffset dy="1"/>
<feGaussianBlur stdDeviation="1.5"/>
<feColorMatrix type="matrix" values="0 0 0 0 0 0 0 0 0 0 0 0 0 0 0 0 0 0 0.15 0"/>
<feBlend mode="normal" in2="effect1_dropShadow_12_1546" result="effect2_dropShadow_12_1546"/>
<feBlend mode="normal" in="SourceGraphic" in2="effect2_dropShadow_12_1546" result="shape"/>
</filter>
<radialGradient id="paint0_diamond_12_1546" cx="0" cy="0" r="1" gradientUnits="userSpaceOnUse" gradientTransform="translate(98.2572 43) rotate(-90) scale(44.5 242.75)">
<stop stop-color="#D8A753"/>
<stop offset="1" stop-color="#F8F090"/>
</radialGradient>
<linearGradient id="paint1_linear_12_1546" x1="-29.2444" y1="27.0625" x2="221.639" y2="27.0625" gradientUnits="userSpaceOnUse">
<stop stop-color="#C38950"/>
<stop offset="1" stop-color="#F8F090"/>
</linearGradient>
</defs>
</svg>
