<svg width="56" height="68" viewBox="0 0 56 68" fill="none" xmlns="http://www.w3.org/2000/svg">
<rect width="56" height="68" fill="url(#paint0_linear_53_4553)"/>
<g clip-path="url(#clip0_53_4553)">
<g clip-path="url(#clip1_53_4553)">
<g clip-path="url(#clip2_53_4553)">
<path d="M17.8617 21.4458C19.3804 20.1514 21.1404 19.1777 23.0309 18.5617C24.9187 17.9457 26.937 17.686 28.9738 17.818C31.0091 17.95 33.0644 18.4751 35.0288 19.4275C36.9931 20.3799 38.6808 21.6715 40.0518 23.1902C41.4229 24.7103 42.4789 26.4604 43.1758 28.3297C43.8742 30.2004 44.2148 32.1932 44.1538 34.1945C44.0942 36.1986 43.6329 38.2141 42.7287 40.1274C41.8232 42.0449 40.5586 43.6786 39.0469 44.9929C37.5339 46.3087 35.7725 47.3022 33.8762 47.9367C31.9786 48.5711 29.9446 48.845 27.8908 48.7187C25.8356 48.5938 23.7591 48.0687 21.7748 47.1063C19.7906 46.144 18.0887 44.8368 16.7106 43.2982C15.3324 41.7596 14.2778 39.9883 13.588 38.0991C12.8982 36.2114 12.5731 34.2058 12.6526 32.1946C12.7321 30.1862 13.2147 28.1721 14.1401 26.2645C15.0641 24.3598 16.3429 22.7417 17.8645 21.4444L17.8617 21.4458Z" fill="url(#paint1_linear_53_4553)"/>
<path d="M14.0943 26.4473C13.1694 28.4078 12.6895 30.4791 12.6114 32.5437C12.5334 34.61 12.8605 36.6711 13.5513 38.6094C14.2421 40.5494 15.2966 42.3682 16.6749 43.9482C18.0532 45.5299 19.7553 46.871 21.7381 47.8589C23.7208 48.8468 25.7966 49.386 27.8524 49.5157C29.9066 49.6454 31.9392 49.3655 33.8372 48.7138C35.7336 48.0637 37.4955 47.0433 39.01 45.6937C40.5228 44.3441 41.7882 42.6668 42.6966 40.6961C43.6032 38.7288 44.0649 36.6592 44.1263 34.598C44.1878 32.5403 43.849 30.4911 43.1516 28.5664C42.4541 26.6435 41.398 24.8434 40.0263 23.2788C38.6546 21.7159 36.9642 20.3867 34.998 19.4073C33.0318 18.428 30.9744 17.8888 28.9368 17.754C26.8976 17.6192 24.8783 17.8871 22.9885 18.5201C21.0971 19.1548 19.3369 20.1564 17.8174 21.489C16.2963 22.8232 15.0193 24.4868 14.096 26.4456L14.0943 26.4473Z" fill="#0E3614"/>
<path d="M7.93888 25.9013L8.57759 24.4663C8.41436 24.8339 8.26533 25.2058 8.12481 25.5791C8.08081 25.6955 8.04249 25.8119 8.00133 25.9282C7.90765 26.1908 7.81965 26.4548 7.73733 26.7188C7.69759 26.8494 7.65785 26.98 7.61952 27.112C7.54288 27.3802 7.47191 27.6485 7.40662 27.9182C7.37823 28.0331 7.34843 28.1481 7.32288 28.2631C7.23772 28.6435 7.15965 29.0253 7.0972 29.4085C7.09436 29.427 7.09294 29.4454 7.0901 29.4624C7.02907 29.8428 6.98081 30.2232 6.93965 30.6036C6.92688 30.7242 6.91694 30.8449 6.90701 30.967C6.88146 31.2593 6.86301 31.5503 6.85023 31.8427C6.84456 31.9633 6.83888 32.0854 6.83604 32.2061C6.8261 32.5779 6.82469 32.9498 6.83604 33.3202C6.83604 33.3472 6.83604 33.3756 6.83604 33.4026C6.84881 33.8 6.87578 34.1974 6.91127 34.5934C6.9212 34.7055 6.93539 34.8162 6.94675 34.9284C6.97939 35.2392 7.01914 35.5486 7.06598 35.8581C7.08301 35.973 7.10004 36.088 7.11991 36.203C7.18804 36.6061 7.26327 37.0077 7.35552 37.4066C7.35978 37.4236 7.36546 37.4421 7.3683 37.4591C7.4563 37.8409 7.55849 38.2199 7.66778 38.5974C7.70043 38.7124 7.73733 38.8259 7.77139 38.9409C7.86507 39.2418 7.96443 39.5413 8.07088 39.8393C8.1092 39.9458 8.14469 40.0537 8.18585 40.1615C8.24688 40.3248 8.31359 40.4866 8.37888 40.6498C8.43991 40.8017 8.50094 40.955 8.56481 41.1054C8.63436 41.2672 8.70817 41.4262 8.78198 41.5866C8.8501 41.7356 8.91681 41.8846 8.9892 42.0322C9.06727 42.1912 9.14959 42.3488 9.23049 42.5063C9.30572 42.6511 9.37952 42.7973 9.45759 42.9406C9.54275 43.0982 9.63359 43.2515 9.72443 43.4062C9.80533 43.5467 9.88481 43.6886 9.96998 43.8277C10.0637 43.9824 10.163 44.1329 10.2595 44.2848C10.3475 44.421 10.4327 44.5587 10.5249 44.6935C10.6257 44.844 10.7336 44.9902 10.8386 45.1392C10.9323 45.2712 11.0246 45.4061 11.1225 45.5366C11.2318 45.6828 11.3453 45.8248 11.4589 45.9681C11.5597 46.0959 11.6576 46.2264 11.7612 46.3528C11.8776 46.4947 11.9997 46.6324 12.1203 46.7715C12.2267 46.895 12.3318 47.0199 12.4411 47.1419C12.566 47.2796 12.6951 47.413 12.8243 47.5479C12.9364 47.6657 13.0471 47.7863 13.1621 47.9013C13.2955 48.0361 13.4346 48.1653 13.5723 48.2973C13.6887 48.4094 13.8037 48.523 13.9229 48.6322C14.0648 48.7614 14.2124 48.8863 14.3586 49.0126C14.4807 49.1177 14.5985 49.2255 14.7234 49.3292C14.8753 49.4555 15.0328 49.5761 15.1889 49.6982C15.3124 49.7961 15.4345 49.8955 15.5608 49.9906C15.7269 50.1155 15.8986 50.2347 16.0689 50.3553C16.191 50.4419 16.3117 50.5328 16.4366 50.6165C16.6168 50.7386 16.8028 50.855 16.9873 50.9713C17.1093 51.0494 17.2271 51.1303 17.3506 51.2055C17.555 51.3304 17.7651 51.4482 17.9751 51.5675C18.0844 51.6299 18.1895 51.6952 18.3002 51.7548C18.6224 51.9308 18.9502 52.0997 19.2852 52.2615C21.7024 53.4339 24.2217 54.1294 26.7311 54.3863C29.2391 54.6432 31.7358 54.4601 34.1132 53.8768C36.4878 53.2934 38.7403 52.3098 40.7615 50.9628C41.2667 50.6264 41.7564 50.2673 42.2305 49.887C43.6541 48.7444 44.9315 47.4031 46.0202 45.8801L45.1061 47.159C43.6655 49.1759 41.8884 50.872 39.8843 52.2076C37.8759 53.5461 35.6404 54.5226 33.2829 55.1031C30.9239 55.6836 28.4443 55.8653 25.9547 55.6112C23.4638 55.3572 20.9629 54.6659 18.5642 53.5035C18.232 53.3431 17.9056 53.1742 17.5862 52.9996C17.4855 52.9442 17.3889 52.8846 17.2896 52.8279C17.0738 52.7058 16.8567 52.5837 16.6452 52.4546C16.5231 52.3793 16.4068 52.2999 16.2861 52.2232C16.103 52.1068 15.9185 51.9919 15.7397 51.8698C15.6133 51.7832 15.4913 51.6924 15.3678 51.6044C15.2017 51.4866 15.0328 51.3702 14.871 51.2481C14.8625 51.241 14.8526 51.2353 14.844 51.2297C14.7262 51.1417 14.6155 51.048 14.5006 50.9572C14.3458 50.8351 14.1897 50.7159 14.0393 50.591C13.9172 50.4902 13.8008 50.3837 13.6802 50.2801C13.534 50.1538 13.3878 50.0289 13.2458 49.8997C13.1266 49.7904 13.0117 49.6769 12.8953 49.5648C12.7604 49.4356 12.6227 49.3079 12.4922 49.1759C12.3772 49.0595 12.2665 48.9388 12.1544 48.821C12.0422 48.7032 11.9273 48.5882 11.8194 48.469C11.8052 48.4534 11.7924 48.4364 11.7768 48.4208C11.7626 48.4052 11.747 48.391 11.7342 48.3753C11.6391 48.2703 11.5511 48.161 11.4589 48.0546C11.3397 47.9155 11.2176 47.7792 11.1012 47.6373C10.999 47.5124 10.9025 47.3846 10.8031 47.2583C10.6896 47.115 10.576 46.9716 10.4667 46.8254C10.3702 46.6962 10.2794 46.5657 10.1871 46.4351C10.0821 46.2875 9.97565 46.1399 9.87346 45.9894C9.78404 45.856 9.69888 45.7197 9.6123 45.5849C9.51578 45.4344 9.41643 45.284 9.32417 45.1307C9.30856 45.1037 9.2901 45.0796 9.27449 45.0526C9.20636 44.9405 9.14533 44.8241 9.07862 44.7106C8.99062 44.5573 8.89978 44.404 8.81604 44.2493C8.73798 44.1073 8.66559 43.9626 8.59178 43.8192C8.51088 43.6617 8.42856 43.5055 8.35049 43.3466C8.27952 43.2018 8.21423 43.0556 8.14752 42.9094C8.07372 42.749 7.99991 42.5886 7.93036 42.4268C7.86649 42.2778 7.80688 42.1273 7.74727 41.9769C7.69759 41.8534 7.64365 41.7313 7.59681 41.6079C7.58262 41.5695 7.56985 41.5298 7.55565 41.4901C7.54146 41.4517 7.52443 41.4148 7.51023 41.3765C7.48469 41.3084 7.46623 41.2388 7.4421 41.1721C7.33707 40.8769 7.23772 40.5788 7.14546 40.2793C7.12559 40.2126 7.10004 40.1488 7.08017 40.0821C7.06598 40.0352 7.05604 39.987 7.04185 39.9387C6.93398 39.5654 6.8332 39.1907 6.7452 38.8117C6.74094 38.7961 6.73669 38.7805 6.73243 38.7649C6.73243 38.7621 6.73243 38.7592 6.73101 38.7564C6.64017 38.3604 6.56494 37.9615 6.49823 37.5613C6.49114 37.5173 6.47978 37.4733 6.47269 37.4293C6.46133 37.3597 6.45565 37.2888 6.44572 37.2178C6.39888 36.9112 6.36056 36.6032 6.32649 36.2952C6.31939 36.2228 6.3052 36.1519 6.29952 36.0795C6.29527 36.0411 6.29527 36.0014 6.29243 35.9631C6.25694 35.5699 6.22998 35.1753 6.2172 34.7808C6.2172 34.7765 6.2172 34.7737 6.2172 34.7694C6.2172 34.7467 6.2172 34.7226 6.2172 34.6999C6.20869 34.4004 6.20443 34.0995 6.2101 33.7986C6.2101 33.7304 6.2172 33.6609 6.21862 33.5928C6.21862 33.5459 6.21862 33.4991 6.21862 33.4522C6.22146 33.3784 6.22998 33.3032 6.23281 33.2294C6.24559 32.9399 6.26404 32.6517 6.28959 32.3622C6.29669 32.287 6.29669 32.2103 6.30378 32.1351C6.30804 32.0897 6.31656 32.0457 6.32081 32.0002C6.36056 31.6213 6.40881 31.2437 6.46985 30.8662C6.47269 30.8506 6.4741 30.835 6.47552 30.8193C6.47552 30.8165 6.47552 30.8151 6.47552 30.8122C6.53798 30.4319 6.61462 30.0529 6.69978 29.6753C6.70688 29.6413 6.71256 29.6072 6.71965 29.5746C6.7381 29.4937 6.76365 29.4128 6.78352 29.3319C6.84881 29.065 6.91836 28.7982 6.99501 28.5328C7.01346 28.4675 7.02765 28.4022 7.0461 28.3369C7.06598 28.2716 7.09152 28.2063 7.11139 28.141C7.1923 27.8784 7.2803 27.6173 7.37256 27.3575C7.40094 27.2766 7.42365 27.1943 7.45488 27.1134C7.46765 27.0779 7.48469 27.0439 7.49746 27.0098C7.63656 26.6408 7.78275 26.2746 7.94456 25.9112C7.94456 25.9098 7.94456 25.9084 7.94598 25.9055L7.93888 25.9013Z" fill="url(#paint2_linear_53_4553)"/>
<path d="M13.974 17.246C16.0462 15.486 18.4464 14.1646 21.0211 13.3286C23.5929 12.494 26.3408 12.1434 29.1128 12.3265C31.8834 12.5082 34.6795 13.2236 37.3522 14.5194C40.0248 15.8153 42.3213 17.5711 44.1892 19.6391C46.0585 21.7071 47.4963 24.0873 48.4501 26.6322C49.4039 29.18 49.8723 31.8909 49.7956 34.6189C49.719 37.3498 49.0959 40.0976 47.8682 42.7093C46.639 45.3265 44.9187 47.5592 42.8593 49.3547C40.7969 51.1544 38.3954 52.5142 35.8079 53.3828C33.2176 54.2529 30.4413 54.629 27.6353 54.4601C24.8264 54.2912 21.9891 53.5758 19.2795 52.2615C16.5686 50.9472 14.2437 49.1616 12.3616 47.0567C10.4809 44.9533 9.04314 42.5333 8.10494 39.9529C7.16675 37.3753 6.72817 34.636 6.8403 31.8909C6.95385 29.1502 7.61668 26.4051 8.88417 23.8063C10.1502 21.2117 11.8975 19.0103 13.974 17.2474V17.246ZM14.1542 26.3597C13.2331 28.2574 12.7533 30.2615 12.6738 32.26C12.5944 34.2613 12.918 36.2569 13.6049 38.1347C14.2919 40.0153 15.3408 41.7767 16.7119 43.3082C18.0844 44.8397 19.7777 46.1413 21.752 47.0979C23.7264 48.0545 25.7929 48.5769 27.8382 48.7018C29.8835 48.8267 31.9061 48.5542 33.7953 47.9225C35.6816 47.2924 37.4345 46.3031 38.9404 44.9944C40.4449 43.6872 41.7025 42.0606 42.6038 40.153C43.5036 38.2482 43.9621 36.2441 44.0217 34.2499C44.0813 32.2585 43.7421 30.2757 43.048 28.4149C42.354 26.5542 41.3036 24.814 39.9396 23.301C38.5756 21.7894 36.8966 20.5049 34.9421 19.5567C32.9876 18.6086 30.9438 18.0877 28.9184 17.9557C26.8915 17.8237 24.8846 18.082 23.0053 18.6952C21.1247 19.3083 19.3732 20.2763 17.8616 21.5651C16.3486 22.8553 15.0754 24.4649 14.1557 26.3597H14.1542Z" fill="url(#paint3_linear_53_4553)"/>
<path d="M48.9682 39.8137C48.8717 40.1401 48.7666 40.4638 48.6545 40.7874C48.541 41.111 48.4189 41.4318 48.2883 41.7525C48.1577 42.0719 48.0172 42.3912 47.8696 42.7063C47.7206 43.0228 47.5644 43.3337 47.4012 43.6388C47.238 43.944 47.0677 44.2435 46.8917 44.5373C46.7157 44.8311 46.5326 45.1178 46.3424 45.4003C46.1536 45.6827 45.9577 45.9581 45.7562 46.2278L42.6932 43.9412C42.3455 43.6814 42.2674 43.196 42.5115 42.8369L42.5243 42.817C42.6733 42.5956 42.8181 42.3685 42.9572 42.1386C43.0963 41.9072 43.2312 41.6716 43.3589 41.4318C43.4881 41.1919 43.6101 40.9478 43.7279 40.6979C43.8457 40.4496 43.9564 40.1983 44.0586 39.9471C44.1623 39.6959 44.2588 39.4418 44.3482 39.1878C44.4376 38.9337 44.5213 38.6782 44.5966 38.4213L44.5994 38.4142C44.7243 37.9927 45.1586 37.7443 45.5844 37.8578L49.2322 38.8329C49.1527 39.1608 49.0647 39.4872 48.9682 39.8137V39.8137Z" fill="url(#paint4_radial_53_4553)"/>
<path d="M28.2144 49.9479C28.4926 49.9579 28.7722 49.9621 29.0518 49.9593C29.3329 49.9565 29.6139 49.9465 29.8964 49.9281C30.1802 49.911 30.4598 49.8869 30.7395 49.8557C31.0177 49.8245 31.293 49.7876 31.5669 49.7436C31.8395 49.6996 32.1106 49.6485 32.3774 49.5931C32.3916 49.5903 32.4058 49.5874 32.4186 49.5846C32.8458 49.4938 33.2716 49.7421 33.3965 50.1608L34.4724 53.7845C34.1388 53.8725 33.8024 53.9519 33.4618 54.0243C33.1211 54.0967 32.7777 54.1606 32.4313 54.2159C32.0836 54.2713 31.7344 54.3196 31.381 54.3593C31.0276 54.399 30.6713 54.4303 30.3122 54.4516C29.9517 54.4743 29.594 54.487 29.2364 54.4913C28.8787 54.4956 28.5238 54.4913 28.1704 54.4785C27.817 54.4657 27.4636 54.4445 27.1144 54.4161C26.7638 54.3863 26.4161 54.3494 26.0684 54.3039L26.4715 50.6349C26.5211 50.1836 26.9228 49.8571 27.3756 49.8968H27.3841C27.6595 49.921 27.9362 49.938 28.2144 49.9479V49.9479Z" fill="url(#paint5_radial_53_4553)"/>
<path d="M13.1905 40.2907C13.314 40.5362 13.4432 40.7803 13.578 41.0231C13.7143 41.2658 13.8562 41.5056 14.0053 41.7441C14.1543 41.9825 14.3104 42.2182 14.4736 42.4509C14.6369 42.6851 14.8044 42.9122 14.9775 43.1365C15.1507 43.3593 15.3281 43.5765 15.5084 43.7894C15.69 44.0023 15.876 44.2095 16.0647 44.4111L16.0704 44.4167C16.3827 44.7489 16.3784 45.2683 16.0562 45.592L13.4588 48.1936C13.2076 47.9495 12.9606 47.6983 12.7207 47.4414C12.4794 47.1845 12.2438 46.9205 12.0139 46.6494C11.784 46.3783 11.5583 46.1015 11.3397 45.8176C11.1211 45.5338 10.9068 45.2428 10.701 44.9462C10.4938 44.6495 10.2951 44.3486 10.1063 44.0463C9.91609 43.744 9.73584 43.4388 9.56267 43.1308C9.38951 42.8228 9.22629 42.512 9.07016 42.1997C8.91403 41.8874 8.76642 41.5723 8.62732 41.2558L12.1047 39.8493C12.5135 39.6832 12.9791 39.8634 13.1764 40.2594C13.182 40.2708 13.1877 40.2822 13.1934 40.2935L13.1905 40.2907Z" fill="url(#paint6_radial_53_4553)"/>
<path d="M9.36533 22.8794C9.53281 22.5771 9.70739 22.2805 9.88765 21.9909C10.0679 21.7 10.2553 21.4161 10.4497 21.1365C10.6427 20.8583 10.8429 20.5843 11.0487 20.3175L14.0847 22.5842C14.4381 22.8482 14.5133 23.3422 14.2621 23.7041L14.2578 23.7112C14.106 23.9312 13.9584 24.1554 13.8164 24.384C13.6745 24.6125 13.5382 24.8467 13.4062 25.0851C13.2742 25.3236 13.1493 25.5663 13.0287 25.8132C12.908 26.0616 12.7945 26.31 12.6895 26.5612C12.583 26.8125 12.4837 27.0651 12.3914 27.3178C12.2991 27.5718 12.214 27.8259 12.1345 28.0828L12.1317 28.0942C12.0025 28.5143 11.5682 28.7598 11.1424 28.6463L7.46765 27.6641C7.55139 27.3376 7.64365 27.0112 7.74443 26.6862C7.8452 26.3611 7.95449 26.0375 8.0723 25.7153C8.1901 25.3931 8.31643 25.0723 8.45268 24.7544C8.58752 24.4351 8.7323 24.1185 8.88559 23.8049C9.03888 23.4912 9.19926 23.1832 9.36675 22.8809L9.36533 22.8794Z" fill="url(#paint7_radial_53_4553)"/>
<path d="M24.3722 12.5338C24.7157 12.4813 25.062 12.4359 25.4126 12.399C25.7617 12.3621 26.1152 12.3351 26.4714 12.3152C26.8277 12.2954 27.1811 12.2854 27.5345 12.284C27.8865 12.2826 28.2385 12.2883 28.5877 12.3039C28.9368 12.3181 29.2846 12.3422 29.6309 12.372C29.9772 12.4032 30.3207 12.4416 30.6628 12.4884L30.2682 16.0623C30.2185 16.508 29.8211 16.8288 29.374 16.7891H29.3655C29.093 16.7635 28.819 16.7465 28.5437 16.7351C28.2683 16.7238 27.9915 16.7195 27.7133 16.7209C27.4352 16.7223 27.1555 16.7309 26.8745 16.7465C26.5949 16.7621 26.3167 16.7848 26.0413 16.8132C25.766 16.8416 25.4921 16.8771 25.221 16.9196C24.9499 16.9622 24.6816 17.0091 24.4162 17.0644C24.3992 17.0687 24.3807 17.0715 24.3637 17.0758C23.945 17.1623 23.5291 16.9168 23.407 16.508L22.3496 12.9469C22.6803 12.8631 23.0139 12.7865 23.3517 12.7183C23.6895 12.6502 24.0301 12.5892 24.3736 12.5367L24.3722 12.5338Z" fill="url(#paint8_radial_53_4553)"/>
<path d="M43.4356 26.2873C43.3121 26.0446 43.1829 25.8033 43.0467 25.5634C42.9104 25.3236 42.767 25.0865 42.618 24.8523C42.469 24.6167 42.3128 24.384 42.1496 24.154C41.9878 23.9241 41.8203 23.6984 41.6486 23.4784C41.4768 23.2584 41.3008 23.0441 41.1206 22.834C40.9403 22.624 40.7558 22.4196 40.567 22.2209L40.5614 22.2152C40.2505 21.8873 40.2534 21.3735 40.5727 21.0541L43.102 18.5234C43.3504 18.7633 43.5959 19.0103 43.8344 19.2629C44.0743 19.5156 44.3085 19.7753 44.537 20.0407C44.7655 20.3061 44.9897 20.5787 45.2083 20.8569C45.4269 21.1351 45.6384 21.4203 45.8456 21.7127C46.0514 22.0051 46.2487 22.2989 46.4389 22.597C46.6277 22.8951 46.8094 23.196 46.9825 23.4997C47.1557 23.8034 47.3203 24.1086 47.4779 24.418C47.6354 24.726 47.7845 25.0369 47.925 25.3491L44.5128 26.7301C44.1112 26.892 43.6541 26.7174 43.4597 26.3313C43.4526 26.3171 43.4455 26.3029 43.4384 26.2887L43.4356 26.2873Z" fill="url(#paint9_radial_53_4553)"/>
<path d="M34.1062 53.8767C34.2311 53.8455 34.3532 53.81 34.4767 53.7773L33.8891 54.9384C33.6847 54.9951 33.4817 55.0519 33.2759 55.103C30.9169 55.6835 28.4373 55.8652 25.9478 55.6111C25.7775 55.5941 25.6086 55.57 25.4382 55.5487L26.067 54.3068C26.2856 54.3366 26.5056 54.3664 26.7242 54.3891C29.2322 54.646 31.7288 54.4629 34.1062 53.8795V53.8767Z" fill="url(#paint10_linear_53_4553)"/>
<path d="M8.98783 42.0293C9.06589 42.1883 9.14822 42.3458 9.22912 42.5034C9.30435 42.6482 9.37815 42.7944 9.45622 42.9377C9.54138 43.0953 9.63222 43.2486 9.72306 43.4033C9.80396 43.5438 9.88344 43.6857 9.9686 43.8248C10.0623 43.9795 10.1616 44.13 10.2582 44.2818C10.3462 44.4181 10.4313 44.5558 10.5236 44.6906C10.6243 44.8411 10.7322 44.9873 10.8372 45.1363C10.9309 45.2683 11.0232 45.4031 11.1211 45.5337C11.2304 45.6799 11.344 45.8218 11.4575 45.9652C11.5583 46.0929 11.6562 46.2235 11.7598 46.3498C11.8762 46.4918 11.9983 46.6295 12.1189 46.7686C12.2254 46.892 12.3304 47.0169 12.4397 47.139C12.5646 47.2767 12.6938 47.4101 12.8229 47.5449C12.9351 47.6628 13.0458 47.7834 13.1607 47.8984C13.2587 47.9977 13.3609 48.0928 13.4631 48.1893L12.8087 49.4824C12.6994 49.3787 12.5902 49.2766 12.4851 49.1701C12.3702 49.0537 12.2594 48.9331 12.1473 48.8153C12.0352 48.6975 11.9202 48.5825 11.8123 48.4633C11.7982 48.4477 11.7854 48.4306 11.7698 48.415C11.7556 48.3994 11.74 48.3852 11.7272 48.3696C11.6321 48.2646 11.5441 48.1553 11.4518 48.0488C11.3326 47.9097 11.2105 47.7735 11.0942 47.6315C10.992 47.5066 10.8954 47.3789 10.7961 47.2526C10.6825 47.1092 10.569 46.9658 10.4597 46.8197C10.3632 46.6905 10.2723 46.5599 10.1801 46.4293C10.0751 46.2817 9.9686 46.1341 9.86641 45.9837C9.77699 45.8502 9.69183 45.714 9.60525 45.5791C9.50873 45.4287 9.40938 45.2782 9.31712 45.1249C9.30151 45.098 9.28306 45.0738 9.26744 45.0469C9.19931 44.9348 9.13828 44.8184 9.07157 44.7048C8.98357 44.5515 8.89273 44.3982 8.80899 44.2435C8.73093 44.1016 8.65854 43.9568 8.58473 43.8135C8.50383 43.6559 8.42151 43.4998 8.34344 43.3408C8.27248 43.196 8.20718 43.0498 8.14048 42.9037C8.08512 42.783 8.02977 42.6609 7.97583 42.5389L8.63015 41.2458C8.68125 41.358 8.73093 41.4715 8.78202 41.5837C8.85015 41.7327 8.91686 41.8817 8.98925 42.0293H8.98783Z" fill="url(#paint11_linear_53_4553)"/>
<path d="M8.1249 25.579C8.0809 25.6954 8.04258 25.8118 8.00142 25.9282C7.90774 26.1907 7.81974 26.4547 7.73742 26.7187C7.69768 26.8493 7.65794 26.9799 7.61961 27.1119C7.56994 27.2865 7.52594 27.4625 7.48052 27.6371L6.94116 28.703C6.95678 28.6448 6.97097 28.588 6.98658 28.5298C7.00503 28.4646 7.01923 28.3993 7.03768 28.334C7.05755 28.2687 7.0831 28.2034 7.10297 28.1381C7.18387 27.8755 7.27187 27.6144 7.36413 27.3546C7.39252 27.2737 7.41523 27.1914 7.44645 27.1105C7.45923 27.075 7.47626 27.0409 7.48903 27.0069C7.62813 26.6378 7.77432 26.2717 7.93613 25.9083C7.93613 25.9069 7.93613 25.9055 7.93755 25.9026L8.57626 24.4677C8.41303 24.8353 8.264 25.2071 8.12348 25.5804L8.1249 25.579Z" fill="url(#paint12_linear_53_4553)"/>
</g>
</g>
</g>
<defs>
<linearGradient id="paint0_linear_53_4553" x1="30.6923" y1="1.68353e-07" x2="37.2034" y2="72.9186" gradientUnits="userSpaceOnUse">
<stop stop-color="white"/>
<stop offset="1" stop-color="#E0DFDF"/>
</linearGradient>
<linearGradient id="paint1_linear_53_4553" x1="40.7308" y1="24.6846" x2="15.7346" y2="42.11" gradientUnits="userSpaceOnUse">
<stop stop-color="#59EE56"/>
<stop offset="1" stop-color="#25B52B"/>
</linearGradient>
<linearGradient id="paint2_linear_53_4553" x1="6.19591" y1="40.0934" x2="46.0131" y2="40.0934" gradientUnits="userSpaceOnUse">
<stop stop-color="#42BE2E"/>
<stop offset="1" stop-color="#2FCF3F"/>
</linearGradient>
<linearGradient id="paint3_linear_53_4553" x1="6.82326" y1="33.3883" x2="49.8042" y2="33.3883" gradientUnits="userSpaceOnUse">
<stop stop-color="#44AF3B"/>
<stop offset="1" stop-color="#085610"/>
</linearGradient>
<radialGradient id="paint4_radial_53_4553" cx="0" cy="0" r="1" gradientUnits="userSpaceOnUse" gradientTransform="translate(28.7919 33.1591) rotate(-153.16) scale(21.1548 21.1548)">
<stop offset="0.78" stop-color="#FCFCFC"/>
<stop offset="0.87" stop-color="#F8F8F8"/>
<stop offset="0.96" stop-color="#ECECEC"/>
<stop offset="1" stop-color="#E6E6E6"/>
</radialGradient>
<radialGradient id="paint5_radial_53_4553" cx="0" cy="0" r="1" gradientUnits="userSpaceOnUse" gradientTransform="translate(28.2009 33.7955) rotate(-153.16) scale(20.8838 20.8838)">
<stop offset="0.78" stop-color="#FCFCFC"/>
<stop offset="0.87" stop-color="#F8F8F8"/>
<stop offset="0.96" stop-color="#ECECEC"/>
<stop offset="1" stop-color="#E6E6E6"/>
</radialGradient>
<radialGradient id="paint6_radial_53_4553" cx="0" cy="0" r="1" gradientUnits="userSpaceOnUse" gradientTransform="translate(27.5276 33.4866) rotate(-153.16) scale(20.9661 20.9661)">
<stop offset="0.78" stop-color="#FCFCFC"/>
<stop offset="0.87" stop-color="#F8F8F8"/>
<stop offset="0.96" stop-color="#ECECEC"/>
<stop offset="1" stop-color="#E6E6E6"/>
</radialGradient>
<radialGradient id="paint7_radial_53_4553" cx="0" cy="0" r="1" gradientUnits="userSpaceOnUse" gradientTransform="translate(27.6772 32.5966) rotate(-153.16) scale(21.1737 21.1737)">
<stop offset="0.78" stop-color="#FCFCFC"/>
<stop offset="0.87" stop-color="#F8F8F8"/>
<stop offset="0.96" stop-color="#ECECEC"/>
<stop offset="1" stop-color="#E6E6E6"/>
</radialGradient>
<radialGradient id="paint8_radial_53_4553" cx="0" cy="0" r="1" gradientUnits="userSpaceOnUse" gradientTransform="translate(28.2276 31.9927) rotate(-153.16) scale(21.0537 21.0537)">
<stop offset="0.78" stop-color="#FCFCFC"/>
<stop offset="0.87" stop-color="#F8F8F8"/>
<stop offset="0.96" stop-color="#ECECEC"/>
<stop offset="1" stop-color="#E6E6E6"/>
</radialGradient>
<radialGradient id="paint9_radial_53_4553" cx="0" cy="0" r="1" gradientUnits="userSpaceOnUse" gradientTransform="translate(28.8962 32.2991) rotate(-153.16) scale(20.9 20.9)">
<stop offset="0.78" stop-color="#FCFCFC"/>
<stop offset="0.87" stop-color="#F8F8F8"/>
<stop offset="0.96" stop-color="#ECECEC"/>
<stop offset="1" stop-color="#E6E6E6"/>
</radialGradient>
<linearGradient id="paint10_linear_53_4553" x1="33.1843" y1="56.3345" x2="26.702" y2="53.0558" gradientUnits="userSpaceOnUse">
<stop stop-color="#949494"/>
<stop offset="1" stop-color="#ADADAD"/>
</linearGradient>
<linearGradient id="paint11_linear_53_4553" x1="14.0242" y1="47.0824" x2="7.37851" y2="43.7211" gradientUnits="userSpaceOnUse">
<stop stop-color="#CCCCCC"/>
<stop offset="1" stop-color="#EDEDED"/>
</linearGradient>
<linearGradient id="paint12_linear_53_4553" x1="7.94275" y1="26.7216" x2="7.53872" y2="26.5173" gradientUnits="userSpaceOnUse">
<stop stop-color="#CCCCCC"/>
<stop offset="1" stop-color="#EDEDED"/>
</linearGradient>
<clipPath id="clip0_53_4553">
<rect width="43.5962" height="43.4441" fill="white" transform="translate(6.20752 12.2792)"/>
</clipPath>
<clipPath id="clip1_53_4553">
<rect width="43.5962" height="43.4441" fill="white" transform="translate(6.20752 12.2792)"/>
</clipPath>
<clipPath id="clip2_53_4553">
<rect width="43.5962" height="43.4441" fill="white" transform="translate(6.20752 12.2792)"/>
</clipPath>
</defs>
</svg>
