<svg width="108" height="108" viewBox="0 0 108 108" fill="none" xmlns="http://www.w3.org/2000/svg">
<path style="mix-blend-mode:screen" d="M108 53.9984C108 83.8247 83.8237 108 54.0015 108C24.1794 108 0 83.8247 0 53.9984C0 24.1721 24.1763 0 54.0015 0C83.8268 0 108 24.1753 108 54.0016V53.9984Z" fill="url(#paint0_radial_32_4555)"/>
<path d="M27.6 22.8H80.4V85.2L54 75.6L27.6 85.2V22.8Z" fill="#D9D9D9"/>
<path d="M27.6 22.8H80.4V85.2L54 75.6L27.6 85.2V22.8Z" fill="url(#paint1_linear_32_4555)"/>
<path d="M33.6 22.8H74.4V75.6L54 68.4L33.6 75.6V22.8Z" fill="#D9D9D9"/>
<path d="M33.6 22.8H74.4V75.6L54 68.4L33.6 75.6V22.8Z" fill="url(#paint2_linear_32_4555)"/>
<path d="M27.6 58.8V22.8H80.4V40.8L27.6 58.8Z" fill="white" fill-opacity="0.1"/>
<g clip-path="url(#clip0_32_4555)">
<path d="M61.7028 49.9165L66.8656 44.8932C67.0837 44.6814 67.205 44.3887 67.1999 44.0858L67.1418 41.6493L42.0585 41.5466L42.0933 43.9407C42.1127 44.2745 42.2534 44.589 42.4909 44.8252L47.5904 49.9165L46.5527 55.475L46.5694 57.8704C46.4572 58.5187 47.1412 59.0129 47.7272 58.7074L54.2749 55.2837C54.5072 55.1617 54.7847 55.1617 55.017 55.2837L61.5647 58.7074C62.1507 59.0129 62.8348 58.5187 62.7225 57.8704L62.6463 55.579L61.7015 49.9165H61.7028Z" fill="url(#paint3_linear_32_4555)"/>
<path d="M55.3113 32.8429L58.5858 39.4413C58.7019 39.6749 58.9265 39.8379 59.1859 39.8751L66.5068 40.9329C67.1611 41.0279 67.4231 41.8277 66.9495 42.2873L61.6525 47.4234C61.464 47.6057 61.3788 47.8689 61.4227 48.1256L62.6734 55.3774C62.7857 56.0257 62.1016 56.5199 61.5156 56.2144L54.968 52.7907C54.7356 52.6687 54.4581 52.6687 54.2258 52.7907L47.6781 56.2144C47.0921 56.5199 46.4081 56.0257 46.5204 55.3774L47.7711 48.1256C47.8149 47.8676 47.7297 47.6057 47.5413 47.4234L42.2417 42.286C41.768 41.8264 42.03 41.0266 42.6844 40.9317L50.0052 39.8739C50.2647 39.8366 50.4892 39.6736 50.6054 39.44L53.8799 32.8429C54.1729 32.2524 55.0183 32.2524 55.3113 32.8429V32.8429Z" fill="url(#paint4_linear_32_4555)"/>
<path d="M55.2106 33.8442L58.2076 39.8842C58.3134 40.0985 58.5199 40.2475 58.7574 40.2821L65.46 41.2513C66.0589 41.3373 66.2989 42.0703 65.8653 42.4901L61.0161 47.1924C60.8445 47.3593 60.7657 47.5993 60.8057 47.8355L61.9506 54.475C62.0526 55.068 61.4266 55.5212 60.8909 55.2414L54.8969 52.1065C54.684 51.9948 54.4297 51.9948 54.2168 52.1065L48.2228 55.2414C47.6871 55.5212 47.0599 55.0693 47.1631 54.475L48.308 47.8355C48.348 47.5993 48.2705 47.3593 48.0976 47.1924L43.2459 42.4901C42.8122 42.0703 43.051 41.3373 43.6511 41.2513L50.3537 40.2821C50.5912 40.2475 50.7977 40.0985 50.9035 39.8842L53.9005 33.8442C54.169 33.3038 54.9421 33.3038 55.2106 33.8442V33.8442Z" fill="url(#paint5_linear_32_4555)"/>
<path d="M54.6525 38.1556C55.0014 37.3718 54.9106 36.5719 54.4498 36.369C53.989 36.1661 53.3326 36.637 52.9837 37.4207C52.6349 38.2045 52.7256 39.0043 53.1864 39.2073C53.6473 39.4102 54.3037 38.9393 54.6525 38.1556Z" fill="white"/>
<path d="M53.1046 40.409C53.2668 40.0446 53.2244 39.6727 53.01 39.5783C52.7955 39.4839 52.4902 39.7027 52.3281 40.067C52.1659 40.4313 52.2083 40.8032 52.4227 40.8977C52.6372 40.9921 52.9425 40.7733 53.1046 40.409Z" fill="white"/>
<path opacity="0.5" d="M48.2112 55.2618L54.2052 52.127C54.4181 52.0153 54.6724 52.0153 54.8854 52.127L60.8793 55.2618C61.415 55.5417 62.0423 55.0898 61.939 54.4955L60.7942 47.856C60.7529 47.6198 60.8316 47.3798 61.0045 47.2129L65.8537 42.5106C66.2873 42.0908 66.0486 41.3578 65.4484 41.2718L61.2614 40.6672C57.6191 46.2373 51.9232 48.3939 48.0563 49.2296L47.149 54.4955C47.047 55.0885 47.673 55.5417 48.2086 55.2618H48.2112Z" fill="#FF9900"/>
</g>
<defs>
<radialGradient id="paint0_radial_32_4555" cx="0" cy="0" r="1" gradientUnits="userSpaceOnUse" gradientTransform="translate(54 54) rotate(90) scale(49.68)">
<stop stop-color="white"/>
<stop offset="0.203125" stop-color="#FFE092"/>
<stop offset="1" stop-color="#372B10" stop-opacity="0"/>
</radialGradient>
<linearGradient id="paint1_linear_32_4555" x1="1.15165" y1="68.3" x2="91.2147" y2="68.3" gradientUnits="userSpaceOnUse">
<stop stop-color="#9A3A1F"/>
<stop offset="0.1673" stop-color="#A95822"/>
<stop offset="0.3309" stop-color="#C48021"/>
<stop offset="0.4984" stop-color="#D8A753"/>
<stop offset="0.6663" stop-color="#E6C673"/>
<stop offset="0.7963" stop-color="#ECD077"/>
<stop offset="0.8302" stop-color="#EED478"/>
<stop offset="1" stop-color="#F8F090"/>
</linearGradient>
<linearGradient id="paint2_linear_32_4555" x1="55.3023" y1="22.4245" x2="55.3023" y2="75.2245" gradientUnits="userSpaceOnUse">
<stop stop-color="#7640AF"/>
<stop offset="1" stop-color="#20033E"/>
</linearGradient>
<linearGradient id="paint3_linear_32_4555" x1="42.0585" y1="50.1732" x2="67.1999" y2="50.1732" gradientUnits="userSpaceOnUse">
<stop stop-color="#E17200"/>
<stop offset="1" stop-color="#900B00"/>
</linearGradient>
<linearGradient id="paint4_linear_32_4555" x1="43.6963" y1="40.8636" x2="66.3297" y2="51.8649" gradientUnits="userSpaceOnUse">
<stop stop-color="#FFA14C"/>
<stop offset="1" stop-color="#FFD94C"/>
</linearGradient>
<linearGradient id="paint5_linear_32_4555" x1="43.0252" y1="44.3823" x2="66.086" y2="44.3823" gradientUnits="userSpaceOnUse">
<stop offset="0.13" stop-color="#FFC400"/>
<stop offset="0.74" stop-color="#FFDB3D"/>
</linearGradient>
<clipPath id="clip0_32_4555">
<rect width="25.2" height="26.4" fill="white" transform="translate(42 32.4)"/>
</clipPath>
</defs>
</svg>
