<svg width="41" height="41" viewBox="0 0 41 41" fill="none" xmlns="http://www.w3.org/2000/svg">
<path fill-rule="evenodd" clip-rule="evenodd" d="M37.3802 6.8001C37.6546 6.90193 37.8335 7.14182 37.8335 7.40791C37.8335 10.2673 36.9943 13.8073 35.1332 16.6548C33.2637 19.5151 30.3027 21.75 26.0835 21.75V20.4342C29.6193 20.4342 32.1661 18.5902 33.8657 15.9899C34.7668 14.6113 35.4127 13.0409 35.8218 11.4731C36.1455 10.233 34.8344 9.1935 33.5582 9.31228V9.31228C32.4393 9.41643 31.2517 9.40187 30.2194 9.38922C29.9009 9.38532 29.5971 9.38159 29.3147 9.38159V8.06581C29.6375 8.06581 29.9684 8.0698 30.3042 8.07385C31.3201 8.08609 32.3819 8.0989 33.4064 8.00354C34.7724 7.8764 35.8816 7.56819 36.5798 6.94271C36.7899 6.75456 37.1057 6.69827 37.3802 6.8001Z" fill="black"/>
<path fill-rule="evenodd" clip-rule="evenodd" d="M37.3802 6.8001C37.6546 6.90193 37.8335 7.14182 37.8335 7.40791C37.8335 10.2673 36.9943 13.8073 35.1332 16.6548C33.2637 19.5151 30.3027 21.75 26.0835 21.75V20.4342C29.6193 20.4342 32.1661 18.5902 33.8657 15.9899C34.7668 14.6113 35.4127 13.0409 35.8218 11.4731C36.1455 10.233 34.8344 9.1935 33.5582 9.31228V9.31228C32.4393 9.41643 31.2517 9.40187 30.2194 9.38922C29.9009 9.38532 29.5971 9.38159 29.3147 9.38159V8.06581C29.6375 8.06581 29.9684 8.0698 30.3042 8.07385C31.3201 8.08609 32.3819 8.0989 33.4064 8.00354C34.7724 7.8764 35.8816 7.56819 36.5798 6.94271C36.7899 6.75456 37.1057 6.69827 37.3802 6.8001Z" fill="url(#paint0_diamond_2445_11550)"/>
<path fill-rule="evenodd" clip-rule="evenodd" d="M37.3802 6.8001C37.6546 6.90193 37.8335 7.14182 37.8335 7.40791C37.8335 10.2673 36.9943 13.8073 35.1332 16.6548C33.2637 19.5151 30.3027 21.75 26.0835 21.75V20.4342C29.6193 20.4342 32.1661 18.5902 33.8657 15.9899C34.7668 14.6113 35.4127 13.0409 35.8218 11.4731C36.1455 10.233 34.8344 9.1935 33.5582 9.31228V9.31228C32.4393 9.41643 31.2517 9.40187 30.2194 9.38922C29.9009 9.38532 29.5971 9.38159 29.3147 9.38159V8.06581C29.6375 8.06581 29.9684 8.0698 30.3042 8.07385C31.3201 8.08609 32.3819 8.0989 33.4064 8.00354C34.7724 7.8764 35.8816 7.56819 36.5798 6.94271C36.7899 6.75456 37.1057 6.69827 37.3802 6.8001Z" fill="url(#paint1_diamond_2445_11550)"/>
<path fill-rule="evenodd" clip-rule="evenodd" d="M38.1205 6.05427C38.4008 6.16459 38.5835 6.42447 38.5835 6.71274C38.5835 9.81046 37.7265 13.6454 35.8257 16.7302C33.9164 19.8288 30.8925 22.25 26.5835 22.25V20.8246C30.1945 20.8246 32.7956 18.8269 34.5313 16.0099C35.4797 14.4708 36.1513 12.7109 36.5667 10.961C36.8673 9.69482 35.5123 8.64795 34.2173 8.77581V8.77581C33.0745 8.88863 31.8617 8.87286 30.8074 8.85916C30.4821 8.85493 30.1719 8.85089 29.8835 8.85089V7.42546C30.2132 7.42546 30.551 7.42978 30.894 7.43417C31.9315 7.44744 33.0159 7.46131 34.0622 7.358C35.4573 7.22027 36.5901 6.88637 37.3032 6.20877C37.5177 6.00494 37.8403 5.94396 38.1205 6.05427Z" fill="black"/>
<path fill-rule="evenodd" clip-rule="evenodd" d="M38.1205 6.05427C38.4008 6.16459 38.5835 6.42447 38.5835 6.71274C38.5835 9.81046 37.7265 13.6454 35.8257 16.7302C33.9164 19.8288 30.8925 22.25 26.5835 22.25V20.8246C30.1945 20.8246 32.7956 18.8269 34.5313 16.0099C35.4797 14.4708 36.1513 12.7109 36.5667 10.961C36.8673 9.69482 35.5123 8.64795 34.2173 8.77581V8.77581C33.0745 8.88863 31.8617 8.87286 30.8074 8.85916C30.4821 8.85493 30.1719 8.85089 29.8835 8.85089V7.42546C30.2132 7.42546 30.551 7.42978 30.894 7.43417C31.9315 7.44744 33.0159 7.46131 34.0622 7.358C35.4573 7.22027 36.5901 6.88637 37.3032 6.20877C37.5177 6.00494 37.8403 5.94396 38.1205 6.05427Z" fill="url(#paint2_diamond_2445_11550)"/>
<path fill-rule="evenodd" clip-rule="evenodd" d="M38.1205 6.05427C38.4008 6.16459 38.5835 6.42447 38.5835 6.71274C38.5835 9.81046 37.7265 13.6454 35.8257 16.7302C33.9164 19.8288 30.8925 22.25 26.5835 22.25V20.8246C30.1945 20.8246 32.7956 18.8269 34.5313 16.0099C35.4797 14.4708 36.1513 12.7109 36.5667 10.961C36.8673 9.69482 35.5123 8.64795 34.2173 8.77581V8.77581C33.0745 8.88863 31.8617 8.87286 30.8074 8.85916C30.4821 8.85493 30.1719 8.85089 29.8835 8.85089V7.42546C30.2132 7.42546 30.551 7.42978 30.894 7.43417C31.9315 7.44744 33.0159 7.46131 34.0622 7.358C35.4573 7.22027 36.5901 6.88637 37.3032 6.20877C37.5177 6.00494 37.8403 5.94396 38.1205 6.05427Z" fill="url(#paint3_diamond_2445_11550)"/>
<path fill-rule="evenodd" clip-rule="evenodd" d="M3.03684 6.8001C2.76242 6.90193 2.5835 7.14182 2.5835 7.40791C2.5835 10.2673 3.42268 13.8073 5.28383 16.6548C7.15333 19.5151 10.1143 21.75 14.3335 21.75V20.4342C10.7977 20.4342 8.25085 18.5902 6.55129 15.9899C5.65019 14.6113 5.0043 13.0409 4.59514 11.4731C4.2715 10.233 5.58263 9.1935 6.85878 9.31228V9.31228C7.9777 9.41643 9.16525 9.40187 10.1976 9.38922C10.5161 9.38532 10.8199 9.38159 11.1022 9.38159V8.06581C10.7795 8.06581 10.4486 8.0698 10.1128 8.07385C9.09691 8.08609 8.03507 8.0989 7.01056 8.00354C5.64461 7.8764 4.53535 7.56819 3.83715 6.94271C3.62712 6.75456 3.31126 6.69827 3.03684 6.8001Z" fill="black"/>
<path fill-rule="evenodd" clip-rule="evenodd" d="M3.03684 6.8001C2.76242 6.90193 2.5835 7.14182 2.5835 7.40791C2.5835 10.2673 3.42268 13.8073 5.28383 16.6548C7.15333 19.5151 10.1143 21.75 14.3335 21.75V20.4342C10.7977 20.4342 8.25085 18.5902 6.55129 15.9899C5.65019 14.6113 5.0043 13.0409 4.59514 11.4731C4.2715 10.233 5.58263 9.1935 6.85878 9.31228V9.31228C7.9777 9.41643 9.16525 9.40187 10.1976 9.38922C10.5161 9.38532 10.8199 9.38159 11.1022 9.38159V8.06581C10.7795 8.06581 10.4486 8.0698 10.1128 8.07385C9.09691 8.08609 8.03507 8.0989 7.01056 8.00354C5.64461 7.8764 4.53535 7.56819 3.83715 6.94271C3.62712 6.75456 3.31126 6.69827 3.03684 6.8001Z" fill="url(#paint4_diamond_2445_11550)"/>
<path fill-rule="evenodd" clip-rule="evenodd" d="M3.03684 6.8001C2.76242 6.90193 2.5835 7.14182 2.5835 7.40791C2.5835 10.2673 3.42268 13.8073 5.28383 16.6548C7.15333 19.5151 10.1143 21.75 14.3335 21.75V20.4342C10.7977 20.4342 8.25085 18.5902 6.55129 15.9899C5.65019 14.6113 5.0043 13.0409 4.59514 11.4731C4.2715 10.233 5.58263 9.1935 6.85878 9.31228V9.31228C7.9777 9.41643 9.16525 9.40187 10.1976 9.38922C10.5161 9.38532 10.8199 9.38159 11.1022 9.38159V8.06581C10.7795 8.06581 10.4486 8.0698 10.1128 8.07385C9.09691 8.08609 8.03507 8.0989 7.01056 8.00354C5.64461 7.8764 4.53535 7.56819 3.83715 6.94271C3.62712 6.75456 3.31126 6.69827 3.03684 6.8001Z" fill="url(#paint5_diamond_2445_11550)"/>
<path fill-rule="evenodd" clip-rule="evenodd" d="M2.53684 6.05427C2.26242 6.16459 2.0835 6.42447 2.0835 6.71274C2.0835 9.81046 2.92268 13.6454 4.78383 16.7302C6.65333 19.8288 9.61428 22.25 13.8335 22.25V20.8246C10.2977 20.8246 7.75085 18.8269 6.05129 16.0099C5.11318 14.4551 4.45166 12.675 4.04592 10.9074C3.76146 9.66821 5.09377 8.64825 6.35878 8.77581V8.77581C7.4777 8.88863 8.66525 8.87286 9.69762 8.85916C10.0161 8.85493 10.3199 8.85089 10.6022 8.85089V7.42546C10.2795 7.42546 9.94863 7.42978 9.61278 7.43417C8.59691 7.44744 7.53507 7.46131 6.51056 7.358C5.14461 7.22027 4.03535 6.88637 3.33715 6.20877C3.12712 6.00494 2.81126 5.94396 2.53684 6.05427Z" fill="black"/>
<path fill-rule="evenodd" clip-rule="evenodd" d="M2.53684 6.05427C2.26242 6.16459 2.0835 6.42447 2.0835 6.71274C2.0835 9.81046 2.92268 13.6454 4.78383 16.7302C6.65333 19.8288 9.61428 22.25 13.8335 22.25V20.8246C10.2977 20.8246 7.75085 18.8269 6.05129 16.0099C5.11318 14.4551 4.45166 12.675 4.04592 10.9074C3.76146 9.66821 5.09377 8.64825 6.35878 8.77581V8.77581C7.4777 8.88863 8.66525 8.87286 9.69762 8.85916C10.0161 8.85493 10.3199 8.85089 10.6022 8.85089V7.42546C10.2795 7.42546 9.94863 7.42978 9.61278 7.43417C8.59691 7.44744 7.53507 7.46131 6.51056 7.358C5.14461 7.22027 4.03535 6.88637 3.33715 6.20877C3.12712 6.00494 2.81126 5.94396 2.53684 6.05427Z" fill="url(#paint6_diamond_2445_11550)"/>
<path fill-rule="evenodd" clip-rule="evenodd" d="M2.53684 6.05427C2.26242 6.16459 2.0835 6.42447 2.0835 6.71274C2.0835 9.81046 2.92268 13.6454 4.78383 16.7302C6.65333 19.8288 9.61428 22.25 13.8335 22.25V20.8246C10.2977 20.8246 7.75085 18.8269 6.05129 16.0099C5.11318 14.4551 4.45166 12.675 4.04592 10.9074C3.76146 9.66821 5.09377 8.64825 6.35878 8.77581V8.77581C7.4777 8.88863 8.66525 8.87286 9.69762 8.85916C10.0161 8.85493 10.3199 8.85089 10.6022 8.85089V7.42546C10.2795 7.42546 9.94863 7.42978 9.61278 7.43417C8.59691 7.44744 7.53507 7.46131 6.51056 7.358C5.14461 7.22027 4.03535 6.88637 3.33715 6.20877C3.12712 6.00494 2.81126 5.94396 2.53684 6.05427Z" fill="url(#paint7_diamond_2445_11550)"/>
<path d="M9.08894 6.03946C9.00789 5.0681 9.8414 4.23327 10.9165 4.20902L20.184 4L29.5006 4.21012C30.5571 4.23395 31.3843 5.04182 31.3311 5.99792L30.9051 13.655C30.7465 16.5066 30.1692 19.3471 28.7092 21.8776C26.8275 25.1389 23.7486 29.25 20.184 29.25C16.3818 29.25 13.29 24.5725 11.5691 21.2381C10.4666 19.1019 9.98414 16.7674 9.78793 14.416L9.08894 6.03946Z" fill="url(#paint8_diamond_2445_11550)"/>
<path d="M9.83858 5.83753C9.76299 4.96235 10.5403 4.21017 11.5429 4.18832L20.1857 4L28.8741 4.18932C29.8594 4.21079 30.6308 4.93867 30.5812 5.80011L30.184 12.6991C30.036 15.2683 29.4976 17.8276 28.1361 20.1075C26.3813 23.0459 23.5099 26.75 20.1857 26.75C16.6398 26.75 13.7564 22.5356 12.1515 19.5314C11.1233 17.6067 10.6734 15.5033 10.4904 13.3847L9.83858 5.83753Z" fill="url(#paint9_diamond_2445_11550)"/>
<path d="M15.4658 19.1921L17.492 17.1879C17.6947 17.3796 17.9341 17.5539 18.192 17.7107C18.6341 17.9721 19.2788 18.2336 20.0709 18.2336C21.1761 18.2336 21.7287 17.7107 21.7287 17.1007C21.7287 16.4907 21.1761 15.9679 20.0709 15.9679H18.7815V13.2665H20.0709C21.0103 13.2665 21.4524 12.8308 21.4524 12.2208C21.4524 11.6108 21.0103 11.1751 20.0709 11.1751C19.4262 11.1751 18.892 11.4017 18.5236 11.6631C18.3025 11.8025 18.1183 11.9594 17.9525 12.1337L15.9263 10.1294C16.2579 9.79826 16.6631 9.48455 17.1236 9.22312C17.9157 8.75256 19.0578 8.29942 20.5314 8.29942C23.3865 8.29942 25.1364 9.95511 25.1364 11.7851C25.1364 12.8134 24.6022 13.4408 24.0312 13.8416C23.7181 14.0682 23.3497 14.2599 22.926 14.3993C23.4049 14.5562 23.8286 14.7653 24.2154 15.0442C24.8601 15.5147 25.5048 16.2642 25.5048 17.4493C25.5048 19.4535 23.6628 21.1964 20.4393 21.1964C18.8736 21.1964 17.6394 20.7084 16.7737 20.203C16.2763 19.9067 15.8526 19.5581 15.4658 19.1921Z" fill="#550421"/>
<path fill-rule="evenodd" clip-rule="evenodd" d="M14.9507 19.1978L17.4866 16.6894L17.7383 16.9276C17.9177 17.0973 18.1348 17.2564 18.3764 17.4035C18.7787 17.6411 19.3601 17.8753 20.0709 17.8753C20.5709 17.8753 20.9025 17.7568 21.0995 17.6092C21.2897 17.4667 21.3705 17.2878 21.3705 17.1007C21.3705 16.9136 21.2897 16.7347 21.0995 16.5923C20.9025 16.4447 20.5709 16.3261 20.0709 16.3261H18.4233V12.9082H20.0709C20.4905 12.9082 20.7451 12.8105 20.8881 12.6943C21.0215 12.586 21.0942 12.4326 21.0942 12.2208C21.0942 12.009 21.0215 11.8556 20.8881 11.7473C20.7451 11.6311 20.4905 11.5333 20.0709 11.5333C19.5112 11.5333 19.0481 11.7302 18.731 11.9553L18.723 11.9609L18.7148 11.9661C18.5214 12.0881 18.3598 12.2254 18.2122 12.3806L17.9604 12.6453L15.4182 10.1306L15.6732 9.87592C16.0267 9.52288 16.4566 9.19029 16.9438 8.91333C17.7796 8.41736 18.9831 7.94118 20.5314 7.94118C23.5098 7.94118 25.4947 9.69008 25.4947 11.7851C25.4947 12.9634 24.8727 13.6881 24.2392 14.1334C24.1124 14.225 23.9776 14.3112 23.8351 14.391C24.0403 14.4974 24.2364 14.6176 24.425 14.7536L24.4267 14.7548C25.1265 15.2656 25.8631 16.1104 25.8631 17.4493C25.8631 19.7238 23.7796 21.5546 20.4393 21.5546C18.7964 21.5546 17.5004 21.042 16.5931 20.5123L16.5904 20.5107C16.0635 20.1969 15.6188 19.83 15.2197 19.4523L14.9507 19.1978ZM23.4276 14.5921C23.2671 14.5203 23.1002 14.4564 22.9261 14.3993C23.1013 14.3416 23.2672 14.275 23.4235 14.2007C23.6451 14.0953 23.8477 13.9745 24.0313 13.8416C24.6023 13.4408 25.1365 12.8134 25.1365 11.7851C25.1365 9.95512 23.3866 8.29943 20.5314 8.29943C19.0578 8.29943 17.9158 8.75256 17.1237 9.22313C16.7783 9.41919 16.464 9.64467 16.1886 9.88486C16.0968 9.96492 16.0093 10.0466 15.9264 10.1294L17.9526 12.1337C17.9824 12.1023 18.0129 12.0715 18.044 12.0413C18.1859 11.9035 18.3424 11.7774 18.5236 11.6631C18.892 11.4017 19.4262 11.1751 20.0709 11.1751C21.0104 11.1751 21.4524 11.6108 21.4524 12.2208C21.4524 12.8308 21.0104 13.2665 20.0709 13.2665H18.7815V15.9679H20.0709C21.1761 15.9679 21.7287 16.4907 21.7287 17.1007C21.7287 17.7107 21.1761 18.2336 20.0709 18.2336C19.2789 18.2336 18.6342 17.9721 18.1921 17.7107C17.9342 17.5539 17.6947 17.3796 17.4921 17.1879L15.4659 19.1921C15.5522 19.2738 15.6403 19.3546 15.7307 19.4341C16.0454 19.711 16.3873 19.9728 16.7737 20.203C17.6395 20.7084 18.8736 21.1964 20.4393 21.1964C23.6629 21.1964 25.5049 19.4535 25.5049 17.4493C25.5049 16.2642 24.8602 15.5147 24.2155 15.0442C23.9693 14.8667 23.7083 14.7175 23.4276 14.5921Z" fill="black"/>
<path fill-rule="evenodd" clip-rule="evenodd" d="M14.9507 19.1978L17.4866 16.6894L17.7383 16.9276C17.9177 17.0973 18.1348 17.2564 18.3764 17.4035C18.7787 17.6411 19.3601 17.8753 20.0709 17.8753C20.5709 17.8753 20.9025 17.7568 21.0995 17.6092C21.2897 17.4667 21.3705 17.2878 21.3705 17.1007C21.3705 16.9136 21.2897 16.7347 21.0995 16.5923C20.9025 16.4447 20.5709 16.3261 20.0709 16.3261H18.4233V12.9082H20.0709C20.4905 12.9082 20.7451 12.8105 20.8881 12.6943C21.0215 12.586 21.0942 12.4326 21.0942 12.2208C21.0942 12.009 21.0215 11.8556 20.8881 11.7473C20.7451 11.6311 20.4905 11.5333 20.0709 11.5333C19.5112 11.5333 19.0481 11.7302 18.731 11.9553L18.723 11.9609L18.7148 11.9661C18.5214 12.0881 18.3598 12.2254 18.2122 12.3806L17.9604 12.6453L15.4182 10.1306L15.6732 9.87592C16.0267 9.52288 16.4566 9.19029 16.9438 8.91333C17.7796 8.41736 18.9831 7.94118 20.5314 7.94118C23.5098 7.94118 25.4947 9.69008 25.4947 11.7851C25.4947 12.9634 24.8727 13.6881 24.2392 14.1334C24.1124 14.225 23.9776 14.3112 23.8351 14.391C24.0403 14.4974 24.2364 14.6176 24.425 14.7536L24.4267 14.7548C25.1265 15.2656 25.8631 16.1104 25.8631 17.4493C25.8631 19.7238 23.7796 21.5546 20.4393 21.5546C18.7964 21.5546 17.5004 21.042 16.5931 20.5123L16.5904 20.5107C16.0635 20.1969 15.6188 19.83 15.2197 19.4523L14.9507 19.1978ZM23.4276 14.5921C23.2671 14.5203 23.1002 14.4564 22.9261 14.3993C23.1013 14.3416 23.2672 14.275 23.4235 14.2007C23.6451 14.0953 23.8477 13.9745 24.0313 13.8416C24.6023 13.4408 25.1365 12.8134 25.1365 11.7851C25.1365 9.95512 23.3866 8.29943 20.5314 8.29943C19.0578 8.29943 17.9158 8.75256 17.1237 9.22313C16.7783 9.41919 16.464 9.64467 16.1886 9.88486C16.0968 9.96492 16.0093 10.0466 15.9264 10.1294L17.9526 12.1337C17.9824 12.1023 18.0129 12.0715 18.044 12.0413C18.1859 11.9035 18.3424 11.7774 18.5236 11.6631C18.892 11.4017 19.4262 11.1751 20.0709 11.1751C21.0104 11.1751 21.4524 11.6108 21.4524 12.2208C21.4524 12.8308 21.0104 13.2665 20.0709 13.2665H18.7815V15.9679H20.0709C21.1761 15.9679 21.7287 16.4907 21.7287 17.1007C21.7287 17.7107 21.1761 18.2336 20.0709 18.2336C19.2789 18.2336 18.6342 17.9721 18.1921 17.7107C17.9342 17.5539 17.6947 17.3796 17.4921 17.1879L15.4659 19.1921C15.5522 19.2738 15.6403 19.3546 15.7307 19.4341C16.0454 19.711 16.3873 19.9728 16.7737 20.203C17.6395 20.7084 18.8736 21.1964 20.4393 21.1964C23.6629 21.1964 25.5049 19.4535 25.5049 17.4493C25.5049 16.2642 24.8602 15.5147 24.2155 15.0442C23.9693 14.8667 23.7083 14.7175 23.4276 14.5921Z" fill="url(#paint10_linear_2445_11550)"/>
<path fill-rule="evenodd" clip-rule="evenodd" d="M14.9507 19.1978L17.4866 16.6894L17.7383 16.9276C17.9177 17.0973 18.1348 17.2564 18.3764 17.4035C18.7787 17.6411 19.3601 17.8753 20.0709 17.8753C20.5709 17.8753 20.9025 17.7568 21.0995 17.6092C21.2897 17.4667 21.3705 17.2878 21.3705 17.1007C21.3705 16.9136 21.2897 16.7347 21.0995 16.5923C20.9025 16.4447 20.5709 16.3261 20.0709 16.3261H18.4233V12.9082H20.0709C20.4905 12.9082 20.7451 12.8105 20.8881 12.6943C21.0215 12.586 21.0942 12.4326 21.0942 12.2208C21.0942 12.009 21.0215 11.8556 20.8881 11.7473C20.7451 11.6311 20.4905 11.5333 20.0709 11.5333C19.5112 11.5333 19.0481 11.7302 18.731 11.9553L18.723 11.9609L18.7148 11.9661C18.5214 12.0881 18.3598 12.2254 18.2122 12.3806L17.9604 12.6453L15.4182 10.1306L15.6732 9.87592C16.0267 9.52288 16.4566 9.19029 16.9438 8.91333C17.7796 8.41736 18.9831 7.94118 20.5314 7.94118C23.5098 7.94118 25.4947 9.69008 25.4947 11.7851C25.4947 12.9634 24.8727 13.6881 24.2392 14.1334C24.1124 14.225 23.9776 14.3112 23.8351 14.391C24.0403 14.4974 24.2364 14.6176 24.425 14.7536L24.4267 14.7548C25.1265 15.2656 25.8631 16.1104 25.8631 17.4493C25.8631 19.7238 23.7796 21.5546 20.4393 21.5546C18.7964 21.5546 17.5004 21.042 16.5931 20.5123L16.5904 20.5107C16.0635 20.1969 15.6188 19.83 15.2197 19.4523L14.9507 19.1978ZM23.4276 14.5921C23.2671 14.5203 23.1002 14.4564 22.9261 14.3993C23.1013 14.3416 23.2672 14.275 23.4235 14.2007C23.6451 14.0953 23.8477 13.9745 24.0313 13.8416C24.6023 13.4408 25.1365 12.8134 25.1365 11.7851C25.1365 9.95512 23.3866 8.29943 20.5314 8.29943C19.0578 8.29943 17.9158 8.75256 17.1237 9.22313C16.7783 9.41919 16.464 9.64467 16.1886 9.88486C16.0968 9.96492 16.0093 10.0466 15.9264 10.1294L17.9526 12.1337C17.9824 12.1023 18.0129 12.0715 18.044 12.0413C18.1859 11.9035 18.3424 11.7774 18.5236 11.6631C18.892 11.4017 19.4262 11.1751 20.0709 11.1751C21.0104 11.1751 21.4524 11.6108 21.4524 12.2208C21.4524 12.8308 21.0104 13.2665 20.0709 13.2665H18.7815V15.9679H20.0709C21.1761 15.9679 21.7287 16.4907 21.7287 17.1007C21.7287 17.7107 21.1761 18.2336 20.0709 18.2336C19.2789 18.2336 18.6342 17.9721 18.1921 17.7107C17.9342 17.5539 17.6947 17.3796 17.4921 17.1879L15.4659 19.1921C15.5522 19.2738 15.6403 19.3546 15.7307 19.4341C16.0454 19.711 16.3873 19.9728 16.7737 20.203C17.6395 20.7084 18.8736 21.1964 20.4393 21.1964C23.6629 21.1964 25.5049 19.4535 25.5049 17.4493C25.5049 16.2642 24.8602 15.5147 24.2155 15.0442C23.9693 14.8667 23.7083 14.7175 23.4276 14.5921Z" fill="url(#paint11_diamond_2445_11550)"/>
<path d="M23.6361 37.75H16.502L17.149 36.5996C18.3296 34.5006 19.0438 32.1718 19.2462 29.7739C19.2826 29.3425 19.6361 29 20.069 29V29C20.502 29 20.8555 29.3425 20.8919 29.7739C21.0943 32.1718 21.8084 34.5006 22.989 36.5996L23.6361 37.75Z" fill="black"/>
<path d="M23.6361 37.75H16.502L17.149 36.5996C18.3296 34.5006 19.0438 32.1718 19.2462 29.7739C19.2826 29.3425 19.6361 29 20.069 29V29C20.502 29 20.8555 29.3425 20.8919 29.7739C21.0943 32.1718 21.8084 34.5006 22.989 36.5996L23.6361 37.75Z" fill="url(#paint12_linear_2445_11550)"/>
<path d="M23.6361 37.75H16.502L17.149 36.5996C18.3296 34.5006 19.0438 32.1718 19.2462 29.7739C19.2826 29.3425 19.6361 29 20.069 29V29C20.502 29 20.8555 29.3425 20.8919 29.7739C21.0943 32.1718 21.8084 34.5006 22.989 36.5996L23.6361 37.75Z" fill="url(#paint13_diamond_2445_11550)"/>
<path d="M23.6361 37.75H16.502L17.149 36.5996C18.3296 34.5006 19.0438 32.1718 19.2462 29.7739C19.2826 29.3425 19.6361 29 20.069 29V29C20.502 29 20.8555 29.3425 20.8919 29.7739C21.0943 32.1718 21.8084 34.5006 22.989 36.5996L23.6361 37.75Z" fill="url(#paint14_diamond_2445_11550)"/>
<path d="M23.9004 38.25C22.7378 38.25 20.4654 32.875 20.4654 29.5H20.2012C20.2012 33.875 22.7113 36.375 20.7296 38.25H23.9004Z" fill="black"/>
<path d="M23.9004 38.25C22.7378 38.25 20.4654 32.875 20.4654 29.5H20.2012C20.2012 33.875 22.7113 36.375 20.7296 38.25H23.9004Z" fill="url(#paint15_linear_2445_11550)"/>
<path d="M23.9004 38.25C22.7378 38.25 20.4654 32.875 20.4654 29.5H20.2012C20.2012 33.875 22.7113 36.375 20.7296 38.25H23.9004Z" fill="url(#paint16_diamond_2445_11550)"/>
<path d="M23.9004 38.25C22.7378 38.25 20.4654 32.875 20.4654 29.5H20.2012C20.2012 33.875 22.7113 36.375 20.7296 38.25H23.9004Z" fill="url(#paint17_diamond_2445_11550)"/>
<path d="M25.4422 37.7025H14.9785C14.7684 37.7025 14.5933 37.8694 14.5933 38.0696V38.8173C14.5933 39.0175 14.7684 39.1844 14.9785 39.1844H25.4422C25.6523 39.1844 25.8274 39.0175 25.8274 38.8173V38.0696C25.8274 37.8694 25.6523 37.7025 25.4422 37.7025Z" fill="black"/>
<path d="M26.1075 38.5235H14.138C14.005 38.5235 13.8999 38.6237 13.8999 38.7505V39.7784C13.8999 39.9053 14.005 40.0054 14.138 40.0054H26.1075C26.2406 40.0054 26.3457 39.9053 26.3457 39.7784V38.7505C26.3457 38.6237 26.2406 38.5235 26.1075 38.5235Z" fill="url(#paint18_linear_2445_11550)"/>
<path d="M26.6748 39.5H13.7281C13.5124 39.5 13.3315 39.6682 13.3315 39.8834V40.6166C13.3315 40.8251 13.5055 41 13.7281 41H26.6748C26.8905 41 27.0714 40.8318 27.0714 40.6166V39.8834C27.0714 39.6749 26.8975 39.5 26.6748 39.5Z" fill="url(#paint19_diamond_2445_11550)"/>
<ellipse cx="19.9585" cy="31.875" rx="2.125" ry="1.875" fill="black"/>
<ellipse cx="19.9585" cy="31.875" rx="2.125" ry="1.875" fill="url(#paint20_linear_2445_11550)"/>
<ellipse cx="19.9585" cy="31.875" rx="2.125" ry="1.875" fill="url(#paint21_linear_2445_11550)"/>
<ellipse cx="19.9585" cy="31.875" rx="2.125" ry="1.875" fill="url(#paint22_diamond_2445_11550)"/>
<ellipse cx="19.9585" cy="31.875" rx="2.125" ry="1.875" fill="url(#paint23_diamond_2445_11550)"/>
<ellipse cx="19.9585" cy="31.625" rx="1.875" ry="1.625" fill="url(#paint24_diamond_2445_11550)"/>
<ellipse cx="19.9585" cy="31.625" rx="1.875" ry="1.625" fill="url(#paint25_diamond_2445_11550)"/>
<path fill-rule="evenodd" clip-rule="evenodd" d="M23.4681 28H16.6989L-nan -nanL16.6989 28C16.1362 28.5572 16.2353 29.4127 16.9144 29.8611L18.261 30.75H21.906L23.2526 29.8611C23.9317 29.4127 24.0308 28.5572 23.4681 28L-nan -nanL23.4681 28Z" fill="url(#paint26_linear_2445_11550)"/>
<path fill-rule="evenodd" clip-rule="evenodd" d="M23.4681 28H16.6989L-nan -nanL16.6989 28C16.1362 28.5572 16.2353 29.4127 16.9144 29.8611L18.261 30.75H21.906L23.2526 29.8611C23.9317 29.4127 24.0308 28.5572 23.4681 28L-nan -nanL23.4681 28Z" fill="url(#paint27_diamond_2445_11550)"/>
<path fill-rule="evenodd" clip-rule="evenodd" d="M17.5893 28H22.3277L-nan -nanL22.3277 28C22.7216 28.5572 22.6523 29.4127 22.1768 29.8611L21.2342 30.75H18.6828L17.7402 29.8611C17.2647 29.4127 17.1954 28.5572 17.5893 28L-nan -nanL17.5893 28Z" fill="url(#paint28_linear_2445_11550)"/>
<path fill-rule="evenodd" clip-rule="evenodd" d="M17.5893 28H22.3277L-nan -nanL22.3277 28C22.7216 28.5572 22.6523 29.4127 22.1768 29.8611L21.2342 30.75H18.6828L17.7402 29.8611C17.2647 29.4127 17.1954 28.5572 17.5893 28L-nan -nanL17.5893 28Z" fill="url(#paint29_diamond_2445_11550)"/>
<path d="M7.5835 4.46276C7.5835 3.79446 8.12794 3.25412 8.79622 3.25918L19.8335 3.34269L30.8708 3.25918C31.5391 3.25412 32.0835 3.79446 32.0835 4.46276V4.46276C32.0835 5.12395 31.5502 5.66134 30.889 5.66635L19.8335 5.75L8.77801 5.66635C8.11684 5.66134 7.5835 5.12395 7.5835 4.46276V4.46276Z" fill="url(#paint30_diamond_2445_11550)"/>
<ellipse cx="29.7085" cy="7.5" rx="3.9375" ry="3.75" fill="url(#paint31_radial_2445_11550)"/>
<ellipse cx="1.10764" cy="8.8611" rx="1.10764" ry="8.8611" transform="matrix(0.724137 0.689656 -0.724137 0.689656 35.3232 0.625031)" fill="url(#paint32_radial_2445_11550)" fill-opacity="0.5"/>
<ellipse cx="1.10764" cy="8.8611" rx="1.10764" ry="8.8611" transform="matrix(-0.724137 0.689656 -0.724137 -0.689656 36.9272 12.8468)" fill="url(#paint33_radial_2445_11550)" fill-opacity="0.5"/>
<ellipse cx="0.369212" cy="8.8611" rx="0.369212" ry="8.8611" transform="matrix(0.724137 0.689656 -0.724137 0.689656 35.8579 1.134)" fill="url(#paint34_radial_2445_11550)"/>
<ellipse cx="0.369212" cy="8.8611" rx="0.369212" ry="8.8611" transform="matrix(-0.724137 0.689656 -0.724137 -0.689656 36.3926 13.3571)" fill="url(#paint35_radial_2445_11550)"/>
<rect x="14.124" y="39.75" width="12.1545" height="1" rx="0.5" fill="url(#paint36_diamond_2445_11550)"/>
<defs>
<radialGradient id="paint0_diamond_2445_11550" cx="0" cy="0" r="1" gradientUnits="userSpaceOnUse" gradientTransform="translate(38.1272 6.09213) rotate(138.731) scale(19.1504 13.7887)">
<stop stop-color="#9A3A1F"/>
<stop offset="0.1673" stop-color="#A95822"/>
<stop offset="0.3309" stop-color="#C48021"/>
<stop offset="0.4984" stop-color="#D8A753"/>
<stop offset="0.6663" stop-color="#E6C673"/>
<stop offset="0.7963" stop-color="#ECD077"/>
<stop offset="0.8302" stop-color="#EED478"/>
<stop offset="1" stop-color="#F8F090"/>
</radialGradient>
<radialGradient id="paint1_diamond_2445_11550" cx="0" cy="0" r="1" gradientUnits="userSpaceOnUse" gradientTransform="translate(37.0803 8.16509) rotate(130.614) scale(13.4219 15.1641)">
<stop stop-color="#934600"/>
<stop offset="0.831495" stop-color="#FFBF74"/>
</radialGradient>
<radialGradient id="paint2_diamond_2445_11550" cx="0" cy="0" r="1" gradientUnits="userSpaceOnUse" gradientTransform="translate(32.5323 22.2323) rotate(-90) scale(20.2715 15.4874)">
<stop stop-color="#9A3A1F"/>
<stop offset="0.1673" stop-color="#A95822"/>
<stop offset="0.3309" stop-color="#C48021"/>
<stop offset="0.4984" stop-color="#D8A753"/>
<stop offset="0.6663" stop-color="#E6C673"/>
<stop offset="0.7963" stop-color="#ECD077"/>
<stop offset="0.8302" stop-color="#EED478"/>
<stop offset="1" stop-color="#F8F090"/>
</radialGradient>
<radialGradient id="paint3_diamond_2445_11550" cx="0" cy="0" r="1" gradientUnits="userSpaceOnUse" gradientTransform="translate(32.3226 22.25) rotate(-90) scale(15.1328 16.9628)">
<stop stop-color="#934600"/>
<stop offset="0.831495" stop-color="#FFBF74"/>
</radialGradient>
<radialGradient id="paint4_diamond_2445_11550" cx="0" cy="0" r="1" gradientUnits="userSpaceOnUse" gradientTransform="translate(2.28974 6.09213) rotate(41.2693) scale(19.1504 13.7887)">
<stop stop-color="#9A3A1F"/>
<stop offset="0.1673" stop-color="#A95822"/>
<stop offset="0.3309" stop-color="#C48021"/>
<stop offset="0.4984" stop-color="#D8A753"/>
<stop offset="0.6663" stop-color="#E6C673"/>
<stop offset="0.7963" stop-color="#ECD077"/>
<stop offset="0.8302" stop-color="#EED478"/>
<stop offset="1" stop-color="#F8F090"/>
</radialGradient>
<radialGradient id="paint5_diamond_2445_11550" cx="0" cy="0" r="1" gradientUnits="userSpaceOnUse" gradientTransform="translate(3.3367 8.16509) rotate(49.3857) scale(13.4219 15.1641)">
<stop stop-color="#934600"/>
<stop offset="0.831495" stop-color="#FFBF74"/>
</radialGradient>
<radialGradient id="paint6_diamond_2445_11550" cx="0" cy="0" r="1" gradientUnits="userSpaceOnUse" gradientTransform="translate(8.00866 22.2323) rotate(-90) scale(20.2715 15.1647)">
<stop stop-color="#9A3A1F"/>
<stop offset="0.1673" stop-color="#A95822"/>
<stop offset="0.3309" stop-color="#C48021"/>
<stop offset="0.4984" stop-color="#D8A753"/>
<stop offset="0.6663" stop-color="#E6C673"/>
<stop offset="0.7963" stop-color="#ECD077"/>
<stop offset="0.8302" stop-color="#EED478"/>
<stop offset="1" stop-color="#F8F090"/>
</radialGradient>
<radialGradient id="paint7_diamond_2445_11550" cx="0" cy="0" r="1" gradientUnits="userSpaceOnUse" gradientTransform="translate(8.21393 22.25) rotate(-90) scale(15.1328 16.6094)">
<stop stop-color="#934600"/>
<stop offset="0.831495" stop-color="#FFBF74"/>
</radialGradient>
<radialGradient id="paint8_diamond_2445_11550" cx="0" cy="0" r="1" gradientUnits="userSpaceOnUse" gradientTransform="translate(19.7248 29.25) rotate(-90) scale(23.5141 31.4518)">
<stop stop-color="#934600"/>
<stop offset="0.831495" stop-color="#FFBF74"/>
</radialGradient>
<radialGradient id="paint9_diamond_2445_11550" cx="0" cy="0" r="1" gradientUnits="userSpaceOnUse" gradientTransform="translate(19.7574 41.8219) rotate(-90) scale(36.2578 50.1981)">
<stop offset="0.160646" stop-color="#934600"/>
<stop offset="0.831495" stop-color="#FFBF74"/>
</radialGradient>
<linearGradient id="paint10_linear_2445_11550" x1="26.4407" y1="7.0267" x2="18.6468" y2="22.1468" gradientUnits="userSpaceOnUse">
<stop stop-color="#FFAD4C"/>
<stop offset="1" stop-color="#C15E02"/>
</linearGradient>
<radialGradient id="paint11_diamond_2445_11550" cx="0" cy="0" r="1" gradientUnits="userSpaceOnUse" gradientTransform="translate(20.2671 21.1964) rotate(-90) scale(12.0103 14.1908)">
<stop stop-color="#934600"/>
<stop offset="0.831495" stop-color="#FFBF74"/>
</radialGradient>
<linearGradient id="paint12_linear_2445_11550" x1="20.0086" y1="38.403" x2="28.6584" y2="26.483" gradientUnits="userSpaceOnUse">
<stop stop-color="#D59725"/>
<stop offset="0.78" stop-color="#FFF778"/>
<stop offset="1" stop-color="#F6CE69"/>
</linearGradient>
<radialGradient id="paint13_diamond_2445_11550" cx="0" cy="0" r="1" gradientUnits="userSpaceOnUse" gradientTransform="translate(20.0386 39.625) rotate(-90) scale(12.7999 10.7971)">
<stop stop-color="#9A3A1F"/>
<stop offset="0.1673" stop-color="#A95822"/>
<stop offset="0.3309" stop-color="#C48021"/>
<stop offset="0.4984" stop-color="#D8A753"/>
<stop offset="0.6663" stop-color="#E6C673"/>
<stop offset="0.7963" stop-color="#ECD077"/>
<stop offset="0.8302" stop-color="#EED478"/>
<stop offset="1" stop-color="#F8F090"/>
</radialGradient>
<radialGradient id="paint14_diamond_2445_11550" cx="0" cy="0" r="1" gradientUnits="userSpaceOnUse" gradientTransform="translate(19.9139 37.75) rotate(-90) scale(8.14844 10.0846)">
<stop stop-color="#934600"/>
<stop offset="0.831495" stop-color="#FFBF74"/>
</radialGradient>
<linearGradient id="paint15_linear_2445_11550" x1="24.2967" y1="41.125" x2="27.9502" y2="32.4194" gradientUnits="userSpaceOnUse">
<stop stop-color="#D59725"/>
<stop offset="0.78" stop-color="#FFF778"/>
<stop offset="1" stop-color="#F6CE69"/>
</linearGradient>
<radialGradient id="paint16_diamond_2445_11550" cx="0" cy="0" r="1" gradientUnits="userSpaceOnUse" gradientTransform="translate(22.035 38.2405) rotate(-90) scale(10.9154 4.77422)">
<stop stop-color="#9A3A1F"/>
<stop offset="0.1673" stop-color="#A95822"/>
<stop offset="0.3309" stop-color="#C48021"/>
<stop offset="0.4984" stop-color="#D8A753"/>
<stop offset="0.6663" stop-color="#E6C673"/>
<stop offset="0.7963" stop-color="#ECD077"/>
<stop offset="0.8302" stop-color="#EED478"/>
<stop offset="1" stop-color="#F8F090"/>
</radialGradient>
<radialGradient id="paint17_diamond_2445_11550" cx="0" cy="0" r="1" gradientUnits="userSpaceOnUse" gradientTransform="translate(21.9703 38.25) rotate(-90) scale(8.14844 5.22904)">
<stop stop-color="#934600"/>
<stop offset="0.831495" stop-color="#FFBF74"/>
</radialGradient>
<linearGradient id="paint18_linear_2445_11550" x1="13.8999" y1="39.2645" x2="26.3457" y2="39.2645" gradientUnits="userSpaceOnUse">
<stop offset="0.13"/>
<stop offset="0.95" stop-color="#4D4D4D"/>
</linearGradient>
<radialGradient id="paint19_diamond_2445_11550" cx="0" cy="0" r="1" gradientUnits="userSpaceOnUse" gradientTransform="translate(26.922 39.6031) rotate(180) scale(13.8892 304.391)">
<stop stop-color="#FFBF74"/>
<stop offset="1" stop-color="#934600"/>
</radialGradient>
<linearGradient id="paint20_linear_2445_11550" x1="19.9225" y1="34.0299" x2="23.1218" y2="27.9014" gradientUnits="userSpaceOnUse">
<stop stop-color="#D59725"/>
<stop offset="0.78" stop-color="#FFF778"/>
<stop offset="1" stop-color="#F6CE69"/>
</linearGradient>
<linearGradient id="paint21_linear_2445_11550" x1="17.8335" y1="31.875" x2="22.0835" y2="31.875" gradientUnits="userSpaceOnUse">
<stop offset="0.13"/>
<stop offset="0.95" stop-color="#4D4D4D"/>
</linearGradient>
<radialGradient id="paint22_diamond_2445_11550" cx="0" cy="0" r="1" gradientUnits="userSpaceOnUse" gradientTransform="translate(19.9404 33.7459) rotate(-90) scale(4.67804 5.48511)">
<stop stop-color="#9A3A1F"/>
<stop offset="0.1673" stop-color="#A95822"/>
<stop offset="0.3309" stop-color="#C48021"/>
<stop offset="0.4984" stop-color="#D8A753"/>
<stop offset="0.6663" stop-color="#E6C673"/>
<stop offset="0.7963" stop-color="#ECD077"/>
<stop offset="0.8302" stop-color="#EED478"/>
<stop offset="1" stop-color="#F8F090"/>
</radialGradient>
<radialGradient id="paint23_diamond_2445_11550" cx="0" cy="0" r="1" gradientUnits="userSpaceOnUse" gradientTransform="translate(19.8661 33.75) rotate(-90) scale(3.49219 6.00765)">
<stop stop-color="#934600"/>
<stop offset="0.831495" stop-color="#FFBF74"/>
</radialGradient>
<radialGradient id="paint24_diamond_2445_11550" cx="0" cy="0" r="1" gradientUnits="userSpaceOnUse" gradientTransform="translate(19.9425 35.6875) rotate(-90) scale(6.49533 7.75377)">
<stop stop-color="#9A3A1F"/>
<stop offset="0.1673" stop-color="#A95822"/>
<stop offset="0.3309" stop-color="#C48021"/>
<stop offset="0.4984" stop-color="#D8A753"/>
<stop offset="0.6663" stop-color="#E6C673"/>
<stop offset="0.7963" stop-color="#ECD077"/>
<stop offset="0.8302" stop-color="#EED478"/>
<stop offset="1" stop-color="#F8F090"/>
</radialGradient>
<radialGradient id="paint25_diamond_2445_11550" cx="0" cy="0" r="1" gradientUnits="userSpaceOnUse" gradientTransform="translate(19.877 33.25) rotate(-90) scale(3.02656 5.30086)">
<stop stop-color="#934600"/>
<stop offset="0.831495" stop-color="#FFBF74"/>
</radialGradient>
<linearGradient id="paint26_linear_2445_11550" x1="19.8911" y1="31.6094" x2="27.2736" y2="26.5693" gradientUnits="userSpaceOnUse">
<stop stop-color="#D59725"/>
<stop offset="0.78" stop-color="#FFF778"/>
<stop offset="1" stop-color="#F6CE69"/>
</linearGradient>
<radialGradient id="paint27_diamond_2445_11550" cx="0" cy="0" r="1" gradientUnits="userSpaceOnUse" gradientTransform="translate(19.9205 30.75) rotate(-90) scale(2.56094 10.6017)">
<stop stop-color="#934600"/>
<stop offset="0.831495" stop-color="#FFBF74"/>
</radialGradient>
<linearGradient id="paint28_linear_2445_11550" x1="20.0932" y1="31.6094" x2="13.9254" y2="28.6618" gradientUnits="userSpaceOnUse">
<stop stop-color="#D59725"/>
<stop offset="0.78" stop-color="#FFF778"/>
<stop offset="1" stop-color="#F6CE69"/>
</linearGradient>
<radialGradient id="paint29_diamond_2445_11550" cx="0" cy="0" r="1" gradientUnits="userSpaceOnUse" gradientTransform="translate(20.0726 30.75) rotate(-90) scale(2.56094 7.42121)">
<stop stop-color="#934600"/>
<stop offset="0.831495" stop-color="#FFBF74"/>
</radialGradient>
<radialGradient id="paint30_diamond_2445_11550" cx="0" cy="0" r="1" gradientUnits="userSpaceOnUse" gradientTransform="translate(19.3009 5.75) rotate(-90) scale(3.88889 57.8496)">
<stop stop-color="#934600"/>
<stop offset="0.831495" stop-color="#FFBF74"/>
</radialGradient>
<radialGradient id="paint31_radial_2445_11550" cx="0" cy="0" r="1" gradientUnits="userSpaceOnUse" gradientTransform="translate(29.7085 7.5) rotate(90) scale(3.75 3.9375)">
<stop stop-color="white" stop-opacity="0.77"/>
<stop offset="1" stop-color="white" stop-opacity="0"/>
</radialGradient>
<radialGradient id="paint32_radial_2445_11550" cx="0" cy="0" r="1" gradientUnits="userSpaceOnUse" gradientTransform="translate(1.10764 8.8611) rotate(90) scale(8.8611 1.10764)">
<stop stop-color="white"/>
<stop offset="1" stop-color="white" stop-opacity="0"/>
</radialGradient>
<radialGradient id="paint33_radial_2445_11550" cx="0" cy="0" r="1" gradientUnits="userSpaceOnUse" gradientTransform="translate(1.10764 8.8611) rotate(90) scale(8.8611 1.10764)">
<stop stop-color="white"/>
<stop offset="1" stop-color="white" stop-opacity="0"/>
</radialGradient>
<radialGradient id="paint34_radial_2445_11550" cx="0" cy="0" r="1" gradientUnits="userSpaceOnUse" gradientTransform="translate(0.369212 8.8611) rotate(90) scale(8.8611 0.369212)">
<stop stop-color="white"/>
<stop offset="1" stop-color="white" stop-opacity="0"/>
</radialGradient>
<radialGradient id="paint35_radial_2445_11550" cx="0" cy="0" r="1" gradientUnits="userSpaceOnUse" gradientTransform="translate(0.369212 8.8611) rotate(90) scale(8.8611 0.369212)">
<stop stop-color="white"/>
<stop offset="1" stop-color="white" stop-opacity="0"/>
</radialGradient>
<radialGradient id="paint36_diamond_2445_11550" cx="0" cy="0" r="1" gradientUnits="userSpaceOnUse" gradientTransform="translate(26.1464 39.8188) rotate(180) scale(12.2866 202.927)">
<stop stop-color="#934600"/>
<stop offset="0.831495" stop-color="#FFBF74"/>
</radialGradient>
</defs>
</svg>
