<svg width="44" height="44" viewBox="0 0 44 44" fill="none" xmlns="http://www.w3.org/2000/svg">
<g clip-path="url(#clip0_2278_16612)">
<path d="M27.1211 38.5573H16.9066L10.175 22.8787L22.0192 0L33.8526 22.8787L27.1211 38.5573Z" fill="url(#paint0_linear_2278_16612)"/>
<path style="mix-blend-mode:screen" opacity="0.7" d="M10.175 22.8787L22.0192 0L33.8526 22.8787L22.0192 4.5161L10.175 22.8787Z" fill="url(#paint1_linear_2278_16612)"/>
<path style="mix-blend-mode:multiply" opacity="0.6" d="M10.175 22.8787L19.399 38.5573H16.9066L10.175 22.8787Z" fill="url(#paint2_linear_2278_16612)"/>
<path style="mix-blend-mode:screen" opacity="0.7" d="M33.8526 22.8787L24.6287 38.5573H27.121L33.8526 22.8787Z" fill="url(#paint3_linear_2278_16612)"/>
<path style="mix-blend-mode:screen" opacity="0.4" d="M17.1835 12.0145L16.374 10.9068L10.175 22.8787L17.1835 12.0145Z" fill="url(#paint4_linear_2278_16612)"/>
<path style="mix-blend-mode:screen" opacity="0.4" d="M21.9873 0.0745582V4.58L22.0193 4.5161L25.417 9.78843L23.8513 3.54684L22.0193 0L21.9873 0.0745582Z" fill="url(#paint5_linear_2278_16612)"/>
<path style="mix-blend-mode:multiply" opacity="0.3" d="M17.5138 11.5139L21.9873 4.58002L20.5813 2.75867L16.6724 10.3423L17.5138 11.5139Z" fill="url(#paint6_linear_2278_16612)"/>
<path style="mix-blend-mode:screen" opacity="0.4" d="M26.1943 10.992L33.8525 22.8787L27.2808 10.1612L26.1943 10.992Z" fill="url(#paint7_linear_2278_16612)"/>
<path style="mix-blend-mode:multiply" opacity="0.3" d="M17.5138 11.5139L21.9873 4.58002L20.5813 2.75867L16.6724 10.3423L17.5138 11.5139Z" fill="url(#paint8_linear_2278_16612)"/>
<path style="mix-blend-mode:multiply" opacity="0.2" d="M19.548 8.3505L21.9872 4.57999L20.5812 2.76929L18.3125 7.16822L19.548 8.3505Z" fill="url(#paint9_linear_2278_16612)"/>
<path style="mix-blend-mode:screen" opacity="0.4" d="M21.9766 4.58003L22.0086 4.53743V0.0319824L20.5813 2.75868V2.76933L21.9766 4.58003Z" fill="url(#paint10_linear_2278_16612)"/>
<path style="mix-blend-mode:screen" d="M21.9766 4.58003L22.0086 4.53743V0.0319824L20.5813 2.75868V2.76933L21.9766 4.58003Z" fill="url(#paint11_linear_2278_16612)"/>
<path style="mix-blend-mode:screen" opacity="0.3" d="M19.3563 5.12323L18.8877 6.03923L21.444 5.41081L21.9765 4.58002L19.3563 5.12323Z" fill="url(#paint12_linear_2278_16612)"/>
<path style="mix-blend-mode:screen" opacity="0.3" d="M18.6746 9.71387L16.7574 10.1612L16.5125 10.6512L18.3232 10.2571L18.6746 9.71387Z" fill="url(#paint13_linear_2278_16612)"/>
<path style="mix-blend-mode:screen" opacity="0.6" d="M22.4771 5.22972L22.8072 5.74097L24.2878 4.37762L23.9682 3.77051L22.4771 5.22972Z" fill="url(#paint14_linear_2278_16612)"/>
<path style="mix-blend-mode:screen" opacity="0.8" d="M27.2808 10.1612L23.8618 3.56812L25.321 9.44756L25.8642 10.4807L24.8843 6.13505L27.0998 10.289L27.2808 10.1612Z" fill="url(#paint15_linear_2278_16612)"/>
<path style="mix-blend-mode:screen" opacity="0.4" d="M26.1943 10.992L33.8525 22.8787L27.2808 10.1612L26.1943 10.992Z" fill="url(#paint16_linear_2278_16612)"/>
<path style="mix-blend-mode:multiply" opacity="0.3" d="M33.8526 22.8787L31.5413 18.4052L32.0738 20.12L33.8526 22.8787Z" fill="url(#paint17_linear_2278_16612)"/>
<path style="mix-blend-mode:screen" opacity="0.6" d="M28.8252 31.421L24.6287 38.5572H27.121L28.5909 35.1276L29.6454 31.602L28.8252 31.421Z" fill="url(#paint18_linear_2278_16612)"/>
<path style="mix-blend-mode:multiply" opacity="0.4" d="M31.9353 27.3416L33.8525 22.8787L32.2442 25.6161L31.9353 27.3416Z" fill="url(#paint19_linear_2278_16612)"/>
<path style="mix-blend-mode:multiply" opacity="0.4" d="M28.6868 31.6553L24.6287 38.5572H26.024L28.6868 31.6553Z" fill="url(#paint20_linear_2278_16612)"/>
<path style="mix-blend-mode:screen" opacity="0.6" d="M32.1484 25.7865L30.0288 29.3759L30.6572 29.3333L30.9768 28.7369L31.307 28.8114L31.8502 27.5546L32.1484 25.7865Z" fill="url(#paint21_linear_2278_16612)"/>
<path style="mix-blend-mode:screen" d="M22.0086 2.4711V0.0319824L21.1565 1.66161L22.0086 2.4711Z" fill="url(#paint22_linear_2278_16612)"/>
<path style="mix-blend-mode:screen" opacity="0.3" d="M17.8759 10.9388L18.6534 9.74585L17.6309 8.46771L16.9812 9.7352L17.8759 10.9388Z" fill="url(#paint23_linear_2278_16612)"/>
<path style="mix-blend-mode:multiply" opacity="0.5" d="M25.1079 6.53984L24.9375 6.25226L25.0227 6.72091L25.3103 7.99905L25.747 7.74342L25.1079 6.53984Z" fill="url(#paint24_linear_2278_16612)"/>
<path style="mix-blend-mode:screen" opacity="0.7" d="M25.1294 9.35172L25.9708 10.6405L27.0786 9.77777L26.4501 8.54224L25.1294 9.35172Z" fill="url(#paint25_linear_2278_16612)"/>
<path style="mix-blend-mode:screen" opacity="0.5" d="M20.89 6.26287L21.9871 4.57999L20.5812 2.76929L19.6226 4.62259L20.89 6.26287Z" fill="url(#paint26_linear_2278_16612)"/>
<path style="mix-blend-mode:screen" opacity="0.7" d="M18.3659 7.05109L16.3848 10.8855L16.6936 11.2903L18.3659 7.05109Z" fill="url(#paint27_linear_2278_16612)"/>
<path style="mix-blend-mode:multiply" opacity="0.5" d="M26.1943 10.992L28.74 14.9542L26.663 10.6405L26.1943 10.992Z" fill="url(#paint28_linear_2278_16612)"/>
<path style="mix-blend-mode:multiply" opacity="0.3" d="M19.4522 4.93152L18.9409 5.93273L19.7078 8.12687L20.7303 6.51854L19.4522 4.93152Z" fill="url(#paint29_linear_2278_16612)"/>
<path style="mix-blend-mode:multiply" opacity="0.5" d="M30.4868 28.5984L29.0596 31.0269L29.7306 31.4316L29.3045 33.3382H29.3685L31.2111 29.0351L30.4868 28.5984Z" fill="url(#paint30_linear_2278_16612)"/>
<path style="mix-blend-mode:multiply" opacity="0.3" d="M26.2584 38.5573L27.7069 34.808L26.8442 36.0436L25.6086 38.5573H26.2584Z" fill="url(#paint31_linear_2278_16612)"/>
<path style="mix-blend-mode:multiply" opacity="0.3" d="M12.9551 29.3653L14.2332 32.4115L14.9788 31.0482L13.7859 29.0138L12.9551 29.3653Z" fill="url(#paint32_linear_2278_16612)"/>
<path opacity="0.6" d="M10.665 23.7095L10.175 22.8787L16.9066 38.5573H17.0451L10.665 23.7095Z" fill="url(#paint33_linear_2278_16612)"/>
<path style="mix-blend-mode:multiply" opacity="0.2" d="M19.2499 38.5573H19.399L10.175 22.8787L10.5798 23.816L19.2499 38.5573Z" fill="url(#paint34_linear_2278_16612)"/>
<path style="mix-blend-mode:multiply" opacity="0.3" d="M32.4466 20.6952L33.8525 22.8787L22.0191 0L21.8806 0.266279L32.4466 20.6952Z" fill="url(#paint35_linear_2278_16612)"/>
<path style="mix-blend-mode:screen" opacity="0.85" d="M10.175 22.8787L10.452 22.3355L21.9126 4.27112V0.191721L22.0192 0L22.1257 0.191721V4.27112L33.565 22.3355L33.8526 22.8787L22.0192 4.5161L10.175 22.8787Z" fill="url(#paint36_linear_2278_16612)"/>
<path opacity="0.8" d="M33.3627 23.7095L33.8527 22.8787L27.1211 38.5573H26.9827L33.3627 23.7095Z" fill="url(#paint37_linear_2278_16612)"/>
<path opacity="0.8" d="M33.6076 23.4539L33.8526 22.8787L24.6287 38.5573H24.8204L33.6076 23.4539Z" fill="url(#paint38_linear_2278_16612)"/>
<path style="mix-blend-mode:screen" opacity="0.7" d="M22.1363 0.223675L22.0192 0L10.175 22.8787L10.7928 21.9308L22.1363 0.223675Z" fill="url(#paint39_linear_2278_16612)"/>
<g style="mix-blend-mode:screen" opacity="0.15">
<path d="M13.5303 17.7235L28.2395 32.4222L33.8421 22.9V22.8894L19.463 8.52094L13.5303 17.7235Z" fill="white"/>
<path d="M10.1858 22.9L19.431 38.5572H24.6288L25.3957 37.2472L10.5266 22.3781L10.1858 22.9Z" fill="white"/>
</g>
<path d="M28.7081 38.5253H15.3195C15.2372 38.5253 15.1704 38.5921 15.1704 38.6744V39.8034C15.1704 39.8858 15.2372 39.9526 15.3195 39.9526H28.7081C28.7904 39.9526 28.8572 39.8858 28.8572 39.8034V38.6744C28.8572 38.5921 28.7904 38.5253 28.7081 38.5253Z" fill="url(#paint40_linear_2278_16612)"/>
<path style="mix-blend-mode:multiply" opacity="0.2" d="M28.7081 38.5253H15.3195C15.2372 38.5253 15.1704 38.5921 15.1704 38.6744V39.8034C15.1704 39.8858 15.2372 39.9526 15.3195 39.9526H28.7081C28.7904 39.9526 28.8572 39.8858 28.8572 39.8034V38.6744C28.8572 38.5921 28.7904 38.5253 28.7081 38.5253Z" fill="url(#paint41_linear_2278_16612)"/>
<path style="mix-blend-mode:screen" opacity="0.5" d="M28.7081 38.5253H15.3195C15.2343 38.5253 15.1704 38.5892 15.1704 38.6744V39.8034C15.1704 39.878 15.2237 39.9419 15.2982 39.9526V38.8022C15.2982 38.717 15.3621 38.6531 15.4473 38.6531H28.5802C28.6655 38.6531 28.7294 38.717 28.7294 38.8022V39.9526C28.8039 39.9526 28.8572 39.878 28.8572 39.8034V38.6744C28.8572 38.5892 28.7933 38.5253 28.7081 38.5253Z" fill="url(#paint42_linear_2278_16612)"/>
<path d="M33.1495 44H10.8779L12.923 39.9313C12.9549 39.8673 13.0295 39.8247 13.104 39.8247H30.9234C30.998 39.8247 31.0619 39.8673 31.1045 39.9313L33.1495 44Z" fill="url(#paint43_linear_2278_16612)"/>
<path style="mix-blend-mode:screen" opacity="0.5" d="M13.0188 40.0804C13.0508 40.0165 13.1147 39.9739 13.1892 39.9739H30.8382C30.9128 39.9739 30.9767 40.0165 31.0087 40.0804L33.0111 43.9893H33.1389L31.0939 39.9206C31.0619 39.8567 30.9873 39.8141 30.9128 39.8141H13.104C13.0295 39.8141 12.9656 39.8567 12.923 39.9206L10.8779 43.9893H11.0057L13.0082 40.0804H13.0188Z" fill="url(#paint44_linear_2278_16612)"/>
<g style="mix-blend-mode:screen" opacity="0.02">
<path d="M29.5814 39.8141H21.6462V39.9739H29.5814V39.8141Z" fill="white"/>
</g>
<g style="mix-blend-mode:screen" opacity="0.03">
<path d="M29.4962 39.8141H21.7314V39.9739H29.4962V39.8141Z" fill="white"/>
</g>
<g style="mix-blend-mode:screen" opacity="0.05">
<path d="M29.4216 39.8141H21.8167V39.9739H29.4216V39.8141Z" fill="white"/>
</g>
<g style="mix-blend-mode:screen" opacity="0.06">
<path d="M29.3364 39.8141H21.9019V39.9739H29.3364V39.8141Z" fill="white"/>
</g>
<g style="mix-blend-mode:screen" opacity="0.08">
<path d="M29.2513 39.8141H21.9766V39.9739H29.2513V39.8141Z" fill="white"/>
</g>
<g style="mix-blend-mode:screen" opacity="0.1">
<path d="M29.1661 39.8141H22.0618V39.9739H29.1661V39.8141Z" fill="white"/>
</g>
<g style="mix-blend-mode:screen" opacity="0.11">
<path d="M29.0809 39.8141H22.147V39.9739H29.0809V39.8141Z" fill="white"/>
</g>
<g style="mix-blend-mode:screen" opacity="0.13">
<path d="M29.0063 39.8141H22.2322V39.9739H29.0063V39.8141Z" fill="white"/>
</g>
<g style="mix-blend-mode:screen" opacity="0.15">
<path d="M28.9104 39.8141H22.3066V39.9739H28.9104V39.8141Z" fill="white"/>
</g>
<g style="mix-blend-mode:screen" opacity="0.16">
<path d="M28.8358 39.8141H22.3918V39.9739H28.8358V39.8141Z" fill="white"/>
</g>
<g style="mix-blend-mode:screen" opacity="0.18">
<path d="M28.7506 39.8141H22.4771V39.9739H28.7506V39.8141Z" fill="white"/>
</g>
<g style="mix-blend-mode:screen" opacity="0.19">
<path d="M28.676 39.8141H22.5623V39.9739H28.676V39.8141Z" fill="white"/>
</g>
<g style="mix-blend-mode:screen" opacity="0.21">
<path d="M28.5803 39.8141H22.637V39.9739H28.5803V39.8141Z" fill="white"/>
</g>
<g style="mix-blend-mode:screen" opacity="0.23">
<path d="M28.5058 39.8141H22.7222V39.9739H28.5058V39.8141Z" fill="white"/>
</g>
<g style="mix-blend-mode:screen" opacity="0.24">
<path d="M28.4205 39.8141H22.8074V39.9739H28.4205V39.8141Z" fill="white"/>
</g>
<g style="mix-blend-mode:screen" opacity="0.26">
<path d="M28.346 39.8141H22.8926V39.9739H28.346V39.8141Z" fill="white"/>
</g>
<g style="mix-blend-mode:screen" opacity="0.27">
<path d="M28.25 39.8141H22.967V39.9739H28.25V39.8141Z" fill="white"/>
</g>
<g style="mix-blend-mode:screen" opacity="0.29">
<path d="M28.1755 39.8141H23.0522V39.9739H28.1755V39.8141Z" fill="white"/>
</g>
<g style="mix-blend-mode:screen" opacity="0.31">
<path d="M28.0902 39.8141H23.1375V39.9739H28.0902V39.8141Z" fill="white"/>
</g>
<g style="mix-blend-mode:screen" opacity="0.32">
<path d="M28.0157 39.8141H23.2227V39.9739H28.0157V39.8141Z" fill="white"/>
</g>
<g style="mix-blend-mode:screen" opacity="0.34">
<path d="M27.9305 39.8141H23.3079V39.9739H27.9305V39.8141Z" fill="white"/>
</g>
<g style="mix-blend-mode:screen" opacity="0.35">
<path d="M27.8454 39.8141H23.3826V39.9739H27.8454V39.8141Z" fill="white"/>
</g>
<g style="mix-blend-mode:screen" opacity="0.37">
<path d="M27.7602 39.8141H23.4678V39.9739H27.7602V39.8141Z" fill="white"/>
</g>
<g style="mix-blend-mode:screen" opacity="0.39">
<path d="M27.6856 39.8141H23.553V39.9739H27.6856V39.8141Z" fill="white"/>
</g>
<g style="mix-blend-mode:screen" opacity="0.4">
<path d="M27.6004 39.8141H23.6382V39.9739H27.6004V39.8141Z" fill="white"/>
</g>
<g style="mix-blend-mode:screen" opacity="0.42">
<path d="M27.5151 39.8141H23.7126V39.9739H27.5151V39.8141Z" fill="white"/>
</g>
<g style="mix-blend-mode:screen" opacity="0.44">
<path d="M27.4299 39.8141H23.7979V39.9739H27.4299V39.8141Z" fill="white"/>
</g>
<g style="mix-blend-mode:screen" opacity="0.45">
<path d="M27.3553 39.8141H23.8831V39.9739H27.3553V39.8141Z" fill="white"/>
</g>
<g style="mix-blend-mode:screen" opacity="0.47">
<path d="M27.2701 39.8141H23.9683V39.9739H27.2701V39.8141Z" fill="white"/>
</g>
<g style="mix-blend-mode:screen" opacity="0.48">
<path d="M27.1851 39.8141H24.043V39.9739H27.1851V39.8141Z" fill="white"/>
</g>
<g style="mix-blend-mode:screen" opacity="0.5">
<path d="M27.0999 39.8141H24.1282V39.9739H27.0999V39.8141Z" fill="white"/>
</g>
<path d="M27.3874 40.6342H16.651C16.6451 40.6342 16.6404 40.639 16.6404 40.6449V43.1585C16.6404 43.1644 16.6451 43.1692 16.651 43.1692H27.3874C27.3933 43.1692 27.3981 43.1644 27.3981 43.1585V40.6449C27.3981 40.639 27.3933 40.6342 27.3874 40.6342Z" fill="url(#paint45_linear_2278_16612)"/>
<path d="M27.3768 40.6342H16.651C16.651 40.6342 16.6404 40.6342 16.6404 40.6449V43.1585C16.6404 43.1585 16.6404 43.1692 16.651 43.1692H27.3874C27.3874 43.1692 27.3981 43.1692 27.3981 43.1585V40.6449C27.3981 40.6449 27.3981 40.6342 27.3874 40.6342H27.3768ZM27.2809 43.084H16.7469V40.7301H27.2916V43.084H27.2809Z" fill="url(#paint46_linear_2278_16612)"/>
</g>
<ellipse cx="27.9667" cy="13.2" rx="4.35832" ry="4.125" fill="url(#paint47_radial_2278_16612)"/>
<ellipse cx="1.2224" cy="9.7792" rx="1.2224" ry="9.7792" transform="matrix(0.726279 0.6874 -0.726279 0.6874 34.1812 5.63751)" fill="url(#paint48_radial_2278_16612)" fill-opacity="0.5"/>
<ellipse cx="1.2224" cy="9.7792" rx="1.2224" ry="9.7792" transform="matrix(-0.72628 0.687399 -0.726279 -0.6874 35.9568 19.0815)" fill="url(#paint49_radial_2278_16612)" fill-opacity="0.5"/>
<ellipse cx="0.407467" cy="9.7792" rx="0.407467" ry="9.7792" transform="matrix(0.72628 0.6874 -0.72628 0.6874 34.7732 6.19739)" fill="url(#paint50_radial_2278_16612)"/>
<ellipse cx="0.407467" cy="9.7792" rx="0.407467" ry="9.7792" transform="matrix(-0.72628 0.6874 -0.726279 -0.6874 35.365 19.6428)" fill="url(#paint51_radial_2278_16612)"/>
<g clip-path="url(#clip1_2278_16612)">
<path d="M17.2987 30.8396C17.2987 30.8396 17.2242 31.255 17.4479 31.8195C17.565 32.0964 17.7674 32.3947 18.055 32.6397C18.3426 32.8846 18.7154 33.087 19.0881 33.2574C19.8444 33.5876 20.6539 33.8645 21.1864 34.2054C21.7403 34.5462 21.9533 34.9297 21.9533 34.9297C21.9746 34.9723 21.9533 35.0149 21.9214 35.0468C21.8787 35.0681 21.8255 35.0468 21.8042 35.0149C21.8042 35.0149 21.7509 34.9297 21.6444 34.8018C21.5379 34.674 21.3462 34.5036 21.0906 34.3438C20.5793 34.0137 19.7698 33.7687 19.0136 33.3959C18.6301 33.2042 18.2574 33.0018 17.9591 32.7355C17.6609 32.4692 17.4585 32.1497 17.3413 31.8515C17.1177 31.255 17.2135 30.8183 17.2135 30.8183C17.2135 30.797 17.2348 30.7757 17.2668 30.7757C17.2881 30.7757 17.3094 30.8077 17.3094 30.829L17.2987 30.8396Z" fill="white"/>
<path d="M17.235 30.9035C17.235 30.9035 16.5533 30.3071 17.5013 29.7L17.235 30.9035Z" fill="white"/>
<path d="M17.2349 30.9035C17.2349 30.9035 18.0976 30.6373 17.5011 29.7L17.2349 30.9035Z" fill="white"/>
<path d="M17.416 31.7663C17.416 31.7663 17.0538 31.1272 17.9379 30.9036L17.416 31.7663Z" fill="white"/>
<path d="M17.4053 31.7663C17.4053 31.7663 18.1402 31.7876 17.9272 30.9036L17.4053 31.7663Z" fill="white"/>
<path d="M17.3308 31.8195C17.3308 31.8195 16.6704 32.139 16.5 31.2443L17.3308 31.8195Z" fill="white"/>
<path d="M17.3308 31.8195C17.3308 31.8195 17.4053 31.0846 16.5 31.2443L17.3308 31.8195Z" fill="white"/>
<path d="M18.0019 32.629C18.0019 32.629 17.4055 32.0965 18.2363 31.5639L18.0019 32.629Z" fill="white"/>
<path d="M18.002 32.629C18.002 32.629 18.7688 32.4053 18.2469 31.5639L18.002 32.629Z" fill="white"/>
<path d="M17.9379 32.7142C17.9379 32.7142 17.3627 33.2681 16.894 32.4054L17.9379 32.7142Z" fill="white"/>
<path d="M17.9379 32.7142C17.9379 32.7142 17.7674 31.9367 16.894 32.4054L17.9379 32.7142Z" fill="white"/>
<path d="M19.0882 33.332C19.0882 33.332 18.2574 32.9699 18.9604 32.1071L19.0882 33.332Z" fill="white"/>
<path d="M19.0881 33.332C19.0881 33.332 19.823 32.8207 18.9709 32.1071L19.0881 33.332Z" fill="white"/>
<path d="M19.0456 33.4492C19.0456 33.4492 18.6302 34.248 17.8101 33.4918L19.0456 33.4492Z" fill="white"/>
<path d="M19.0456 33.4492C19.0456 33.4492 18.5769 32.6823 17.8101 33.4811L19.0456 33.4492Z" fill="white"/>
<path d="M20.2919 33.8007C20.2919 33.8007 19.4611 33.5876 19.9936 32.6716L20.2919 33.8007Z" fill="white"/>
<path d="M20.2919 33.8007C20.2919 33.8007 20.9097 33.2042 19.9937 32.661L20.2919 33.8007Z" fill="white"/>
<path d="M20.2812 33.9072C20.2812 33.9072 20.0043 34.7167 19.1309 34.1202L20.2812 33.9072Z" fill="white"/>
<path d="M20.2812 33.9072C20.2812 33.9072 19.7273 33.2468 19.1309 34.1202L20.2812 33.9072Z" fill="white"/>
<path d="M21.2291 34.3013C21.2291 34.3013 20.5794 33.9924 21.1652 33.3107L21.2291 34.3013Z" fill="white"/>
<path d="M21.2292 34.3013C21.2292 34.3013 21.8363 33.9072 21.1653 33.3107L21.2292 34.3013Z" fill="white"/>
<path d="M21.1652 34.3865C21.1652 34.3865 20.8989 35.0575 20.1853 34.5249L21.1652 34.3865Z" fill="white"/>
<path d="M21.1652 34.3971C21.1652 34.3971 20.7285 33.822 20.1853 34.5249L21.1652 34.3971Z" fill="white"/>
<path d="M26.5654 30.829C26.5654 30.829 26.6506 31.255 26.4376 31.8621C26.331 32.1603 26.118 32.4799 25.8198 32.7462C25.5215 33.0231 25.1488 33.2255 24.7653 33.4065C24.0091 33.7687 23.1996 34.0243 22.6883 34.3545C22.4327 34.5143 22.241 34.674 22.1345 34.8125C22.028 34.9403 21.9747 35.0255 21.9747 35.0255C21.9534 35.0681 21.9002 35.0788 21.8575 35.0575C21.8149 35.0362 21.8043 34.9829 21.8256 34.9403C21.8256 34.9403 22.0493 34.5569 22.5925 34.216C23.1357 33.8645 23.9345 33.5983 24.6908 33.2681C25.0635 33.0977 25.4363 32.8953 25.7239 32.6503C26.0115 32.4053 26.2139 32.1071 26.331 31.8302C26.5547 31.2656 26.4802 30.8503 26.4802 30.8503C26.4802 30.8289 26.4908 30.8076 26.5121 30.797C26.5334 30.797 26.5547 30.8076 26.5654 30.829Z" fill="white"/>
<path d="M26.5334 30.9035C26.5334 30.9035 27.215 30.3071 26.2671 29.7L26.5334 30.9035Z" fill="white"/>
<path d="M26.5333 30.9035C26.5333 30.9035 25.6706 30.6373 26.267 29.7L26.5333 30.9035Z" fill="white"/>
<path d="M26.3522 31.7663C26.3522 31.7663 26.7144 31.1272 25.8303 30.9036L26.3522 31.7663Z" fill="white"/>
<path d="M26.3629 31.7663C26.3629 31.7663 25.628 31.7876 25.841 30.9036L26.3629 31.7663Z" fill="white"/>
<path d="M26.4375 31.8195C26.4375 31.8195 27.0979 32.139 27.2683 31.2443L26.4375 31.8195Z" fill="white"/>
<path d="M26.4375 31.8195C26.4375 31.8195 26.363 31.0846 27.2683 31.2443L26.4375 31.8195Z" fill="white"/>
<path d="M25.7666 32.629C25.7666 32.629 26.363 32.0965 25.5322 31.5639L25.7666 32.629Z" fill="white"/>
<path d="M25.7665 32.629C25.7665 32.629 24.9996 32.4053 25.5215 31.5639L25.7665 32.629Z" fill="white"/>
<path d="M25.8303 32.7142C25.8303 32.7142 26.4055 33.2681 26.8741 32.4054L25.8303 32.7142Z" fill="white"/>
<path d="M25.8303 32.7142C25.8303 32.7142 26.0007 31.9367 26.8741 32.4054L25.8303 32.7142Z" fill="white"/>
<path d="M24.6799 33.332C24.6799 33.332 25.5107 32.9699 24.8077 32.1071L24.6799 33.332Z" fill="white"/>
<path d="M24.68 33.332C24.68 33.332 23.9451 32.8207 24.7972 32.1071L24.68 33.332Z" fill="white"/>
<path d="M24.7227 33.4492C24.7227 33.4492 25.1381 34.248 25.9582 33.4918L24.7227 33.4492Z" fill="white"/>
<path d="M24.7227 33.4492C24.7227 33.4492 25.1913 32.6823 25.9582 33.4811L24.7227 33.4492Z" fill="white"/>
<path d="M23.4763 33.8007C23.4763 33.8007 24.3071 33.5876 23.7746 32.6716L23.4763 33.8007Z" fill="white"/>
<path d="M23.4764 33.8007C23.4764 33.8007 22.8587 33.2042 23.7747 32.661L23.4764 33.8007Z" fill="white"/>
<path d="M23.4871 33.9072C23.4871 33.9072 23.764 34.7167 24.6374 34.1202L23.4871 33.9072Z" fill="white"/>
<path d="M23.4871 33.9072C23.4871 33.9072 24.0409 33.2468 24.6374 34.1202L23.4871 33.9072Z" fill="white"/>
<path d="M22.5393 34.3013C22.5393 34.3013 23.189 33.9924 22.6032 33.3107L22.5393 34.3013Z" fill="white"/>
<path d="M22.5392 34.3013C22.5392 34.3013 21.9321 33.9072 22.6031 33.3107L22.5392 34.3013Z" fill="white"/>
<path d="M22.603 34.3865C22.603 34.3865 22.8693 35.0575 23.5829 34.5249L22.603 34.3865Z" fill="white"/>
<path d="M22.603 34.3971C22.603 34.3971 23.0397 33.822 23.5829 34.5249L22.603 34.3971Z" fill="white"/>
<path d="M21.8897 10.4545L22.1133 11.0616L22.7737 11.1043L22.2518 11.4983L22.4329 12.1374L21.8897 11.7646L21.3358 12.1374L21.5169 11.4983L21.0056 11.1043L21.6553 11.0616L21.8897 10.4545Z" fill="white"/>
<g style="mix-blend-mode:screen" opacity="0.3">
<path d="M22.4861 12.2119L21.8897 11.7966L21.2932 12.2119L21.4849 11.4983L20.9204 11.0616L21.6447 11.019L21.9003 10.3586L22.1559 11.019L22.8802 11.0616L22.3157 11.4983L22.5074 12.2119H22.4861ZM21.8897 11.722H21.911L22.3796 12.0628L22.2199 11.477L22.6885 11.1255L22.1027 11.0936L21.9003 10.5504L21.6979 11.0936H21.6766L21.1015 11.1255L21.5701 11.477L21.4104 12.0628L21.9003 11.722H21.8897Z" fill="white"/>
</g>
<path d="M19.6635 11.1362L19.8446 11.6155L20.3665 11.6474L19.9618 11.9563L20.1002 12.4676L19.6635 12.1693L19.2375 12.4676L19.3759 11.9563L18.9712 11.6474L19.4824 11.6155L19.6635 11.1362Z" fill="white"/>
<g style="mix-blend-mode:screen" opacity="0.3">
<path d="M20.1428 12.5315L19.6635 12.2013L19.1842 12.5315L19.3333 11.967L18.886 11.6261L19.4611 11.5942L19.6635 11.0723L19.8659 11.5942L20.4411 11.6261L19.9937 11.967L20.1535 12.5315H20.1428ZM19.6635 12.1374H19.6742L20.047 12.4037L19.9192 11.9457L20.2813 11.6687L19.8126 11.6368L19.6529 11.2107L19.4931 11.6368H19.4718L19.0245 11.6687L19.3972 11.9457L19.2694 12.4037L19.6635 12.1374Z" fill="white"/>
</g>
<path d="M24.1051 11.1362L24.2861 11.6155L24.8081 11.6474L24.3927 11.9563L24.5311 12.4676L24.1051 12.1693L23.6684 12.4676L23.8068 11.9563L23.4021 11.6474L23.924 11.6155L24.1051 11.1362Z" fill="white"/>
<g style="mix-blend-mode:screen" opacity="0.3">
<path d="M24.5738 12.5315L24.0945 12.2013L23.6152 12.5315L23.775 11.967L23.3276 11.6261L23.9028 11.5942L24.1052 11.0723L24.3075 11.5942L24.8827 11.6261L24.4354 11.967L24.5845 12.5315H24.5738ZM24.0945 12.1374H24.1052L24.478 12.4037L24.3501 11.9457L24.7229 11.6687L24.2543 11.6368L24.0945 11.2107L23.9348 11.6368H23.9135L23.4661 11.6687L23.8282 11.9457L23.7004 12.4037L24.0945 12.1374Z" fill="white"/>
</g>
</g>
<g clip-path="url(#clip2_2278_16612)">
<path d="M22.0541 24.9815H27.0257V28.2381H17.0824C17.0824 22.0868 23.2014 21.9059 23.2014 19.6444C23.2014 19.0111 22.6277 18.4684 21.8629 18.4684C21.1936 18.4684 20.7347 18.7759 20.4479 19.0654C20.2758 19.2282 20.1419 19.4273 20.0463 19.6444L16.9868 18.2874C17.2545 17.7266 17.6178 17.2019 18.0959 16.7496C18.899 15.9898 20.1801 15.2118 22.1497 15.2118C24.9988 15.2118 27.0257 17.1296 27.0257 19.373C27.0257 22.6657 23.3735 23.2266 22.0541 24.9815Z" fill="#36262C"/>
<path fill-rule="evenodd" clip-rule="evenodd" d="M17.1535 17.9656C17.3997 17.5259 17.7105 17.1142 18.0959 16.7496C18.899 15.9898 20.1802 15.2118 22.1497 15.2118C24.9988 15.2118 27.0257 17.1296 27.0257 19.373C27.0257 21.5261 25.4642 22.5111 24.0144 23.4256C23.4065 23.8091 22.8183 24.1801 22.373 24.6197C22.2561 24.7351 22.1491 24.8552 22.0541 24.9816H27.0257V28.2381H17.0824C17.0824 28.1152 17.0849 27.9946 17.0897 27.8763C17.2341 24.3118 19.5113 22.8564 21.2441 21.749C22.3296 21.0552 23.2014 20.498 23.2014 19.6444C23.2014 19.0112 22.6277 18.4684 21.8629 18.4684C21.1936 18.4684 20.7347 18.776 20.4479 19.0654C20.2783 19.2259 20.1459 19.4214 20.0506 19.6348C20.0491 19.638 20.0477 19.6412 20.0463 19.6444L16.9868 18.2875C17.0387 18.1787 17.0942 18.0713 17.1535 17.9656ZM22.9143 24.6197H27.3876V28.6H16.7206V28.2381C16.7206 26.6358 17.1204 25.4041 17.7317 24.4264C18.3403 23.4533 19.1467 22.7509 19.9311 22.1885C20.3139 21.914 20.6958 21.6699 21.0465 21.4458L21.0704 21.4305C21.4316 21.1997 21.7541 20.9927 22.0279 20.7869C22.5897 20.3648 22.8395 20.0243 22.8395 19.6444C22.8395 19.2463 22.4652 18.8302 21.8629 18.8302C21.3169 18.8302 20.9452 19.0776 20.7049 19.3201L20.7008 19.3243L20.6965 19.3283C20.5633 19.4543 20.4559 19.612 20.3775 19.7902L20.2312 20.1222L16.5 18.4674L16.6603 18.1316C16.9451 17.5348 17.3336 16.9727 17.8472 16.4868C18.7055 15.6747 20.0723 14.85 22.1497 14.85C25.1541 14.85 27.3876 16.8879 27.3876 19.373C27.3876 21.1912 26.3622 22.2492 25.2452 23.0483C24.908 23.2895 24.5403 23.5217 24.1904 23.7426C23.9795 23.8757 23.7751 24.0048 23.5878 24.1293C23.3415 24.2929 23.1152 24.4542 22.9143 24.6197Z" fill="url(#paint52_linear_2278_16612)"/>
</g>
<defs>
<linearGradient id="paint0_linear_2278_16612" x1="22.0192" y1="38.6531" x2="22.0192" y2="0.543208" gradientUnits="userSpaceOnUse">
<stop stop-color="#D6E5F4"/>
<stop offset="1" stop-color="#495B9A"/>
</linearGradient>
<linearGradient id="paint1_linear_2278_16612" x1="22.0192" y1="22.7829" x2="22.0192" y2="1.38465" gradientUnits="userSpaceOnUse">
<stop stop-color="#606A8E"/>
<stop offset="0.64" stop-color="#C5C8D6"/>
<stop offset="1" stop-color="white"/>
</linearGradient>
<linearGradient id="paint2_linear_2278_16612" x1="18.1102" y1="38.472" x2="10.7289" y2="23.1557" gradientUnits="userSpaceOnUse">
<stop stop-color="#B7B7B7"/>
<stop offset="1" stop-color="#07164F"/>
</linearGradient>
<linearGradient id="paint3_linear_2278_16612" x1="25.9175" y1="38.472" x2="33.2987" y2="23.1557" gradientUnits="userSpaceOnUse">
<stop stop-color="white"/>
<stop offset="0.36" stop-color="#C5C8D6"/>
<stop offset="1" stop-color="#606A8E"/>
</linearGradient>
<linearGradient id="paint4_linear_2278_16612" x1="13.6793" y1="22.8255" x2="13.6793" y2="11.6311" gradientUnits="userSpaceOnUse">
<stop stop-color="#707A98"/>
<stop offset="0.41" stop-color="#AFB5C6"/>
<stop offset="0.81" stop-color="#E8EAEF"/>
<stop offset="1" stop-color="white"/>
</linearGradient>
<linearGradient id="paint5_linear_2278_16612" x1="23.7021" y1="9.74582" x2="23.7021" y2="0.596466" gradientUnits="userSpaceOnUse">
<stop stop-color="#707A98"/>
<stop offset="0.41" stop-color="#AFB5C6"/>
<stop offset="0.81" stop-color="#E8EAEF"/>
<stop offset="1" stop-color="white"/>
</linearGradient>
<linearGradient id="paint6_linear_2278_16612" x1="19.3245" y1="11.482" x2="19.3245" y2="3.29123" gradientUnits="userSpaceOnUse">
<stop stop-color="white"/>
<stop offset="0.36" stop-color="#C5C8D6"/>
<stop offset="1" stop-color="#606A8E"/>
</linearGradient>
<linearGradient id="paint7_linear_2278_16612" x1="30.0288" y1="22.8254" x2="30.0288" y2="10.9387" gradientUnits="userSpaceOnUse">
<stop stop-color="#707A98"/>
<stop offset="0.41" stop-color="#AFB5C6"/>
<stop offset="0.81" stop-color="#E8EAEF"/>
<stop offset="1" stop-color="white"/>
</linearGradient>
<linearGradient id="paint8_linear_2278_16612" x1="19.3245" y1="11.482" x2="19.3245" y2="3.29123" gradientUnits="userSpaceOnUse">
<stop stop-color="white"/>
<stop offset="0.36" stop-color="#C5C8D6"/>
<stop offset="1" stop-color="#606A8E"/>
</linearGradient>
<linearGradient id="paint9_linear_2278_16612" x1="20.1445" y1="8.3292" x2="20.1445" y2="3.11012" gradientUnits="userSpaceOnUse">
<stop stop-color="#B6BACA"/>
<stop offset="1" stop-color="#606A8E"/>
</linearGradient>
<linearGradient id="paint10_linear_2278_16612" x1="21.2949" y1="4.59069" x2="21.2949" y2="-0.0638781" gradientUnits="userSpaceOnUse">
<stop stop-color="white"/>
<stop offset="0.12" stop-color="#E8EAEE"/>
<stop offset="0.36" stop-color="#AFB4C5"/>
<stop offset="0.7" stop-color="#545E83"/>
<stop offset="1" stop-color="#000F46"/>
</linearGradient>
<linearGradient id="paint11_linear_2278_16612" x1="21.2949" y1="38.6531" x2="21.2949" y2="0.54324" gradientUnits="userSpaceOnUse">
<stop stop-color="white"/>
<stop offset="0.16" stop-color="#FBFBFC"/>
<stop offset="0.31" stop-color="#EFEFF3"/>
<stop offset="0.47" stop-color="#DADDE4"/>
<stop offset="0.63" stop-color="#BEC2D0"/>
<stop offset="0.78" stop-color="#9AA0B6"/>
<stop offset="0.94" stop-color="#6F7796"/>
<stop offset="1" stop-color="#5B6588"/>
</linearGradient>
<linearGradient id="paint12_linear_2278_16612" x1="18.8025" y1="5.65579" x2="21.9872" y2="4.96346" gradientUnits="userSpaceOnUse">
<stop stop-color="#CED0D2"/>
<stop offset="0.19" stop-color="#CACCCF"/>
<stop offset="0.37" stop-color="#BEC1C7"/>
<stop offset="0.56" stop-color="#AAAEBA"/>
<stop offset="0.75" stop-color="#8D94A8"/>
<stop offset="0.93" stop-color="#6A7391"/>
<stop offset="1" stop-color="#5B6588"/>
</linearGradient>
<linearGradient id="paint13_linear_2278_16612" x1="17.5882" y1="10.6405" x2="17.5882" y2="9.76712" gradientUnits="userSpaceOnUse">
<stop stop-color="white"/>
<stop offset="0.36" stop-color="#C5C8D6"/>
<stop offset="1" stop-color="#606A8E"/>
</linearGradient>
<linearGradient id="paint14_linear_2278_16612" x1="23.3824" y1="5.73032" x2="23.3824" y2="3.88767" gradientUnits="userSpaceOnUse">
<stop stop-color="#CED0D2"/>
<stop offset="0.19" stop-color="#CACCCF"/>
<stop offset="0.37" stop-color="#BEC1C7"/>
<stop offset="0.56" stop-color="#AAAEBA"/>
<stop offset="0.75" stop-color="#8D94A8"/>
<stop offset="0.93" stop-color="#6A7391"/>
<stop offset="1" stop-color="#5B6588"/>
</linearGradient>
<linearGradient id="paint15_linear_2278_16612" x1="24.9056" y1="3.70658" x2="26.4287" y2="10.96" gradientUnits="userSpaceOnUse">
<stop stop-color="white"/>
<stop offset="0.16" stop-color="#FBFBFC"/>
<stop offset="0.31" stop-color="#EFEFF3"/>
<stop offset="0.47" stop-color="#DADDE4"/>
<stop offset="0.63" stop-color="#BEC2D0"/>
<stop offset="0.78" stop-color="#9AA0B6"/>
<stop offset="0.94" stop-color="#6F7796"/>
<stop offset="1" stop-color="#5B6588"/>
</linearGradient>
<linearGradient id="paint16_linear_2278_16612" x1="30.0288" y1="22.8254" x2="30.0288" y2="10.9387" gradientUnits="userSpaceOnUse">
<stop stop-color="#707A98"/>
<stop offset="0.41" stop-color="#AFB5C6"/>
<stop offset="0.81" stop-color="#E8EAEF"/>
<stop offset="1" stop-color="white"/>
</linearGradient>
<linearGradient id="paint17_linear_2278_16612" x1="31.488" y1="18.5437" x2="33.6502" y2="22.8787" gradientUnits="userSpaceOnUse">
<stop stop-color="#9AA0B6"/>
<stop offset="1" stop-color="#606A8E"/>
</linearGradient>
<linearGradient id="paint18_linear_2278_16612" x1="28.4098" y1="37.7158" x2="26.0879" y2="32.9121" gradientUnits="userSpaceOnUse">
<stop stop-color="white"/>
<stop offset="0.24" stop-color="#E8EAEF"/>
<stop offset="0.74" stop-color="#B0B5C6"/>
<stop offset="1" stop-color="#9198B0"/>
</linearGradient>
<linearGradient id="paint19_linear_2278_16612" x1="31.882" y1="26.9049" x2="33.6395" y2="23.2196" gradientUnits="userSpaceOnUse">
<stop stop-color="#A1A8BC"/>
<stop offset="1" stop-color="#606A8E"/>
</linearGradient>
<linearGradient id="paint20_linear_2278_16612" x1="27.4406" y1="35.5323" x2="26.2583" y2="34.8932" gradientUnits="userSpaceOnUse">
<stop stop-color="#D2D4DC"/>
<stop offset="0.11" stop-color="#C5C8D3"/>
<stop offset="1" stop-color="#606A8E"/>
</linearGradient>
<linearGradient id="paint21_linear_2278_16612" x1="31.6584" y1="28.7582" x2="30.6146" y2="26.596" gradientUnits="userSpaceOnUse">
<stop stop-color="white"/>
<stop offset="0.24" stop-color="#E8EAEF"/>
<stop offset="0.74" stop-color="#B0B5C6"/>
<stop offset="1" stop-color="#9198B0"/>
</linearGradient>
<linearGradient id="paint22_linear_2278_16612" x1="21.5825" y1="20.7805" x2="21.5825" y2="0.308914" gradientUnits="userSpaceOnUse">
<stop stop-color="white"/>
<stop offset="0.16" stop-color="#FBFBFC"/>
<stop offset="0.31" stop-color="#EFEFF3"/>
<stop offset="0.47" stop-color="#DADDE4"/>
<stop offset="0.63" stop-color="#BEC2D0"/>
<stop offset="0.78" stop-color="#9AA0B6"/>
<stop offset="0.94" stop-color="#6F7796"/>
<stop offset="1" stop-color="#5B6588"/>
</linearGradient>
<linearGradient id="paint23_linear_2278_16612" x1="17.812" y1="10.9281" x2="17.812" y2="8.61683" gradientUnits="userSpaceOnUse">
<stop stop-color="white"/>
<stop offset="0.36" stop-color="#C5C8D6"/>
<stop offset="1" stop-color="#606A8E"/>
</linearGradient>
<linearGradient id="paint24_linear_2278_16612" x1="25.3422" y1="7.9884" x2="25.3422" y2="6.35877" gradientUnits="userSpaceOnUse">
<stop stop-color="#B6BBC9"/>
<stop offset="1" stop-color="#737C9B"/>
</linearGradient>
<linearGradient id="paint25_linear_2278_16612" x1="26.1093" y1="10.6299" x2="26.1093" y2="8.67005" gradientUnits="userSpaceOnUse">
<stop stop-color="#606A8E"/>
<stop offset="0.64" stop-color="#C5C8D6"/>
<stop offset="1" stop-color="white"/>
</linearGradient>
<linearGradient id="paint26_linear_2278_16612" x1="20.8048" y1="6.25222" x2="20.8048" y2="2.98231" gradientUnits="userSpaceOnUse">
<stop stop-color="#606A8E"/>
<stop offset="0.64" stop-color="#C5C8D6"/>
<stop offset="1" stop-color="white"/>
</linearGradient>
<linearGradient id="paint27_linear_2278_16612" x1="17.3753" y1="11.269" x2="17.3753" y2="7.30671" gradientUnits="userSpaceOnUse">
<stop stop-color="#606A8E"/>
<stop offset="0.64" stop-color="#C5C8D6"/>
<stop offset="1" stop-color="white"/>
</linearGradient>
<linearGradient id="paint28_linear_2278_16612" x1="27.4725" y1="14.9329" x2="27.4725" y2="10.8961" gradientUnits="userSpaceOnUse">
<stop stop-color="#B6BBC9"/>
<stop offset="1" stop-color="#737C9B"/>
</linearGradient>
<linearGradient id="paint29_linear_2278_16612" x1="19.8356" y1="8.11622" x2="19.8356" y2="5.12324" gradientUnits="userSpaceOnUse">
<stop stop-color="#606A8E"/>
<stop offset="0.89" stop-color="#C5C8D3"/>
<stop offset="1" stop-color="#D2D4DC"/>
</linearGradient>
<linearGradient id="paint30_linear_2278_16612" x1="30.8703" y1="32.4648" x2="29.3259" y2="29.2694" gradientUnits="userSpaceOnUse">
<stop stop-color="#606A8E"/>
<stop offset="0.89" stop-color="#C5C8D3"/>
<stop offset="1" stop-color="#D2D4DC"/>
</linearGradient>
<linearGradient id="paint31_linear_2278_16612" x1="27.2702" y1="37.9608" x2="26.1519" y2="35.6388" gradientUnits="userSpaceOnUse">
<stop stop-color="#606A8E"/>
<stop offset="0.89" stop-color="#C5C8D3"/>
<stop offset="1" stop-color="#D2D4DC"/>
</linearGradient>
<linearGradient id="paint32_linear_2278_16612" x1="14.7551" y1="32.0281" x2="13.4131" y2="29.2481" gradientUnits="userSpaceOnUse">
<stop stop-color="#606A8E"/>
<stop offset="1" stop-color="#A4A9BC"/>
</linearGradient>
<linearGradient id="paint33_linear_2278_16612" x1="17.0131" y1="38.5786" x2="10.2283" y2="22.9426" gradientUnits="userSpaceOnUse">
<stop stop-color="#07164F"/>
<stop offset="0.26" stop-color="white"/>
<stop offset="0.53" stop-color="#07164F"/>
<stop offset="1" stop-color="white"/>
</linearGradient>
<linearGradient id="paint34_linear_2278_16612" x1="18.4297" y1="38.3229" x2="11.0484" y2="23.0065" gradientUnits="userSpaceOnUse">
<stop stop-color="#B7B7B7"/>
<stop offset="1" stop-color="#36426C"/>
</linearGradient>
<linearGradient id="paint35_linear_2278_16612" x1="21.8913" y1="0.415396" x2="33.9377" y2="22.8042" gradientUnits="userSpaceOnUse">
<stop stop-color="#18275C"/>
<stop offset="1" stop-color="white"/>
</linearGradient>
<linearGradient id="paint36_linear_2278_16612" x1="22.0192" y1="22.7829" x2="22.0192" y2="0.181071" gradientUnits="userSpaceOnUse">
<stop stop-color="#606A8E"/>
<stop offset="0.12" stop-color="#858DA8"/>
<stop offset="0.27" stop-color="#B0B5C7"/>
<stop offset="0.42" stop-color="#D2D5DF"/>
<stop offset="0.56" stop-color="#EBECF0"/>
<stop offset="0.69" stop-color="#F9FAFB"/>
<stop offset="0.8" stop-color="white"/>
<stop offset="1" stop-color="#B8BCCA"/>
</linearGradient>
<linearGradient id="paint37_linear_2278_16612" x1="27.0253" y1="38.5786" x2="33.7994" y2="22.9426" gradientUnits="userSpaceOnUse">
<stop stop-color="white"/>
<stop offset="0.11" stop-color="#C7CAD7"/>
<stop offset="0.22" stop-color="#9399B1"/>
<stop offset="0.32" stop-color="#6C7596"/>
<stop offset="0.4" stop-color="#556086"/>
<stop offset="0.45" stop-color="#4D5880"/>
<stop offset="0.5" stop-color="#5F698D"/>
<stop offset="0.59" stop-color="#9097B0"/>
<stop offset="0.72" stop-color="#DEE0E8"/>
<stop offset="0.77" stop-color="white"/>
<stop offset="1" stop-color="#4D5880"/>
</linearGradient>
<linearGradient id="paint38_linear_2278_16612" x1="24.6606" y1="38.5786" x2="33.9484" y2="22.9639" gradientUnits="userSpaceOnUse">
<stop stop-color="white"/>
<stop offset="0.19" stop-color="#E8EAEF"/>
<stop offset="0.59" stop-color="#AFB5C6"/>
<stop offset="1" stop-color="#707A98"/>
</linearGradient>
<linearGradient id="paint39_linear_2278_16612" x1="16.1504" y1="22.7829" x2="16.1504" y2="1.38465" gradientUnits="userSpaceOnUse">
<stop stop-color="#606A8E"/>
<stop offset="0.64" stop-color="#C5C8D6"/>
<stop offset="1" stop-color="white"/>
</linearGradient>
<linearGradient id="paint40_linear_2278_16612" x1="15.3515" y1="39.2389" x2="28.5163" y2="39.2389" gradientUnits="userSpaceOnUse">
<stop stop-color="#000312"/>
<stop offset="0.61" stop-color="#2F3242"/>
<stop offset="1" stop-color="#4A4D5E"/>
</linearGradient>
<linearGradient id="paint41_linear_2278_16612" x1="22.0191" y1="39.9739" x2="22.0191" y2="38.5786" gradientUnits="userSpaceOnUse">
<stop stop-color="#000312"/>
<stop offset="0.52" stop-color="#84858D"/>
<stop offset="1" stop-color="white"/>
</linearGradient>
<linearGradient id="paint42_linear_2278_16612" x1="15.3515" y1="39.2283" x2="28.5163" y2="39.2283" gradientUnits="userSpaceOnUse">
<stop stop-color="#202330"/>
<stop offset="0.41" stop-color="#646878"/>
<stop offset="0.76" stop-color="#9B9FB2"/>
<stop offset="0.91" stop-color="#6B6E79"/>
<stop offset="1" stop-color="#55575E"/>
</linearGradient>
<linearGradient id="paint43_linear_2278_16612" x1="11.1655" y1="41.9017" x2="32.5957" y2="41.9017" gradientUnits="userSpaceOnUse">
<stop stop-color="#000312"/>
<stop offset="0.61" stop-color="#2F3242"/>
<stop offset="1" stop-color="#4A4D5E"/>
</linearGradient>
<linearGradient id="paint44_linear_2278_16612" x1="11.1655" y1="41.9017" x2="32.5957" y2="41.9017" gradientUnits="userSpaceOnUse">
<stop stop-color="#202330"/>
<stop offset="0.4" stop-color="#646878"/>
<stop offset="0.74" stop-color="#9B9FB2"/>
<stop offset="0.91" stop-color="#6B6E79"/>
<stop offset="1" stop-color="#55575E"/>
</linearGradient>
<linearGradient id="paint45_linear_2278_16612" x1="27.3768" y1="40.7833" x2="16.6936" y2="43.0094" gradientUnits="userSpaceOnUse">
<stop stop-color="#A49B9C"/>
<stop offset="0.27" stop-color="#CBC0B7"/>
<stop offset="0.32" stop-color="#C0B5AF"/>
<stop offset="0.44" stop-color="#ABA19F"/>
<stop offset="0.51" stop-color="#A49A9A"/>
<stop offset="0.69" stop-color="#B6ABA7"/>
<stop offset="0.71" stop-color="#B0A5A2"/>
<stop offset="0.82" stop-color="#988F91"/>
<stop offset="0.92" stop-color="#8A8186"/>
<stop offset="1" stop-color="#857D83"/>
</linearGradient>
<linearGradient id="paint46_linear_2278_16612" x1="27.3768" y1="40.7833" x2="16.6936" y2="43.0094" gradientUnits="userSpaceOnUse">
<stop stop-color="#CBD2CD"/>
<stop offset="0.32" stop-color="#A9A9A9"/>
<stop offset="1" stop-color="#584754"/>
</linearGradient>
<radialGradient id="paint47_radial_2278_16612" cx="0" cy="0" r="1" gradientUnits="userSpaceOnUse" gradientTransform="translate(27.9667 13.2) rotate(90) scale(4.125 4.35832)">
<stop stop-color="white" stop-opacity="0.77"/>
<stop offset="1" stop-color="white" stop-opacity="0"/>
</radialGradient>
<radialGradient id="paint48_radial_2278_16612" cx="0" cy="0" r="1" gradientUnits="userSpaceOnUse" gradientTransform="translate(1.2224 9.7792) rotate(90) scale(9.7792 1.2224)">
<stop stop-color="white"/>
<stop offset="1" stop-color="white" stop-opacity="0"/>
</radialGradient>
<radialGradient id="paint49_radial_2278_16612" cx="0" cy="0" r="1" gradientUnits="userSpaceOnUse" gradientTransform="translate(1.2224 9.7792) rotate(90) scale(9.7792 1.2224)">
<stop stop-color="white"/>
<stop offset="1" stop-color="white" stop-opacity="0"/>
</radialGradient>
<radialGradient id="paint50_radial_2278_16612" cx="0" cy="0" r="1" gradientUnits="userSpaceOnUse" gradientTransform="translate(0.407467 9.7792) rotate(90) scale(9.7792 0.407467)">
<stop stop-color="white"/>
<stop offset="1" stop-color="white" stop-opacity="0"/>
</radialGradient>
<radialGradient id="paint51_radial_2278_16612" cx="0" cy="0" r="1" gradientUnits="userSpaceOnUse" gradientTransform="translate(0.407467 9.7792) rotate(90) scale(9.7792 0.407467)">
<stop stop-color="white"/>
<stop offset="1" stop-color="white" stop-opacity="0"/>
</radialGradient>
<linearGradient id="paint52_linear_2278_16612" x1="16.9868" y1="21.7246" x2="27.0257" y2="21.7246" gradientUnits="userSpaceOnUse">
<stop stop-color="#C6BBC0"/>
<stop offset="1" stop-color="#D5D0D5"/>
</linearGradient>
<clipPath id="clip0_2278_16612">
<rect width="23.6776" height="44" fill="white" transform="translate(10.175)"/>
</clipPath>
<clipPath id="clip1_2278_16612">
<rect width="10.7683" height="24.7095" fill="white" transform="translate(16.5 10.3586)"/>
</clipPath>
<clipPath id="clip2_2278_16612">
<rect width="10.8876" height="13.75" fill="white" transform="translate(16.5 14.85)"/>
</clipPath>
</defs>
</svg>
