<svg width="44" height="44" viewBox="0 0 44 44" fill="none" xmlns="http://www.w3.org/2000/svg">
<g clip-path="url(#clip0_2278_16802)">
<path d="M27.1211 38.5573H16.9066L10.175 22.8787L22.0192 0L33.8526 22.8787L27.1211 38.5573Z" fill="url(#paint0_linear_2278_16802)"/>
<path d="M10.175 22.8787L22.0192 0L33.8526 22.8787L22.0192 4.5161L10.175 22.8787Z" fill="url(#paint1_linear_2278_16802)"/>
<path d="M21.9873 0.0745582V4.58L22.0193 4.5161L25.417 9.78843L23.8513 3.54684L22.0193 0L21.9873 0.0745582Z" fill="url(#paint2_linear_2278_16802)"/>
<path style="mix-blend-mode:multiply" opacity="0.4" d="M28.6868 31.6553L24.6287 38.5572H26.024L28.6868 31.6553Z" fill="url(#paint3_linear_2278_16802)"/>
<path opacity="0.3" d="M17.8759 10.9388L18.6534 9.74582L17.6309 8.46768L16.9812 9.73517L17.8759 10.9388Z" fill="url(#paint4_linear_2278_16802)"/>
<path opacity="0.2" d="M20.89 6.2629L21.9871 4.58002L20.5812 2.76932L19.6226 4.62262L20.89 6.2629Z" fill="url(#paint5_linear_2278_16802)"/>
<path style="mix-blend-mode:multiply" opacity="0.3" d="M19.4522 4.93149L18.9409 5.9327L19.7078 8.12684L20.7303 6.51851L19.4522 4.93149Z" fill="url(#paint6_linear_2278_16802)"/>
<path style="mix-blend-mode:multiply" opacity="0.5" d="M30.4868 28.5984L29.0596 31.0269L29.7306 31.4316L29.3045 33.3382H29.3685L31.2111 29.0351L30.4868 28.5984Z" fill="url(#paint7_linear_2278_16802)"/>
<path style="mix-blend-mode:multiply" opacity="0.3" d="M26.2584 38.5573L27.7069 34.808L26.8442 36.0436L25.6086 38.5573H26.2584Z" fill="url(#paint8_linear_2278_16802)"/>
<path style="mix-blend-mode:multiply" opacity="0.3" d="M12.9551 29.3653L14.2332 32.4115L14.9788 31.0482L13.7859 29.0138L12.9551 29.3653Z" fill="url(#paint9_linear_2278_16802)"/>
<path d="M22.0192 4.51608L10.175 22.8787L19.4309 38.5572H24.6287L33.8526 22.8787L22.0192 4.51608Z" fill="url(#paint10_linear_2278_16802)"/>
<path d="M10.665 23.7095L10.175 22.8787L16.9066 38.5573H17.0451L10.665 23.7095Z" fill="url(#paint11_linear_2278_16802)"/>
<path d="M19.2498 38.5573H19.399L10.175 22.8787L10.5798 23.816L19.2498 38.5573Z" fill="url(#paint12_linear_2278_16802)"/>
<path d="M32.4466 20.6952L33.8525 22.8787L22.0191 0L21.8806 0.266279L32.4466 20.6952Z" fill="url(#paint13_linear_2278_16802)"/>
<path d="M10.175 22.8787L10.452 22.3355L21.9126 4.27112V0.191721L22.0192 0L22.1257 0.191721V4.27112L33.565 22.3355L33.8526 22.8787L22.0192 4.5161L10.175 22.8787Z" fill="url(#paint14_linear_2278_16802)"/>
<path d="M33.3627 23.7095L33.8527 22.8787L27.1211 38.5573H26.9827L33.3627 23.7095Z" fill="url(#paint15_linear_2278_16802)"/>
<path d="M33.6076 23.4539L33.8526 22.8787L24.6287 38.5573H24.8204L33.6076 23.4539Z" fill="url(#paint16_linear_2278_16802)"/>
<path style="mix-blend-mode:screen" opacity="0.7" d="M22.1363 0.223675L22.0192 0L10.175 22.8787L10.7928 21.9308L22.1363 0.223675Z" fill="url(#paint17_linear_2278_16802)"/>
<g style="mix-blend-mode:screen" opacity="0.1">
<path d="M13.5408 17.7235L28.25 32.4222L33.8526 22.9V22.8894L19.4735 8.52094L13.5408 17.7235Z" fill="white"/>
<path d="M10.207 22.9L19.4523 38.5572H24.6394L25.4063 37.2472L10.5372 22.3781L10.207 22.9Z" fill="white"/>
</g>
<path d="M28.7081 38.5253H15.3195C15.2372 38.5253 15.1704 38.5921 15.1704 38.6744V39.8034C15.1704 39.8858 15.2372 39.9526 15.3195 39.9526H28.7081C28.7904 39.9526 28.8572 39.8858 28.8572 39.8034V38.6744C28.8572 38.5921 28.7904 38.5253 28.7081 38.5253Z" fill="url(#paint18_linear_2278_16802)"/>
<path style="mix-blend-mode:multiply" opacity="0.2" d="M28.7081 38.5253H15.3195C15.2372 38.5253 15.1704 38.5921 15.1704 38.6744V39.8034C15.1704 39.8858 15.2372 39.9526 15.3195 39.9526H28.7081C28.7904 39.9526 28.8572 39.8858 28.8572 39.8034V38.6744C28.8572 38.5921 28.7904 38.5253 28.7081 38.5253Z" fill="url(#paint19_linear_2278_16802)"/>
<path style="mix-blend-mode:screen" opacity="0.5" d="M28.7081 38.5253H15.3195C15.2343 38.5253 15.1704 38.5892 15.1704 38.6744V39.8034C15.1704 39.878 15.2237 39.9419 15.2982 39.9526V38.8022C15.2982 38.717 15.3621 38.6531 15.4473 38.6531H28.5802C28.6654 38.6531 28.7294 38.717 28.7294 38.8022V39.9526C28.8039 39.9526 28.8572 39.878 28.8572 39.8034V38.6744C28.8572 38.5892 28.7933 38.5253 28.7081 38.5253Z" fill="url(#paint20_linear_2278_16802)"/>
<path d="M33.1495 44H10.8779L12.923 39.9313C12.9549 39.8673 13.0295 39.8247 13.104 39.8247H30.9234C30.998 39.8247 31.0619 39.8673 31.1045 39.9313L33.1495 44Z" fill="url(#paint21_linear_2278_16802)"/>
<path style="mix-blend-mode:screen" opacity="0.5" d="M13.0188 40.0804C13.0508 40.0165 13.1147 39.9739 13.1892 39.9739H30.8382C30.9128 39.9739 30.9767 40.0165 31.0086 40.0804L33.0111 43.9893H33.1389L31.0939 39.9206C31.0619 39.8567 30.9873 39.8141 30.9128 39.8141H13.104C13.0295 39.8141 12.9656 39.8567 12.923 39.9206L10.8779 43.9893H11.0057L13.0082 40.0804H13.0188Z" fill="url(#paint22_linear_2278_16802)"/>
<g style="mix-blend-mode:screen" opacity="0.02">
<path d="M29.5814 39.8141H21.6462V39.9739H29.5814V39.8141Z" fill="white"/>
</g>
<g style="mix-blend-mode:screen" opacity="0.03">
<path d="M29.4961 39.8141H21.7314V39.9739H29.4961V39.8141Z" fill="white"/>
</g>
<g style="mix-blend-mode:screen" opacity="0.05">
<path d="M29.4216 39.8141H21.8167V39.9739H29.4216V39.8141Z" fill="white"/>
</g>
<g style="mix-blend-mode:screen" opacity="0.06">
<path d="M29.3364 39.8141H21.9019V39.9739H29.3364V39.8141Z" fill="white"/>
</g>
<g style="mix-blend-mode:screen" opacity="0.08">
<path d="M29.2513 39.8141H21.9766V39.9739H29.2513V39.8141Z" fill="white"/>
</g>
<g style="mix-blend-mode:screen" opacity="0.1">
<path d="M29.1661 39.8141H22.0618V39.9739H29.1661V39.8141Z" fill="white"/>
</g>
<g style="mix-blend-mode:screen" opacity="0.11">
<path d="M29.0809 39.8141H22.147V39.9739H29.0809V39.8141Z" fill="white"/>
</g>
<g style="mix-blend-mode:screen" opacity="0.13">
<path d="M29.0063 39.8141H22.2322V39.9739H29.0063V39.8141Z" fill="white"/>
</g>
<g style="mix-blend-mode:screen" opacity="0.15">
<path d="M28.9104 39.8141H22.3066V39.9739H28.9104V39.8141Z" fill="white"/>
</g>
<g style="mix-blend-mode:screen" opacity="0.16">
<path d="M28.8358 39.8141H22.3918V39.9739H28.8358V39.8141Z" fill="white"/>
</g>
<g style="mix-blend-mode:screen" opacity="0.18">
<path d="M28.7506 39.8141H22.4771V39.9739H28.7506V39.8141Z" fill="white"/>
</g>
<g style="mix-blend-mode:screen" opacity="0.19">
<path d="M28.676 39.8141H22.5623V39.9739H28.676V39.8141Z" fill="white"/>
</g>
<g style="mix-blend-mode:screen" opacity="0.21">
<path d="M28.5803 39.8141H22.637V39.9739H28.5803V39.8141Z" fill="white"/>
</g>
<g style="mix-blend-mode:screen" opacity="0.23">
<path d="M28.5058 39.8141H22.7222V39.9739H28.5058V39.8141Z" fill="white"/>
</g>
<g style="mix-blend-mode:screen" opacity="0.24">
<path d="M28.4205 39.8141H22.8074V39.9739H28.4205V39.8141Z" fill="white"/>
</g>
<g style="mix-blend-mode:screen" opacity="0.26">
<path d="M28.346 39.8141H22.8926V39.9739H28.346V39.8141Z" fill="white"/>
</g>
<g style="mix-blend-mode:screen" opacity="0.27">
<path d="M28.2608 39.8141H22.9778V39.9739H28.2608V39.8141Z" fill="white"/>
</g>
<g style="mix-blend-mode:screen" opacity="0.29">
<path d="M28.1755 39.8141H23.0522V39.9739H28.1755V39.8141Z" fill="white"/>
</g>
<g style="mix-blend-mode:screen" opacity="0.31">
<path d="M28.0902 39.8141H23.1375V39.9739H28.0902V39.8141Z" fill="white"/>
</g>
<g style="mix-blend-mode:screen" opacity="0.32">
<path d="M28.0157 39.8141H23.2227V39.9739H28.0157V39.8141Z" fill="white"/>
</g>
<g style="mix-blend-mode:screen" opacity="0.34">
<path d="M27.9305 39.8141H23.3079V39.9739H27.9305V39.8141Z" fill="white"/>
</g>
<g style="mix-blend-mode:screen" opacity="0.35">
<path d="M27.8454 39.8141H23.3826V39.9739H27.8454V39.8141Z" fill="white"/>
</g>
<g style="mix-blend-mode:screen" opacity="0.37">
<path d="M27.7602 39.8141H23.4678V39.9739H27.7602V39.8141Z" fill="white"/>
</g>
<g style="mix-blend-mode:screen" opacity="0.39">
<path d="M27.6856 39.8141H23.553V39.9739H27.6856V39.8141Z" fill="white"/>
</g>
<g style="mix-blend-mode:screen" opacity="0.4">
<path d="M27.6004 39.8141H23.6382V39.9739H27.6004V39.8141Z" fill="white"/>
</g>
<g style="mix-blend-mode:screen" opacity="0.42">
<path d="M27.5151 39.8141H23.7126V39.9739H27.5151V39.8141Z" fill="white"/>
</g>
<g style="mix-blend-mode:screen" opacity="0.44">
<path d="M27.4299 39.8141H23.7979V39.9739H27.4299V39.8141Z" fill="white"/>
</g>
<g style="mix-blend-mode:screen" opacity="0.45">
<path d="M27.3553 39.8141H23.8831V39.9739H27.3553V39.8141Z" fill="white"/>
</g>
<g style="mix-blend-mode:screen" opacity="0.47">
<path d="M27.2701 39.8141H23.9683V39.9739H27.2701V39.8141Z" fill="white"/>
</g>
<g style="mix-blend-mode:screen" opacity="0.48">
<path d="M27.1851 39.8141H24.043V39.9739H27.1851V39.8141Z" fill="white"/>
</g>
<g style="mix-blend-mode:screen" opacity="0.5">
<path d="M27.0999 39.8141H24.1282V39.9739H27.0999V39.8141Z" fill="white"/>
</g>
<path d="M27.3874 40.6342H16.651C16.6451 40.6342 16.6404 40.639 16.6404 40.6449V43.1692C16.6404 43.1751 16.6451 43.1798 16.651 43.1798H27.3874C27.3933 43.1798 27.3981 43.1751 27.3981 43.1692V40.6449C27.3981 40.639 27.3933 40.6342 27.3874 40.6342Z" fill="url(#paint23_linear_2278_16802)"/>
<path d="M27.3768 40.6342H16.651C16.651 40.6342 16.6404 40.6342 16.6404 40.6449V43.1585C16.6404 43.1585 16.6404 43.1692 16.651 43.1692H27.3874C27.3874 43.1692 27.3981 43.1692 27.3981 43.1585V40.6449C27.3981 40.6449 27.3981 40.6342 27.3874 40.6342H27.3768ZM27.2809 43.084H16.7469V40.7301H27.2916V43.084H27.2809Z" fill="url(#paint24_linear_2278_16802)"/>
</g>
<g clip-path="url(#clip1_2278_16802)">
<path d="M17.0203 26.4888L19.0668 24.4644C19.2715 24.6581 19.5133 24.8341 19.7738 24.9925C20.2203 25.2566 20.8715 25.5206 21.6715 25.5206C22.7878 25.5206 23.3459 24.9925 23.3459 24.3764C23.3459 23.7603 22.7878 23.2322 21.6715 23.2322H20.3692V20.5037H21.6715C22.6203 20.5037 23.0669 20.0637 23.0669 19.4476C23.0669 18.8314 22.6203 18.3914 21.6715 18.3914C21.0203 18.3914 20.4808 18.6202 20.1087 18.8843C19.8854 19.0251 19.6994 19.1835 19.5319 19.3595L17.4854 17.3352C17.8203 17.0007 18.2296 16.6839 18.6947 16.4198C19.4947 15.9445 20.6482 15.4868 22.1366 15.4868C25.0204 15.4868 26.7879 17.1591 26.7879 19.0075C26.7879 20.0461 26.2483 20.6798 25.6716 21.0846C25.3553 21.3135 24.9832 21.5071 24.5553 21.6479C25.039 21.8064 25.4669 22.0176 25.8576 22.2993C26.5088 22.7745 27.16 23.5315 27.16 24.7285C27.16 26.7529 25.2995 28.5132 22.0436 28.5132C20.4622 28.5132 19.2156 28.0203 18.3412 27.5098C17.8389 27.2105 17.411 26.8585 17.0203 26.4888Z" fill="#550421"/>
<path fill-rule="evenodd" clip-rule="evenodd" d="M16.5 26.4946L19.0613 23.961L19.3156 24.2016C19.4968 24.373 19.7161 24.5337 19.96 24.6822C20.3664 24.9222 20.9536 25.1588 21.6716 25.1588C22.1766 25.1588 22.5115 25.039 22.7105 24.89C22.9026 24.7461 22.9842 24.5654 22.9842 24.3764C22.9842 24.1875 22.9026 24.0067 22.7105 23.8629C22.5115 23.7138 22.1766 23.5941 21.6716 23.5941H20.0074V20.1419H21.6716C22.0954 20.1419 22.3526 20.0431 22.497 19.9258C22.6317 19.8164 22.7051 19.6615 22.7051 19.4475C22.7051 19.2336 22.6317 19.0787 22.497 18.9693C22.3526 18.852 22.0954 18.7532 21.6716 18.7532C21.1063 18.7532 20.6386 18.952 20.3182 19.1793L20.3102 19.185L20.3018 19.1903C20.1065 19.3135 19.9433 19.4521 19.7942 19.6089L19.5399 19.8763L16.9722 17.3364L17.2298 17.0791C17.5868 16.7226 18.021 16.3866 18.5131 16.1069C19.3573 15.606 20.5729 15.125 22.1367 15.125C25.1449 15.125 27.1498 16.8914 27.1498 19.0075C27.1498 20.1976 26.5215 20.9295 25.8817 21.3793C25.7536 21.4719 25.6175 21.5589 25.4736 21.6395C25.6807 21.747 25.8789 21.8684 26.0693 22.0057L26.0711 22.007C26.7779 22.5229 27.5219 23.3761 27.5219 24.7285C27.5219 27.0258 25.4175 28.875 22.0437 28.875C20.3843 28.875 19.0753 28.3573 18.1589 27.8223L18.1561 27.8207C17.624 27.5037 17.1748 27.1331 16.7717 26.7516L16.5 26.4946ZM25.0619 21.8426C24.8999 21.7702 24.7313 21.7056 24.5554 21.6479C24.7324 21.5897 24.8999 21.5224 25.0578 21.4473C25.2816 21.3409 25.4862 21.2188 25.6717 21.0846C26.2484 20.6798 26.788 20.0461 26.788 19.0075C26.788 17.1591 25.0205 15.4868 22.1367 15.4868C20.6483 15.4868 19.4948 15.9445 18.6948 16.4198C18.346 16.6178 18.0285 16.8456 17.7503 17.0882C17.6576 17.169 17.5692 17.2516 17.4855 17.3352L19.532 19.3595C19.5622 19.3279 19.5929 19.2968 19.6243 19.2662C19.7676 19.1271 19.9257 18.9997 20.1088 18.8842C20.4809 18.6202 21.0204 18.3914 21.6716 18.3914C22.6205 18.3914 23.067 18.8314 23.067 19.4475C23.067 20.0637 22.6205 20.5037 21.6716 20.5037H20.3693V23.2322H21.6716C22.7879 23.2322 23.3461 23.7603 23.3461 24.3764C23.3461 24.9925 22.7879 25.5206 21.6716 25.5206C20.8716 25.5206 20.2204 25.2566 19.7739 24.9925C19.5134 24.8341 19.2716 24.6581 19.0669 24.4644L17.0204 26.4888C17.1075 26.5713 17.1966 26.6529 17.2878 26.7332C17.6057 27.0129 17.9511 27.2773 18.3413 27.5098C19.2158 28.0203 20.4623 28.5132 22.0437 28.5132C25.2996 28.5132 27.1601 26.7528 27.1601 24.7285C27.1601 23.5315 26.5089 22.7745 25.8577 22.2993C25.6091 22.12 25.3455 21.9693 25.0619 21.8426Z" fill="black"/>
<path fill-rule="evenodd" clip-rule="evenodd" d="M16.5 26.4946L19.0613 23.961L19.3156 24.2016C19.4968 24.373 19.7161 24.5337 19.96 24.6822C20.3664 24.9222 20.9536 25.1588 21.6716 25.1588C22.1766 25.1588 22.5115 25.039 22.7105 24.89C22.9026 24.7461 22.9842 24.5654 22.9842 24.3764C22.9842 24.1875 22.9026 24.0067 22.7105 23.8629C22.5115 23.7138 22.1766 23.5941 21.6716 23.5941H20.0074V20.1419H21.6716C22.0954 20.1419 22.3526 20.0431 22.497 19.9258C22.6317 19.8164 22.7051 19.6615 22.7051 19.4475C22.7051 19.2336 22.6317 19.0787 22.497 18.9693C22.3526 18.852 22.0954 18.7532 21.6716 18.7532C21.1063 18.7532 20.6386 18.952 20.3182 19.1793L20.3102 19.185L20.3018 19.1903C20.1065 19.3135 19.9433 19.4521 19.7942 19.6089L19.5399 19.8763L16.9722 17.3364L17.2298 17.0791C17.5868 16.7226 18.021 16.3866 18.5131 16.1069C19.3573 15.606 20.5729 15.125 22.1367 15.125C25.1449 15.125 27.1498 16.8914 27.1498 19.0075C27.1498 20.1976 26.5215 20.9295 25.8817 21.3793C25.7536 21.4719 25.6175 21.5589 25.4736 21.6395C25.6807 21.747 25.8789 21.8684 26.0693 22.0057L26.0711 22.007C26.7779 22.5229 27.5219 23.3761 27.5219 24.7285C27.5219 27.0258 25.4175 28.875 22.0437 28.875C20.3843 28.875 19.0753 28.3573 18.1589 27.8223L18.1561 27.8207C17.624 27.5037 17.1748 27.1331 16.7717 26.7516L16.5 26.4946ZM25.0619 21.8426C24.8999 21.7702 24.7313 21.7056 24.5554 21.6479C24.7324 21.5897 24.8999 21.5224 25.0578 21.4473C25.2816 21.3409 25.4862 21.2188 25.6717 21.0846C26.2484 20.6798 26.788 20.0461 26.788 19.0075C26.788 17.1591 25.0205 15.4868 22.1367 15.4868C20.6483 15.4868 19.4948 15.9445 18.6948 16.4198C18.346 16.6178 18.0285 16.8456 17.7503 17.0882C17.6576 17.169 17.5692 17.2516 17.4855 17.3352L19.532 19.3595C19.5622 19.3279 19.5929 19.2968 19.6243 19.2662C19.7676 19.1271 19.9257 18.9997 20.1088 18.8842C20.4809 18.6202 21.0204 18.3914 21.6716 18.3914C22.6205 18.3914 23.067 18.8314 23.067 19.4475C23.067 20.0637 22.6205 20.5037 21.6716 20.5037H20.3693V23.2322H21.6716C22.7879 23.2322 23.3461 23.7603 23.3461 24.3764C23.3461 24.9925 22.7879 25.5206 21.6716 25.5206C20.8716 25.5206 20.2204 25.2566 19.7739 24.9925C19.5134 24.8341 19.2716 24.6581 19.0669 24.4644L17.0204 26.4888C17.1075 26.5713 17.1966 26.6529 17.2878 26.7332C17.6057 27.0129 17.9511 27.2773 18.3413 27.5098C19.2158 28.0203 20.4623 28.5132 22.0437 28.5132C25.2996 28.5132 27.1601 26.7528 27.1601 24.7285C27.1601 23.5315 26.5089 22.7745 25.8577 22.2993C25.6091 22.12 25.3455 21.9693 25.0619 21.8426Z" fill="url(#paint25_linear_2278_16802)"/>
<path fill-rule="evenodd" clip-rule="evenodd" d="M16.5 26.4946L19.0613 23.961L19.3156 24.2016C19.4968 24.373 19.7161 24.5337 19.96 24.6822C20.3664 24.9222 20.9536 25.1588 21.6716 25.1588C22.1766 25.1588 22.5115 25.039 22.7105 24.89C22.9026 24.7461 22.9842 24.5654 22.9842 24.3764C22.9842 24.1875 22.9026 24.0067 22.7105 23.8629C22.5115 23.7138 22.1766 23.5941 21.6716 23.5941H20.0074V20.1419H21.6716C22.0954 20.1419 22.3526 20.0431 22.497 19.9258C22.6317 19.8164 22.7051 19.6615 22.7051 19.4475C22.7051 19.2336 22.6317 19.0787 22.497 18.9693C22.3526 18.852 22.0954 18.7532 21.6716 18.7532C21.1063 18.7532 20.6386 18.952 20.3182 19.1793L20.3102 19.185L20.3018 19.1903C20.1065 19.3135 19.9433 19.4521 19.7942 19.6089L19.5399 19.8763L16.9722 17.3364L17.2298 17.0791C17.5868 16.7226 18.021 16.3866 18.5131 16.1069C19.3573 15.606 20.5729 15.125 22.1367 15.125C25.1449 15.125 27.1498 16.8914 27.1498 19.0075C27.1498 20.1976 26.5215 20.9295 25.8817 21.3793C25.7536 21.4719 25.6175 21.5589 25.4736 21.6395C25.6807 21.747 25.8789 21.8684 26.0693 22.0057L26.0711 22.007C26.7779 22.5229 27.5219 23.3761 27.5219 24.7285C27.5219 27.0258 25.4175 28.875 22.0437 28.875C20.3843 28.875 19.0753 28.3573 18.1589 27.8223L18.1561 27.8207C17.624 27.5037 17.1748 27.1331 16.7717 26.7516L16.5 26.4946ZM25.0619 21.8426C24.8999 21.7702 24.7313 21.7056 24.5554 21.6479C24.7324 21.5897 24.8999 21.5224 25.0578 21.4473C25.2816 21.3409 25.4862 21.2188 25.6717 21.0846C26.2484 20.6798 26.788 20.0461 26.788 19.0075C26.788 17.1591 25.0205 15.4868 22.1367 15.4868C20.6483 15.4868 19.4948 15.9445 18.6948 16.4198C18.346 16.6178 18.0285 16.8456 17.7503 17.0882C17.6576 17.169 17.5692 17.2516 17.4855 17.3352L19.532 19.3595C19.5622 19.3279 19.5929 19.2968 19.6243 19.2662C19.7676 19.1271 19.9257 18.9997 20.1088 18.8842C20.4809 18.6202 21.0204 18.3914 21.6716 18.3914C22.6205 18.3914 23.067 18.8314 23.067 19.4475C23.067 20.0637 22.6205 20.5037 21.6716 20.5037H20.3693V23.2322H21.6716C22.7879 23.2322 23.3461 23.7603 23.3461 24.3764C23.3461 24.9925 22.7879 25.5206 21.6716 25.5206C20.8716 25.5206 20.2204 25.2566 19.7739 24.9925C19.5134 24.8341 19.2716 24.6581 19.0669 24.4644L17.0204 26.4888C17.1075 26.5713 17.1966 26.6529 17.2878 26.7332C17.6057 27.0129 17.9511 27.2773 18.3413 27.5098C19.2158 28.0203 20.4623 28.5132 22.0437 28.5132C25.2996 28.5132 27.1601 26.7528 27.1601 24.7285C27.1601 23.5315 26.5089 22.7745 25.8577 22.2993C25.6091 22.12 25.3455 21.9693 25.0619 21.8426Z" fill="url(#paint26_diamond_2278_16802)"/>
</g>
<g clip-path="url(#clip2_2278_16802)">
<path d="M17.2987 30.106C17.2987 30.106 17.2242 30.5214 17.4479 31.0859C17.565 31.3629 17.7674 31.6611 18.055 31.9061C18.3426 32.151 18.7154 32.3534 19.0881 32.5238C19.8444 32.854 20.6539 33.131 21.1864 33.4718C21.7403 33.8126 21.9533 34.1961 21.9533 34.1961C21.9746 34.2387 21.9533 34.2813 21.9214 34.3132C21.8787 34.3345 21.8255 34.3132 21.8042 34.2813C21.8042 34.2813 21.7509 34.1961 21.6444 34.0683C21.5379 33.9404 21.3462 33.77 21.0906 33.6103C20.5793 33.2801 19.7698 33.0351 19.0136 32.6623C18.6301 32.4706 18.2574 32.2682 17.9591 32.0019C17.6609 31.7357 17.4585 31.4161 17.3413 31.1179C17.1177 30.5214 17.2135 30.0847 17.2135 30.0847C17.2135 30.0634 17.2348 30.0421 17.2668 30.0421C17.2881 30.0421 17.3094 30.0741 17.3094 30.0954L17.2987 30.106Z" fill="white"/>
<path d="M17.235 30.1699C17.235 30.1699 16.5533 29.5735 17.5013 28.9663L17.235 30.1699Z" fill="white"/>
<path d="M17.2349 30.1699C17.2349 30.1699 18.0976 29.9036 17.5011 28.9663L17.2349 30.1699Z" fill="white"/>
<path d="M17.416 31.0327C17.416 31.0327 17.0538 30.3936 17.9379 30.1699L17.416 31.0327Z" fill="white"/>
<path d="M17.4053 31.0327C17.4053 31.0327 18.1402 31.054 17.9272 30.1699L17.4053 31.0327Z" fill="white"/>
<path d="M17.3308 31.0859C17.3308 31.0859 16.6704 31.4055 16.5 30.5108L17.3308 31.0859Z" fill="white"/>
<path d="M17.3308 31.0859C17.3308 31.0859 17.4053 30.351 16.5 30.5108L17.3308 31.0859Z" fill="white"/>
<path d="M18.0019 31.8954C18.0019 31.8954 17.4055 31.3629 18.2363 30.8303L18.0019 31.8954Z" fill="white"/>
<path d="M18.002 31.8954C18.002 31.8954 18.7688 31.6717 18.2469 30.8303L18.002 31.8954Z" fill="white"/>
<path d="M17.9379 31.9806C17.9379 31.9806 17.3627 32.5345 16.894 31.6718L17.9379 31.9806Z" fill="white"/>
<path d="M17.9379 31.9806C17.9379 31.9806 17.7674 31.2031 16.894 31.6717L17.9379 31.9806Z" fill="white"/>
<path d="M19.0882 32.5984C19.0882 32.5984 18.2574 32.2362 18.9604 31.3735L19.0882 32.5984Z" fill="white"/>
<path d="M19.0881 32.5984C19.0881 32.5984 19.823 32.0871 18.9709 31.3735L19.0881 32.5984Z" fill="white"/>
<path d="M19.0456 32.7156C19.0456 32.7156 18.6302 33.5144 17.8101 32.7582L19.0456 32.7156Z" fill="white"/>
<path d="M19.0456 32.7156C19.0456 32.7156 18.5769 31.9487 17.8101 32.7475L19.0456 32.7156Z" fill="white"/>
<path d="M20.2919 33.067C20.2919 33.067 19.4611 32.854 19.9936 31.938L20.2919 33.067Z" fill="white"/>
<path d="M20.2919 33.067C20.2919 33.067 20.9097 32.4706 19.9937 31.9274L20.2919 33.067Z" fill="white"/>
<path d="M20.2812 33.1735C20.2812 33.1735 20.0043 33.983 19.1309 33.3865L20.2812 33.1735Z" fill="white"/>
<path d="M20.2812 33.1735C20.2812 33.1735 19.7273 32.5132 19.1309 33.3866L20.2812 33.1735Z" fill="white"/>
<path d="M21.2291 33.5676C21.2291 33.5676 20.5794 33.2588 21.1652 32.5771L21.2291 33.5676Z" fill="white"/>
<path d="M21.2292 33.5676C21.2292 33.5676 21.8363 33.1736 21.1653 32.5771L21.2292 33.5676Z" fill="white"/>
<path d="M21.1652 33.6529C21.1652 33.6529 20.8989 34.3239 20.1853 33.7913L21.1652 33.6529Z" fill="white"/>
<path d="M21.1652 33.6635C21.1652 33.6635 20.7285 33.0883 20.1853 33.7913L21.1652 33.6635Z" fill="white"/>
<path d="M26.5654 30.0954C26.5654 30.0954 26.6506 30.5214 26.4376 31.1285C26.331 31.4268 26.118 31.7463 25.8198 32.0126C25.5215 32.2895 25.1488 32.4919 24.7653 32.673C24.0091 33.0351 23.1996 33.2907 22.6883 33.6209C22.4327 33.7807 22.241 33.9404 22.1345 34.0789C22.028 34.2067 21.9747 34.2919 21.9747 34.2919C21.9534 34.3345 21.9002 34.3452 21.8575 34.3239C21.8149 34.3026 21.8043 34.2493 21.8256 34.2067C21.8256 34.2067 22.0493 33.8233 22.5925 33.4824C23.1357 33.131 23.9345 32.8647 24.6908 32.5345C25.0635 32.3641 25.4363 32.1617 25.7239 31.9167C26.0115 31.6717 26.2139 31.3735 26.331 31.0966C26.5547 30.5321 26.4802 30.1167 26.4802 30.1167C26.4802 30.0954 26.4908 30.0741 26.5121 30.0634C26.5334 30.0634 26.5547 30.0741 26.5654 30.0954Z" fill="white"/>
<path d="M26.5334 30.1699C26.5334 30.1699 27.215 29.5735 26.2671 28.9663L26.5334 30.1699Z" fill="white"/>
<path d="M26.5333 30.1699C26.5333 30.1699 25.6706 29.9036 26.267 28.9663L26.5333 30.1699Z" fill="white"/>
<path d="M26.3522 31.0327C26.3522 31.0327 26.7144 30.3936 25.8303 30.1699L26.3522 31.0327Z" fill="white"/>
<path d="M26.3629 31.0327C26.3629 31.0327 25.628 31.054 25.841 30.1699L26.3629 31.0327Z" fill="white"/>
<path d="M26.4375 31.0859C26.4375 31.0859 27.0979 31.4055 27.2683 30.5108L26.4375 31.0859Z" fill="white"/>
<path d="M26.4375 31.0859C26.4375 31.0859 26.363 30.351 27.2683 30.5108L26.4375 31.0859Z" fill="white"/>
<path d="M25.7666 31.8954C25.7666 31.8954 26.363 31.3629 25.5322 30.8303L25.7666 31.8954Z" fill="white"/>
<path d="M25.7665 31.8954C25.7665 31.8954 24.9996 31.6717 25.5215 30.8303L25.7665 31.8954Z" fill="white"/>
<path d="M25.8303 31.9806C25.8303 31.9806 26.4055 32.5345 26.8741 31.6718L25.8303 31.9806Z" fill="white"/>
<path d="M25.8303 31.9806C25.8303 31.9806 26.0007 31.2031 26.8741 31.6717L25.8303 31.9806Z" fill="white"/>
<path d="M24.6799 32.5984C24.6799 32.5984 25.5107 32.2363 24.8077 31.3735L24.6799 32.5984Z" fill="white"/>
<path d="M24.68 32.5984C24.68 32.5984 23.9451 32.0871 24.7972 31.3735L24.68 32.5984Z" fill="white"/>
<path d="M24.7227 32.7156C24.7227 32.7156 25.1381 33.5144 25.9582 32.7582L24.7227 32.7156Z" fill="white"/>
<path d="M24.7227 32.7156C24.7227 32.7156 25.1913 31.9487 25.9582 32.7475L24.7227 32.7156Z" fill="white"/>
<path d="M23.4763 33.067C23.4763 33.067 24.3071 32.854 23.7746 31.938L23.4763 33.067Z" fill="white"/>
<path d="M23.4764 33.067C23.4764 33.067 22.8587 32.4706 23.7747 31.9274L23.4764 33.067Z" fill="white"/>
<path d="M23.4871 33.1735C23.4871 33.1735 23.764 33.983 24.6374 33.3865L23.4871 33.1735Z" fill="white"/>
<path d="M23.4871 33.1735C23.4871 33.1735 24.0409 32.5132 24.6374 33.3866L23.4871 33.1735Z" fill="white"/>
<path d="M22.5393 33.5676C22.5393 33.5676 23.189 33.2588 22.6032 32.5771L22.5393 33.5676Z" fill="white"/>
<path d="M22.5392 33.5676C22.5392 33.5676 21.9321 33.1736 22.6031 32.5771L22.5392 33.5676Z" fill="white"/>
<path d="M22.603 33.6529C22.603 33.6529 22.8693 34.3239 23.5829 33.7913L22.603 33.6529Z" fill="white"/>
<path d="M22.603 33.6635C22.603 33.6635 23.0397 33.0883 23.5829 33.7913L22.603 33.6635Z" fill="white"/>
<path d="M21.8897 9.72086L22.1133 10.328L22.7737 10.3706L22.2518 10.7647L22.4329 11.4037L21.8897 11.0309L21.3358 11.4037L21.5169 10.7647L21.0056 10.3706L21.6553 10.328L21.8897 9.72086Z" fill="white"/>
<g style="mix-blend-mode:screen" opacity="0.3">
<path d="M22.4861 11.4783L21.8897 11.0629L21.2932 11.4783L21.4849 10.7647L20.9204 10.328L21.6447 10.2854L21.9003 9.625L22.1559 10.2854L22.8802 10.328L22.3157 10.7647L22.5074 11.4783H22.4861ZM21.8897 10.9883H21.911L22.3796 11.3292L22.2199 10.7434L22.6885 10.3919L22.1027 10.3599L21.9003 9.81672L21.6979 10.3599H21.6766L21.1015 10.3919L21.5701 10.7434L21.4104 11.3292L21.9003 10.9883H21.8897Z" fill="white"/>
</g>
<path d="M19.6635 10.4025L19.8446 10.8818L20.3665 10.9138L19.9618 11.2227L20.1002 11.7339L19.6635 11.4357L19.2375 11.7339L19.3759 11.2227L18.9712 10.9138L19.4824 10.8818L19.6635 10.4025Z" fill="white"/>
<g style="mix-blend-mode:screen" opacity="0.3">
<path d="M20.1428 11.7978L19.6635 11.4676L19.1842 11.7978L19.3333 11.2333L18.886 10.8925L19.4611 10.8605L19.6635 10.3386L19.8659 10.8605L20.4411 10.8925L19.9937 11.2333L20.1535 11.7978H20.1428ZM19.6635 11.4037H19.6742L20.047 11.67L19.9192 11.212L20.2813 10.9351L19.8126 10.9031L19.6529 10.4771L19.4931 10.9031H19.4718L19.0245 10.9351L19.3972 11.212L19.2694 11.67L19.6635 11.4037Z" fill="white"/>
</g>
<path d="M24.1051 10.4025L24.2861 10.8818L24.8081 10.9138L24.3927 11.2227L24.5311 11.7339L24.1051 11.4357L23.6684 11.7339L23.8068 11.2227L23.4021 10.9138L23.924 10.8818L24.1051 10.4025Z" fill="white"/>
<g style="mix-blend-mode:screen" opacity="0.3">
<path d="M24.5738 11.7978L24.0945 11.4676L23.6152 11.7978L23.775 11.2333L23.3276 10.8925L23.9028 10.8605L24.1052 10.3386L24.3075 10.8605L24.8827 10.8925L24.4354 11.2333L24.5845 11.7978H24.5738ZM24.0945 11.4037H24.1052L24.478 11.67L24.3501 11.212L24.7229 10.9351L24.2543 10.9031L24.0945 10.4771L23.9348 10.9031H23.9135L23.4661 10.9351L23.8282 11.212L23.7004 11.67L24.0945 11.4037Z" fill="white"/>
</g>
</g>
<ellipse cx="27.9667" cy="13.2" rx="4.35832" ry="4.125" fill="url(#paint27_radial_2278_16802)"/>
<ellipse cx="1.2224" cy="9.7792" rx="1.2224" ry="9.7792" transform="matrix(0.726279 0.6874 -0.726279 0.6874 34.1812 5.63754)" fill="url(#paint28_radial_2278_16802)" fill-opacity="0.5"/>
<ellipse cx="1.2224" cy="9.7792" rx="1.2224" ry="9.7792" transform="matrix(-0.72628 0.687399 -0.726279 -0.6874 35.957 19.0815)" fill="url(#paint29_radial_2278_16802)" fill-opacity="0.5"/>
<ellipse cx="0.407467" cy="9.7792" rx="0.407467" ry="9.7792" transform="matrix(0.72628 0.6874 -0.72628 0.6874 34.7732 6.19742)" fill="url(#paint30_radial_2278_16802)"/>
<ellipse cx="0.407467" cy="9.7792" rx="0.407467" ry="9.7792" transform="matrix(-0.72628 0.6874 -0.726279 -0.6874 35.365 19.6428)" fill="url(#paint31_radial_2278_16802)"/>
<defs>
<linearGradient id="paint0_linear_2278_16802" x1="22.0192" y1="38.6531" x2="22.0192" y2="0.543208" gradientUnits="userSpaceOnUse">
<stop stop-color="#550522"/>
<stop offset="0.52" stop-color="#FFBF73"/>
<stop offset="1" stop-color="#550322"/>
</linearGradient>
<linearGradient id="paint1_linear_2278_16802" x1="10.175" y1="22.7829" x2="11.2402" y2="1.38465" gradientUnits="userSpaceOnUse">
<stop stop-color="#550522"/>
<stop offset="0.52" stop-color="#FFBF73"/>
<stop offset="1" stop-color="#550322"/>
</linearGradient>
<linearGradient id="paint2_linear_2278_16802" x1="21.9873" y1="4.88889" x2="25.417" y2="4.88889" gradientUnits="userSpaceOnUse">
<stop stop-color="#7B2D34"/>
<stop offset="1" stop-color="#FFBF73"/>
</linearGradient>
<linearGradient id="paint3_linear_2278_16802" x1="27.4406" y1="35.5323" x2="26.2583" y2="34.8932" gradientUnits="userSpaceOnUse">
<stop stop-color="#D2D4DC"/>
<stop offset="0.11" stop-color="#C5C8D3"/>
<stop offset="1" stop-color="#606A8E"/>
</linearGradient>
<linearGradient id="paint4_linear_2278_16802" x1="17.812" y1="10.9281" x2="17.812" y2="8.6168" gradientUnits="userSpaceOnUse">
<stop stop-color="#FFE490"/>
<stop offset="0.32" stop-color="#DCBB6C"/>
<stop offset="1" stop-color="#8A5917"/>
</linearGradient>
<linearGradient id="paint5_linear_2278_16802" x1="20.8048" y1="6.25225" x2="20.8048" y2="2.98234" gradientUnits="userSpaceOnUse">
<stop stop-color="#FFE490"/>
<stop offset="0.32" stop-color="#DCBB6C"/>
<stop offset="1" stop-color="#8A5917"/>
</linearGradient>
<linearGradient id="paint6_linear_2278_16802" x1="19.8356" y1="8.11619" x2="19.8356" y2="5.12321" gradientUnits="userSpaceOnUse">
<stop stop-color="#606A8E"/>
<stop offset="0.89" stop-color="#C5C8D3"/>
<stop offset="1" stop-color="#D2D4DC"/>
</linearGradient>
<linearGradient id="paint7_linear_2278_16802" x1="30.8703" y1="32.4648" x2="29.3259" y2="29.2694" gradientUnits="userSpaceOnUse">
<stop stop-color="#606A8E"/>
<stop offset="0.89" stop-color="#C5C8D3"/>
<stop offset="1" stop-color="#D2D4DC"/>
</linearGradient>
<linearGradient id="paint8_linear_2278_16802" x1="27.2702" y1="37.9608" x2="26.1519" y2="35.6388" gradientUnits="userSpaceOnUse">
<stop stop-color="#606A8E"/>
<stop offset="0.89" stop-color="#C5C8D3"/>
<stop offset="1" stop-color="#D2D4DC"/>
</linearGradient>
<linearGradient id="paint9_linear_2278_16802" x1="14.7551" y1="32.0281" x2="13.4131" y2="29.2481" gradientUnits="userSpaceOnUse">
<stop stop-color="#606A8E"/>
<stop offset="1" stop-color="#A4A9BC"/>
</linearGradient>
<linearGradient id="paint10_linear_2278_16802" x1="12.4651" y1="37.2471" x2="31.6052" y2="9.57539" gradientUnits="userSpaceOnUse">
<stop stop-color="#823637"/>
<stop offset="0.52" stop-color="#FFBF73"/>
<stop offset="1" stop-color="#6F212E"/>
</linearGradient>
<linearGradient id="paint11_linear_2278_16802" x1="17.0131" y1="38.5786" x2="10.2283" y2="22.9426" gradientUnits="userSpaceOnUse">
<stop stop-color="#550522"/>
<stop offset="0.52" stop-color="#FFBF73"/>
<stop offset="1" stop-color="#550322"/>
</linearGradient>
<linearGradient id="paint12_linear_2278_16802" x1="10.175" y1="30.718" x2="19.399" y2="30.718" gradientUnits="userSpaceOnUse">
<stop stop-color="#550522"/>
<stop offset="0.52" stop-color="#FFBF73"/>
<stop offset="1" stop-color="#550322"/>
</linearGradient>
<linearGradient id="paint13_linear_2278_16802" x1="21.8806" y1="11.4394" x2="33.8525" y2="11.4394" gradientUnits="userSpaceOnUse">
<stop stop-color="#550522"/>
<stop offset="0.52" stop-color="#FFBF73"/>
<stop offset="1" stop-color="#550322"/>
</linearGradient>
<linearGradient id="paint14_linear_2278_16802" x1="10.175" y1="22.7829" x2="11.2402" y2="0.181071" gradientUnits="userSpaceOnUse">
<stop stop-color="#550522"/>
<stop offset="0.52" stop-color="#FFBF73"/>
<stop offset="1" stop-color="#550322"/>
</linearGradient>
<linearGradient id="paint15_linear_2278_16802" x1="27.0146" y1="38.5786" x2="33.7888" y2="22.9426" gradientUnits="userSpaceOnUse">
<stop stop-color="#550522"/>
<stop offset="0.52" stop-color="#FFBF73"/>
<stop offset="1" stop-color="#550322"/>
</linearGradient>
<linearGradient id="paint16_linear_2278_16802" x1="24.6606" y1="38.5786" x2="33.9484" y2="22.9639" gradientUnits="userSpaceOnUse">
<stop stop-color="#FFBF73"/>
<stop offset="0.5" stop-color="#550522"/>
<stop offset="1" stop-color="#EEAC6B"/>
</linearGradient>
<linearGradient id="paint17_linear_2278_16802" x1="16.1504" y1="22.7829" x2="16.1504" y2="1.38465" gradientUnits="userSpaceOnUse">
<stop stop-color="#550522"/>
<stop offset="0.52" stop-color="#FFBF73"/>
<stop offset="1" stop-color="#550322"/>
</linearGradient>
<linearGradient id="paint18_linear_2278_16802" x1="10.175" y1="39.2389" x2="11.2401" y2="39.2389" gradientUnits="userSpaceOnUse">
<stop stop-color="#000312"/>
<stop offset="0.61" stop-color="#2F3242"/>
<stop offset="1" stop-color="#4A4D5E"/>
</linearGradient>
<linearGradient id="paint19_linear_2278_16802" x1="22.0191" y1="39.9739" x2="22.0191" y2="38.5786" gradientUnits="userSpaceOnUse">
<stop stop-color="#000312"/>
<stop offset="0.52" stop-color="#84858D"/>
<stop offset="1" stop-color="white"/>
</linearGradient>
<linearGradient id="paint20_linear_2278_16802" x1="10.175" y1="39.2283" x2="11.2401" y2="39.2283" gradientUnits="userSpaceOnUse">
<stop stop-color="#202330"/>
<stop offset="0.41" stop-color="#646878"/>
<stop offset="0.76" stop-color="#9B9FB2"/>
<stop offset="0.91" stop-color="#6B6E79"/>
<stop offset="1" stop-color="#55575E"/>
</linearGradient>
<linearGradient id="paint21_linear_2278_16802" x1="11.1655" y1="41.9017" x2="32.5957" y2="41.9017" gradientUnits="userSpaceOnUse">
<stop stop-color="#000312"/>
<stop offset="0.61" stop-color="#2F3242"/>
<stop offset="1" stop-color="#4A4D5E"/>
</linearGradient>
<linearGradient id="paint22_linear_2278_16802" x1="10.175" y1="41.9017" x2="11.2401" y2="41.9017" gradientUnits="userSpaceOnUse">
<stop stop-color="#202330"/>
<stop offset="0.4" stop-color="#646878"/>
<stop offset="0.74" stop-color="#9B9FB2"/>
<stop offset="0.91" stop-color="#6B6E79"/>
<stop offset="1" stop-color="#55575E"/>
</linearGradient>
<linearGradient id="paint23_linear_2278_16802" x1="26.8016" y1="39.3667" x2="16.4274" y2="44.8627" gradientUnits="userSpaceOnUse">
<stop stop-color="#823637"/>
<stop offset="0.52" stop-color="#FFBF73"/>
<stop offset="1" stop-color="#6F212E"/>
</linearGradient>
<linearGradient id="paint24_linear_2278_16802" x1="27.3768" y1="40.7833" x2="16.6936" y2="43.0094" gradientUnits="userSpaceOnUse">
<stop stop-color="#823637"/>
<stop offset="0.52" stop-color="#FFBF73"/>
<stop offset="1" stop-color="#6F212E"/>
</linearGradient>
<linearGradient id="paint25_linear_2278_16802" x1="28.1053" y1="14.2014" x2="20.2332" y2="29.4731" gradientUnits="userSpaceOnUse">
<stop stop-color="#FFAD4C"/>
<stop offset="1" stop-color="#C15E02"/>
</linearGradient>
<radialGradient id="paint26_diamond_2278_16802" cx="0" cy="0" r="1" gradientUnits="userSpaceOnUse" gradientTransform="translate(21.8698 28.5132) rotate(-90) scale(12.1308 14.3331)">
<stop stop-color="#934600"/>
<stop offset="0.831495" stop-color="#FFBF74"/>
</radialGradient>
<radialGradient id="paint27_radial_2278_16802" cx="0" cy="0" r="1" gradientUnits="userSpaceOnUse" gradientTransform="translate(27.9667 13.2) rotate(90) scale(4.125 4.35832)">
<stop stop-color="white" stop-opacity="0.77"/>
<stop offset="1" stop-color="white" stop-opacity="0"/>
</radialGradient>
<radialGradient id="paint28_radial_2278_16802" cx="0" cy="0" r="1" gradientUnits="userSpaceOnUse" gradientTransform="translate(1.2224 9.7792) rotate(90) scale(9.7792 1.2224)">
<stop stop-color="white"/>
<stop offset="1" stop-color="white" stop-opacity="0"/>
</radialGradient>
<radialGradient id="paint29_radial_2278_16802" cx="0" cy="0" r="1" gradientUnits="userSpaceOnUse" gradientTransform="translate(1.2224 9.7792) rotate(90) scale(9.7792 1.2224)">
<stop stop-color="white"/>
<stop offset="1" stop-color="white" stop-opacity="0"/>
</radialGradient>
<radialGradient id="paint30_radial_2278_16802" cx="0" cy="0" r="1" gradientUnits="userSpaceOnUse" gradientTransform="translate(0.407467 9.7792) rotate(90) scale(9.7792 0.407467)">
<stop stop-color="white"/>
<stop offset="1" stop-color="white" stop-opacity="0"/>
</radialGradient>
<radialGradient id="paint31_radial_2278_16802" cx="0" cy="0" r="1" gradientUnits="userSpaceOnUse" gradientTransform="translate(0.407467 9.7792) rotate(90) scale(9.7792 0.407467)">
<stop stop-color="white"/>
<stop offset="1" stop-color="white" stop-opacity="0"/>
</radialGradient>
<clipPath id="clip0_2278_16802">
<rect width="23.6776" height="44" fill="white" transform="translate(10.175)"/>
</clipPath>
<clipPath id="clip1_2278_16802">
<rect width="11.0219" height="13.75" fill="white" transform="translate(16.5 15.125)"/>
</clipPath>
<clipPath id="clip2_2278_16802">
<rect width="10.7683" height="24.7095" fill="white" transform="translate(16.5 9.625)"/>
</clipPath>
</defs>
</svg>
