<svg width="54" height="54" viewBox="0 0 54 54" fill="none" xmlns="http://www.w3.org/2000/svg">
<g clip-path="url(#clip0_2278_15632)">
<path d="M32.8739 47.3203H20.4927L12.3333 28.0784L26.6897 0L41.0333 28.0784L32.8739 47.3203Z" fill="black"/>
<path d="M12.3333 28.0784L26.6897 0L41.0333 28.0784L26.6897 5.54248L12.3333 28.0784Z" fill="url(#paint0_linear_2278_15632)"/>
<path d="M26.6511 0.0915033V5.62091L26.6899 5.54248L30.8083 12.0131L28.9105 4.35294L26.6899 0L26.6511 0.0915033Z" fill="url(#paint1_linear_2278_15632)"/>
<path style="mix-blend-mode:multiply" opacity="0.3" d="M21.2287 14.1307L26.6511 5.62091L24.9469 3.38562L20.2087 12.6928L21.2287 14.1307Z" fill="url(#paint2_linear_2278_15632)"/>
<path style="mix-blend-mode:multiply" opacity="0.3" d="M21.2287 14.1307L26.6511 5.62091L24.9469 3.38562L20.2087 12.6928L21.2287 14.1307Z" fill="url(#paint3_linear_2278_15632)"/>
<path style="mix-blend-mode:multiply" opacity="0.2" d="M23.6944 10.2484L26.6509 5.6209L24.9467 3.39868L22.1968 8.79737L23.6944 10.2484Z" fill="url(#paint4_linear_2278_15632)"/>
<path style="mix-blend-mode:multiply" opacity="0.3" d="M41.0333 28.0785L38.2317 22.5883L38.8772 24.6928L41.0333 28.0785Z" fill="url(#paint5_linear_2278_15632)"/>
<path style="mix-blend-mode:multiply" opacity="0.4" d="M38.7095 33.5556L41.0334 28.0784L39.0839 31.4379L38.7095 33.5556Z" fill="url(#paint6_linear_2278_15632)"/>
<path style="mix-blend-mode:multiply" opacity="0.4" d="M34.7717 38.8497L29.8528 47.3203H31.5441L34.7717 38.8497Z" fill="url(#paint7_linear_2278_15632)"/>
<path opacity="0.3" d="M21.6675 13.4248L22.61 11.9608L21.3705 10.3922L20.583 11.9477L21.6675 13.4248Z" fill="url(#paint8_linear_2278_15632)"/>
<path opacity="0.2" d="M25.3213 7.68626L26.651 5.6209L24.9469 3.39868L23.7849 5.67319L25.3213 7.68626Z" fill="url(#paint9_linear_2278_15632)"/>
<path style="mix-blend-mode:multiply" opacity="0.3" d="M23.5782 6.05231L22.9585 7.28107L23.8881 9.97388L25.1275 8.00002L23.5782 6.05231Z" fill="url(#paint10_linear_2278_15632)"/>
<path style="mix-blend-mode:multiply" opacity="0.5" d="M36.9536 35.098L35.2236 38.0784L36.037 38.5751L35.5206 40.915H35.598L37.8316 35.634L36.9536 35.098Z" fill="url(#paint11_linear_2278_15632)"/>
<path style="mix-blend-mode:multiply" opacity="0.3" d="M31.8281 47.3202L33.5839 42.7189L32.5381 44.2353L31.0405 47.3202H31.8281Z" fill="url(#paint12_linear_2278_15632)"/>
<path style="mix-blend-mode:multiply" opacity="0.3" d="M15.7029 36.0392L17.2521 39.7778L18.1559 38.1046L16.7099 35.6078L15.7029 36.0392Z" fill="url(#paint13_linear_2278_15632)"/>
<path d="M26.6897 5.54248L12.3333 28.0784L23.5525 47.3203H29.8528L41.0333 28.0784L26.6897 5.54248Z" fill="url(#paint14_linear_2278_15632)"/>
<path d="M12.9271 29.098L12.3333 28.0784L20.4927 47.3203H20.6605L12.9271 29.098Z" fill="url(#paint15_linear_2278_15632)"/>
<path style="mix-blend-mode:multiply" opacity="0.2" d="M23.333 47.3203H23.5138L12.3333 28.0784L12.8239 29.2288L23.333 47.3203Z" fill="url(#paint16_linear_2278_15632)"/>
<path d="M39.3292 25.3987L41.0334 28.0784L26.6898 0L26.522 0.326797L39.3292 25.3987Z" fill="url(#paint17_linear_2278_15632)"/>
<path d="M12.3333 28.0784L12.6689 27.4118L26.5606 5.24183V0.235294L26.6897 0L26.8188 0.235294V5.24183L40.6847 27.4118L41.0333 28.0784L26.6897 5.54248L12.3333 28.0784Z" fill="url(#paint18_linear_2278_15632)"/>
<path d="M40.4395 29.098L41.0333 28.0784L32.8739 47.3203H32.7061L40.4395 29.098Z" fill="url(#paint19_linear_2278_15632)"/>
<path d="M40.7363 28.7843L41.0333 28.0784L29.8528 47.3203H30.0852L40.7363 28.7843Z" fill="url(#paint20_linear_2278_15632)"/>
<path style="mix-blend-mode:screen" opacity="0.7" d="M26.8318 0.27451L26.6897 0L12.3333 28.0784L13.0821 26.915L26.8318 0.27451Z" fill="url(#paint21_linear_2278_15632)"/>
<g style="mix-blend-mode:screen" opacity="0.1">
<path d="M16.4131 21.7516L34.2425 39.7909L41.0334 28.1046V28.0915L23.6042 10.4575L16.4131 21.7516Z" fill="white"/>
<path d="M12.3721 28.1046L23.5784 47.3203H29.8658L30.7954 45.7124L12.7723 27.4641L12.3721 28.1046Z" fill="white"/>
</g>
<path d="M34.7974 47.2811H18.5689C18.4691 47.2811 18.3882 47.363 18.3882 47.4641V48.8497C18.3882 48.9508 18.4691 49.0327 18.5689 49.0327H34.7974C34.8973 49.0327 34.9782 48.9508 34.9782 48.8497V47.4641C34.9782 47.363 34.8973 47.2811 34.7974 47.2811Z" fill="url(#paint22_linear_2278_15632)"/>
<path style="mix-blend-mode:multiply" opacity="0.2" d="M34.7974 47.2811H18.5689C18.4691 47.2811 18.3882 47.363 18.3882 47.4641V48.8497C18.3882 48.9508 18.4691 49.0327 18.5689 49.0327H34.7974C34.8973 49.0327 34.9782 48.9508 34.9782 48.8497V47.4641C34.9782 47.363 34.8973 47.2811 34.7974 47.2811Z" fill="url(#paint23_linear_2278_15632)"/>
<path style="mix-blend-mode:screen" opacity="0.5" d="M34.7974 47.2811H18.5689C18.4656 47.2811 18.3882 47.3595 18.3882 47.4641V48.8497C18.3882 48.9412 18.4527 49.0196 18.5431 49.0327V47.6209C18.5431 47.5164 18.6206 47.4379 18.7239 47.4379H34.6425C34.7458 47.4379 34.8233 47.5164 34.8233 47.6209V49.0327C34.9136 49.0327 34.9782 48.9412 34.9782 48.8497V47.4641C34.9782 47.3595 34.9007 47.2811 34.7974 47.2811Z" fill="url(#paint24_linear_2278_15632)"/>
<path d="M40.1812 54H13.1853L15.6641 49.0066C15.7029 48.9281 15.7932 48.8759 15.8836 48.8759H37.4829C37.5733 48.8759 37.6507 48.9281 37.7024 49.0066L40.1812 54Z" fill="url(#paint25_linear_2278_15632)"/>
<path style="mix-blend-mode:screen" opacity="0.5" d="M15.7803 49.1896C15.819 49.1112 15.8965 49.0589 15.9869 49.0589H37.3796C37.47 49.0589 37.5474 49.1112 37.5862 49.1896L40.0134 53.987H40.1683L37.6895 48.9935C37.6507 48.9151 37.5604 48.8628 37.47 48.8628H15.8836C15.7932 48.8628 15.7158 48.9151 15.6641 48.9935L13.1853 53.987H13.3402L15.7674 49.1896H15.7803Z" fill="url(#paint26_linear_2278_15632)"/>
<g style="mix-blend-mode:screen" opacity="0.02">
<path d="M35.8561 48.8628H26.2378V49.0589H35.8561V48.8628Z" fill="white"/>
</g>
<g style="mix-blend-mode:screen" opacity="0.03">
<path d="M35.7528 48.8628H26.3411V49.0589H35.7528V48.8628Z" fill="white"/>
</g>
<g style="mix-blend-mode:screen" opacity="0.05">
<path d="M35.6624 48.8628H26.4443V49.0589H35.6624V48.8628Z" fill="white"/>
</g>
<g style="mix-blend-mode:screen" opacity="0.06">
<path d="M35.5591 48.8628H26.5476V49.0589H35.5591V48.8628Z" fill="white"/>
</g>
<g style="mix-blend-mode:screen" opacity="0.08">
<path d="M35.4558 48.8628H26.6379V49.0589H35.4558V48.8628Z" fill="white"/>
</g>
<g style="mix-blend-mode:screen" opacity="0.1">
<path d="M35.3528 48.8628H26.7415V49.0589H35.3528V48.8628Z" fill="white"/>
</g>
<g style="mix-blend-mode:screen" opacity="0.11">
<path d="M35.2495 48.8628H26.8447V49.0589H35.2495V48.8628Z" fill="white"/>
</g>
<g style="mix-blend-mode:screen" opacity="0.13">
<path d="M35.1591 48.8628H26.948V49.0589H35.1591V48.8628Z" fill="white"/>
</g>
<g style="mix-blend-mode:screen" opacity="0.15">
<path d="M35.0428 48.8628H27.0383V49.0589H35.0428V48.8628Z" fill="white"/>
</g>
<g style="mix-blend-mode:screen" opacity="0.16">
<path d="M34.9525 48.8628H27.1416V49.0589H34.9525V48.8628Z" fill="white"/>
</g>
<g style="mix-blend-mode:screen" opacity="0.18">
<path d="M34.8492 48.8628H27.2449V49.0589H34.8492V48.8628Z" fill="white"/>
</g>
<g style="mix-blend-mode:screen" opacity="0.19">
<path d="M34.7588 48.8628H27.3481V49.0589H34.7588V48.8628Z" fill="white"/>
</g>
<g style="mix-blend-mode:screen" opacity="0.21">
<path d="M34.6425 48.8628H27.4385V49.0589H34.6425V48.8628Z" fill="white"/>
</g>
<g style="mix-blend-mode:screen" opacity="0.23">
<path d="M34.5522 48.8628H27.5417V49.0589H34.5522V48.8628Z" fill="white"/>
</g>
<g style="mix-blend-mode:screen" opacity="0.24">
<path d="M34.4489 48.8628H27.645V49.0589H34.4489V48.8628Z" fill="white"/>
</g>
<g style="mix-blend-mode:screen" opacity="0.26">
<path d="M34.3585 48.8628H27.7483V49.0589H34.3585V48.8628Z" fill="white"/>
</g>
<g style="mix-blend-mode:screen" opacity="0.27">
<path d="M34.2552 48.8628H27.8516V49.0589H34.2552V48.8628Z" fill="white"/>
</g>
<g style="mix-blend-mode:screen" opacity="0.29">
<path d="M34.1521 48.8628H27.9421V49.0589H34.1521V48.8628Z" fill="white"/>
</g>
<g style="mix-blend-mode:screen" opacity="0.31">
<path d="M34.0488 48.8628H28.0454V49.0589H34.0488V48.8628Z" fill="white"/>
</g>
<g style="mix-blend-mode:screen" opacity="0.32">
<path d="M33.9584 48.8628H28.1487V49.0589H33.9584V48.8628Z" fill="white"/>
</g>
<g style="mix-blend-mode:screen" opacity="0.34">
<path d="M33.8551 48.8628H28.252V49.0589H33.8551V48.8628Z" fill="white"/>
</g>
<g style="mix-blend-mode:screen" opacity="0.35">
<path d="M33.7518 48.8628H28.3423V49.0589H33.7518V48.8628Z" fill="white"/>
</g>
<g style="mix-blend-mode:screen" opacity="0.37">
<path d="M33.6485 48.8628H28.4456V49.0589H33.6485V48.8628Z" fill="white"/>
</g>
<g style="mix-blend-mode:screen" opacity="0.39">
<path d="M33.5581 48.8628H28.5488V49.0589H33.5581V48.8628Z" fill="white"/>
</g>
<g style="mix-blend-mode:screen" opacity="0.4">
<path d="M33.4548 48.8628H28.6521V49.0589H33.4548V48.8628Z" fill="white"/>
</g>
<g style="mix-blend-mode:screen" opacity="0.42">
<path d="M33.3515 48.8628H28.7424V49.0589H33.3515V48.8628Z" fill="white"/>
</g>
<g style="mix-blend-mode:screen" opacity="0.44">
<path d="M33.2482 48.8628H28.8457V49.0589H33.2482V48.8628Z" fill="white"/>
</g>
<g style="mix-blend-mode:screen" opacity="0.45">
<path d="M33.1578 48.8628H28.949V49.0589H33.1578V48.8628Z" fill="white"/>
</g>
<g style="mix-blend-mode:screen" opacity="0.47">
<path d="M33.0545 48.8628H29.0522V49.0589H33.0545V48.8628Z" fill="white"/>
</g>
<g style="mix-blend-mode:screen" opacity="0.48">
<path d="M32.9512 48.8628H29.1426V49.0589H32.9512V48.8628Z" fill="white"/>
</g>
<g style="mix-blend-mode:screen" opacity="0.5">
<path d="M32.8481 48.8628H29.2461V49.0589H32.8481V48.8628Z" fill="white"/>
</g>
<path d="M33.1966 49.8693H20.1828C20.1757 49.8693 20.1699 49.8751 20.1699 49.8823V52.9804C20.1699 52.9876 20.1757 52.9934 20.1828 52.9934H33.1966C33.2038 52.9934 33.2095 52.9876 33.2095 52.9804V49.8823C33.2095 49.8751 33.2038 49.8693 33.1966 49.8693Z" fill="url(#paint27_linear_2278_15632)"/>
<path d="M33.1837 49.8693H20.1828C20.1828 49.8693 20.1699 49.8693 20.1699 49.8823V52.9673C20.1699 52.9673 20.1699 52.9804 20.1828 52.9804H33.1966C33.1966 52.9804 33.2095 52.9804 33.2095 52.9673V49.8823C33.2095 49.8823 33.2095 49.8693 33.1966 49.8693H33.1837ZM33.0675 52.8758H20.299V49.9869H33.0804V52.8758H33.0675Z" fill="url(#paint28_linear_2278_15632)"/>
<path d="M21.1254 37.8486C21.1254 37.8486 21.035 38.3584 21.3061 39.0512C21.4481 39.3911 21.6934 39.7571 22.042 40.0578C22.3906 40.3584 22.8424 40.6068 23.2943 40.816C24.211 41.2212 25.1922 41.5611 25.8377 41.9794C26.509 42.3977 26.7672 42.8682 26.7672 42.8682C26.7931 42.9205 26.7672 42.9728 26.7285 43.012C26.6769 43.0382 26.6123 43.012 26.5865 42.9728C26.5865 42.9728 26.5219 42.8682 26.3928 42.7114C26.2637 42.5545 26.0313 42.3454 25.7215 42.1493C25.1018 41.7441 24.1206 41.4434 23.2039 40.9859C22.7392 40.7506 22.2873 40.5022 21.9258 40.1754C21.5643 39.8486 21.319 39.4565 21.177 39.0905C20.9059 38.3584 21.0221 37.8225 21.0221 37.8225C21.0221 37.7963 21.0479 37.7702 21.0866 37.7702C21.1124 37.7702 21.1383 37.8094 21.1383 37.8356L21.1254 37.8486Z" fill="white"/>
<path d="M21.0477 37.9271C21.0477 37.9271 20.2215 37.195 21.3705 36.45L21.0477 37.9271Z" fill="white"/>
<path d="M21.0479 37.9271C21.0479 37.9271 22.0936 37.6003 21.3706 36.45L21.0479 37.9271Z" fill="white"/>
<path d="M21.2672 38.9859C21.2672 38.9859 20.8283 38.2016 21.8999 37.9271L21.2672 38.9859Z" fill="white"/>
<path d="M21.2544 38.9859C21.2544 38.9859 22.1452 39.012 21.887 37.9271L21.2544 38.9859Z" fill="white"/>
<path d="M21.164 39.0513C21.164 39.0513 20.3636 39.4434 20.157 38.3454L21.164 39.0513Z" fill="white"/>
<path d="M21.164 39.0513C21.164 39.0513 21.2544 38.1493 20.157 38.3454L21.164 39.0513Z" fill="white"/>
<path d="M21.9773 40.0447C21.9773 40.0447 21.2543 39.3911 22.2613 38.7375L21.9773 40.0447Z" fill="white"/>
<path d="M21.9773 40.0447C21.9773 40.0447 22.9069 39.7702 22.2742 38.7375L21.9773 40.0447Z" fill="white"/>
<path d="M21.9 40.1493C21.9 40.1493 21.2028 40.829 20.6348 39.7702L21.9 40.1493Z" fill="white"/>
<path d="M21.9 40.1493C21.9 40.1493 21.6934 39.195 20.6348 39.7702L21.9 40.1493Z" fill="white"/>
<path d="M23.2941 40.9074C23.2941 40.9074 22.2871 40.463 23.1392 39.4042L23.2941 40.9074Z" fill="white"/>
<path d="M23.2941 40.9074C23.2941 40.9074 24.1849 40.28 23.1521 39.4042L23.2941 40.9074Z" fill="white"/>
<path d="M23.2425 41.0513C23.2425 41.0513 22.739 42.0317 21.7449 41.1036L23.2425 41.0513Z" fill="white"/>
<path d="M23.2425 41.0513C23.2425 41.0513 22.6744 40.1101 21.7449 41.0905L23.2425 41.0513Z" fill="white"/>
<path d="M24.753 41.4826C24.753 41.4826 23.746 41.2212 24.3915 40.097L24.753 41.4826Z" fill="white"/>
<path d="M24.7531 41.4826C24.7531 41.4826 25.5019 40.7506 24.3916 40.0839L24.7531 41.4826Z" fill="white"/>
<path d="M24.7403 41.6133C24.7403 41.6133 24.4046 42.6068 23.3459 41.8748L24.7403 41.6133Z" fill="white"/>
<path d="M24.7403 41.6134C24.7403 41.6134 24.0689 40.8029 23.3459 41.8748L24.7403 41.6134Z" fill="white"/>
<path d="M25.8893 42.097C25.8893 42.097 25.1017 41.7179 25.8118 40.8813L25.8893 42.097Z" fill="white"/>
<path d="M25.8892 42.097C25.8892 42.097 26.6251 41.6134 25.8118 40.8813L25.8892 42.097Z" fill="white"/>
<path d="M25.8118 42.2015C25.8118 42.2015 25.489 43.0251 24.624 42.3715L25.8118 42.2015Z" fill="white"/>
<path d="M25.8118 42.2146C25.8118 42.2146 25.2825 41.5088 24.624 42.3715L25.8118 42.2146Z" fill="white"/>
<path d="M32.3575 37.8356C32.3575 37.8356 32.4607 38.3585 32.2025 39.1036C32.0734 39.4696 31.8152 39.8617 31.4537 40.1885C31.0922 40.5284 30.6404 40.7768 30.1756 40.999C29.2589 41.4434 28.2777 41.7572 27.658 42.1624C27.3482 42.3585 27.1158 42.5546 26.9867 42.7245C26.8576 42.8814 26.793 42.9859 26.793 42.9859C26.7672 43.0382 26.7026 43.0513 26.651 43.0251C26.5994 42.999 26.5865 42.9336 26.6123 42.8814C26.6123 42.8814 26.8834 42.4108 27.5418 41.9925C28.2003 41.5611 29.1686 41.2343 30.0852 40.8291C30.5371 40.6199 30.9889 40.3716 31.3375 40.0709C31.6861 39.7702 31.9314 39.4042 32.0734 39.0644C32.3445 38.3715 32.2542 37.8617 32.2542 37.8617C32.2542 37.8356 32.2671 37.8095 32.2929 37.7964C32.3187 37.7964 32.3445 37.8095 32.3575 37.8356Z" fill="white"/>
<path d="M32.3186 37.9271C32.3186 37.9271 33.1449 37.195 31.9958 36.45L32.3186 37.9271Z" fill="white"/>
<path d="M32.3187 37.9271C32.3187 37.9271 31.273 37.6003 31.9959 36.45L32.3187 37.9271Z" fill="white"/>
<path d="M32.0992 38.9859C32.0992 38.9859 32.5381 38.2016 31.4666 37.9271L32.0992 38.9859Z" fill="white"/>
<path d="M32.1122 38.9859C32.1122 38.9859 31.2214 39.012 31.4796 37.9271L32.1122 38.9859Z" fill="white"/>
<path d="M32.2024 39.0513C32.2024 39.0513 33.0028 39.4434 33.2094 38.3454L32.2024 39.0513Z" fill="white"/>
<path d="M32.2025 39.0513C32.2025 39.0513 32.1121 38.1493 33.2095 38.3454L32.2025 39.0513Z" fill="white"/>
<path d="M31.389 40.0447C31.389 40.0447 32.112 39.3911 31.105 38.7375L31.389 40.0447Z" fill="white"/>
<path d="M31.3891 40.0447C31.3891 40.0447 30.4595 39.7702 31.0921 38.7375L31.3891 40.0447Z" fill="white"/>
<path d="M31.4666 40.1493C31.4666 40.1493 32.1637 40.829 32.7318 39.7702L31.4666 40.1493Z" fill="white"/>
<path d="M31.4666 40.1493C31.4666 40.1493 31.6731 39.195 32.7318 39.7702L31.4666 40.1493Z" fill="white"/>
<path d="M30.0723 40.9074C30.0723 40.9074 31.0793 40.463 30.2272 39.4042L30.0723 40.9074Z" fill="white"/>
<path d="M30.0723 40.9074C30.0723 40.9074 29.1815 40.28 30.2143 39.4042L30.0723 40.9074Z" fill="white"/>
<path d="M30.124 41.0513C30.124 41.0513 30.6275 42.0317 31.6216 41.1036L30.124 41.0513Z" fill="white"/>
<path d="M30.124 41.0513C30.124 41.0513 30.6921 40.1101 31.6216 41.0905L30.124 41.0513Z" fill="white"/>
<path d="M28.6133 41.4826C28.6133 41.4826 29.6203 41.2212 28.9748 40.097L28.6133 41.4826Z" fill="white"/>
<path d="M28.6134 41.4826C28.6134 41.4826 27.8646 40.7506 28.9749 40.0839L28.6134 41.4826Z" fill="white"/>
<path d="M28.6262 41.6133C28.6262 41.6133 28.9619 42.6068 30.0206 41.8748L28.6262 41.6133Z" fill="white"/>
<path d="M28.6262 41.6134C28.6262 41.6134 29.2976 40.8029 30.0206 41.8748L28.6262 41.6134Z" fill="white"/>
<path d="M27.4773 42.097C27.4773 42.097 28.2648 41.7179 27.5548 40.8813L27.4773 42.097Z" fill="white"/>
<path d="M27.4774 42.097C27.4774 42.097 26.7415 41.6134 27.5549 40.8813L27.4774 42.097Z" fill="white"/>
<path d="M27.5547 42.2015C27.5547 42.2015 27.8775 43.0251 28.7425 42.3715L27.5547 42.2015Z" fill="white"/>
<path d="M27.5547 42.2146C27.5547 42.2146 28.084 41.5088 28.7425 42.3715L27.5547 42.2146Z" fill="white"/>
<path d="M26.6895 12.8306L26.9606 13.5757L27.7611 13.628L27.1284 14.1116L27.3479 14.8959L26.6895 14.4384L26.0181 14.8959L26.2376 14.1116L25.6179 13.628L26.4055 13.5757L26.6895 12.8306Z" fill="white"/>
<g style="mix-blend-mode:screen" opacity="0.3">
<path d="M27.4125 14.9874L26.6895 14.4776L25.9665 14.9874L26.1989 14.1116L25.5146 13.5756L26.3926 13.5233L26.7024 12.7129L27.0123 13.5233L27.8902 13.5756L27.2059 14.1116L27.4383 14.9874H27.4125ZM26.6895 14.3861H26.7153L27.2834 14.8044L27.0897 14.0854L27.6578 13.6541L26.9477 13.6149L26.7024 12.9482L26.4571 13.6149H26.4313L25.7341 13.6541L26.3022 14.0854L26.1085 14.8044L26.7024 14.3861H26.6895Z" fill="white"/>
</g>
<path d="M23.9913 13.6671L24.2108 14.2554L24.8434 14.2946L24.3528 14.6737L24.5206 15.3011L23.9913 14.9351L23.4749 15.3011L23.6427 14.6737L23.1521 14.2946L23.7718 14.2554L23.9913 13.6671Z" fill="white"/>
<g style="mix-blend-mode:screen" opacity="0.3">
<path d="M24.5723 15.3795L23.9913 14.9743L23.4103 15.3795L23.5911 14.6867L23.0488 14.2684L23.746 14.2292L23.9913 13.5887L24.2366 14.2292L24.9338 14.2684L24.3915 14.6867L24.5852 15.3795H24.5723ZM23.9913 14.8959H24.0042L24.4561 15.2227L24.3011 14.6606L24.7401 14.3207L24.172 14.2815L23.9784 13.7586L23.7847 14.2815H23.7589L23.2167 14.3207L23.6685 14.6606L23.5136 15.2227L23.9913 14.8959Z" fill="white"/>
</g>
<path d="M29.375 13.6671L29.5945 14.2554L30.2271 14.2946L29.7236 14.6737L29.8915 15.3011L29.375 14.9351L28.8457 15.3011L29.0135 14.6737L28.5229 14.2946L29.1556 14.2554L29.375 13.6671Z" fill="white"/>
<g style="mix-blend-mode:screen" opacity="0.3">
<path d="M29.9431 15.3795L29.3622 14.9743L28.7812 15.3795L28.9749 14.6867L28.4326 14.2684L29.1298 14.2292L29.3751 13.5887L29.6204 14.2292L30.3176 14.2684L29.7753 14.6867L29.9561 15.3795H29.9431ZM29.3622 14.8959H29.3751L29.827 15.2227L29.672 14.6606L30.1239 14.3207L29.5558 14.2815L29.3622 13.7586L29.1685 14.2815H29.1427L28.6005 14.3207L29.0394 14.6606L28.8845 15.2227L29.3622 14.8959Z" fill="white"/>
</g>
<ellipse cx="33.5655" cy="16.2" rx="5.28281" ry="5.0625" fill="url(#paint29_radial_2278_15632)"/>
<ellipse cx="1.49048" cy="11.9238" rx="1.49048" ry="11.9238" transform="matrix(0.722001 0.691892 -0.722001 0.691892 41.0986 6.91882)" fill="url(#paint30_radial_2278_15632)" fill-opacity="0.5"/>
<ellipse cx="1.49048" cy="11.9238" rx="1.49048" ry="11.9238" transform="matrix(-0.722001 0.691892 -0.722001 -0.691892 43.2507 23.4182)" fill="url(#paint31_radial_2278_15632)" fill-opacity="0.5"/>
<ellipse cx="0.496826" cy="11.9238" rx="0.496826" ry="11.9238" transform="matrix(0.722001 0.691892 -0.722001 0.691892 41.8159 7.6059)" fill="url(#paint32_radial_2278_15632)"/>
<ellipse cx="0.496826" cy="11.9238" rx="0.496826" ry="11.9238" transform="matrix(-0.722001 0.691892 -0.722001 -0.691892 42.5334 24.1071)" fill="url(#paint33_radial_2278_15632)"/>
</g>
<g clip-path="url(#clip1_2278_15632)">
<path d="M24.5477 35.331V24.1402H21.7717V21.5138C23.0028 21.3539 23.7994 20.8286 24.3546 20.3033C24.6684 20.0064 24.9339 19.6867 25.1512 19.3441H29.1341V35.331H24.5477Z" fill="#550421"/>
<path fill-rule="evenodd" clip-rule="evenodd" d="M24.1092 35.775V24.5842H21.3333V21.123L21.7161 21.0733C22.8385 20.9275 23.5532 20.4538 24.0553 19.9788C24.3443 19.7054 24.5859 19.4137 24.7822 19.1042L24.9117 18.9H29.5728V35.775H24.1092ZM24.5478 24.1402V35.3309H29.1342V19.3441H25.1513C24.9341 19.6867 24.6685 20.0064 24.3547 20.3033C23.7995 20.8286 23.0029 21.3539 21.7718 21.5137V24.1402H24.5478Z" fill="url(#paint34_linear_2278_15632)"/>
</g>
<defs>
<linearGradient id="paint0_linear_2278_15632" x1="26.6897" y1="27.9608" x2="26.6897" y2="1.69935" gradientUnits="userSpaceOnUse">
<stop stop-color="#FFE490"/>
<stop offset="0.32" stop-color="#DCBB6C"/>
<stop offset="1" stop-color="#8A5917"/>
</linearGradient>
<linearGradient id="paint1_linear_2278_15632" x1="26.6511" y1="6" x2="30.8083" y2="6" gradientUnits="userSpaceOnUse">
<stop stop-color="#FFE490"/>
<stop offset="0.32" stop-color="#DCBB6C"/>
<stop offset="1" stop-color="#8A5917"/>
</linearGradient>
<linearGradient id="paint2_linear_2278_15632" x1="23.4235" y1="14.0784" x2="23.4235" y2="4.03921" gradientUnits="userSpaceOnUse">
<stop stop-color="white"/>
<stop offset="0.36" stop-color="#C5C8D6"/>
<stop offset="1" stop-color="#606A8E"/>
</linearGradient>
<linearGradient id="paint3_linear_2278_15632" x1="23.4235" y1="14.0784" x2="23.4235" y2="4.03921" gradientUnits="userSpaceOnUse">
<stop stop-color="white"/>
<stop offset="0.36" stop-color="#C5C8D6"/>
<stop offset="1" stop-color="#606A8E"/>
</linearGradient>
<linearGradient id="paint4_linear_2278_15632" x1="24.4174" y1="10.2222" x2="24.4174" y2="3.81698" gradientUnits="userSpaceOnUse">
<stop stop-color="#B6BACA"/>
<stop offset="1" stop-color="#606A8E"/>
</linearGradient>
<linearGradient id="paint5_linear_2278_15632" x1="38.1671" y1="22.7582" x2="40.8405" y2="28.0519" gradientUnits="userSpaceOnUse">
<stop stop-color="#9AA0B6"/>
<stop offset="1" stop-color="#606A8E"/>
</linearGradient>
<linearGradient id="paint6_linear_2278_15632" x1="38.6449" y1="33.0196" x2="40.8186" y2="28.5177" gradientUnits="userSpaceOnUse">
<stop stop-color="#A1A8BC"/>
<stop offset="1" stop-color="#606A8E"/>
</linearGradient>
<linearGradient id="paint7_linear_2278_15632" x1="33.2612" y1="43.6078" x2="31.8201" y2="42.8385" gradientUnits="userSpaceOnUse">
<stop stop-color="#D2D4DC"/>
<stop offset="0.11" stop-color="#C5C8D3"/>
<stop offset="1" stop-color="#606A8E"/>
</linearGradient>
<linearGradient id="paint8_linear_2278_15632" x1="21.59" y1="13.4118" x2="21.59" y2="10.5752" gradientUnits="userSpaceOnUse">
<stop stop-color="#FFE490"/>
<stop offset="0.32" stop-color="#DCBB6C"/>
<stop offset="1" stop-color="#8A5917"/>
</linearGradient>
<linearGradient id="paint9_linear_2278_15632" x1="25.218" y1="7.67319" x2="25.218" y2="3.66012" gradientUnits="userSpaceOnUse">
<stop stop-color="#FFE490"/>
<stop offset="0.32" stop-color="#DCBB6C"/>
<stop offset="1" stop-color="#8A5917"/>
</linearGradient>
<linearGradient id="paint10_linear_2278_15632" x1="24.043" y1="9.9608" x2="24.043" y2="6.2876" gradientUnits="userSpaceOnUse">
<stop stop-color="#606A8E"/>
<stop offset="0.89" stop-color="#C5C8D3"/>
<stop offset="1" stop-color="#D2D4DC"/>
</linearGradient>
<linearGradient id="paint11_linear_2278_15632" x1="37.4184" y1="39.8431" x2="35.5084" y2="35.9401" gradientUnits="userSpaceOnUse">
<stop stop-color="#606A8E"/>
<stop offset="0.89" stop-color="#C5C8D3"/>
<stop offset="1" stop-color="#D2D4DC"/>
</linearGradient>
<linearGradient id="paint12_linear_2278_15632" x1="33.0546" y1="46.5882" x2="31.6714" y2="43.752" gradientUnits="userSpaceOnUse">
<stop stop-color="#606A8E"/>
<stop offset="0.89" stop-color="#C5C8D3"/>
<stop offset="1" stop-color="#D2D4DC"/>
</linearGradient>
<linearGradient id="paint13_linear_2278_15632" x1="17.8848" y1="39.3072" x2="16.225" y2="35.9116" gradientUnits="userSpaceOnUse">
<stop stop-color="#606A8E"/>
<stop offset="1" stop-color="#A4A9BC"/>
</linearGradient>
<linearGradient id="paint14_linear_2278_15632" x1="15.109" y1="45.7124" x2="38.7008" y2="12.0259" gradientUnits="userSpaceOnUse">
<stop stop-color="#A24A21"/>
<stop offset="0.52" stop-color="#F9F191"/>
<stop offset="1" stop-color="#A95822"/>
</linearGradient>
<linearGradient id="paint15_linear_2278_15632" x1="20.6218" y1="47.3464" x2="12.2244" y2="28.233" gradientUnits="userSpaceOnUse">
<stop stop-color="#AA792E"/>
<stop offset="0.52" stop-color="#E1CA7E"/>
<stop offset="1" stop-color="#8A4A00"/>
</linearGradient>
<linearGradient id="paint16_linear_2278_15632" x1="22.3389" y1="47.0327" x2="13.2101" y2="28.324" gradientUnits="userSpaceOnUse">
<stop stop-color="#B7B7B7"/>
<stop offset="1" stop-color="#36426C"/>
</linearGradient>
<linearGradient id="paint17_linear_2278_15632" x1="26.522" y1="14.0392" x2="41.0334" y2="14.0392" gradientUnits="userSpaceOnUse">
<stop stop-color="#FFE490"/>
<stop offset="0.32" stop-color="#DCBB6C"/>
<stop offset="1" stop-color="#8A5917"/>
</linearGradient>
<linearGradient id="paint18_linear_2278_15632" x1="12.3333" y1="0" x2="13.6252" y2="0.216919" gradientUnits="userSpaceOnUse">
<stop stop-color="#FFE490"/>
<stop offset="0.32" stop-color="#DCBB6C"/>
<stop offset="1" stop-color="#8A5917"/>
</linearGradient>
<linearGradient id="paint19_linear_2278_15632" x1="32.7577" y1="47.3464" x2="41.142" y2="28.2329" gradientUnits="userSpaceOnUse">
<stop stop-color="#AA792E"/>
<stop offset="0.52" stop-color="#E1CA7E"/>
<stop offset="1" stop-color="#8A4A00"/>
</linearGradient>
<linearGradient id="paint20_linear_2278_15632" x1="29.8915" y1="47.3464" x2="41.3573" y2="28.3082" gradientUnits="userSpaceOnUse">
<stop stop-color="#FFE490"/>
<stop offset="0.32" stop-color="#DCBB6C"/>
<stop offset="1" stop-color="#8A5917"/>
</linearGradient>
<linearGradient id="paint21_linear_2278_15632" x1="19.576" y1="0" x2="19.576" y2="0" gradientUnits="userSpaceOnUse">
<stop stop-color="#FFE490"/>
<stop offset="0.32" stop-color="#DCBB6C"/>
<stop offset="1" stop-color="#8A5917"/>
</linearGradient>
<linearGradient id="paint22_linear_2278_15632" x1="12.3332" y1="48.1569" x2="13.6242" y2="48.1569" gradientUnits="userSpaceOnUse">
<stop stop-color="#000312"/>
<stop offset="0.61" stop-color="#2F3242"/>
<stop offset="1" stop-color="#4A4D5E"/>
</linearGradient>
<linearGradient id="paint23_linear_2278_15632" x1="26.6896" y1="49.0588" x2="26.6896" y2="47.3464" gradientUnits="userSpaceOnUse">
<stop stop-color="#000312"/>
<stop offset="0.52" stop-color="#84858D"/>
<stop offset="1" stop-color="white"/>
</linearGradient>
<linearGradient id="paint24_linear_2278_15632" x1="12.3332" y1="48.1438" x2="13.6242" y2="48.1438" gradientUnits="userSpaceOnUse">
<stop stop-color="#202330"/>
<stop offset="0.41" stop-color="#646878"/>
<stop offset="0.76" stop-color="#9B9FB2"/>
<stop offset="0.91" stop-color="#6B6E79"/>
<stop offset="1" stop-color="#55575E"/>
</linearGradient>
<linearGradient id="paint25_linear_2278_15632" x1="13.5339" y1="51.4249" x2="39.5098" y2="51.4249" gradientUnits="userSpaceOnUse">
<stop stop-color="#000312"/>
<stop offset="0.61" stop-color="#2F3242"/>
<stop offset="1" stop-color="#4A4D5E"/>
</linearGradient>
<linearGradient id="paint26_linear_2278_15632" x1="12.3332" y1="51.4249" x2="13.6243" y2="51.4249" gradientUnits="userSpaceOnUse">
<stop stop-color="#202330"/>
<stop offset="0.4" stop-color="#646878"/>
<stop offset="0.74" stop-color="#9B9FB2"/>
<stop offset="0.91" stop-color="#6B6E79"/>
<stop offset="1" stop-color="#55575E"/>
</linearGradient>
<linearGradient id="paint27_linear_2278_15632" x1="32.4866" y1="48.3137" x2="19.8437" y2="54.9289" gradientUnits="userSpaceOnUse">
<stop stop-color="#D7AD60"/>
<stop offset="0.27" stop-color="#FFD27B"/>
<stop offset="0.33" stop-color="#F3C672"/>
<stop offset="0.44" stop-color="#DEB363"/>
<stop offset="0.51" stop-color="#D7AC5E"/>
<stop offset="0.69" stop-color="#E9BD6B"/>
<stop offset="0.71" stop-color="#E3B766"/>
<stop offset="0.82" stop-color="#CBA055"/>
<stop offset="0.92" stop-color="#BD924A"/>
<stop offset="1" stop-color="#B88E47"/>
</linearGradient>
<linearGradient id="paint28_linear_2278_15632" x1="33.1837" y1="50.0523" x2="20.2212" y2="52.72" gradientUnits="userSpaceOnUse">
<stop stop-color="#FFE490"/>
<stop offset="0.32" stop-color="#DCBB6C"/>
<stop offset="1" stop-color="#8A5917"/>
</linearGradient>
<radialGradient id="paint29_radial_2278_15632" cx="0" cy="0" r="1" gradientUnits="userSpaceOnUse" gradientTransform="translate(33.5655 16.2) rotate(90) scale(5.0625 5.28281)">
<stop stop-color="white" stop-opacity="0.77"/>
<stop offset="1" stop-color="white" stop-opacity="0"/>
</radialGradient>
<radialGradient id="paint30_radial_2278_15632" cx="0" cy="0" r="1" gradientUnits="userSpaceOnUse" gradientTransform="translate(1.49048 11.9238) rotate(90) scale(11.9238 1.49048)">
<stop stop-color="white"/>
<stop offset="1" stop-color="white" stop-opacity="0"/>
</radialGradient>
<radialGradient id="paint31_radial_2278_15632" cx="0" cy="0" r="1" gradientUnits="userSpaceOnUse" gradientTransform="translate(1.49048 11.9238) rotate(90) scale(11.9238 1.49048)">
<stop stop-color="white"/>
<stop offset="1" stop-color="white" stop-opacity="0"/>
</radialGradient>
<radialGradient id="paint32_radial_2278_15632" cx="0" cy="0" r="1" gradientUnits="userSpaceOnUse" gradientTransform="translate(0.496826 11.9238) rotate(90) scale(11.9238 0.496826)">
<stop stop-color="white"/>
<stop offset="1" stop-color="white" stop-opacity="0"/>
</radialGradient>
<radialGradient id="paint33_radial_2278_15632" cx="0" cy="0" r="1" gradientUnits="userSpaceOnUse" gradientTransform="translate(0.496826 11.9238) rotate(90) scale(11.9238 0.496826)">
<stop stop-color="white"/>
<stop offset="1" stop-color="white" stop-opacity="0"/>
</radialGradient>
<linearGradient id="paint34_linear_2278_15632" x1="25.9469" y1="18.8739" x2="32.5336" y2="33.2544" gradientUnits="userSpaceOnUse">
<stop stop-color="#EDB865"/>
<stop offset="1" stop-color="#FFEE78"/>
</linearGradient>
<clipPath id="clip0_2278_15632">
<rect width="28.7001" height="54" fill="white" transform="translate(12.3333)"/>
</clipPath>
<clipPath id="clip1_2278_15632">
<rect width="8.23958" height="16.875" fill="white" transform="translate(21.3333 18.9)"/>
</clipPath>
</defs>
</svg>
