<svg width="29" height="27" viewBox="0 0 29 27" fill="none" xmlns="http://www.w3.org/2000/svg">
<path d="M8.77675 3.59268L10.0584 4.77473L7.19052 13.2211L4.3227 4.60341L5.421 3.59229V3.49902H0.433105V3.59229L1.53141 4.60341L5.25338 15.1657H7.22114L10.8363 4.75912L12.2094 3.59268V3.49941H8.77713V3.59268H8.77675ZM12.7892 3.59268L13.8875 4.68146V13.9837L12.7892 15.0724V15.1657H17.7315V15.0724L16.6332 13.9837V4.68146L17.7315 3.59268V3.49941H12.7892V3.59268ZM23.4829 10.6857C26.7169 10.6857 28.6996 9.2391 28.6996 7.03033C28.6996 4.82155 27.2657 3.49902 23.5896 3.49902H18.8302V3.59229L19.9285 4.68107V13.9833L18.8302 15.0721V15.1653H24.0776V15.0721L22.6743 13.9833V10.6857H23.4829ZM22.6743 4.1679H23.391C25.1146 4.1679 25.8471 5.10136 25.8471 7.09238C25.8471 9.06778 24.9623 10.0169 23.5743 10.0169H22.6743V4.1679Z" fill="url(#paint0_linear_2615_4731)"/>
<path d="M23.5343 3.55015C26.9761 3.55015 28.649 4.68848 28.649 7.03033C28.649 9.25354 26.6477 10.6346 23.4264 10.6346H22.6091H22.5584V10.6857V13.9837V14.009L22.5785 14.0242L23.9772 15.0978V15.115H18.7743V15.0943L19.869 14.0203L19.8844 14.0055V13.9841V4.68146V4.65999L19.869 4.64516L18.7743 3.57122V3.55054H23.5343V3.55015ZM22.5584 10.0684H22.6091H23.5188C25.0332 10.0684 25.8671 9.01159 25.8671 7.09276C25.8671 5.03502 25.0858 4.11717 23.3339 4.11717H22.6091H22.5584V4.16829V10.0172V10.0684ZM23.5343 3.49902H18.7236V3.59229L19.8338 4.68107V13.9837L18.7236 15.0724V15.1657H24.0279V15.0724L22.6095 13.9837V10.6857H23.4268C26.6956 10.6857 28.7 9.2391 28.7 7.03033C28.6997 4.82155 27.2503 3.49902 23.5343 3.49902ZM22.6091 10.0172V4.16829H23.3339C25.0761 4.16829 25.8164 5.10175 25.8164 7.09276C25.8164 9.06817 24.9221 10.0172 23.5188 10.0172H22.6091Z" fill="url(#paint1_linear_2615_4731)"/>
<path d="M6.96914 0.198668L6.25244 1.79697H6.66935L6.82564 1.4201H7.52838L7.68467 1.79697H8.10158L7.38488 0.198668H6.96914ZM6.95517 1.1235L7.1774 0.59867L7.39846 1.1235H6.95517ZM10.9117 0.198668H10.5204V1.79697H11.7568V1.48949H10.9117V0.198668ZM8.413 0.507173H8.93423V1.79697H9.32438V0.507513H9.84406V0.198668H8.413V0.507173ZM12.954 0.198668L12.2373 1.79697H12.6542L12.8105 1.4201H13.5132L13.6695 1.79697H14.0864L13.3698 0.198668H12.954ZM12.94 1.1235L13.1627 0.59867L13.3837 1.1235H12.94ZM19.1464 1.79697H19.5377V0.198668H19.1464V1.79697ZM21.8126 1.29425L21.7925 1.31772C21.7789 1.33405 21.7568 1.35343 21.7262 1.37588C21.6959 1.39799 21.6606 1.4201 21.6207 1.44221C21.5807 1.46432 21.5307 1.48302 21.4702 1.49901C21.4097 1.515 21.3461 1.52282 21.2802 1.52282C21.1099 1.52282 20.9676 1.47282 20.8532 1.37248C20.7388 1.27214 20.6818 1.14731 20.6818 0.99799C20.6818 0.84867 20.7388 0.72384 20.8532 0.623499C20.9676 0.523159 21.1099 0.473159 21.2802 0.473159C21.3422 0.473159 21.4027 0.481663 21.462 0.498329C21.5214 0.514996 21.5691 0.533363 21.6055 0.552751C21.642 0.572479 21.6757 0.595268 21.7068 0.621459C21.7378 0.647309 21.7576 0.666016 21.7665 0.676561C21.7754 0.687105 21.7824 0.695608 21.7874 0.701731L22.0353 0.484384L22.0062 0.45105C21.9875 0.429621 21.9569 0.403091 21.9143 0.371798C21.8716 0.340506 21.8223 0.309213 21.7669 0.278261C21.7114 0.246968 21.6404 0.220437 21.554 0.198668C21.4675 0.1769 21.3763 0.166016 21.2805 0.166016C21.0029 0.166016 20.7682 0.247308 20.577 0.410234C20.3862 0.572819 20.2904 0.769078 20.2904 0.99867C20.2904 1.22826 20.3858 1.42486 20.577 1.58779C20.7682 1.75105 21.0025 1.83269 21.2805 1.83269C21.3756 1.83269 21.4671 1.82112 21.5559 1.79799C21.6443 1.77486 21.7161 1.74969 21.7708 1.7218C21.8254 1.69391 21.8766 1.6616 21.9247 1.62486C21.9724 1.58813 22.0034 1.56262 22.0174 1.54799C22.0314 1.5337 22.0418 1.5218 22.0484 1.51296L21.8126 1.29425ZM17.0389 0.507173H17.5602V1.79697H17.9503V0.507513H18.47V0.198668H17.0389V0.507173ZM15.9724 1.215L15.0754 0.198668H14.736V1.79697H15.1274V0.781663L16.0248 1.79697H16.363V0.198668H15.9724V1.215Z" fill="#E6C673"/>
<path d="M24.5044 15.6617C24.4582 15.6153 24.4009 15.5711 24.3319 15.5293C24.2628 15.4875 24.1915 15.4758 24.1177 15.4944C24.1272 15.4944 24.1083 15.5037 24.0624 15.5223C24.0162 15.5409 23.9844 15.5595 23.966 15.5781L23.9107 15.606L23.7864 15.7035C23.6299 15.8244 23.4875 15.9405 23.3585 16.0525C23.2942 16.1082 23.2389 16.1686 23.193 16.2337L22.9585 16.4707C22.7286 16.7123 22.5031 16.9776 22.2823 17.2657C22.0619 17.5538 21.8549 17.8326 21.6615 18.1025C21.4407 18.4278 21.2219 18.774 21.0062 19.1411C20.8713 19.3708 20.7497 19.6016 20.634 19.8327C20.4513 19.9919 20.2673 20.1538 20.0885 20.3056C19.8034 20.5472 19.4904 20.761 19.1504 20.9469C19.0033 21.0216 18.8676 21.0913 18.7433 21.156C18.619 21.221 18.488 21.2768 18.35 21.3233C18.1845 21.3697 18.0578 21.3511 17.9703 21.2675C17.8829 21.1838 17.8625 21.0774 17.9087 20.9469L17.9499 20.8074C17.9684 20.7331 17.9958 20.6522 18.0327 20.5635C18.0695 20.4756 18.1107 20.3892 18.157 20.3056C18.1754 20.2684 18.1958 20.2335 18.2194 20.201C18.2421 20.1685 18.2629 20.1336 18.2813 20.0965C18.3456 19.9942 18.3986 19.9152 18.4398 19.8595C18.4813 19.8037 18.5178 19.7572 18.5504 19.7201C18.5825 19.6829 18.61 19.6527 18.6331 19.6294C18.6559 19.6062 18.6813 19.576 18.7088 19.5388C18.7178 19.5202 18.7272 19.5086 18.7362 19.504C18.7453 19.4993 18.7547 19.4877 18.7637 19.4691C18.8096 19.4227 18.8327 19.3855 18.8327 19.3576V19.344C18.8327 19.3069 18.8166 19.272 18.7845 19.2395C18.7519 19.207 18.7131 19.1837 18.6672 19.1698C18.6209 19.1558 18.5751 19.1512 18.5292 19.1558C18.4829 19.1609 18.4464 19.1768 18.419 19.2046C18.3727 19.2697 18.3221 19.3301 18.2672 19.3859C18.2119 19.4416 18.1613 19.502 18.1158 19.5671L18.1017 19.581L17.6742 19.9714L16.8738 20.8361C16.7357 20.9941 16.5981 21.1289 16.46 21.2404C16.4047 21.2961 16.3475 21.343 16.2875 21.3798C16.2279 21.4174 16.1612 21.4588 16.0875 21.5053C16.0784 21.5146 16.0643 21.5192 16.0459 21.5192C16.0275 21.4634 16.0231 21.4053 16.0322 21.3449C16.0416 21.2845 16.0553 21.2264 16.0733 21.1707C16.1196 21.0406 16.1816 20.9221 16.2596 20.8152C16.3381 20.7083 16.4185 20.6038 16.5012 20.5015C16.584 20.3993 16.6738 20.304 16.7703 20.2157C16.8667 20.1274 16.9561 20.0461 17.0393 19.9718C17.2511 19.8231 17.4577 19.7022 17.6601 19.6093C17.6417 19.6186 17.6436 19.6186 17.6672 19.6093C17.6903 19.6 17.706 19.5954 17.7154 19.5954C17.7244 19.5861 17.7338 19.5837 17.7429 19.5884C17.7519 19.5934 17.7613 19.5911 17.7703 19.5814H17.784C17.8205 19.6004 17.844 19.6093 17.8531 19.6093C17.8989 19.6279 17.9448 19.6349 17.9911 19.6302C18.037 19.6256 18.0692 19.6004 18.0876 19.5535C18.1244 19.4796 18.1107 19.4165 18.0464 19.3653C17.9821 19.3146 17.9174 19.2794 17.8535 19.2608C17.7982 19.2515 17.7382 19.2515 17.6742 19.2608C17.6099 19.2701 17.5542 19.2844 17.5083 19.3026C17.2138 19.4052 16.9703 19.5257 16.7769 19.6651C16.6299 19.7673 16.4942 19.8811 16.3698 20.0066C16.2459 20.1321 16.1286 20.2645 16.0181 20.4039C15.9169 20.5344 15.8251 20.6715 15.7423 20.8152C15.6596 20.9596 15.6133 21.1199 15.6043 21.2961C15.6043 21.3709 15.618 21.4476 15.6455 21.5262C15.6729 21.6056 15.7192 21.6683 15.7835 21.7144C15.8757 21.7794 15.9679 21.8143 16.0596 21.8189C16.1518 21.8236 16.2392 21.8073 16.322 21.7701C16.4785 21.7144 16.6071 21.64 16.7083 21.5471C16.782 21.5006 16.8483 21.4402 16.9083 21.3655C16.9679 21.2911 17.0346 21.2218 17.1083 21.1563C17.1816 21.082 17.253 21.0123 17.3221 20.9472C17.3911 20.8822 17.4577 20.8125 17.5221 20.7381C17.4946 20.8404 17.4781 20.9426 17.4738 21.0448C17.4691 21.1474 17.4946 21.24 17.5495 21.3236C17.6413 21.482 17.7793 21.5769 17.9637 21.6094C18.1476 21.6423 18.3221 21.6493 18.488 21.6303C18.5892 21.6121 18.7041 21.5746 18.8331 21.5188C18.9618 21.463 19.1641 21.3562 19.4402 21.1982C19.532 21.1517 19.6128 21.1029 19.6818 21.0518C19.7508 21.0007 19.8449 20.9379 19.9646 20.8636C20.0724 20.7935 20.1748 20.7207 20.2756 20.6475C20.2665 20.6715 20.2567 20.6932 20.2477 20.7172C20.1881 20.8799 20.1442 21.0402 20.1167 21.1982C20.1077 21.2353 20.103 21.2656 20.103 21.2888C20.103 21.3124 20.0983 21.3426 20.0889 21.3794V21.4352C20.0799 21.5095 20.0869 21.5862 20.1097 21.6652C20.1328 21.7442 20.1626 21.7976 20.1995 21.8255C20.356 21.9092 20.5191 21.9324 20.6893 21.8952C20.8595 21.858 21.0042 21.8158 21.1238 21.7697C21.2525 21.7229 21.3584 21.6745 21.4411 21.6234C21.5239 21.5726 21.6066 21.5235 21.6898 21.477L21.8278 21.3933C22.0208 21.2632 22.207 21.1331 22.3867 21.003C22.5659 20.8729 22.7428 20.7428 22.9181 20.6127L23.1247 20.4593C23.171 20.4128 23.2216 20.3714 23.2765 20.3338C23.3318 20.2971 23.3824 20.2548 23.4283 20.2084L23.6769 20.0132C23.7503 19.9574 23.8264 19.8947 23.9044 19.825C23.9824 19.7553 24.0585 19.6879 24.1319 19.6229C24.1777 19.5578 24.1526 19.4955 24.0562 19.4347C23.9597 19.3742 23.8836 19.3626 23.8283 19.3998C23.7456 19.4745 23.6605 19.5462 23.573 19.6159C23.4855 19.6856 23.4004 19.7576 23.3177 19.832C23.1981 19.9342 23.0781 20.0364 22.9589 20.1387C22.8392 20.2413 22.7149 20.3389 22.5863 20.4318C22.522 20.4783 22.462 20.5224 22.4067 20.5643C22.3514 20.6065 22.2965 20.6456 22.2412 20.6827C22.0568 20.8129 21.8823 20.9337 21.7168 21.0452C21.5509 21.1571 21.3439 21.2779 21.096 21.4077C21.0497 21.4263 21.0132 21.4448 20.9858 21.4634C20.9583 21.482 20.9121 21.5006 20.8477 21.5192C20.7744 21.5564 20.694 21.5819 20.6066 21.5959C20.5191 21.6098 20.4803 21.5986 20.4893 21.561V21.5053C20.4893 21.4495 20.494 21.403 20.503 21.3658C20.5215 21.1986 20.5607 21.0359 20.6203 20.8779C20.6803 20.7199 20.747 20.5619 20.8203 20.4035L20.9713 20.0748C21.0254 20.0275 21.0795 19.9803 21.1344 19.9323C21.167 19.9075 21.1999 19.8815 21.2344 19.8529C21.3172 19.7832 21.3952 19.7158 21.469 19.6507L21.5933 19.5392C21.7494 19.3998 21.929 19.2372 22.1314 19.0509C22.3337 18.865 22.5039 18.6977 22.642 18.549C22.8718 18.3074 23.0949 18.0495 23.311 17.7749C23.5271 17.5011 23.7318 17.2289 23.9252 16.9594L24.0079 16.8339C24.0723 16.7317 24.1342 16.6364 24.1942 16.5477C24.2538 16.4594 24.3205 16.3456 24.3942 16.2062V16.1923C24.4401 16.1183 24.4817 16.03 24.5186 15.9274C24.555 15.8244 24.5503 15.7361 24.5044 15.6617ZM24.0628 15.9963C24.026 16.0614 23.9801 16.1384 23.9248 16.2263C23.8695 16.315 23.8189 16.3866 23.773 16.4428L23.6487 16.6101C23.4648 16.8889 23.2832 17.1449 23.1036 17.3768C22.9243 17.6092 22.6965 17.8837 22.4208 18.1993C22.2827 18.3577 22.1376 18.5111 21.9859 18.6594C21.8341 18.8085 21.6847 18.9479 21.5376 19.078L21.5101 19.0919C21.6937 18.7945 21.8874 18.5018 22.0898 18.2133C22.2918 17.9256 22.5035 17.6417 22.7243 17.3629C22.8992 17.1398 23.0875 16.9145 23.2902 16.6864C23.4922 16.4587 23.7044 16.2519 23.9248 16.066L24.0766 15.9405H24.0903L24.0628 15.9963ZM24.077 22.1795C23.6452 22.1295 23.2169 22.0981 22.7937 22.0896C22.3427 22.0803 21.8925 22.0896 21.4415 22.1175C20.623 22.1651 19.8089 22.2372 18.9994 22.3328C18.5853 22.3905 18.1805 22.4548 17.7852 22.5264C17.3895 22.5977 16.9895 22.6705 16.5848 22.7452C16.1522 22.8289 15.7271 22.9195 15.3086 23.0171C14.8897 23.1146 14.4642 23.2146 14.0321 23.3168C14.0685 23.2517 14.103 23.189 14.1356 23.1286C14.1677 23.0682 14.1979 23.0051 14.2254 22.9404C14.3631 22.6697 14.4987 22.3924 14.6325 22.1097C14.7658 21.8267 14.8968 21.5506 15.0254 21.281C15.0439 21.2625 15.0552 21.2439 15.06 21.2253C15.0647 21.2067 15.076 21.1881 15.0945 21.1691C15.1956 21.0111 15.2921 20.8485 15.3843 20.6812C15.4761 20.5139 15.5725 20.3513 15.6741 20.1933C15.72 20.1096 15.7686 20.0283 15.8192 19.9493C15.8698 19.8703 15.918 19.789 15.9639 19.7053C15.9824 19.6868 16.0004 19.6546 16.0192 19.6078C16.0651 19.5613 16.1067 19.5218 16.1435 19.4893C16.18 19.4567 16.2216 19.4172 16.2679 19.3708C16.2953 19.3429 16.3 19.3103 16.2816 19.2732C16.2632 19.236 16.2404 19.2081 16.2126 19.1895C16.1483 19.1338 16.0651 19.1152 15.9643 19.1338C15.8906 19.1527 15.831 19.1872 15.7851 19.2383C15.7388 19.2894 15.6929 19.3479 15.647 19.4126C15.5733 19.4869 15.5023 19.5613 15.4333 19.6356C15.3643 19.7104 15.2929 19.7847 15.2196 19.8587C15.1458 19.9423 15.0721 20.026 14.9988 20.1096C14.925 20.1933 14.8517 20.2816 14.778 20.3745C14.6858 20.4767 14.5964 20.5766 14.5089 20.6742C14.4215 20.7718 14.3274 20.8717 14.2262 20.974C14.1799 21.0208 14.1364 21.065 14.0952 21.1068C14.054 21.1486 14.0101 21.1881 13.9642 21.2253C13.8352 21.3554 13.7203 21.4344 13.6191 21.4623C13.5638 21.4809 13.5136 21.4855 13.4673 21.4762C13.4579 21.4297 13.4532 21.36 13.4532 21.2671V21.2253C13.4532 21.1974 13.4626 21.1649 13.481 21.1277C13.4995 21.0812 13.5155 21.0371 13.5293 20.9953C13.5434 20.953 13.5595 20.9093 13.5779 20.8628C13.6516 20.7048 13.725 20.5584 13.7983 20.4237C13.8716 20.2889 13.9454 20.1565 14.0191 20.0264C14.0556 19.9613 14.0924 19.8963 14.1293 19.8312C14.1658 19.7661 14.2026 19.7011 14.2395 19.636C14.2579 19.6081 14.274 19.5779 14.2881 19.5454C14.2893 19.5431 14.2905 19.5404 14.2917 19.5377C14.3101 19.5156 14.3191 19.4947 14.3207 19.4742C14.3262 19.4625 14.3301 19.4525 14.336 19.4409C14.345 19.3944 14.3313 19.3502 14.2944 19.3084C14.2576 19.2666 14.2093 19.2387 14.1493 19.2248C14.0897 19.2108 14.0321 19.2085 13.9768 19.2178C13.9215 19.2271 13.8893 19.255 13.8803 19.3014C13.8709 19.3204 13.8618 19.3409 13.8524 19.3642C13.843 19.3874 13.834 19.4083 13.825 19.4265C13.8179 19.4339 13.8187 19.437 13.8144 19.4428C13.7556 19.4703 13.6952 19.502 13.6324 19.5384L13.2183 19.7336C13.0618 19.7987 12.903 19.8568 12.7426 19.9079C12.5814 19.9594 12.4182 20.0031 12.2527 20.0403H12.2253V20.0264C12.2712 19.9245 12.3014 19.8196 12.3151 19.7127C12.3288 19.6062 12.299 19.5016 12.2253 19.399C12.17 19.3154 12.0943 19.2619 11.9978 19.2387C11.9009 19.2155 11.8068 19.2271 11.7151 19.2736C11.5954 19.3483 11.5123 19.4548 11.4668 19.5942C11.4484 19.6407 11.437 19.6871 11.4323 19.7336C11.4276 19.7801 11.4256 19.8265 11.4256 19.8726C11.4256 20.0213 11.4621 20.1375 11.5358 20.2215L11.577 20.2634C11.5586 20.2819 11.5401 20.3029 11.5217 20.3261C11.5033 20.3493 11.4848 20.3749 11.4668 20.4028C11.3931 20.5054 11.3174 20.6007 11.2393 20.6886C11.1609 20.7772 11.0852 20.8679 11.0119 20.9608C10.9197 21.0537 10.8323 21.1374 10.7495 21.2117C10.6668 21.2865 10.5703 21.3511 10.4597 21.4069L10.3907 21.4487C10.4091 21.4301 10.4091 21.4278 10.3907 21.4417C10.3722 21.4553 10.3585 21.4627 10.3495 21.4627C10.331 21.4627 10.3197 21.465 10.315 21.4696C10.3103 21.4743 10.2989 21.4766 10.2805 21.4766C10.262 21.4766 10.2389 21.4743 10.2114 21.4696C10.184 21.465 10.1703 21.4441 10.1703 21.4069V21.2954C10.1703 21.2586 10.175 21.2237 10.184 21.1908C10.1934 21.1583 10.2024 21.1281 10.2114 21.0998C10.2577 20.9418 10.3197 20.7912 10.3977 20.6467C10.4758 20.5027 10.5656 20.366 10.6668 20.2355C10.8687 19.9753 11.0805 19.7522 11.3013 19.5659C11.3656 19.5659 11.4068 19.5381 11.4256 19.4823C11.4441 19.4261 11.4256 19.3754 11.3703 19.3289C11.3335 19.3011 11.2895 19.2829 11.2393 19.2732C11.1887 19.2639 11.1405 19.2685 11.0946 19.2871C10.9291 19.3893 10.7773 19.5055 10.6393 19.6356C10.5013 19.7661 10.3726 19.9098 10.253 20.0678C10.1518 20.2165 10.0577 20.3726 9.96985 20.5352C9.88279 20.6979 9.81612 20.8721 9.76984 21.058C9.75141 21.1138 9.74003 21.1722 9.73572 21.2322C9.73101 21.2927 9.73807 21.3507 9.7565 21.4065C9.78396 21.537 9.85769 21.6389 9.9773 21.7132C10.0969 21.7876 10.2212 21.8154 10.3499 21.7969C10.4789 21.7779 10.6028 21.7457 10.7224 21.6993C10.8511 21.6528 10.966 21.5854 11.0672 21.4971C11.1684 21.4088 11.2648 21.3136 11.357 21.2113C11.5041 21.0533 11.6468 20.8814 11.7845 20.6955C11.8307 20.6491 11.8696 20.6003 11.9017 20.5491C11.9339 20.498 11.9684 20.4492 12.0053 20.4024C12.088 20.3931 12.1708 20.3815 12.2535 20.3675C12.3363 20.354 12.41 20.342 12.4743 20.3327C12.6398 20.2959 12.8006 20.2517 12.9571 20.2002C13.1136 20.1495 13.2697 20.091 13.4261 20.026C13.4548 20.014 13.4803 20 13.5081 19.9876C13.4563 20.081 13.4053 20.1731 13.3567 20.263C13.2465 20.4674 13.1453 20.6723 13.0532 20.8768C12.9889 21.044 12.9704 21.221 12.9979 21.4065C13.0441 21.6485 13.1865 21.7969 13.4253 21.8526C13.5265 21.8712 13.6254 21.8642 13.7222 21.8317C13.8187 21.7988 13.9085 21.7597 13.9913 21.7132C14.074 21.6671 14.1544 21.6156 14.2325 21.5599C14.3105 21.5041 14.3866 21.4483 14.4603 21.3926C14.414 21.4948 14.3705 21.5901 14.3289 21.6784C14.2878 21.7666 14.2438 21.8619 14.1979 21.9641C14.0964 22.1523 13.9975 22.3436 13.9011 22.5377C13.8046 22.7313 13.7148 22.9261 13.632 23.1212L13.6183 23.1352L13.4528 23.4698C13.3701 23.4883 13.2897 23.5093 13.2112 23.5325C13.1336 23.5557 13.0571 23.5766 12.9838 23.5952C12.6896 23.6882 12.4022 23.7974 12.1213 23.9228C11.8409 24.0483 11.5809 24.204 11.3417 24.3902C11.0934 24.5947 10.8864 24.8131 10.7209 25.0455C10.6377 25.1756 10.5601 25.3127 10.4864 25.4571C10.4126 25.6008 10.3667 25.7522 10.3483 25.9102C10.3209 26.0589 10.3299 26.2006 10.3758 26.3354C10.422 26.4701 10.5048 26.5793 10.624 26.663C10.7621 26.7652 10.9162 26.821 11.0864 26.8307C11.2566 26.84 11.4201 26.8117 11.5762 26.747C11.788 26.6634 11.9719 26.5425 12.128 26.3846C12.2845 26.2262 12.4316 26.0546 12.5696 25.8687C12.7261 25.6546 12.8685 25.4362 12.9975 25.2135C13.1265 24.9905 13.2551 24.7674 13.3838 24.544C13.5406 24.2745 13.6826 24.0142 13.8116 23.7633C13.8301 23.7633 13.8434 23.7583 13.8528 23.7493C14.6623 23.5449 15.4741 23.3567 16.2883 23.1847C17.1024 23.0124 17.9138 22.866 18.7237 22.7456C18.9351 22.7177 19.1398 22.6898 19.3379 22.662C19.5355 22.6341 19.7355 22.6108 19.9379 22.5923C20.1308 22.5737 20.3261 22.5574 20.5242 22.5435C20.7219 22.5295 20.9172 22.5133 21.1105 22.4947C22.0027 22.4296 22.8855 22.4296 23.7597 22.4947C23.8416 22.4997 23.9236 22.5109 24.006 22.5179C24.0056 22.5152 24.0005 22.5094 24.0044 22.5098C24.1362 22.5303 24.3029 22.4823 24.3236 22.3522C24.3393 22.2499 24.1574 22.1977 24.077 22.1795ZM13.0253 24.2582C12.961 24.3744 12.8963 24.4929 12.832 24.6137C12.7033 24.8274 12.5747 25.0389 12.4461 25.248C12.317 25.4571 12.1747 25.6592 12.0182 25.8544C11.8896 26.0124 11.77 26.1425 11.6598 26.2448C11.6503 26.254 11.6413 26.2606 11.6319 26.2657C11.6229 26.2703 11.6135 26.2773 11.6041 26.2866C11.5582 26.3145 11.5143 26.3423 11.4731 26.3702C11.4315 26.3981 11.388 26.4209 11.3417 26.4399C11.3233 26.4585 11.2958 26.4721 11.2589 26.4817C11.204 26.5003 11.1672 26.5096 11.1487 26.5096H11.1346L11.1209 26.5236H10.9829C10.9829 26.5143 10.9781 26.5096 10.9691 26.5096H10.9554C10.946 26.5096 10.9417 26.5046 10.9417 26.4957H10.9279L10.9142 26.4817C10.9052 26.4817 10.9005 26.4771 10.9005 26.4678L10.8868 26.4539C10.8777 26.4539 10.8726 26.4492 10.8726 26.4399C10.8542 26.4399 10.8409 26.4237 10.8315 26.3911C10.8224 26.3586 10.813 26.3377 10.804 26.3288V26.3009C10.795 26.3009 10.7903 26.2916 10.7903 26.273C10.7903 26.2544 10.7883 26.2382 10.7836 26.2242C10.7789 26.2103 10.7766 26.194 10.7766 26.1754C10.7675 26.0453 10.795 25.9059 10.8593 25.7572C10.9236 25.6085 10.9883 25.4784 11.0523 25.3669C11.2091 25.1066 11.3997 24.8859 11.6252 24.7047C11.8507 24.5234 12.0966 24.3678 12.3633 24.2377C12.6029 24.1072 12.8786 24.0007 13.1912 23.917C13.2006 23.9077 13.2096 23.9031 13.2187 23.9031C13.154 24.0231 13.0896 24.1416 13.0253 24.2582ZM6.58181 17.4744C6.71083 17.2978 6.83947 17.0976 6.9681 16.8746L7.17517 16.5539C7.20263 16.4982 7.23479 16.4517 7.27204 16.4145L7.2995 16.3727C7.30303 16.3692 7.30303 16.3688 7.30538 16.3665C7.29361 16.3789 7.29518 16.3816 7.31322 16.3727C7.35911 16.3448 7.37519 16.31 7.36146 16.2682C7.34734 16.2259 7.32695 16.1961 7.2995 16.1775C7.20733 16.1032 7.11517 16.0892 7.0234 16.1353C6.97712 16.1543 6.94065 16.1822 6.9132 16.219C6.88575 16.2561 6.8579 16.2937 6.83045 16.3305L6.62338 16.6511C6.55906 16.7441 6.4967 16.837 6.43709 16.93C6.37748 17.0229 6.31042 17.1158 6.23708 17.2088C6.0253 17.4783 5.82098 17.7525 5.62332 18.0313C5.42527 18.3101 5.22094 18.5889 5.00916 18.8681C4.56757 19.4633 4.13303 20.0581 3.70517 20.6529C3.49731 20.9418 3.29259 21.2346 3.09023 21.53C3.07689 21.5494 3.06356 21.5692 3.05022 21.5885C2.84982 21.8824 2.65138 22.1795 2.45646 22.48L1.93173 23.3307C1.91329 23.3675 1.89251 23.4051 1.86976 23.4423C1.6725 23.7703 1.44778 24.1234 1.32228 24.3786C1.32306 24.3825 1.32385 24.3864 1.32463 24.3902C1.33365 24.4367 1.34738 24.4785 1.3662 24.5157C1.40268 24.5901 1.46739 24.6412 1.55916 24.6691C1.59563 24.6876 1.64191 24.6946 1.6972 24.69C1.7525 24.6853 1.79368 24.6644 1.82152 24.6272C1.94114 24.4688 2.03565 24.2996 2.10468 24.118C2.17331 23.9368 2.25841 23.7625 2.35999 23.5952C2.43333 23.4558 2.51176 23.3183 2.59451 23.184C2.67726 23.0492 2.76472 22.9117 2.85688 22.7727C3.04081 22.4749 3.23376 22.1752 3.43652 21.8731C3.63849 21.5715 3.84557 21.2714 4.05734 20.9736C4.47109 20.3881 4.88955 19.8049 5.31271 19.224C5.73548 18.6435 6.15864 18.0603 6.58181 17.4744ZM7.31361 16.3584C7.31401 16.358 7.31165 16.3603 7.30616 16.3657C7.31165 16.3599 7.31401 16.358 7.31361 16.3584ZM1.80819 23.5677C1.80819 23.5604 1.81564 23.5453 1.82545 23.5282C1.81956 23.541 1.81368 23.5538 1.80819 23.5677ZM9.61336 24.6803C8.9643 23.9991 8.32975 23.3052 7.68422 22.6209C7.07164 21.9711 6.46611 21.245 5.73078 20.7269C5.71548 20.7161 5.70058 20.7052 5.6845 20.6955C5.61077 20.6305 5.53272 20.5794 5.44998 20.5422C6.13982 20.3563 6.81829 20.1356 7.485 19.88C8.1517 19.6244 8.79801 19.32 9.42354 18.9669C9.72709 18.7903 10.0212 18.6067 10.3067 18.4162C10.5915 18.2257 10.8723 18.0235 11.1484 17.8094C11.3872 17.6235 11.6264 17.4283 11.8656 17.2239C12.1049 17.0198 12.33 16.8056 12.5418 16.5826C12.7347 16.3781 12.9096 16.1504 13.0661 15.8995C13.2226 15.6486 13.3053 15.3744 13.3148 15.077C13.3148 14.7796 13.2226 14.524 13.0387 14.3099C12.8547 14.0961 12.6386 13.928 12.39 13.8053C12.2704 13.7472 12.1508 13.6992 12.0315 13.6604C11.9115 13.6217 11.7876 13.588 11.6586 13.559C11.5295 13.5299 11.3962 13.5129 11.2586 13.5083C11.1205 13.5036 10.9825 13.5013 10.8444 13.5013C10.4397 13.492 10.0373 13.5114 9.63728 13.5598C9.23687 13.6074 8.83919 13.6752 8.44348 13.7619C7.60657 13.9509 6.79005 14.2057 5.99432 14.5267C5.19859 14.8473 4.42364 15.2125 3.66948 15.6211C3.11768 15.9096 2.57961 16.2139 2.05526 16.5346C1.53092 16.8552 1.01128 17.1921 0.496348 17.5457C0.422618 17.6014 0.413206 17.6618 0.468896 17.7269C0.515173 17.7815 0.56145 17.816 0.607727 17.8377C0.792444 17.8934 1.07952 17.7114 1.15482 17.6599C1.156 17.6591 1.15756 17.658 1.15874 17.6572C1.16423 17.6533 1.16972 17.6498 1.17521 17.6464C1.84623 17.1964 2.52588 16.7716 3.21455 16.3743C3.92283 15.9653 4.64954 15.5889 5.39468 15.2447C5.78097 15.0685 6.16727 14.9054 6.55357 14.7567C6.93987 14.608 7.33518 14.4733 7.74031 14.3524C8.13562 14.2409 8.53565 14.1433 8.94038 14.0597C9.12431 14.0229 9.3106 13.9904 9.49923 13.9621C9.68748 13.9342 9.88749 13.9114 10.0997 13.8924L10.6789 13.8645H11.1758C11.157 13.8645 11.1527 13.8672 11.1617 13.8715C11.1707 13.8761 11.1801 13.8785 11.1891 13.8785H11.4033C11.4629 13.8785 11.5205 13.8878 11.5754 13.9063C11.5939 13.9063 11.6147 13.9087 11.6374 13.9133C11.6605 13.918 11.6809 13.9203 11.6998 13.9203H11.7135L11.7966 13.9482L11.9484 13.99L12.0174 14.0179C12.0359 14.0179 12.0496 14.0225 12.059 14.0318H12.0727C12.1002 14.0508 12.1257 14.062 12.1488 14.0667C12.1715 14.0717 12.1923 14.0829 12.2108 14.1015L12.2935 14.1433L12.321 14.1712H12.3484L12.4724 14.2688L12.5414 14.3246C12.5139 14.3064 12.5045 14.3017 12.5139 14.311C12.5229 14.3203 12.5324 14.325 12.5414 14.325L12.5688 14.3672L12.6241 14.4369C12.6331 14.4462 12.6469 14.4624 12.6657 14.4857C12.6708 14.4926 12.6712 14.4922 12.6735 14.495L12.7484 14.6464C12.7484 14.6557 12.7504 14.663 12.7555 14.6677C12.7598 14.6723 12.7626 14.6793 12.7626 14.6886L12.7763 14.7165C12.7853 14.735 12.79 14.7633 12.79 14.8001C12.799 14.8466 12.8037 14.9209 12.8037 15.0235V15.1211C12.8037 15.1397 12.799 15.1537 12.79 15.1626C12.79 15.2276 12.7763 15.288 12.7484 15.3442C12.739 15.3907 12.7163 15.4511 12.6794 15.5254L12.6382 15.6091C12.6382 15.6184 12.6288 15.6323 12.6108 15.6509C12.6292 15.6323 12.6312 15.6323 12.6175 15.6509C12.6037 15.6695 12.5967 15.6834 12.5967 15.6927C12.5598 15.7578 12.521 15.8182 12.4794 15.8739C12.4382 15.9301 12.3943 15.9905 12.3484 16.0552C12.2472 16.1853 12.1433 16.3061 12.0378 16.4176C11.9319 16.5292 11.8194 16.6364 11.6998 16.7383C11.626 16.813 11.5456 16.8846 11.4582 16.9543C11.3707 17.0241 11.2213 17.1476 11.0099 17.3238C10.7522 17.519 10.4922 17.7118 10.2303 17.9027C9.96828 18.0932 9.69885 18.2768 9.42315 18.4534C9.10078 18.6578 8.76743 18.8464 8.4227 19.018C8.07797 19.1899 7.7305 19.346 7.38107 19.4854C6.5069 19.8386 5.6194 20.1174 4.71817 20.3222C4.67189 20.3315 4.64248 20.3524 4.62836 20.3846C4.61463 20.4175 4.61659 20.4566 4.63542 20.5031C4.64444 20.5681 4.6813 20.6169 4.74562 20.6494C4.88445 20.7195 5.03466 20.7404 5.16878 20.8229C5.81784 21.2237 6.34101 21.7996 6.85202 22.3537C7.59873 23.1638 8.37328 23.965 9.03372 24.8468C9.16902 25.0273 9.33373 25.2298 9.5612 25.2325C9.6263 25.2333 9.69454 25.2147 9.74042 25.1686C9.8067 25.1024 9.8118 24.994 9.77729 24.9072C9.74395 24.8181 9.67807 24.7481 9.61336 24.6803ZM11.7284 13.9257C11.719 13.9211 11.71 13.9187 11.7009 13.9187H11.6735C11.719 13.928 11.7374 13.9304 11.7284 13.9257Z" fill="url(#paint2_linear_2615_4731)"/>
<defs>
<linearGradient id="paint0_linear_2615_4731" x1="0.735995" y1="-1.11133" x2="24.9991" y2="15.154" gradientUnits="userSpaceOnUse">
<stop stop-color="#9A3A1F"/>
<stop offset="0.1673" stop-color="#A95822"/>
<stop offset="0.3309" stop-color="#C48021"/>
<stop offset="0.4984" stop-color="#D8A753"/>
<stop offset="0.6663" stop-color="#E6C673"/>
<stop offset="0.7963" stop-color="#ECD077"/>
<stop offset="0.8302" stop-color="#EED478"/>
<stop offset="1" stop-color="#F8F090"/>
</linearGradient>
<linearGradient id="paint1_linear_2615_4731" x1="18.7235" y1="9.33267" x2="28.6996" y2="9.33267" gradientUnits="userSpaceOnUse">
<stop stop-color="#9A3A1F"/>
<stop offset="0.1673" stop-color="#A95822"/>
<stop offset="0.3309" stop-color="#C48021"/>
<stop offset="0.4984" stop-color="#D8A753"/>
<stop offset="0.6663" stop-color="#E6C673"/>
<stop offset="0.7963" stop-color="#ECD077"/>
<stop offset="0.8302" stop-color="#EED478"/>
<stop offset="1" stop-color="#F8F090"/>
</linearGradient>
<linearGradient id="paint2_linear_2615_4731" x1="-12.3888" y1="13.5983" x2="33.4349" y2="25.6494" gradientUnits="userSpaceOnUse">
<stop offset="0.3309" stop-color="#C48021"/>
<stop offset="0.4984" stop-color="#D8A753"/>
<stop offset="0.6663" stop-color="#E6C673"/>
<stop offset="0.7963" stop-color="#ECD077"/>
<stop offset="0.8302" stop-color="#EED478"/>
<stop offset="1" stop-color="#F8F090"/>
</linearGradient>
</defs>
</svg>
